<?xml version="1.0" encoding="UTF-8" standalone="no"?>
<!-- Created with Inkscape (http://www.inkscape.org/) -->

<svg
   xmlns:dc="http://purl.org/dc/elements/1.1/"
   xmlns:cc="http://creativecommons.org/ns#"
   xmlns:rdf="http://www.w3.org/1999/02/22-rdf-syntax-ns#"
   xmlns:svg="http://www.w3.org/2000/svg"
   xmlns="http://www.w3.org/2000/svg"
   xmlns:sodipodi="http://sodipodi.sourceforge.net/DTD/sodipodi-0.dtd"
   xmlns:inkscape="http://www.inkscape.org/namespaces/inkscape"
   id="svg12226"
   sodipodi:version="0.32"
   inkscape:version="0.48.2 r9819"
   width="355.5"
   height="213.77374"
   xml:space="preserve"
   sodipodi:docname="fig-5-9.svg"
   version="1.0"
   inkscape:output_extension="org.inkscape.output.svg.inkscape"><metadata
     id="metadata12231"><rdf:RDF><cc:Work
         rdf:about=""><dc:format>image/svg+xml</dc:format><dc:type
           rdf:resource="http://purl.org/dc/dcmitype/StillImage" /></cc:Work></rdf:RDF></metadata><defs
     id="defs12229"><inkscape:perspective
   sodipodi:type="inkscape:persp3d"
   inkscape:vp_x="0 : 526.18109 : 1"
   inkscape:vp_y="0 : 1000 : 0"
   inkscape:vp_z="744.09448 : 526.18109 : 1"
   inkscape:persp3d-origin="372.04724 : 350.78739 : 1"
   id="perspective12233" /><clipPath
   clipPathUnits="userSpaceOnUse"
   id="clipPath12249"><path
     d="M 0,0 L 287,0 L 287,173 L 0,173 L 0,0 z"
     id="path12251" /></clipPath><clipPath
   clipPathUnits="userSpaceOnUse"
   id="clipPath12275"><path
     d="M 0,0 L 287,0 L 287,173 L 0,173 L 0,0 z M 102.311,81.801 L 95.57,88.479 L 92.924,85.834 L 99.602,79.092 L 95.633,85.77 L 102.311,81.801 z"
     clip-rule="evenodd"
     id="path12277" /></clipPath><clipPath
   clipPathUnits="userSpaceOnUse"
   id="clipPath12285"><path
     d="M 0,0 L 287,0 L 287,173 L 0,173 L 0,0 z"
     id="path12287" /></clipPath>


</defs><sodipodi:namedview
     inkscape:window-height="1006"
     inkscape:window-width="1600"
     inkscape:pageshadow="2"
     inkscape:pageopacity="0.0"
     guidetolerance="10.0"
     gridtolerance="10.0"
     objecttolerance="10.0"
     borderopacity="1.0"
     bordercolor="#666666"
     pagecolor="#ffffff"
     id="base"
     showgrid="false"
     inkscape:zoom="1.91777"
     inkscape:cx="220.18049"
     inkscape:cy="107.19552"
     inkscape:window-x="0"
     inkscape:window-y="25"
     inkscape:current-layer="g12235"
     inkscape:window-maximized="0" /><g
     id="g12235"
     inkscape:groupmode="layer"
     inkscape:label="fig-5-9"
     transform="matrix(1.25,0,0,-1.25,-1.159375,214.96562)"><g
   id="g12245"><g
     id="g12247"
     clip-path="url(#clipPath12249)"><path
       d="M 1.4,1.426 L 284.855,1.426 L 284.855,171.5 L 1.4,171.5 L 1.4,1.426 z"
       style="fill:#e6e6e6;fill-opacity:1;fill-rule:evenodd;stroke:none"
       id="path12253" /><path
       d="M 1.4,1.426 L 284.855,1.426 L 284.855,171.5 L 1.4,171.5 L 1.4,1.426 z"
       style="fill:none;stroke:#000000;stroke-width:0.94499999;stroke-linecap:butt;stroke-linejoin:miter;stroke-miterlimit:10;stroke-dasharray:none;stroke-opacity:1"
       id="path12255" /><path
       d="M 92.105,55.282 C 93.575,50.243 98.195,46.779 103.444,46.779 C 108.693,46.779 113.313,50.244 114.782,55.283"
       style="fill:#ffffff;fill-opacity:1;fill-rule:evenodd;stroke:none"
       id="path12257" /><path
       d="M 92.105,55.282 C 93.575,50.243 98.195,46.779 103.444,46.779 C 108.693,46.779 113.313,50.244 114.782,55.283"
       style="fill:none;stroke:#000000;stroke-width:0.94499999;stroke-linecap:butt;stroke-linejoin:miter;stroke-miterlimit:10;stroke-dasharray:none;stroke-opacity:1"
       id="path12259" /><path
       d="M 199.818,55.283 C 198.35,50.244 193.729,46.779 188.48,46.779 C 183.231,46.779 178.612,50.243 177.143,55.282"
       style="fill:#ffffff;fill-opacity:1;fill-rule:evenodd;stroke:none"
       id="path12261" /><path
       d="M 199.818,55.283 C 198.35,50.244 193.729,46.779 188.48,46.779 C 183.231,46.779 178.612,50.243 177.143,55.282"
       style="fill:none;stroke:#000000;stroke-width:0.94499999;stroke-linecap:butt;stroke-linejoin:miter;stroke-miterlimit:10;stroke-dasharray:none;stroke-opacity:1"
       id="path12263" /><path
       d="M 92.105,55.282 L 69.43,55.282 L 69.43,80.793 L 114.781,92.133 L 137.458,117.643 L 171.473,117.643 L 191.315,83.629 L 211.157,83.629 L 211.157,55.282 L 69.43,55.282"
       style="fill:#ffffff;fill-opacity:1;fill-rule:evenodd;stroke:none"
       id="path12265" /><path
       d="M 177.143,55.282 L 114.781,55.282"
       style="fill:none;stroke:#000000;stroke-width:0.94499999;stroke-linecap:butt;stroke-linejoin:miter;stroke-miterlimit:10;stroke-dasharray:none;stroke-opacity:1"
       id="path12267" /><path
       d="M 92.105,55.282 L 69.43,55.282 L 69.43,80.793 L 114.781,92.133 L 137.458,117.643 L 171.473,117.643 L 191.315,83.629 L 211.157,83.629 L 211.157,55.282 L 199.818,55.282"
       style="fill:none;stroke:#000000;stroke-width:0.94499999;stroke-linecap:butt;stroke-linejoin:miter;stroke-miterlimit:10;stroke-dasharray:none;stroke-opacity:1"
       id="path12269" /></g></g><g
   id="g12271"><g
     id="g12273"
     clip-path="url(#clipPath12275)"><path
       d="M 94.939,86.463 L 114.781,66.621"
       style="fill:none;stroke:#000000;stroke-width:0.472;stroke-linecap:butt;stroke-linejoin:miter;stroke-miterlimit:10;stroke-dasharray:none;stroke-opacity:1"
       id="path12279" /></g></g><g
   id="g12281"><g
     id="g12283"
     clip-path="url(#clipPath12285)"><path
       d="M 102.311,81.801 L 95.633,85.77 L 99.602,79.092 L 102.311,81.801 z"
       style="fill:#000000;fill-opacity:1;fill-rule:evenodd;stroke:none"
       id="path12289" /><path
       d="M 102.311,81.801 L 95.633,85.77 L 99.602,79.092 L 102.311,81.801 z"
       style="fill:none;stroke:#000000;stroke-width:0.472;stroke-linecap:butt;stroke-linejoin:miter;stroke-miterlimit:10;stroke-dasharray:none;stroke-opacity:1"
       id="path12291" /></g></g><text
   transform="scale(1,-1)"
   id="text12293"
   x="116.8569"
   y="-60.920399"
   style="-inkscape-font-specification:LMRoman12;font-family:LMRoman12;font-weight:normal;font-style:normal;font-stretch:normal;font-variant:normal;font-size:11.95510025px;text-anchor:start;text-align:start;writing-mode:lr;line-height:125%"
   sodipodi:linespacing="125%"><tspan
     style="font-size:11.95510025px;font-variant:normal;font-weight:normal;font-stretch:normal;writing-mode:lr;fill:#000000;fill-opacity:1;fill-rule:nonzero;stroke:none;font-family:LMRoman12;-inkscape-font-specification:LMRoman12;font-style:normal;text-anchor:start;text-align:start;line-height:125%"
     x="116.8569 123.36047"
     y="-60.920399"
     sodipodi:role="line"
     id="tspan12295">STL</tspan></text>

<text
   xml:space="preserve"
   style="font-size:12px;font-style:normal;font-variant:normal;font-weight:normal;font-stretch:normal;text-align:start;line-height:125%;writing-mode:lr-tb;text-anchor:start;fill:#000000;fill-opacity:1;stroke:none;stroke-width:1px;stroke-linecap:butt;stroke-linejoin:miter;stroke-opacity:1;font-family:'IPA明朝';-inkscape-font-specification:'IPA明朝'"
   x="141.67245"
   y="-60.240143"
   id="text3260"
   sodipodi:linespacing="125%"
   transform="scale(1,-1)"><tspan
     sodipodi:role="line"
     id="tspan3262"
     x="141.67245"
     y="-60.240143">表面形状</tspan></text>

</g></svg>