<?xml version="1.0" encoding="UTF-8" standalone="no"?>
<!-- Created with Inkscape (http://www.inkscape.org/) -->
<svg
   xmlns:dc="http://purl.org/dc/elements/1.1/"
   xmlns:cc="http://creativecommons.org/ns#"
   xmlns:rdf="http://www.w3.org/1999/02/22-rdf-syntax-ns#"
   xmlns:svg="http://www.w3.org/2000/svg"
   xmlns="http://www.w3.org/2000/svg"
   xmlns:sodipodi="http://sodipodi.sourceforge.net/DTD/sodipodi-0.dtd"
   xmlns:inkscape="http://www.inkscape.org/namespaces/inkscape"
   id="svg15917"
   sodipodi:version="0.32"
   inkscape:version="0.46"
   width="442.7323"
   height="265.3887"
   xml:space="preserve"
   sodipodi:docname="fig-6-5.svg"
   version="1.0"
   inkscape:output_extension="org.inkscape.output.svg.inkscape"><metadata
     id="metadata15922"><rdf:RDF><cc:Work
         rdf:about=""><dc:format>image/svg+xml</dc:format><dc:type
           rdf:resource="http://purl.org/dc/dcmitype/StillImage" /></cc:Work></rdf:RDF></metadata><defs
     id="defs15920"><inkscape:perspective
       sodipodi:type="inkscape:persp3d"
       inkscape:vp_x="0 : 526.18109 : 1"
       inkscape:vp_y="0 : 1000 : 0"
       inkscape:vp_z="744.09448 : 526.18109 : 1"
       inkscape:persp3d-origin="372.04724 : 350.78739 : 1"
       id="perspective15924" /></defs><sodipodi:namedview
     inkscape:window-height="722"
     inkscape:window-width="789"
     inkscape:pageshadow="2"
     inkscape:pageopacity="0.0"
     guidetolerance="10.0"
     gridtolerance="10.0"
     objecttolerance="10.0"
     borderopacity="1.0"
     bordercolor="#666666"
     pagecolor="#ffffff"
     id="base"
     showgrid="false"
     inkscape:zoom="1.5503177"
     inkscape:cx="221.89"
     inkscape:cy="133.5275"
     inkscape:window-x="0"
     inkscape:window-y="25"
     inkscape:current-layer="g15926" /><g
     id="g15926"
     inkscape:groupmode="layer"
     inkscape:label="fig-6-5"
     transform="matrix(1.25,0,0,-1.25,-2.3373792,265.60235)"><g
       clip-path="none"
       id="g15930"><path
         id="path15936"
         style="fill:none;stroke:#000000;stroke-width:1;stroke-linecap:butt;stroke-linejoin:miter;stroke-miterlimit:10;stroke-dasharray:none;stroke-opacity:1"
         d="M 49.833,31.144 L 56.133,31.144 M 344.834,31.144 L 338.533,31.144 M 49.833,41.745 L 52.933,41.745 M 344.834,41.745 L 341.734,41.745 M 49.833,55.745 L 52.933,55.745 M 344.834,55.745 L 341.734,55.745 M 49.833,62.944 L 52.933,62.944 M 344.834,62.944 L 341.734,62.944 M 49.833,66.345 L 56.133,66.345 M 344.834,66.345 L 338.533,66.345 M 49.833,76.944 L 52.933,76.944 M 344.834,76.944 L 341.734,76.944 M 49.833,90.944 L 52.933,90.944 M 344.834,90.944 L 341.734,90.944 M 49.833,98.144 L 52.933,98.144 M 344.834,98.144 L 341.734,98.144 M 49.833,101.544 L 56.133,101.544 M 344.834,101.544 L 338.533,101.544 M 49.833,112.143 L 52.933,112.143 M 344.834,112.143 L 341.734,112.143 M 49.833,126.144 L 52.933,126.144 M 344.834,126.144 L 341.734,126.144 M 49.833,133.344 L 52.933,133.344 M 344.834,133.344 L 341.734,133.344 M 49.833,136.744 L 56.133,136.744 M 344.834,136.744 L 338.533,136.744 M 49.833,147.344 L 52.933,147.344 M 344.834,147.344 L 341.734,147.344 M 49.833,161.344 L 52.933,161.344 M 344.834,161.344 L 341.734,161.344 M 49.833,168.543 L 52.933,168.543 M 344.834,168.543 L 341.734,168.543 M 49.833,171.943 L 56.133,171.943 M 344.834,171.943 L 338.533,171.943 M 49.833,182.543 L 52.933,182.543 M 344.834,182.543 L 341.734,182.543 M 49.833,196.543 L 52.933,196.543 M 344.834,196.543 L 341.734,196.543 M 49.833,203.744 L 52.933,203.744 M 344.834,203.744 L 341.734,203.744 M 49.833,207.144 L 56.133,207.144 M 344.834,207.144 L 338.533,207.144 M 49.833,31.144 L 49.833,37.444 M 49.833,207.144 L 49.833,200.844 M 82.633,31.144 L 82.633,37.444 M 82.633,207.144 L 82.633,200.844 M 115.433,31.144 L 115.433,37.444 M 115.433,207.144 L 115.433,200.844 M 148.134,31.144 L 148.134,37.444 M 148.134,207.144 L 148.134,200.844 M 180.934,31.144 L 180.934,37.444 M 180.934,207.144 L 180.934,200.844 M 213.734,31.144 L 213.734,37.444 M 213.734,207.144 L 213.734,200.844 M 246.533,31.144 L 246.533,37.444 M 246.533,207.144 L 246.533,200.844 M 279.234,31.144 L 279.234,37.444 M 279.234,207.144 L 279.234,200.844 M 312.033,31.144 L 312.033,37.444 M 312.033,207.144 L 312.033,200.844 M 344.834,31.144 L 344.834,37.444 M 344.834,207.144 L 344.834,200.844" /><path
         id="path15938"
         style="fill:none;stroke:#000000;stroke-width:1;stroke-linecap:butt;stroke-linejoin:miter;stroke-miterlimit:10;stroke-dasharray:none;stroke-opacity:1"
         d="M 49.833,31.144 L 344.834,31.144 L 344.834,207.144 L 49.833,207.144 L 49.833,31.144 z" /><path
         id="path15940"
         style="fill:none;stroke:#000000;stroke-width:1;stroke-linecap:butt;stroke-linejoin:miter;stroke-miterlimit:10;stroke-dasharray:none;stroke-opacity:1"
         d="M 60.553,207.144 C 60.553,208.535 59.424,209.664 58.033,209.664 C 56.641,209.664 55.513,208.535 55.513,207.144 C 55.513,205.752 56.641,204.623 58.033,204.623 C 59.424,204.623 60.553,205.752 60.553,207.144" /><path
         id="path15942"
         style="fill:none;stroke:#000000;stroke-width:1;stroke-linecap:round;stroke-linejoin:miter;stroke-miterlimit:10;stroke-dasharray:none;stroke-opacity:1"
         d="M 58.033,207.144 L 58.033,207.144" /><path
         id="path15944"
         style="fill:none;stroke:#000000;stroke-width:1;stroke-linecap:butt;stroke-linejoin:miter;stroke-miterlimit:10;stroke-dasharray:none;stroke-opacity:1"
         d="M 68.753,178.043 C 68.753,179.435 67.624,180.563 66.233,180.563 C 64.842,180.563 63.713,179.435 63.713,178.043 C 63.713,176.652 64.842,175.523 66.233,175.523 C 67.624,175.523 68.753,176.652 68.753,178.043" /><path
         id="path15946"
         style="fill:none;stroke:#000000;stroke-width:1;stroke-linecap:round;stroke-linejoin:miter;stroke-miterlimit:10;stroke-dasharray:none;stroke-opacity:1"
         d="M 66.233,178.043 L 66.233,178.043" /><path
         id="path15948"
         style="fill:none;stroke:#000000;stroke-width:1;stroke-linecap:butt;stroke-linejoin:miter;stroke-miterlimit:10;stroke-dasharray:none;stroke-opacity:1"
         d="M 76.953,159.644 C 76.953,161.035 75.824,162.164 74.434,162.164 C 73.041,162.164 71.913,161.035 71.913,159.644 C 71.913,158.252 73.041,157.123 74.434,157.123 C 75.824,157.123 76.953,158.252 76.953,159.644" /><path
         id="path15950"
         style="fill:none;stroke:#000000;stroke-width:1;stroke-linecap:round;stroke-linejoin:miter;stroke-miterlimit:10;stroke-dasharray:none;stroke-opacity:1"
         d="M 74.434,159.644 L 74.434,159.644" /><path
         id="path15952"
         style="fill:none;stroke:#000000;stroke-width:1;stroke-linecap:butt;stroke-linejoin:miter;stroke-miterlimit:10;stroke-dasharray:none;stroke-opacity:1"
         d="M 85.153,149.844 C 85.153,151.234 84.024,152.363 82.633,152.363 C 81.241,152.363 80.113,151.234 80.113,149.844 C 80.113,148.453 81.241,147.324 82.633,147.324 C 84.024,147.324 85.153,148.453 85.153,149.844" /><path
         id="path15954"
         style="fill:none;stroke:#000000;stroke-width:1;stroke-linecap:round;stroke-linejoin:miter;stroke-miterlimit:10;stroke-dasharray:none;stroke-opacity:1"
         d="M 82.633,149.844 L 82.633,149.844" /><path
         id="path15956"
         style="fill:none;stroke:#000000;stroke-width:1;stroke-linecap:butt;stroke-linejoin:miter;stroke-miterlimit:10;stroke-dasharray:none;stroke-opacity:1"
         d="M 93.354,142.844 C 93.354,144.234 92.225,145.363 90.833,145.363 C 89.441,145.363 88.313,144.234 88.313,142.844 C 88.313,141.453 89.441,140.324 90.833,140.324 C 92.225,140.324 93.354,141.453 93.354,142.844" /><path
         id="path15958"
         style="fill:none;stroke:#000000;stroke-width:1;stroke-linecap:round;stroke-linejoin:miter;stroke-miterlimit:10;stroke-dasharray:none;stroke-opacity:1"
         d="M 90.833,142.844 L 90.833,142.844" /><path
         id="path15960"
         style="fill:none;stroke:#000000;stroke-width:1;stroke-linecap:butt;stroke-linejoin:miter;stroke-miterlimit:10;stroke-dasharray:none;stroke-opacity:1"
         d="M 101.554,137.144 C 101.554,138.535 100.425,139.664 99.033,139.664 C 97.641,139.664 96.514,138.535 96.514,137.144 C 96.514,135.752 97.641,134.623 99.033,134.623 C 100.425,134.623 101.554,135.752 101.554,137.144" /><path
         id="path15962"
         style="fill:none;stroke:#000000;stroke-width:1;stroke-linecap:round;stroke-linejoin:miter;stroke-miterlimit:10;stroke-dasharray:none;stroke-opacity:1"
         d="M 99.033,137.144 L 99.033,137.144" /><path
         id="path15964"
         style="fill:none;stroke:#000000;stroke-width:1;stroke-linecap:butt;stroke-linejoin:miter;stroke-miterlimit:10;stroke-dasharray:none;stroke-opacity:1"
         d="M 109.753,132.043 C 109.753,133.435 108.624,134.563 107.233,134.563 C 105.841,134.563 104.714,133.435 104.714,132.043 C 104.714,130.652 105.841,129.523 107.233,129.523 C 108.624,129.523 109.753,130.652 109.753,132.043" /><path
         id="path15966"
         style="fill:none;stroke:#000000;stroke-width:1;stroke-linecap:round;stroke-linejoin:miter;stroke-miterlimit:10;stroke-dasharray:none;stroke-opacity:1"
         d="M 107.233,132.043 L 107.233,132.043" /><path
         id="path15968"
         style="fill:none;stroke:#000000;stroke-width:1;stroke-linecap:butt;stroke-linejoin:miter;stroke-miterlimit:10;stroke-dasharray:none;stroke-opacity:1"
         d="M 117.953,127.443 C 117.953,128.834 116.824,129.963 115.433,129.963 C 114.041,129.963 112.913,128.834 112.913,127.443 C 112.913,126.053 114.041,124.924 115.433,124.924 C 116.824,124.924 117.953,126.053 117.953,127.443" /><path
         id="path15970"
         style="fill:none;stroke:#000000;stroke-width:1;stroke-linecap:round;stroke-linejoin:miter;stroke-miterlimit:10;stroke-dasharray:none;stroke-opacity:1"
         d="M 115.433,127.443 L 115.433,127.443" /><path
         id="path15972"
         style="fill:none;stroke:#000000;stroke-width:1;stroke-linecap:butt;stroke-linejoin:miter;stroke-miterlimit:10;stroke-dasharray:none;stroke-opacity:1"
         d="M 126.054,123.043 C 126.054,124.435 124.925,125.563 123.533,125.563 C 122.142,125.563 121.013,124.435 121.013,123.043 C 121.013,121.652 122.142,120.523 123.533,120.523 C 124.925,120.523 126.054,121.652 126.054,123.043" /><path
         id="path15974"
         style="fill:none;stroke:#000000;stroke-width:1;stroke-linecap:round;stroke-linejoin:miter;stroke-miterlimit:10;stroke-dasharray:none;stroke-opacity:1"
         d="M 123.533,123.043 L 123.533,123.043" /><path
         id="path15976"
         style="fill:none;stroke:#000000;stroke-width:1;stroke-linecap:butt;stroke-linejoin:miter;stroke-miterlimit:10;stroke-dasharray:none;stroke-opacity:1"
         d="M 134.253,119.043 C 134.253,120.435 133.124,121.563 131.733,121.563 C 130.341,121.563 129.214,120.435 129.214,119.043 C 129.214,117.652 130.341,116.523 131.733,116.523 C 133.124,116.523 134.253,117.652 134.253,119.043" /><path
         id="path15978"
         style="fill:none;stroke:#000000;stroke-width:1;stroke-linecap:round;stroke-linejoin:miter;stroke-miterlimit:10;stroke-dasharray:none;stroke-opacity:1"
         d="M 131.733,119.043 L 131.733,119.043" /><path
         id="path15980"
         style="fill:none;stroke:#000000;stroke-width:1;stroke-linecap:butt;stroke-linejoin:miter;stroke-miterlimit:10;stroke-dasharray:none;stroke-opacity:1"
         d="M 142.453,115.043 C 142.453,116.435 141.324,117.563 139.933,117.563 C 138.541,117.563 137.413,116.435 137.413,115.043 C 137.413,113.653 138.541,112.524 139.933,112.524 C 141.324,112.524 142.453,113.653 142.453,115.043" /><path
         id="path15982"
         style="fill:none;stroke:#000000;stroke-width:1;stroke-linecap:round;stroke-linejoin:miter;stroke-miterlimit:10;stroke-dasharray:none;stroke-opacity:1"
         d="M 139.933,115.043 L 139.933,115.043" /><path
         id="path15984"
         style="fill:none;stroke:#000000;stroke-width:1;stroke-linecap:butt;stroke-linejoin:miter;stroke-miterlimit:10;stroke-dasharray:none;stroke-opacity:1"
         d="M 150.653,111.143 C 150.653,112.536 149.524,113.665 148.134,113.665 C 146.741,113.665 145.613,112.536 145.613,111.143 C 145.613,109.752 146.741,108.624 148.134,108.624 C 149.524,108.624 150.653,109.752 150.653,111.143" /><path
         id="path15986"
         style="fill:none;stroke:#000000;stroke-width:1;stroke-linecap:round;stroke-linejoin:miter;stroke-miterlimit:10;stroke-dasharray:none;stroke-opacity:1"
         d="M 148.134,111.143 L 148.134,111.143" /><path
         id="path15988"
         style="fill:none;stroke:#000000;stroke-width:1;stroke-linecap:butt;stroke-linejoin:miter;stroke-miterlimit:10;stroke-dasharray:none;stroke-opacity:1"
         d="M 158.853,107.344 C 158.853,108.735 157.724,109.864 156.333,109.864 C 154.941,109.864 153.813,108.735 153.813,107.344 C 153.813,105.954 154.941,104.825 156.333,104.825 C 157.724,104.825 158.853,105.954 158.853,107.344" /><path
         id="path15990"
         style="fill:none;stroke:#000000;stroke-width:1;stroke-linecap:round;stroke-linejoin:miter;stroke-miterlimit:10;stroke-dasharray:none;stroke-opacity:1"
         d="M 156.333,107.344 L 156.333,107.344" /><path
         id="path15992"
         style="fill:none;stroke:#000000;stroke-width:1;stroke-linecap:butt;stroke-linejoin:miter;stroke-miterlimit:10;stroke-dasharray:none;stroke-opacity:1"
         d="M 167.054,103.644 C 167.054,105.036 165.925,106.165 164.533,106.165 C 163.142,106.165 162.013,105.036 162.013,103.644 C 162.013,102.253 163.142,101.124 164.533,101.124 C 165.925,101.124 167.054,102.253 167.054,103.644" /><path
         id="path15994"
         style="fill:none;stroke:#000000;stroke-width:1;stroke-linecap:round;stroke-linejoin:miter;stroke-miterlimit:10;stroke-dasharray:none;stroke-opacity:1"
         d="M 164.533,103.644 L 164.533,103.644" /><path
         id="path15996"
         style="fill:none;stroke:#000000;stroke-width:1;stroke-linecap:butt;stroke-linejoin:miter;stroke-miterlimit:10;stroke-dasharray:none;stroke-opacity:1"
         d="M 175.253,99.944 C 175.253,101.335 174.124,102.464 172.733,102.464 C 171.341,102.464 170.214,101.335 170.214,99.944 C 170.214,98.554 171.341,97.425 172.733,97.425 C 174.124,97.425 175.253,98.554 175.253,99.944" /><path
         id="path15998"
         style="fill:none;stroke:#000000;stroke-width:1;stroke-linecap:round;stroke-linejoin:miter;stroke-miterlimit:10;stroke-dasharray:none;stroke-opacity:1"
         d="M 172.733,99.944 L 172.733,99.944" /><path
         id="path16000"
         style="fill:none;stroke:#000000;stroke-width:1;stroke-linecap:butt;stroke-linejoin:miter;stroke-miterlimit:10;stroke-dasharray:none;stroke-opacity:1"
         d="M 183.453,96.345 C 183.453,97.735 182.324,98.864 180.934,98.864 C 179.541,98.864 178.412,97.735 178.412,96.345 C 178.412,94.954 179.541,93.825 180.934,93.825 C 182.324,93.825 183.453,94.954 183.453,96.345" /><path
         id="path16002"
         style="fill:none;stroke:#000000;stroke-width:1;stroke-linecap:round;stroke-linejoin:miter;stroke-miterlimit:10;stroke-dasharray:none;stroke-opacity:1"
         d="M 180.934,96.345 L 180.934,96.345" /><path
         id="path16004"
         style="fill:none;stroke:#000000;stroke-width:1;stroke-linecap:butt;stroke-linejoin:miter;stroke-miterlimit:10;stroke-dasharray:none;stroke-opacity:1"
         d="M 191.654,92.745 C 191.654,94.136 190.525,95.265 189.133,95.265 C 187.742,95.265 186.613,94.136 186.613,92.745 C 186.613,91.353 187.742,90.224 189.133,90.224 C 190.525,90.224 191.654,91.353 191.654,92.745" /><path
         id="path16006"
         style="fill:none;stroke:#000000;stroke-width:1;stroke-linecap:round;stroke-linejoin:miter;stroke-miterlimit:10;stroke-dasharray:none;stroke-opacity:1"
         d="M 189.133,92.745 L 189.133,92.745" /><path
         id="path16008"
         style="fill:none;stroke:#000000;stroke-width:1;stroke-linecap:butt;stroke-linejoin:miter;stroke-miterlimit:10;stroke-dasharray:none;stroke-opacity:1"
         d="M 199.854,89.144 C 199.854,90.536 198.725,91.665 197.334,91.665 C 195.941,91.665 194.814,90.536 194.814,89.144 C 194.814,87.753 195.941,86.624 197.334,86.624 C 198.725,86.624 199.854,87.753 199.854,89.144" /><path
         id="path16010"
         style="fill:none;stroke:#000000;stroke-width:1;stroke-linecap:round;stroke-linejoin:miter;stroke-miterlimit:10;stroke-dasharray:none;stroke-opacity:1"
         d="M 197.334,89.144 L 197.334,89.144" /><path
         id="path16012"
         style="fill:none;stroke:#000000;stroke-width:1;stroke-linecap:butt;stroke-linejoin:miter;stroke-miterlimit:10;stroke-dasharray:none;stroke-opacity:1"
         d="M 208.053,85.444 C 208.053,86.835 206.924,87.964 205.533,87.964 C 204.143,87.964 203.014,86.835 203.014,85.444 C 203.014,84.054 204.143,82.925 205.533,82.925 C 206.924,82.925 208.053,84.054 208.053,85.444" /><path
         id="path16014"
         style="fill:none;stroke:#000000;stroke-width:1;stroke-linecap:round;stroke-linejoin:miter;stroke-miterlimit:10;stroke-dasharray:none;stroke-opacity:1"
         d="M 205.533,85.444 L 205.533,85.444" /><path
         id="path16016"
         style="fill:none;stroke:#000000;stroke-width:1;stroke-linecap:butt;stroke-linejoin:miter;stroke-miterlimit:10;stroke-dasharray:none;stroke-opacity:1"
         d="M 216.254,81.845 C 216.254,83.235 215.125,84.364 213.734,84.364 C 212.342,84.364 211.213,83.235 211.213,81.845 C 211.213,80.454 212.342,79.325 213.734,79.325 C 215.125,79.325 216.254,80.454 216.254,81.845" /><path
         id="path16018"
         style="fill:none;stroke:#000000;stroke-width:1;stroke-linecap:round;stroke-linejoin:miter;stroke-miterlimit:10;stroke-dasharray:none;stroke-opacity:1"
         d="M 213.734,81.845 L 213.734,81.845" /><path
         id="path16020"
         style="fill:none;stroke:#000000;stroke-width:1;stroke-linecap:butt;stroke-linejoin:miter;stroke-miterlimit:10;stroke-dasharray:none;stroke-opacity:1"
         d="M 224.453,78.245 C 224.453,79.636 223.324,80.765 221.934,80.765 C 220.541,80.765 219.414,79.636 219.414,78.245 C 219.414,76.853 220.541,75.724 221.934,75.724 C 223.324,75.724 224.453,76.853 224.453,78.245" /><path
         id="path16022"
         style="fill:none;stroke:#000000;stroke-width:1;stroke-linecap:round;stroke-linejoin:miter;stroke-miterlimit:10;stroke-dasharray:none;stroke-opacity:1"
         d="M 221.934,78.245 L 221.934,78.245" /><path
         id="path16024"
         style="fill:none;stroke:#000000;stroke-width:1;stroke-linecap:butt;stroke-linejoin:miter;stroke-miterlimit:10;stroke-dasharray:none;stroke-opacity:1"
         d="M 232.654,74.644 C 232.654,76.036 231.525,77.165 230.133,77.165 C 228.742,77.165 227.613,76.036 227.613,74.644 C 227.613,73.253 228.742,72.124 230.133,72.124 C 231.525,72.124 232.654,73.253 232.654,74.644" /><path
         id="path16026"
         style="fill:none;stroke:#000000;stroke-width:1;stroke-linecap:round;stroke-linejoin:miter;stroke-miterlimit:10;stroke-dasharray:none;stroke-opacity:1"
         d="M 230.133,74.644 L 230.133,74.644" /><path
         id="path16028"
         style="fill:none;stroke:#000000;stroke-width:1;stroke-linecap:butt;stroke-linejoin:miter;stroke-miterlimit:10;stroke-dasharray:none;stroke-opacity:1"
         d="M 240.854,71.144 C 240.854,72.536 239.725,73.665 238.334,73.665 C 236.941,73.665 235.814,72.536 235.814,71.144 C 235.814,69.753 236.941,68.624 238.334,68.624 C 239.725,68.624 240.854,69.753 240.854,71.144" /><path
         id="path16030"
         style="fill:none;stroke:#000000;stroke-width:1;stroke-linecap:round;stroke-linejoin:miter;stroke-miterlimit:10;stroke-dasharray:none;stroke-opacity:1"
         d="M 238.334,71.144 L 238.334,71.144" /><path
         id="path16032"
         style="fill:none;stroke:#000000;stroke-width:1;stroke-linecap:butt;stroke-linejoin:miter;stroke-miterlimit:10;stroke-dasharray:none;stroke-opacity:1"
         d="M 249.053,67.544 C 249.053,68.935 247.924,70.063 246.533,70.063 C 245.143,70.063 244.014,68.935 244.014,67.544 C 244.014,66.153 245.143,65.024 246.533,65.024 C 247.924,65.024 249.053,66.153 249.053,67.544" /><path
         id="path16034"
         style="fill:none;stroke:#000000;stroke-width:1;stroke-linecap:round;stroke-linejoin:miter;stroke-miterlimit:10;stroke-dasharray:none;stroke-opacity:1"
         d="M 246.533,67.544 L 246.533,67.544" /><path
         id="path16036"
         style="fill:none;stroke:#000000;stroke-width:1;stroke-linecap:butt;stroke-linejoin:miter;stroke-miterlimit:10;stroke-dasharray:none;stroke-opacity:1"
         d="M 257.254,63.944 C 257.254,65.335 256.125,66.464 254.734,66.464 C 253.342,66.464 252.213,65.335 252.213,63.944 C 252.213,62.554 253.342,61.425 254.734,61.425 C 256.125,61.425 257.254,62.554 257.254,63.944" /><path
         id="path16038"
         style="fill:none;stroke:#000000;stroke-width:1;stroke-linecap:round;stroke-linejoin:miter;stroke-miterlimit:10;stroke-dasharray:none;stroke-opacity:1"
         d="M 254.734,63.944 L 254.734,63.944" /><path
         id="path16040"
         style="fill:none;stroke:#000000;stroke-width:1;stroke-linecap:butt;stroke-linejoin:miter;stroke-miterlimit:10;stroke-dasharray:none;stroke-opacity:1"
         d="M 265.453,60.345 C 265.453,61.735 264.324,62.864 262.934,62.864 C 261.541,62.864 260.414,61.735 260.414,60.345 C 260.414,58.954 261.541,57.825 262.934,57.825 C 264.324,57.825 265.453,58.954 265.453,60.345" /><path
         id="path16042"
         style="fill:none;stroke:#000000;stroke-width:1;stroke-linecap:round;stroke-linejoin:miter;stroke-miterlimit:10;stroke-dasharray:none;stroke-opacity:1"
         d="M 262.934,60.345 L 262.934,60.345" /><path
         id="path16044"
         style="fill:none;stroke:#000000;stroke-width:1;stroke-linecap:butt;stroke-linejoin:miter;stroke-miterlimit:10;stroke-dasharray:none;stroke-opacity:1"
         d="M 273.553,56.845 C 273.553,58.235 272.424,59.364 271.033,59.364 C 269.643,59.364 268.514,58.235 268.514,56.845 C 268.514,55.454 269.643,54.325 271.033,54.325 C 272.424,54.325 273.553,55.454 273.553,56.845" /><path
         id="path16046"
         style="fill:none;stroke:#000000;stroke-width:1;stroke-linecap:round;stroke-linejoin:miter;stroke-miterlimit:10;stroke-dasharray:none;stroke-opacity:1"
         d="M 271.033,56.845 L 271.033,56.845" /><path
         id="path16048"
         style="fill:none;stroke:#000000;stroke-width:1;stroke-linecap:butt;stroke-linejoin:miter;stroke-miterlimit:10;stroke-dasharray:none;stroke-opacity:1"
         d="M 281.754,53.245 C 281.754,54.636 280.625,55.765 279.234,55.765 C 277.842,55.765 276.713,54.636 276.713,53.245 C 276.713,51.853 277.842,50.724 279.234,50.724 C 280.625,50.724 281.754,51.853 281.754,53.245" /><path
         id="path16050"
         style="fill:none;stroke:#000000;stroke-width:1;stroke-linecap:round;stroke-linejoin:miter;stroke-miterlimit:10;stroke-dasharray:none;stroke-opacity:1"
         d="M 279.234,53.245 L 279.234,53.245" /><path
         id="path16052"
         style="fill:none;stroke:#000000;stroke-width:1;stroke-linecap:butt;stroke-linejoin:miter;stroke-miterlimit:10;stroke-dasharray:none;stroke-opacity:1"
         d="M 289.953,49.544 C 289.953,50.935 288.824,52.063 287.434,52.063 C 286.041,52.063 284.914,50.935 284.914,49.544 C 284.914,48.153 286.041,47.024 287.434,47.024 C 288.824,47.024 289.953,48.153 289.953,49.544" /><path
         id="path16054"
         style="fill:none;stroke:#000000;stroke-width:1;stroke-linecap:round;stroke-linejoin:miter;stroke-miterlimit:10;stroke-dasharray:none;stroke-opacity:1"
         d="M 287.434,49.544 L 287.434,49.544" /><path
         id="path16056"
         style="fill:none;stroke:#000000;stroke-width:1;stroke-linecap:butt;stroke-linejoin:miter;stroke-miterlimit:10;stroke-dasharray:none;stroke-opacity:1"
         d="M 298.154,45.944 C 298.154,47.335 297.025,48.464 295.633,48.464 C 294.242,48.464 293.113,47.335 293.113,45.944 C 293.113,44.554 294.242,43.425 295.633,43.425 C 297.025,43.425 298.154,44.554 298.154,45.944" /><path
         id="path16058"
         style="fill:none;stroke:#000000;stroke-width:1;stroke-linecap:round;stroke-linejoin:miter;stroke-miterlimit:10;stroke-dasharray:none;stroke-opacity:1"
         d="M 295.633,45.944 L 295.633,45.944" /><path
         id="path16060"
         style="fill:none;stroke:#000000;stroke-width:1;stroke-linecap:butt;stroke-linejoin:miter;stroke-miterlimit:10;stroke-dasharray:none;stroke-opacity:1"
         d="M 306.354,43.444 C 306.354,44.835 305.225,45.964 303.834,45.964 C 302.441,45.964 301.314,44.835 301.314,43.444 C 301.314,42.054 302.441,40.925 303.834,40.925 C 305.225,40.925 306.354,42.054 306.354,43.444" /><path
         id="path16062"
         style="fill:none;stroke:#000000;stroke-width:1;stroke-linecap:round;stroke-linejoin:miter;stroke-miterlimit:10;stroke-dasharray:none;stroke-opacity:1"
         d="M 303.834,43.444 L 303.834,43.444" /><path
         id="path16064"
         style="fill:none;stroke:#000000;stroke-width:1;stroke-linecap:butt;stroke-linejoin:miter;stroke-miterlimit:10;stroke-dasharray:none;stroke-opacity:1"
         d="M 314.553,40.544 C 314.553,41.935 313.424,43.063 312.033,43.063 C 310.643,43.063 309.514,41.935 309.514,40.544 C 309.514,39.153 310.643,38.024 312.033,38.024 C 313.424,38.024 314.553,39.153 314.553,40.544" /><path
         id="path16066"
         style="fill:none;stroke:#000000;stroke-width:1;stroke-linecap:round;stroke-linejoin:miter;stroke-miterlimit:10;stroke-dasharray:none;stroke-opacity:1"
         d="M 312.033,40.544 L 312.033,40.544" /><path
         id="path16068"
         style="fill:none;stroke:#000000;stroke-width:1;stroke-linecap:butt;stroke-linejoin:miter;stroke-miterlimit:10;stroke-dasharray:none;stroke-opacity:1"
         d="M 322.754,37.544 C 322.754,38.935 321.625,40.063 320.234,40.063 C 318.842,40.063 317.713,38.935 317.713,37.544 C 317.713,36.153 318.842,35.024 320.234,35.024 C 321.625,35.024 322.754,36.153 322.754,37.544" /><path
         id="path16070"
         style="fill:none;stroke:#000000;stroke-width:1;stroke-linecap:round;stroke-linejoin:miter;stroke-miterlimit:10;stroke-dasharray:none;stroke-opacity:1"
         d="M 320.234,37.544 L 320.234,37.544" /><path
         id="path16072"
         style="fill:none;stroke:#000000;stroke-width:1;stroke-linecap:butt;stroke-linejoin:miter;stroke-miterlimit:10;stroke-dasharray:none;stroke-opacity:1"
         d="M 330.953,34.845 C 330.953,36.235 329.824,37.364 328.434,37.364 C 327.041,37.364 325.914,36.235 325.914,34.845 C 325.914,33.454 327.041,32.325 328.434,32.325 C 329.824,32.325 330.953,33.454 330.953,34.845" /><path
         id="path16074"
         style="fill:none;stroke:#000000;stroke-width:1;stroke-linecap:round;stroke-linejoin:miter;stroke-miterlimit:10;stroke-dasharray:none;stroke-opacity:1"
         d="M 328.434,34.845 L 328.434,34.845" /><path
         id="path16076"
         style="fill:none;stroke:#000000;stroke-width:1;stroke-linecap:butt;stroke-linejoin:miter;stroke-miterlimit:10;stroke-dasharray:none;stroke-opacity:1"
         d="M 339.154,31.845 C 339.154,33.235 338.025,34.364 336.633,34.364 C 335.242,34.364 334.113,33.235 334.113,31.845 C 334.113,30.454 335.242,29.325 336.633,29.325 C 338.025,29.325 339.154,30.454 339.154,31.845" /><path
         id="path16078"
         style="fill:none;stroke:#000000;stroke-width:1;stroke-linecap:round;stroke-linejoin:miter;stroke-miterlimit:10;stroke-dasharray:none;stroke-opacity:1"
         d="M 336.633,31.845 L 336.633,31.845" /><text
         id="text16080"
         transform="matrix(1,0,0,-1,176.4854,3.1597)"><tspan
           id="tspan16082"
           sodipodi:role="line"
           y="0"
           x="0 8.4522552 11.704042"
           style="font-size:11.95510006px;font-variant:normal;font-weight:normal;font-stretch:normal;writing-mode:lr-tb;fill:#221814;fill-opacity:1;fill-rule:nonzero;stroke:none;font-family:cmr 12;-inkscape-font-specification:cmr12">Tim</tspan></text>
<text
         id="text16084"
         transform="matrix(1,0,0,-1,197.9463,3.1597)"><tspan
           id="tspan16086"
           y="0"
           x="0"
           style="font-size:11.95510006px;font-variant:normal;font-weight:normal;font-stretch:normal;writing-mode:lr-tb;fill:#221814;fill-opacity:1;fill-rule:nonzero;stroke:none;font-family:cmr 12;-inkscape-font-specification:cmr12">e</tspan></text>
<text
         id="text16088"
         transform="matrix(1,0,0,-1,207.0459,3.1597)"><tspan
           id="tspan16090"
           sodipodi:role="line"
           y="0"
           x="0 3.2517872 7.866456"
           style="font-size:11.95510006px;font-variant:normal;font-weight:normal;font-stretch:normal;writing-mode:lr-tb;fill:#221814;fill-opacity:1;fill-rule:nonzero;stroke:none;font-family:cmr 12;-inkscape-font-specification:cmr12">[s]</tspan></text>
<text
         id="text16092"
         transform="matrix(0,1,1,0,9.832,107.7012)"><tspan
           id="tspan16094"
           sodipodi:role="line"
           y="0"
           x="0 6.1449213"
           style="font-size:11.95510006px;font-variant:normal;font-weight:normal;font-stretch:normal;writing-mode:lr-tb;fill:#221814;fill-opacity:1;fill-rule:nonzero;stroke:none;font-family:cmtt 12;-inkscape-font-specification:cmtt12">Ux</tspan></text>
<path
         id="path16096"
         style="fill:none;stroke:#221814;stroke-width:0.405;stroke-linecap:butt;stroke-linejoin:miter;stroke-miterlimit:10;stroke-dasharray:none;stroke-opacity:1"
         d="M 9.629,120.754 L 9.629,124.453" /><text
         id="text16098"
         transform="matrix(0,1,1,0,9.832,124.4355)"><tspan
           id="tspan16100"
           y="0"
           x="0"
           style="font-size:11.95510006px;font-variant:normal;font-weight:normal;font-stretch:normal;writing-mode:lr-tb;fill:#221814;fill-opacity:1;fill-rule:nonzero;stroke:none;font-family:cmtt 12;-inkscape-font-specification:cmtt12">0</tspan></text>
<text
         id="text16102"
         transform="matrix(1,0,0,-1,334.417,17.2988)"><tspan
           id="tspan16104"
           sodipodi:role="line"
           y="0"
           x="0 5.8460441 9.0978308 14.943875"
           style="font-size:11.95510006px;font-variant:normal;font-weight:normal;font-stretch:normal;writing-mode:lr-tb;fill:#221814;fill-opacity:1;fill-rule:nonzero;stroke:none;font-family:cmr 12;-inkscape-font-specification:cmr12">0.18</tspan></text>
<text
         id="text16106"
         transform="matrix(1,0,0,-1,301.6123,17.2988)"><tspan
           id="tspan16108"
           sodipodi:role="line"
           y="0"
           x="0 5.8460441 9.0978308 14.943875"
           style="font-size:11.95510006px;font-variant:normal;font-weight:normal;font-stretch:normal;writing-mode:lr-tb;fill:#221814;fill-opacity:1;fill-rule:nonzero;stroke:none;font-family:cmr 12;-inkscape-font-specification:cmr12">0.16</tspan></text>
<text
         id="text16110"
         transform="matrix(1,0,0,-1,268.8164,17.2988)"><tspan
           id="tspan16112"
           sodipodi:role="line"
           y="0"
           x="0 5.8460441 9.0978308 14.943875"
           style="font-size:11.95510006px;font-variant:normal;font-weight:normal;font-stretch:normal;writing-mode:lr-tb;fill:#221814;fill-opacity:1;fill-rule:nonzero;stroke:none;font-family:cmr 12;-inkscape-font-specification:cmr12">0.14</tspan></text>
<text
         id="text16114"
         transform="matrix(1,0,0,-1,236.1191,17.2988)"><tspan
           id="tspan16116"
           sodipodi:role="line"
           y="0"
           x="0 5.8460441 9.0978308 14.943875"
           style="font-size:11.95510006px;font-variant:normal;font-weight:normal;font-stretch:normal;writing-mode:lr-tb;fill:#221814;fill-opacity:1;fill-rule:nonzero;stroke:none;font-family:cmr 12;-inkscape-font-specification:cmr12">0.12</tspan></text>
<text
         id="text16118"
         transform="matrix(1,0,0,-1,203.3135,17.2988)"><tspan
           id="tspan16120"
           sodipodi:role="line"
           y="0"
           x="0 5.8460441 9.0978308 14.943875"
           style="font-size:11.95510006px;font-variant:normal;font-weight:normal;font-stretch:normal;writing-mode:lr-tb;fill:#221814;fill-opacity:1;fill-rule:nonzero;stroke:none;font-family:cmr 12;-inkscape-font-specification:cmr12">0.10</tspan></text>
<text
         id="text16122"
         transform="matrix(1,0,0,-1,170.5181,17.2988)"><tspan
           id="tspan16124"
           sodipodi:role="line"
           y="0"
           x="0 5.8460441 9.0978308 14.955831"
           style="font-size:11.95510006px;font-variant:normal;font-weight:normal;font-stretch:normal;writing-mode:lr-tb;fill:#221814;fill-opacity:1;fill-rule:nonzero;stroke:none;font-family:cmr 12;-inkscape-font-specification:cmr12">0.08</tspan></text>
<text
         id="text16126"
         transform="matrix(1,0,0,-1,137.7217,17.2988)"><tspan
           id="tspan16128"
           sodipodi:role="line"
           y="0"
           x="0 5.8460441 9.0978308 14.955831"
           style="font-size:11.95510006px;font-variant:normal;font-weight:normal;font-stretch:normal;writing-mode:lr-tb;fill:#221814;fill-opacity:1;fill-rule:nonzero;stroke:none;font-family:cmr 12;-inkscape-font-specification:cmr12">0.06</tspan></text>
<text
         id="text16130"
         transform="matrix(1,0,0,-1,105.0249,17.2988)"><tspan
           id="tspan16132"
           sodipodi:role="line"
           y="0"
           x="0 5.8460441 9.0978308 14.955831"
           style="font-size:11.95510006px;font-variant:normal;font-weight:normal;font-stretch:normal;writing-mode:lr-tb;fill:#221814;fill-opacity:1;fill-rule:nonzero;stroke:none;font-family:cmr 12;-inkscape-font-specification:cmr12">0.04</tspan></text>
<text
         id="text16134"
         transform="matrix(1,0,0,-1,72.2197,17.2988)"><tspan
           id="tspan16136"
           sodipodi:role="line"
           y="0"
           x="0 5.8460441 9.0978308 14.955831"
           style="font-size:11.95510006px;font-variant:normal;font-weight:normal;font-stretch:normal;writing-mode:lr-tb;fill:#221814;fill-opacity:1;fill-rule:nonzero;stroke:none;font-family:cmr 12;-inkscape-font-specification:cmr12">0.02</tspan></text>
<text
         id="text16138"
         transform="matrix(1,0,0,-1,39.4238,17.2988)"><tspan
           id="tspan16140"
           sodipodi:role="line"
           y="0"
           x="0 5.8460441 9.0978308 14.955831"
           style="font-size:11.95510006px;font-variant:normal;font-weight:normal;font-stretch:normal;writing-mode:lr-tb;fill:#221814;fill-opacity:1;fill-rule:nonzero;stroke:none;font-family:cmr 12;-inkscape-font-specification:cmr12">0.00</tspan></text>
<text
         id="text16142"
         transform="matrix(1,0,0,-1,12.9639,203.7427)"><tspan
           id="tspan16144"
           sodipodi:role="line"
           y="0"
           x="0 5.8460441 11.046513 20.144344 26.002342"
           style="font-size:11.95510006px;font-variant:normal;font-weight:normal;font-stretch:normal;writing-mode:lr-tb;fill:#221814;fill-opacity:1;fill-rule:nonzero;stroke:none;font-family:cmr 12;-inkscape-font-specification:cmr12">1e+00</tspan></text>
<text
         id="text16146"
         transform="matrix(1,0,0,-1,18.166,168.0942)"><tspan
           id="tspan16148"
           sodipodi:role="line"
           y="0"
           x="0 5.8460441 11.046513 14.943875 20.789919"
           style="font-size:11.95510006px;font-variant:normal;font-weight:normal;font-stretch:normal;writing-mode:lr-tb;fill:#221814;fill-opacity:1;fill-rule:nonzero;stroke:none;font-family:cmr 12;-inkscape-font-specification:cmr12">1e-01</tspan></text>
<text
         id="text16150"
         transform="matrix(1,0,0,-1,18.166,132.895)"><tspan
           id="tspan16152"
           sodipodi:role="line"
           y="0"
           x="0 5.8460441 11.046513 14.943875 20.789919"
           style="font-size:11.95510006px;font-variant:normal;font-weight:normal;font-stretch:normal;writing-mode:lr-tb;fill:#221814;fill-opacity:1;fill-rule:nonzero;stroke:none;font-family:cmr 12;-inkscape-font-specification:cmr12">1e-02</tspan></text>
<text
         id="text16154"
         transform="matrix(1,0,0,-1,18.166,97.6958)"><tspan
           id="tspan16156"
           sodipodi:role="line"
           y="0"
           x="0 5.8460441 11.046513 14.943875 20.789919"
           style="font-size:11.95510006px;font-variant:normal;font-weight:normal;font-stretch:normal;writing-mode:lr-tb;fill:#221814;fill-opacity:1;fill-rule:nonzero;stroke:none;font-family:cmr 12;-inkscape-font-specification:cmr12">1e-03</tspan></text>
<text
         id="text16158"
         transform="matrix(1,0,0,-1,18.166,62.4966)"><tspan
           id="tspan16160"
           sodipodi:role="line"
           y="0"
           x="0 5.8460441 11.046513 14.943875 20.789919"
           style="font-size:11.95510006px;font-variant:normal;font-weight:normal;font-stretch:normal;writing-mode:lr-tb;fill:#221814;fill-opacity:1;fill-rule:nonzero;stroke:none;font-family:cmr 12;-inkscape-font-specification:cmr12">1e-04</tspan></text>
<text
         id="text16162"
         transform="matrix(1,0,0,-1,18.166,27.2974)"><tspan
           id="tspan16164"
           sodipodi:role="line"
           y="0"
           x="0 5.8460441 11.046513 14.943875 20.789919"
           style="font-size:11.95510006px;font-variant:normal;font-weight:normal;font-stretch:normal;writing-mode:lr-tb;fill:#221814;fill-opacity:1;fill-rule:nonzero;stroke:none;font-family:cmr 12;-inkscape-font-specification:cmr12">1e-05</tspan></text>
</g></g></svg>