<?xml version="1.0" encoding="UTF-8" standalone="no"?>
<!-- Created with Inkscape (http://www.inkscape.org/) -->
<svg
   xmlns:dc="http://purl.org/dc/elements/1.1/"
   xmlns:cc="http://creativecommons.org/ns#"
   xmlns:rdf="http://www.w3.org/1999/02/22-rdf-syntax-ns#"
   xmlns:svg="http://www.w3.org/2000/svg"
   xmlns="http://www.w3.org/2000/svg"
   xmlns:sodipodi="http://sodipodi.sourceforge.net/DTD/sodipodi-0.dtd"
   xmlns:inkscape="http://www.inkscape.org/namespaces/inkscape"
   id="svg16303"
   sodipodi:version="0.32"
   inkscape:version="0.46"
   width="366.6171"
   height="196.60497"
   xml:space="preserve"
   sodipodi:docname="fig-A-1.svg"
   version="1.0"
   inkscape:output_extension="org.inkscape.output.svg.inkscape"><metadata
     id="metadata16308"><rdf:RDF><cc:Work
         rdf:about=""><dc:format>image/svg+xml</dc:format><dc:type
           rdf:resource="http://purl.org/dc/dcmitype/StillImage" /></cc:Work></rdf:RDF></metadata><defs
     id="defs16306"><inkscape:perspective
       sodipodi:type="inkscape:persp3d"
       inkscape:vp_x="0 : 526.18109 : 1"
       inkscape:vp_y="0 : 1000 : 0"
       inkscape:vp_z="744.09448 : 526.18109 : 1"
       inkscape:persp3d-origin="372.04724 : 350.78739 : 1"
       id="perspective16310" /><clipPath
       clipPathUnits="userSpaceOnUse"
       id="clipPath16326"><path
         d="M 0,0 L 273,0 L 273,159 L 0,159 L 0,0 z"
         id="path16328" /></clipPath><clipPath
       clipPathUnits="userSpaceOnUse"
       id="clipPath16336"><path
         d="M 0,0 L 273,0 L 273,159 L 0,159 L 0,0 z M 97.346,104.001 L 101.125,104.001 L 101.125,113.513 L 99.236,105.953 L 97.346,113.513 L 97.346,104.001 z"
         clip-rule="evenodd"
         id="path16338" /></clipPath><clipPath
       clipPathUnits="userSpaceOnUse"
       id="clipPath16346"><path
         d="M 0,0 L 273,0 L 273,159 L 0,159 L 0,0 z"
         id="path16348" /></clipPath><clipPath
       clipPathUnits="userSpaceOnUse"
       id="clipPath16358"><path
         d="M 0,0 L 273,0 L 273,159 L 0,159 L 0,0 z M 267.418,61.482 L 271.197,61.482 L 271.197,70.994 L 269.309,63.436 L 267.418,70.994 L 267.418,61.482 z"
         clip-rule="evenodd"
         id="path16360" /></clipPath><clipPath
       clipPathUnits="userSpaceOnUse"
       id="clipPath16368"><path
         d="M 0,0 L 273,0 L 273,159 L 0,159 L 0,0 z"
         id="path16370" /></clipPath><clipPath
       clipPathUnits="userSpaceOnUse"
       id="clipPath16380"><path
         d="M 0,0 L 273,0 L 273,159 L 0,159 L 0,0 z M 97.346,61.482 L 101.125,61.482 L 101.125,70.994 L 99.236,63.436 L 97.346,70.994 L 97.346,61.482 z"
         clip-rule="evenodd"
         id="path16382" /></clipPath><clipPath
       clipPathUnits="userSpaceOnUse"
       id="clipPath16390"><path
         d="M 0,0 L 273,0 L 273,159 L 0,159 L 0,0 z"
         id="path16392" /></clipPath><clipPath
       clipPathUnits="userSpaceOnUse"
       id="clipPath16402"><path
         d="M 0,0 L 273,0 L 273,159 L 0,159 L 0,0 z M 148.809,32.885 L 149.754,29.232 L 159.014,31.563 L 151.266,31.5 L 158.068,35.279 L 148.809,32.885 z"
         clip-rule="evenodd"
         id="path16404" /></clipPath><clipPath
       clipPathUnits="userSpaceOnUse"
       id="clipPath16412"><path
         d="M 0,0 L 273,0 L 273,159 L 0,159 L 0,0 z"
         id="path16414" /></clipPath><clipPath
       clipPathUnits="userSpaceOnUse"
       id="clipPath16424"><path
         d="M 0,0 L 273,0 L 273,159 L 0,159 L 0,0 z M 148.494,9.83 L 150.258,6.492 L 158.697,10.838 L 151.139,9.014 L 156.934,14.178 L 148.494,9.83 z"
         clip-rule="evenodd"
         id="path16426" /></clipPath><clipPath
       clipPathUnits="userSpaceOnUse"
       id="clipPath16434"><path
         d="M 0,0 L 273,0 L 273,159 L 0,159 L 0,0 z"
         id="path16436" /></clipPath><clipPath
       clipPathUnits="userSpaceOnUse"
       id="clipPath16448"><path
         d="M 0,0 L 273,0 L 273,159 L 0,159 L 0,0 z M 128.526,61.482 L 132.306,61.482 L 132.306,70.994 L 130.417,63.436 L 128.526,70.994 L 128.526,61.482 z"
         clip-rule="evenodd"
         id="path16450" /></clipPath><clipPath
       clipPathUnits="userSpaceOnUse"
       id="clipPath16458"><path
         d="M 0,0 L 273,0 L 273,159 L 0,159 L 0,0 z"
         id="path16460" /></clipPath><clipPath
       clipPathUnits="userSpaceOnUse"
       id="clipPath16470"><path
         d="M 0,0 L 273,0 L 273,159 L 0,159 L 0,0 z M 149.313,55.814 L 149.313,52.035 L 158.824,52.035 L 151.266,53.924 L 158.824,55.814 L 149.313,55.814 z"
         clip-rule="evenodd"
         id="path16472" /></clipPath><clipPath
       clipPathUnits="userSpaceOnUse"
       id="clipPath16480"><path
         d="M 0,0 L 273,0 L 273,159 L 0,159 L 0,0 z"
         id="path16482" /></clipPath></defs><sodipodi:namedview
     inkscape:window-height="722"
     inkscape:window-width="789"
     inkscape:pageshadow="2"
     inkscape:pageopacity="0.0"
     guidetolerance="10.0"
     gridtolerance="10.0"
     objecttolerance="10.0"
     borderopacity="1.0"
     bordercolor="#666666"
     pagecolor="#ffffff"
     id="base"
     showgrid="false"
     inkscape:zoom="2.0161172"
     inkscape:cx="170.625"
     inkscape:cy="99.375"
     inkscape:window-x="0"
     inkscape:window-y="25"
     inkscape:current-layer="g16312" /><g
     id="g16312"
     inkscape:groupmode="layer"
     inkscape:label="fig-A-1"
     transform="matrix(1.25,0,0,-1.25,-4.4733165,200.93175)"><g
       clip-path="none"
       id="g16316"><g
         id="g16322"><g
           clip-path="url(#clipPath16326)"
           id="g16324"><path
             id="path16330"
             style="fill:none;stroke:#000000;stroke-width:0.472;stroke-linecap:butt;stroke-linejoin:miter;stroke-miterlimit:10;stroke-dasharray:none;stroke-opacity:1"
             d="M 150.248,150.295 C 150.135,150.297 150.02,150.298 149.904,150.298 C 140.074,150.298 131.754,143.04 130.42,133.302" /></g></g><g
         id="g16332"><g
           clip-path="url(#clipPath16336)"
           id="g16334"><path
             id="path16340"
             style="fill:none;stroke:#000000;stroke-width:0.472;stroke-linecap:butt;stroke-linejoin:miter;stroke-miterlimit:10;stroke-dasharray:none;stroke-opacity:1"
             d="M 99.236,144.629 L 99.236,104.944" /></g></g><g
         id="g16342"><g
           clip-path="url(#clipPath16346)"
           id="g16344"><path
             id="path16350"
             style="fill:#000000;fill-opacity:1;fill-rule:evenodd;stroke:none"
             d="M 97.346,113.513 L 99.236,105.953 L 101.125,113.513 L 97.346,113.513 z" /><path
             id="path16352"
             style="fill:none;stroke:#000000;stroke-width:0.472;stroke-linecap:butt;stroke-linejoin:miter;stroke-miterlimit:10;stroke-dasharray:none;stroke-opacity:1"
             d="M 97.346,113.513 L 99.236,105.953 L 101.125,113.513 L 97.346,113.513 z" /></g></g><g
         id="g16354"><g
           clip-path="url(#clipPath16358)"
           id="g16356"><path
             id="path16362"
             style="fill:none;stroke:#000000;stroke-width:0.472;stroke-linecap:butt;stroke-linejoin:miter;stroke-miterlimit:10;stroke-dasharray:none;stroke-opacity:1"
             d="M 269.309,144.629 L 269.309,62.428" /></g></g><g
         id="g16364"><g
           clip-path="url(#clipPath16368)"
           id="g16366"><path
             id="path16372"
             style="fill:#000000;fill-opacity:1;fill-rule:evenodd;stroke:none"
             d="M 267.418,70.994 L 269.309,63.436 L 271.197,70.994 L 267.418,70.994 z" /><path
             id="path16374"
             style="fill:none;stroke:#000000;stroke-width:0.472;stroke-linecap:butt;stroke-linejoin:miter;stroke-miterlimit:10;stroke-dasharray:none;stroke-opacity:1"
             d="M 267.418,70.994 L 269.309,63.436 L 271.197,70.994 L 267.418,70.994 z" /></g></g><g
         id="g16376"><g
           clip-path="url(#clipPath16380)"
           id="g16378"><path
             id="path16384"
             style="fill:none;stroke:#000000;stroke-width:0.472;stroke-linecap:butt;stroke-linejoin:miter;stroke-miterlimit:10;stroke-dasharray:none;stroke-opacity:1"
             d="M 99.236,90.773 L 99.236,62.428" /></g></g><g
         id="g16386"><g
           clip-path="url(#clipPath16390)"
           id="g16388"><path
             id="path16394"
             style="fill:#000000;fill-opacity:1;fill-rule:evenodd;stroke:none"
             d="M 97.346,70.994 L 99.236,63.436 L 101.125,70.994 L 97.346,70.994 z" /><path
             id="path16396"
             style="fill:none;stroke:#000000;stroke-width:0.472;stroke-linecap:butt;stroke-linejoin:miter;stroke-miterlimit:10;stroke-dasharray:none;stroke-opacity:1"
             d="M 97.346,70.994 L 99.236,63.436 L 101.125,70.994 L 97.346,70.994 z" /></g></g><g
         id="g16398"><g
           clip-path="url(#clipPath16402)"
           id="g16400"><path
             id="path16406"
             style="fill:none;stroke:#000000;stroke-width:0.472;stroke-linecap:butt;stroke-linejoin:miter;stroke-miterlimit:10;stroke-dasharray:3.779, 3.779;stroke-dashoffset:0;stroke-opacity:1"
             d="M 238.129,53.924 L 150.258,31.248" /></g></g><g
         id="g16408"><g
           clip-path="url(#clipPath16412)"
           id="g16410"><path
             id="path16416"
             style="fill:#000000;fill-opacity:1;fill-rule:evenodd;stroke:none"
             d="M 158.068,35.279 L 151.266,31.5 L 159.014,31.563 L 158.068,35.279 z" /><path
             id="path16418"
             style="fill:none;stroke:#000000;stroke-width:0.472;stroke-linecap:butt;stroke-linejoin:miter;stroke-miterlimit:10;stroke-dasharray:none;stroke-opacity:1"
             d="M 158.068,35.279 L 151.266,31.5 L 159.014,31.563 L 158.068,35.279 z" /></g></g><g
         id="g16420"><g
           clip-path="url(#clipPath16424)"
           id="g16422"><path
             id="path16428"
             style="fill:none;stroke:#000000;stroke-width:0.472;stroke-linecap:butt;stroke-linejoin:miter;stroke-miterlimit:10;stroke-dasharray:3.779, 3.779;stroke-dashoffset:0;stroke-opacity:1"
             d="M 238.129,53.924 L 150.258,8.572" /></g></g><g
         id="g16430"><g
           clip-path="url(#clipPath16434)"
           id="g16432"><path
             id="path16438"
             style="fill:#000000;fill-opacity:1;fill-rule:evenodd;stroke:none"
             d="M 156.934,14.178 L 151.139,9.014 L 158.697,10.838 L 156.934,14.178 z" /><path
             id="path16440"
             style="fill:none;stroke:#000000;stroke-width:0.472;stroke-linecap:butt;stroke-linejoin:miter;stroke-miterlimit:10;stroke-dasharray:none;stroke-opacity:1"
             d="M 156.934,14.178 L 151.139,9.014 L 158.697,10.838 L 156.934,14.178 z" /><path
             id="path16442"
             style="fill:none;stroke:#000000;stroke-width:0.472;stroke-linecap:butt;stroke-linejoin:miter;stroke-miterlimit:10;stroke-dasharray:none;stroke-opacity:1"
             d="M 235.293,150.298 L 150.258,150.298" /></g></g><g
         id="g16444"><g
           clip-path="url(#clipPath16448)"
           id="g16446"><path
             id="path16452"
             style="fill:none;stroke:#000000;stroke-width:0.472;stroke-linecap:butt;stroke-linejoin:miter;stroke-miterlimit:10;stroke-dasharray:none;stroke-opacity:1"
             d="M 130.417,133.291 L 130.417,62.428" /></g></g><g
         id="g16454"><g
           clip-path="url(#clipPath16458)"
           id="g16456"><path
             id="path16462"
             style="fill:#000000;fill-opacity:1;fill-rule:evenodd;stroke:none"
             d="M 128.526,70.994 L 130.417,63.436 L 132.306,70.994 L 128.526,70.994 z" /><path
             id="path16464"
             style="fill:none;stroke:#000000;stroke-width:0.472;stroke-linecap:butt;stroke-linejoin:miter;stroke-miterlimit:10;stroke-dasharray:none;stroke-opacity:1"
             d="M 128.526,70.994 L 130.417,63.436 L 132.306,70.994 L 128.526,70.994 z" /></g></g><g
         id="g16466"><g
           clip-path="url(#clipPath16470)"
           id="g16468"><path
             id="path16474"
             style="fill:none;stroke:#000000;stroke-width:0.472;stroke-linecap:butt;stroke-linejoin:miter;stroke-miterlimit:10;stroke-dasharray:3.779, 3.779;stroke-dashoffset:0;stroke-opacity:1"
             d="M 238.129,53.924 L 150.258,53.924" /></g></g><g
         id="g16476"><g
           clip-path="url(#clipPath16480)"
           id="g16478"><path
             id="path16484"
             style="fill:#000000;fill-opacity:1;fill-rule:evenodd;stroke:none"
             d="M 158.824,55.814 L 151.266,53.924 L 158.824,52.035 L 158.824,55.814 z" /><path
             id="path16486"
             style="fill:none;stroke:#000000;stroke-width:0.472;stroke-linecap:butt;stroke-linejoin:miter;stroke-miterlimit:10;stroke-dasharray:none;stroke-opacity:1"
             d="M 158.824,55.814 L 151.266,53.924 L 158.824,52.035 L 158.824,55.814 z" /></g></g><text
         id="text16488"
         transform="matrix(1,0,0,-1,138.9687,133.2988)"><tspan
           id="tspan16490"
           y="0"
           x="0"
           style="font-size:11.95510006px;font-variant:normal;font-weight:normal;font-stretch:normal;writing-mode:lr-tb;fill:#000000;fill-opacity:1;fill-rule:nonzero;stroke:none;font-family:cmr 12;-inkscape-font-specification:cmr12">i</tspan></text>
<text
         id="text16492"
         transform="matrix(1,0,0,-1,142.2202,133.2988)"><tspan
           id="tspan16494"
           y="0"
           x="0"
           style="font-size:11.95510006px;font-variant:normal;font-weight:normal;font-stretch:normal;writing-mode:lr-tb;fill:#000000;fill-opacity:1;fill-rule:nonzero;stroke:none;font-family:cmr 12;-inkscape-font-specification:cmr12">f</tspan></text>
<text
         id="text16496"
         transform="matrix(1,0,0,-1,149.6938,133.2988)"><tspan
           id="tspan16498"
           y="0"
           x="0"
           style="font-size:11.95510006px;font-variant:normal;font-weight:normal;font-stretch:normal;writing-mode:lr-tb;fill:#000000;fill-opacity:1;fill-rule:nonzero;stroke:none;font-family:cmr 12;-inkscape-font-specification:cmr12">n</tspan></text>
<text
         id="text16500"
         transform="matrix(1,0,0,-1,156.1978,133.2988)"><tspan
           id="tspan16502"
           y="0"
           x="0"
           style="font-size:11.95510006px;font-variant:normal;font-weight:normal;font-stretch:normal;writing-mode:lr-tb;fill:#000000;fill-opacity:1;fill-rule:nonzero;stroke:none;font-family:cmr 12;-inkscape-font-specification:cmr12">o</tspan></text>
<text
         id="text16504"
         transform="matrix(1,0,0,-1,165.9478,133.2988)"><tspan
           id="tspan16506"
           sodipodi:role="line"
           y="0"
           x="0 6.5035744 12.361573"
           style="font-size:11.95510006px;font-variant:normal;font-weight:normal;font-stretch:normal;writing-mode:lr-tb;fill:#000000;fill-opacity:1;fill-rule:nonzero;stroke:none;font-family:cmr 12;-inkscape-font-specification:cmr12">hos</tspan></text>
<text
         id="text16508"
         transform="matrix(1,0,0,-1,182.9214,133.2988)"><tspan
           id="tspan16510"
           y="0"
           x="0"
           style="font-size:11.95510006px;font-variant:normal;font-weight:normal;font-stretch:normal;writing-mode:lr-tb;fill:#000000;fill-opacity:1;fill-rule:nonzero;stroke:none;font-family:cmr 12;-inkscape-font-specification:cmr12">t</tspan></text>
<text
         id="text16512"
         transform="matrix(1,0,0,-1,191.3823,133.2988)"><tspan
           id="tspan16514"
           sodipodi:role="line"
           y="0"
           x="0 6.5035744"
           style="font-size:11.95510006px;font-variant:normal;font-weight:normal;font-stretch:normal;writing-mode:lr-tb;fill:#000000;fill-opacity:1;fill-rule:nonzero;stroke:none;font-family:cmr 12;-inkscape-font-specification:cmr12">br</tspan></text>
<text
         id="text16516"
         transform="matrix(1,0,0,-1,202.438,133.2988)"><tspan
           id="tspan16518"
           y="0"
           x="0"
           style="font-size:11.95510006px;font-variant:normal;font-weight:normal;font-stretch:normal;writing-mode:lr-tb;fill:#000000;fill-opacity:1;fill-rule:nonzero;stroke:none;font-family:cmr 12;-inkscape-font-specification:cmr12">o</tspan></text>
<text
         id="text16520"
         transform="matrix(1,0,0,-1,207.98,133.2988)"><tspan
           id="tspan16522"
           sodipodi:role="line"
           y="0"
           x="0 8.4522552 13.066924 18.267393"
           style="font-size:11.95510006px;font-variant:normal;font-weight:normal;font-stretch:normal;writing-mode:lr-tb;fill:#000000;fill-opacity:1;fill-rule:nonzero;stroke:none;font-family:cmr 12;-inkscape-font-specification:cmr12">wser</tspan></text>
<text
         id="text16524"
         transform="matrix(1,0,0,-1,138.9687,119.124)"><tspan
           id="tspan16526"
           y="0"
           x="0"
           style="font-size:11.95510006px;font-variant:normal;font-weight:normal;font-stretch:normal;writing-mode:lr-tb;fill:#000000;fill-opacity:1;fill-rule:nonzero;stroke:none;font-family:cmr 12;-inkscape-font-specification:cmr12">i</tspan></text>
<text
         id="text16528"
         transform="matrix(1,0,0,-1,142.2202,119.124)"><tspan
           id="tspan16530"
           y="0"
           x="0"
           style="font-size:11.95510006px;font-variant:normal;font-weight:normal;font-stretch:normal;writing-mode:lr-tb;fill:#000000;fill-opacity:1;fill-rule:nonzero;stroke:none;font-family:cmr 12;-inkscape-font-specification:cmr12">s</tspan></text>
<text
         id="text16532"
         transform="matrix(1,0,0,-1,150.7349,119.124)"><tspan
           id="tspan16534"
           sodipodi:role="line"
           y="0"
           x="0 4.554893 11.058468 17.562042 24.065617 27.317404 33.820976"
           style="font-size:11.95510006px;font-variant:normal;font-weight:normal;font-stretch:normal;writing-mode:lr-tb;fill:#000000;fill-opacity:1;fill-rule:nonzero;stroke:none;font-family:cmr 12;-inkscape-font-specification:cmr12">running</tspan></text>
<text
         id="text16536"
         transform="matrix(1,0,0,-1,243.9985,150.3086)"><tspan
           id="tspan16538"
           sodipodi:role="line"
           y="0"
           x="0 3.9810483 9.9825087"
           style="font-size:11.95510006px;font-variant:normal;font-weight:normal;font-stretch:normal;writing-mode:lr-tb;fill:#000000;fill-opacity:1;fill-rule:nonzero;stroke:none;font-family:cmss 12;-inkscape-font-specification:cmss12">run</tspan></text>
<text
         id="text16540"
         transform="matrix(1,0,0,-1,259.9868,150.3086)"><tspan
           id="tspan16542"
           y="0"
           x="0"
           style="font-size:11.95510006px;font-variant:normal;font-weight:normal;font-stretch:normal;writing-mode:lr-tb;fill:#000000;fill-opacity:1;fill-rule:nonzero;stroke:none;font-family:cmss 12;-inkscape-font-specification:cmss12">F</tspan></text>
<text
         id="text16544"
         transform="matrix(1,0,0,-1,266.313,150.3086)"><tspan
           id="tspan16546"
           sodipodi:role="line"
           y="0"
           x="0 5.8460441 11.452986 20.706234"
           style="font-size:11.95510006px;font-variant:normal;font-weight:normal;font-stretch:normal;writing-mode:lr-tb;fill:#000000;fill-opacity:1;fill-rule:nonzero;stroke:none;font-family:cmss 12;-inkscape-font-specification:cmss12">oamX</tspan></text>
<text
         id="text16548"
         transform="matrix(1,0,0,-1,51.228,28.4131)"><tspan
           id="tspan16550"
           y="0"
           x="0"
           style="font-size:11.95510006px;font-variant:normal;font-weight:normal;font-stretch:normal;writing-mode:lr-tb;fill:#000000;fill-opacity:1;fill-rule:nonzero;stroke:none;font-family:cmss 12;-inkscape-font-specification:cmss12">F</tspan></text>
<text
         id="text16552"
         transform="matrix(1,0,0,-1,57.5537,28.4131)"><tspan
           id="tspan16554"
           sodipodi:role="line"
           y="0"
           x="0 5.8460441 11.452986"
           style="font-size:11.95510006px;font-variant:normal;font-weight:normal;font-stretch:normal;writing-mode:lr-tb;fill:#000000;fill-opacity:1;fill-rule:nonzero;stroke:none;font-family:cmss 12;-inkscape-font-specification:cmss12">oam</tspan></text>
<text
         id="text16556"
         transform="matrix(1,0,0,-1,78.2661,28.4131)"><tspan
           id="tspan16558"
           y="0"
           x="0"
           style="font-size:11.95510006px;font-variant:normal;font-weight:normal;font-stretch:normal;writing-mode:lr-tb;fill:#000000;fill-opacity:1;fill-rule:nonzero;stroke:none;font-family:cmss 12;-inkscape-font-specification:cmss12">X</tspan></text>
<text
         id="text16560"
         transform="matrix(1,0,0,-1,85.6782,28.4131)"><tspan
           id="tspan16562"
           sodipodi:role="line"
           y="0"
           x="0 7.4838924 13.090835 17.573997 22.774466 30.54528"
           style="font-size:11.95510006px;font-variant:normal;font-weight:normal;font-stretch:normal;writing-mode:lr-tb;fill:#000000;fill-opacity:1;fill-rule:nonzero;stroke:none;font-family:cmss 12;-inkscape-font-specification:cmss12">CaseBr</tspan></text>
<text
         id="text16564"
         transform="matrix(1,0,0,-1,120.1973,28.4131)"><tspan
           id="tspan16566"
           y="0"
           x="0"
           style="font-size:11.95510006px;font-variant:normal;font-weight:normal;font-stretch:normal;writing-mode:lr-tb;fill:#000000;fill-opacity:1;fill-rule:nonzero;stroke:none;font-family:cmss 12;-inkscape-font-specification:cmss12">o</tspan></text>
<text
         id="text16568"
         transform="matrix(1,0,0,-1,125.7393,28.4131)"><tspan
           id="tspan16570"
           sodipodi:role="line"
           y="0"
           x="0 7.9501414 12.433304 17.633772"
           style="font-size:11.95510006px;font-variant:normal;font-weight:normal;font-stretch:normal;writing-mode:lr-tb;fill:#000000;fill-opacity:1;fill-rule:nonzero;stroke:none;font-family:cmss 12;-inkscape-font-specification:cmss12">wser</tspan></text>
<text
         id="text16572"
         transform="matrix(1,0,0,-1,241.4604,51.0928)"><tspan
           id="tspan16574"
           y="0"
           x="0"
           style="font-size:11.95510006px;font-variant:normal;font-weight:normal;font-stretch:normal;writing-mode:lr-tb;fill:#000000;fill-opacity:1;fill-rule:nonzero;stroke:none;font-family:cmr 12;-inkscape-font-specification:cmr12">J</tspan></text>
<text
         id="text16576"
         transform="matrix(1,0,0,-1,247.4741,51.0928)"><tspan
           id="tspan16578"
           sodipodi:role="line"
           y="0"
           x="0 7.4719377"
           style="font-size:11.95510006px;font-variant:normal;font-weight:normal;font-stretch:normal;writing-mode:lr-tb;fill:#000000;fill-opacity:1;fill-rule:nonzero;stroke:none;font-family:cmr 12;-inkscape-font-specification:cmr12">AV</tspan></text>
<text
         id="text16580"
         transform="matrix(1,0,0,-1,262.4175,51.0928)"><tspan
           id="tspan16582"
           y="0"
           x="0"
           style="font-size:11.95510006px;font-variant:normal;font-weight:normal;font-stretch:normal;writing-mode:lr-tb;fill:#000000;fill-opacity:1;fill-rule:nonzero;stroke:none;font-family:cmr 12;-inkscape-font-specification:cmr12">A</tspan></text>
<text
         id="text16584"
         transform="matrix(1,0,0,-1,275.1021,51.0928)"><tspan
           id="tspan16586"
           sodipodi:role="line"
           y="0"
           x="0 9.1815166 17.95656"
           style="font-size:11.95510006px;font-variant:normal;font-weight:normal;font-stretch:normal;writing-mode:lr-tb;fill:#000000;fill-opacity:1;fill-rule:nonzero;stroke:none;font-family:cmr 12;-inkscape-font-specification:cmr12">GUI</tspan></text>
<text
         id="text16588"
         transform="matrix(1,0,0,-1,51.0649,51.0928)"><tspan
           id="tspan16590"
           y="0"
           x="0"
           style="font-size:11.95510006px;font-variant:normal;font-weight:normal;font-stretch:normal;writing-mode:lr-tb;fill:#000000;fill-opacity:1;fill-rule:nonzero;stroke:none;font-family:cmss 12;-inkscape-font-specification:cmss12">F</tspan></text>
<text
         id="text16592"
         transform="matrix(1,0,0,-1,57.3906,51.0928)"><tspan
           id="tspan16594"
           sodipodi:role="line"
           y="0"
           x="0 5.8460441 11.452986 20.706234 28.441183 36.64238 42.500381 46.983543 51.215649 58.986462"
           style="font-size:11.95510006px;font-variant:normal;font-weight:normal;font-stretch:normal;writing-mode:lr-tb;fill:#000000;fill-opacity:1;fill-rule:nonzero;stroke:none;font-family:cmss 12;-inkscape-font-specification:cmss12">oamXHostBr</tspan></text>
<text
         id="text16596"
         transform="matrix(1,0,0,-1,120.3579,51.0928)"><tspan
           id="tspan16598"
           y="0"
           x="0"
           style="font-size:11.95510006px;font-variant:normal;font-weight:normal;font-stretch:normal;writing-mode:lr-tb;fill:#000000;fill-opacity:1;fill-rule:nonzero;stroke:none;font-family:cmss 12;-inkscape-font-specification:cmss12">o</tspan></text>
<text
         id="text16600"
         transform="matrix(1,0,0,-1,125.8994,51.0928)"><tspan
           id="tspan16602"
           sodipodi:role="line"
           y="0"
           x="0 7.9501414 12.433304 17.633772"
           style="font-size:11.95510006px;font-variant:normal;font-weight:normal;font-stretch:normal;writing-mode:lr-tb;fill:#000000;fill-opacity:1;fill-rule:nonzero;stroke:none;font-family:cmss 12;-inkscape-font-specification:cmss12">wser</tspan></text>
<text
         id="text16604"
         transform="matrix(1,0,0,-1,55.5654,5.7329)"><tspan
           id="tspan16606"
           y="0"
           x="0"
           style="font-size:11.95510006px;font-variant:normal;font-weight:normal;font-stretch:normal;writing-mode:lr-tb;fill:#000000;fill-opacity:1;fill-rule:nonzero;stroke:none;font-family:cmss 12;-inkscape-font-specification:cmss12">F</tspan></text>
<text
         id="text16608"
         transform="matrix(1,0,0,-1,61.8911,5.7329)"><tspan
           id="tspan16610"
           sodipodi:role="line"
           y="0"
           x="0 5.8460441 11.452986"
           style="font-size:11.95510006px;font-variant:normal;font-weight:normal;font-stretch:normal;writing-mode:lr-tb;fill:#000000;fill-opacity:1;fill-rule:nonzero;stroke:none;font-family:cmss 12;-inkscape-font-specification:cmss12">oam</tspan></text>
<text
         id="text16612"
         transform="matrix(1,0,0,-1,82.6035,5.7329)"><tspan
           id="tspan16614"
           y="0"
           x="0"
           style="font-size:11.95510006px;font-variant:normal;font-weight:normal;font-stretch:normal;writing-mode:lr-tb;fill:#000000;fill-opacity:1;fill-rule:nonzero;stroke:none;font-family:cmss 12;-inkscape-font-specification:cmss12">X</tspan></text>
<text
         id="text16616"
         transform="matrix(1,0,0,-1,90.0156,5.7329)"><tspan
           id="tspan16618"
           sodipodi:role="line"
           y="0"
           x="0 7.4838924 13.090835 17.573997 22.774466 29.27804 34.478508 38.459557 43.815441 49.015911"
           style="font-size:11.95510006px;font-variant:normal;font-weight:normal;font-stretch:normal;writing-mode:lr-tb;fill:#000000;fill-opacity:1;fill-rule:nonzero;stroke:none;font-family:cmss 12;-inkscape-font-specification:cmss12">CaseServer</tspan></text>
<text
         id="text16620"
         transform="matrix(1,0,0,-1,4.3916,124.7939)"><tspan
           id="tspan16622"
           sodipodi:role="line"
           y="0"
           x="0 4.6146684 9.1695614 15.015606"
           style="font-size:11.95510006px;font-variant:normal;font-weight:normal;font-stretch:normal;writing-mode:lr-tb;fill:#000000;fill-opacity:1;fill-rule:nonzero;stroke:none;font-family:cmr 12;-inkscape-font-specification:cmr12">star</tspan></text>
<text
         id="text16624"
         transform="matrix(1,0,0,-1,23.9658,124.7939)"><tspan
           id="tspan16626"
           y="0"
           x="0"
           style="font-size:11.95510006px;font-variant:normal;font-weight:normal;font-stretch:normal;writing-mode:lr-tb;fill:#000000;fill-opacity:1;fill-rule:nonzero;stroke:none;font-family:cmr 12;-inkscape-font-specification:cmr12">t</tspan></text>
<text
         id="text16628"
         transform="matrix(1,0,0,-1,32.415,124.7939)"><tspan
           id="tspan16630"
           sodipodi:role="line"
           y="0"
           x="0 6.5035744 12.349618"
           style="font-size:11.95510006px;font-variant:normal;font-weight:normal;font-stretch:normal;writing-mode:lr-tb;fill:#000000;fill-opacity:1;fill-rule:nonzero;stroke:none;font-family:cmr 12;-inkscape-font-specification:cmr12">nam</tspan></text>
<text
         id="text16632"
         transform="matrix(1,0,0,-1,54.5264,124.7939)"><tspan
           id="tspan16634"
           y="0"
           x="0"
           style="font-size:11.95510006px;font-variant:normal;font-weight:normal;font-stretch:normal;writing-mode:lr-tb;fill:#000000;fill-opacity:1;fill-rule:nonzero;stroke:none;font-family:cmr 12;-inkscape-font-specification:cmr12">e</tspan></text>
<text
         id="text16636"
         transform="matrix(1,0,0,-1,63.6265,124.7939)"><tspan
           id="tspan16638"
           sodipodi:role="line"
           y="0"
           x="0 4.6146684 9.8151369"
           style="font-size:11.95510006px;font-variant:normal;font-weight:normal;font-stretch:normal;writing-mode:lr-tb;fill:#000000;fill-opacity:1;fill-rule:nonzero;stroke:none;font-family:cmr 12;-inkscape-font-specification:cmr12">ser</tspan></text>
<text
         id="text16640"
         transform="matrix(1,0,0,-1,77.998,124.7939)"><tspan
           id="tspan16642"
           y="0"
           x="0"
           style="font-size:11.95510006px;font-variant:normal;font-weight:normal;font-stretch:normal;writing-mode:lr-tb;fill:#000000;fill-opacity:1;fill-rule:nonzero;stroke:none;font-family:cmr 12;-inkscape-font-specification:cmr12">v</tspan></text>
<text
         id="text16644"
         transform="matrix(1,0,0,-1,83.853,124.7939)"><tspan
           id="tspan16646"
           sodipodi:role="line"
           y="0"
           x="0 5.2004685"
           style="font-size:11.95510006px;font-variant:normal;font-weight:normal;font-stretch:normal;writing-mode:lr-tb;fill:#000000;fill-opacity:1;fill-rule:nonzero;stroke:none;font-family:cmr 12;-inkscape-font-specification:cmr12">er</tspan></text>
<text
         id="text16648"
         transform="matrix(1,0,0,-1,5.2378,79.4341)"><tspan
           id="tspan16650"
           sodipodi:role="line"
           y="0"
           x="0 4.554893 9.7553616 15.61336 18.865149 23.479816 28.03471"
           style="font-size:11.95510006px;font-variant:normal;font-weight:normal;font-stretch:normal;writing-mode:lr-tb;fill:#000000;fill-opacity:1;fill-rule:nonzero;stroke:none;font-family:cmr 12;-inkscape-font-specification:cmr12">registe</tspan></text>
<text
         id="text16652"
         transform="matrix(1,0,0,-1,38.4683,79.4341)"><tspan
           id="tspan16654"
           y="0"
           x="0"
           style="font-size:11.95510006px;font-variant:normal;font-weight:normal;font-stretch:normal;writing-mode:lr-tb;fill:#000000;fill-opacity:1;fill-rule:nonzero;stroke:none;font-family:cmr 12;-inkscape-font-specification:cmr12">r</tspan></text>
<text
         id="text16656"
         transform="matrix(1,0,0,-1,46.9297,79.4341)"><tspan
           id="tspan16658"
           sodipodi:role="line"
           y="0"
           x="0 6.5035744"
           style="font-size:11.95510006px;font-variant:normal;font-weight:normal;font-stretch:normal;writing-mode:lr-tb;fill:#000000;fill-opacity:1;fill-rule:nonzero;stroke:none;font-family:cmr 12;-inkscape-font-specification:cmr12">pr</tspan></text>
<text
         id="text16660"
         transform="matrix(1,0,0,-1,57.9854,79.4341)"><tspan
           id="tspan16662"
           y="0"
           x="0"
           style="font-size:11.95510006px;font-variant:normal;font-weight:normal;font-stretch:normal;writing-mode:lr-tb;fill:#000000;fill-opacity:1;fill-rule:nonzero;stroke:none;font-family:cmr 12;-inkscape-font-specification:cmr12">o</tspan></text>
<text
         id="text16664"
         transform="matrix(1,0,0,-1,64.1606,79.4341)"><tspan
           id="tspan16666"
           sodipodi:role="line"
           y="0"
           x="0 5.2004685 10.400937 15.015606 19.630274 24.830742"
           style="font-size:11.95510006px;font-variant:normal;font-weight:normal;font-stretch:normal;writing-mode:lr-tb;fill:#000000;fill-opacity:1;fill-rule:nonzero;stroke:none;font-family:cmr 12;-inkscape-font-specification:cmr12">cesses</tspan></text>
<text
         id="text16668"
         transform="matrix(1,0,0,-1,65.9155,150.3086)"><tspan
           id="tspan16670"
           sodipodi:role="line"
           y="0"
           x="0 3.9810483 9.9825087"
           style="font-size:11.95510006px;font-variant:normal;font-weight:normal;font-stretch:normal;writing-mode:lr-tb;fill:#000000;fill-opacity:1;fill-rule:nonzero;stroke:none;font-family:cmss 12;-inkscape-font-specification:cmss12">run</tspan></text>
<text
         id="text16672"
         transform="matrix(1,0,0,-1,81.9043,150.3086)"><tspan
           id="tspan16674"
           y="0"
           x="0"
           style="font-size:11.95510006px;font-variant:normal;font-weight:normal;font-stretch:normal;writing-mode:lr-tb;fill:#000000;fill-opacity:1;fill-rule:nonzero;stroke:none;font-family:cmss 12;-inkscape-font-specification:cmss12">F</tspan></text>
<text
         id="text16676"
         transform="matrix(1,0,0,-1,88.23,150.3086)"><tspan
           id="tspan16678"
           sodipodi:role="line"
           y="0"
           x="0 5.8460441 11.452986 20.706234 28.441183 36.64238"
           style="font-size:11.95510006px;font-variant:normal;font-weight:normal;font-stretch:normal;writing-mode:lr-tb;fill:#000000;fill-opacity:1;fill-rule:nonzero;stroke:none;font-family:cmss 12;-inkscape-font-specification:cmss12">oamXHB</tspan></text>
<text
         id="text16680"
         transform="matrix(1,0,0,-1,86.0303,96.4438)"><tspan
           id="tspan16682"
           sodipodi:role="line"
           y="0"
           x="0 6.0014601 10.484623 13.73641 17.717459 22.917927"
           style="font-size:11.95510006px;font-variant:normal;font-weight:normal;font-stretch:normal;writing-mode:lr-tb;fill:#000000;fill-opacity:1;fill-rule:nonzero;stroke:none;font-family:cmssi 12;-inkscape-font-specification:cmssi12">ns.ref</tspan></text>
</g></g></svg>