<?xml version="1.0" encoding="UTF-8" standalone="no"?>
<!-- Created with Inkscape (http://www.inkscape.org/) -->
<svg
   xmlns:dc="http://purl.org/dc/elements/1.1/"
   xmlns:cc="http://creativecommons.org/ns#"
   xmlns:rdf="http://www.w3.org/1999/02/22-rdf-syntax-ns#"
   xmlns:svg="http://www.w3.org/2000/svg"
   xmlns="http://www.w3.org/2000/svg"
   xmlns:sodipodi="http://sodipodi.sourceforge.net/DTD/sodipodi-0.dtd"
   xmlns:inkscape="http://www.inkscape.org/namespaces/inkscape"
   id="svg10837"
   sodipodi:version="0.32"
   inkscape:version="0.46"
   width="348.99057"
   height="265.71835"
   xml:space="preserve"
   sodipodi:docname="fig-5-5.svg"
   version="1.0"
   inkscape:output_extension="org.inkscape.output.svg.inkscape"><metadata
     id="metadata10842"><rdf:RDF><cc:Work
         rdf:about=""><dc:format>image/svg+xml</dc:format><dc:type
           rdf:resource="http://purl.org/dc/dcmitype/StillImage" /></cc:Work></rdf:RDF></metadata><defs
     id="defs10840"><inkscape:perspective
   sodipodi:type="inkscape:persp3d"
   inkscape:vp_x="0 : 526.18109 : 1"
   inkscape:vp_y="0 : 1000 : 0"
   inkscape:vp_z="744.09448 : 526.18109 : 1"
   inkscape:persp3d-origin="372.04724 : 350.78739 : 1"
   id="perspective10844" /><clipPath
   clipPathUnits="userSpaceOnUse"
   id="clipPath10860"><path
     d="M 0,-0.001 L 273,-0.001 L 273,212 L 0,212 L 0,-0.001 z"
     id="path10862" /></clipPath><clipPath
   clipPathUnits="userSpaceOnUse"
   id="clipPath10872"><path
     d="M 0,-0.001 L 273,-0.001 L 273,212 L 0,212 L 0,-0.001 z M 120.152,135.463 L 119.838,139.241 L 110.956,138.423 L 118.704,137.163 L 111.271,134.707 L 120.152,135.463 z"
     clip-rule="evenodd"
     id="path10874" /></clipPath><clipPath
   clipPathUnits="userSpaceOnUse"
   id="clipPath10882"><path
     d="M 0,-0.001 L 273,-0.001 L 273,212 L 0,212 L 0,-0.001 z"
     id="path10884" /></clipPath><clipPath
   clipPathUnits="userSpaceOnUse"
   id="clipPath10894"><path
     d="M 0,-0.001 L 273,-0.001 L 273,212 L 0,212 L 0,-0.001 z M 203.615,108.439 L 199.961,109.321 L 198.01,100.629 L 201.537,107.558 L 201.662,99.81 L 203.615,108.439 z"
     clip-rule="evenodd"
     id="path10896" /></clipPath><clipPath
   clipPathUnits="userSpaceOnUse"
   id="clipPath10904"><path
     d="M 0,-0.001 L 273,-0.001 L 273,212 L 0,212 L 0,-0.001 z"
     id="path10906" /></clipPath><clipPath
   clipPathUnits="userSpaceOnUse"
   id="clipPath10920"><path
     d="M 0,-0.001 L 273,-0.001 L 273,212 L 0,212 L 0,-0.001 z M 54.832,10.489 L 54.77,14.27 L 45.258,14.081 L 52.879,12.316 L 45.32,10.301 L 54.832,10.489 z"
     clip-rule="evenodd"
     id="path10922" /></clipPath><clipPath
   clipPathUnits="userSpaceOnUse"
   id="clipPath10930"><path
     d="M 0,-0.001 L 273,-0.001 L 273,212 L 0,212 L 0,-0.001 z"
     id="path10932" /></clipPath><clipPath
   clipPathUnits="userSpaceOnUse"
   id="clipPath10942"><path
     d="M 0,-0.001 L 273,-0.001 L 273,212 L 0,212 L 0,-0.001 z M 47.21,32.978 L 45.006,36.063 L 37.32,30.521 L 44.564,33.355 L 39.463,27.435 L 47.21,32.978 z"
     clip-rule="evenodd"
     id="path10944" /></clipPath><clipPath
   clipPathUnits="userSpaceOnUse"
   id="clipPath10952"><path
     d="M 0,-0.001 L 273,-0.001 L 273,212 L 0,212 L 0,-0.001 z"
     id="path10954" /></clipPath><clipPath
   clipPathUnits="userSpaceOnUse"
   id="clipPath10964"><path
     d="M 0,-0.001 L 273,-0.001 L 273,212 L 0,212 L 0,-0.001 z M 14.456,49.48 L 10.676,49.292 L 11.117,39.78 L 12.691,47.402 L 14.896,39.97 L 14.456,49.48 z"
     clip-rule="evenodd"
     id="path10966" /></clipPath><clipPath
   clipPathUnits="userSpaceOnUse"
   id="clipPath10974"><path
     d="M 0,-0.001 L 273,-0.001 L 273,212 L 0,212 L 0,-0.001 z"
     id="path10976" /></clipPath><clipPath
   clipPathUnits="userSpaceOnUse"
   id="clipPath10986"><path
     d="M 0,-0.001 L 273,-0.001 L 273,212 L 0,212 L 0,-0.001 z M 108.689,4.002 L 108.689,7.781 L 99.807,7.781 L 107.365,5.892 L 99.807,4.002 L 108.689,4.002 z"
     clip-rule="evenodd"
     id="path10988" /></clipPath><clipPath
   clipPathUnits="userSpaceOnUse"
   id="clipPath10996"><path
     d="M 0,-0.001 L 273,-0.001 L 273,212 L 0,212 L 0,-0.001 z"
     id="path10998" /></clipPath><clipPath
   clipPathUnits="userSpaceOnUse"
   id="clipPath11008"><path
     d="M 0,-0.001 L 273,-0.001 L 273,212 L 0,212 L 0,-0.001 z M 156.877,57.858 L 156.877,61.638 L 147.994,61.638 L 155.553,59.749 L 147.994,57.858 L 156.877,57.858 z"
     clip-rule="evenodd"
     id="path11010" /></clipPath><clipPath
   clipPathUnits="userSpaceOnUse"
   id="clipPath11018"><path
     d="M 0,-0.001 L 273,-0.001 L 273,212 L 0,212 L 0,-0.001 z"
     id="path11020" /></clipPath><clipPath
   clipPathUnits="userSpaceOnUse"
   id="clipPath11030"><path
     d="M 0,-0.001 L 273,-0.001 L 273,212 L 0,212 L 0,-0.001 z M 176.781,205.947 L 176.592,209.728 L 167.711,209.287 L 175.395,207.774 L 167.898,205.508 L 176.781,205.947 z"
     clip-rule="evenodd"
     id="path11032" /></clipPath><clipPath
   clipPathUnits="userSpaceOnUse"
   id="clipPath11040"><path
     d="M 0,-0.001 L 273,-0.001 L 273,212 L 0,212 L 0,-0.001 z"
     id="path11042" /></clipPath><clipPath
   clipPathUnits="userSpaceOnUse"
   id="clipPath11054"><path
     d="M 0,-0.001 L 273,-0.001 L 273,212 L 0,212 L 0,-0.001 z M 70.58,43.434 L 68.249,46.395 L 61.257,40.852 L 68.375,44.063 L 63.588,37.891 L 70.58,43.434 z"
     clip-rule="evenodd"
     id="path11056" /></clipPath><clipPath
   clipPathUnits="userSpaceOnUse"
   id="clipPath11064"><path
     d="M 0,-0.001 L 273,-0.001 L 273,212 L 0,212 L 0,-0.001 z"
     id="path11066" /></clipPath><clipPath
   clipPathUnits="userSpaceOnUse"
   id="clipPath11076"><path
     d="M 0,-0.001 L 273,-0.001 L 273,212 L 0,212 L 0,-0.001 z M 245.188,186.735 L 242.418,189.318 L 236.369,182.768 L 242.92,186.987 L 239.141,180.185 L 245.188,186.735 z"
     clip-rule="evenodd"
     id="path11078" /></clipPath><clipPath
   clipPathUnits="userSpaceOnUse"
   id="clipPath11086"><path
     d="M 0,-0.001 L 273,-0.001 L 273,212 L 0,212 L 0,-0.001 z"
     id="path11088" /></clipPath><clipPath
   clipPathUnits="userSpaceOnUse"
   id="clipPath11098"><path
     d="M 0,-0.001 L 273,-0.001 L 273,212 L 0,212 L 0,-0.001 z M 222.449,41.48 L 219.803,44.127 L 213.441,37.828 L 220.182,41.796 L 216.15,35.12 L 222.449,41.48 z"
     clip-rule="evenodd"
     id="path11100" /></clipPath><clipPath
   clipPathUnits="userSpaceOnUse"
   id="clipPath11108"><path
     d="M 0,-0.001 L 273,-0.001 L 273,212 L 0,212 L 0,-0.001 z"
     id="path11110" /></clipPath><clipPath
   clipPathUnits="userSpaceOnUse"
   id="clipPath11120"><path
     d="M 0,-0.001 L 273,-0.001 L 273,212 L 0,212 L 0,-0.001 z M 50.171,180.311 L 47.588,183.083 L 41.038,177.036 L 47.902,180.753 L 43.619,174.265 L 50.171,180.311 z"
     clip-rule="evenodd"
     id="path11122" /></clipPath><clipPath
   clipPathUnits="userSpaceOnUse"
   id="clipPath11130"><path
     d="M 0,-0.001 L 273,-0.001 L 273,212 L 0,212 L 0,-0.001 z"
     id="path11132" /></clipPath><clipPath
   clipPathUnits="userSpaceOnUse"
   id="clipPath11142"><path
     d="M 0,-0.001 L 273,-0.001 L 273,212 L 0,212 L 0,-0.001 z M 17.605,94.519 L 13.826,94.33 L 14.268,85.448 L 15.779,93.069 L 18.046,85.638 L 17.605,94.519 z"
     clip-rule="evenodd"
     id="path11144" /></clipPath><clipPath
   clipPathUnits="userSpaceOnUse"
   id="clipPath11152"><path
     d="M 0,-0.001 L 273,-0.001 L 273,212 L 0,212 L 0,-0.001 z"
     id="path11154" /></clipPath><clipPath
   clipPathUnits="userSpaceOnUse"
   id="clipPath11164"><path
     d="M 0,-0.001 L 273,-0.001 L 273,212 L 0,212 L 0,-0.001 z M 73.099,131.305 L 69.32,131.305 L 69.32,122.424 L 71.21,129.982 L 73.099,122.424 L 73.099,131.305 z"
     clip-rule="evenodd"
     id="path11166" /></clipPath><clipPath
   clipPathUnits="userSpaceOnUse"
   id="clipPath11174"><path
     d="M 0,-0.001 L 273,-0.001 L 273,212 L 0,212 L 0,-0.001 z"
     id="path11176" /></clipPath><clipPath
   clipPathUnits="userSpaceOnUse"
   id="clipPath11186"><path
     d="M 0,-0.001 L 273,-0.001 L 273,212 L 0,212 L 0,-0.001 z M 255.582,136.596 L 251.928,137.478 L 249.975,128.786 L 253.504,135.715 L 253.629,127.967 L 255.582,136.596 z"
     clip-rule="evenodd"
     id="path11188" /></clipPath><clipPath
   clipPathUnits="userSpaceOnUse"
   id="clipPath11196"><path
     d="M 0,-0.001 L 273,-0.001 L 273,212 L 0,212 L 0,-0.001 z"
     id="path11198" /></clipPath>

























</defs><sodipodi:namedview
     inkscape:window-height="1125"
     inkscape:window-width="1600"
     inkscape:pageshadow="2"
     inkscape:pageopacity="0.0"
     guidetolerance="10.0"
     gridtolerance="10.0"
     objecttolerance="10.0"
     borderopacity="1.0"
     bordercolor="#666666"
     pagecolor="#ffffff"
     id="base"
     showgrid="false"
     inkscape:zoom="3.7283018"
     inkscape:cx="150.15837"
     inkscape:cy="78.884651"
     inkscape:window-x="0"
     inkscape:window-y="25"
     inkscape:current-layer="g10846" /><g
     id="g10846"
     inkscape:groupmode="layer"
     inkscape:label="fig-5-5"
     transform="matrix(1.25,0,0,-1.25,-0.4028596,267.04932)"><text
       transform="scale(1,-1)"
       id="text11274"
       x="90.719704"
       y="-3.0869"><tspan
         style="font-size:9.96259975px;font-variant:normal;font-weight:normal;font-stretch:normal;writing-mode:lr-tb;fill:#221814;fill-opacity:1;fill-rule:nonzero;stroke:none;font-family:cmr 10;-inkscape-font-specification:cmr10"
         x="90.719704"
         y="-3.0869"
         id="tspan11276">0</tspan></text>
<path
       d="M 185.223,15.341 L 14.204,11.561 L 8.535,139.115 L 218.291,150.454"
       style="fill:none;stroke:#000000;stroke-width:0.472;stroke-linecap:butt;stroke-linejoin:miter;stroke-miterlimit:10;stroke-dasharray:none;stroke-opacity:1"
       id="path11204" /><g
       id="g10856"><g
         id="g10858"
         clip-path="url(#clipPath10860)"><path
           d="M 184.27,14.451 C 183.348,22.192 182.885,29.981 182.885,37.776 C 182.885,78.086 195.252,117.425 218.314,150.482"
           style="fill:none;stroke:#000000;stroke-width:0.472;stroke-linecap:butt;stroke-linejoin:miter;stroke-miterlimit:10;stroke-dasharray:none;stroke-opacity:1"
           id="path10864" /><path
           d="M 223.961,54.079 L 269.313,207.145"
           style="fill:none;stroke:#000000;stroke-width:0.472;stroke-linecap:butt;stroke-linejoin:miter;stroke-miterlimit:10;stroke-dasharray:none;stroke-opacity:1"
           id="path10866" /></g></g><g
       id="g10868"
       transform="matrix(0.4703722,0,0,0.4703722,56.939221,72.052679)"><g
         id="g10870"
         clip-path="url(#clipPath10872)"><path
           d="M 107.744,136.28 L 119.082,137.226"
           style="fill:none;stroke:#000000;stroke-width:1.00346053;stroke-linecap:butt;stroke-linejoin:miter;stroke-miterlimit:10;stroke-dasharray:none;stroke-opacity:1"
           id="path10876" /></g></g><g
       id="g10878"><g
         id="g10880"
         clip-path="url(#clipPath10882)"><path
           d="M 111.271,134.707 L 118.704,137.163 L 110.956,138.423 L 111.271,134.707 z"
           style="fill:#000000;fill-opacity:1;fill-rule:evenodd;stroke:none"
           id="path10886" /><path
           d="M 111.271,134.707 L 118.704,137.163 L 110.956,138.423 L 111.271,134.707 z"
           style="fill:none;stroke:#000000;stroke-width:0.189;stroke-linecap:butt;stroke-linejoin:miter;stroke-miterlimit:10;stroke-dasharray:none;stroke-opacity:1"
           id="path10888" /></g></g><g
       id="g10890"
       transform="matrix(0.633716,0,0,0.633716,72.833375,35.411238)"><g
         id="g10892"
         clip-path="url(#clipPath10894)"><path
           d="M 199.08,96.913 L 201.6,107.936"
           style="fill:none;stroke:#000000;stroke-width:0.74481314;stroke-linecap:butt;stroke-linejoin:miter;stroke-miterlimit:10;stroke-dasharray:none;stroke-opacity:1"
           id="path10898" /></g></g><g
       id="g10900"><g
         id="g10902"
         clip-path="url(#clipPath10904)"><path
           d="M 201.662,99.81 L 201.537,107.558 L 198.01,100.629 L 201.662,99.81 z"
           style="fill:#000000;fill-opacity:1;fill-rule:evenodd;stroke:none"
           id="path10908" /><path
           d="M 201.662,99.81 L 201.537,107.558 L 198.01,100.629 L 201.662,99.81 z"
           style="fill:none;stroke:#000000;stroke-width:0.189;stroke-linecap:butt;stroke-linejoin:miter;stroke-miterlimit:10;stroke-dasharray:none;stroke-opacity:1"
           id="path10910" /><path
           d="M 77.509,197.696 L 76.564,55.969 L 223.961,54.079"
           style="fill:none;stroke:#000000;stroke-width:0.472;stroke-linecap:butt;stroke-linejoin:miter;stroke-miterlimit:10;stroke-dasharray:3.779, 3.779;stroke-dashoffset:0;stroke-opacity:1"
           id="path10912" /><path
           d="M 76.564,55.969 L 14.204,11.561"
           style="fill:none;stroke:#000000;stroke-width:0.472;stroke-linecap:butt;stroke-linejoin:miter;stroke-miterlimit:10;stroke-dasharray:3.779, 3.779;stroke-dashoffset:0;stroke-opacity:1"
           id="path10914" /></g></g><g
       id="g10916"
       transform="matrix(0.8415564,0,0,0.8415564,2.1756685,1.8915791)"><g
         id="g10918"
         clip-path="url(#clipPath10920)"><path
           d="M 14.204,11.561 L 53.887,12.316"
           style="fill:none;stroke:#000000;stroke-width:1.12291944;stroke-linecap:butt;stroke-linejoin:miter;stroke-miterlimit:10;stroke-dasharray:none;stroke-opacity:1"
           id="path10924" /></g></g><g
       id="g10926"><g
         id="g10928"
         clip-path="url(#clipPath10930)"><path
           d="M 45.32,10.301 L 52.879,12.316 L 45.258,14.081 L 45.32,10.301 z"
           style="fill:#000000;fill-opacity:1;fill-rule:evenodd;stroke:none"
           id="path10934" /><path
           d="M 45.32,10.301 L 52.879,12.316 L 45.258,14.081 L 45.32,10.301 z"
           style="fill:none;stroke:#000000;stroke-width:0.472;stroke-linecap:butt;stroke-linejoin:miter;stroke-miterlimit:10;stroke-dasharray:none;stroke-opacity:1"
           id="path10936" /></g></g><g
       id="g10938"
       transform="matrix(0.8342838,0,0,0.8342838,2.2755325,1.8375445)"><g
         id="g10940"
         clip-path="url(#clipPath10942)"><path
           d="M 14.204,11.561 L 45.384,33.923"
           style="fill:none;stroke:#000000;stroke-width:1.13270807;stroke-linecap:butt;stroke-linejoin:miter;stroke-miterlimit:10;stroke-dasharray:none;stroke-opacity:1"
           id="path10946" /></g></g><g
       id="g10948"><g
         id="g10950"
         clip-path="url(#clipPath10952)"><path
           d="M 39.463,27.435 L 44.564,33.355 L 37.32,30.521 L 39.463,27.435 z"
           style="fill:#000000;fill-opacity:1;fill-rule:evenodd;stroke:none"
           id="path10956" /><path
           d="M 39.463,27.435 L 44.564,33.355 L 37.32,30.521 L 39.463,27.435 z"
           style="fill:none;stroke:#000000;stroke-width:0.472;stroke-linecap:butt;stroke-linejoin:miter;stroke-miterlimit:10;stroke-dasharray:none;stroke-opacity:1"
           id="path10958" /></g></g><g
       id="g10960"
       transform="matrix(0.8198174,0,0,0.8198174,2.6898553,1.9411968)"><g
         id="g10962"
         clip-path="url(#clipPath10964)"><path
           d="M 14.456,11.246 L 12.629,48.409"
           style="fill:none;stroke:#000000;stroke-width:1.15269566;stroke-linecap:butt;stroke-linejoin:miter;stroke-miterlimit:10;stroke-dasharray:none;stroke-opacity:1"
           id="path10968" /></g></g><g
       id="g10970"><g
         id="g10972"
         clip-path="url(#clipPath10974)"><path
           d="M 14.896,39.97 L 12.691,47.402 L 11.117,39.78 L 14.896,39.97 z"
           style="fill:#000000;fill-opacity:1;fill-rule:evenodd;stroke:none"
           id="path10978" /><path
           d="M 14.896,39.97 L 12.691,47.402 L 11.117,39.78 L 14.896,39.97 z"
           style="fill:none;stroke:#000000;stroke-width:0.472;stroke-linecap:butt;stroke-linejoin:miter;stroke-miterlimit:10;stroke-dasharray:none;stroke-opacity:1"
           id="path10980" /></g></g><g
       id="g10982"
       transform="matrix(0.5366926,0,0,1,44.55627,0)"><g
         id="g10984"
         clip-path="url(#clipPath10986)"><path
           d="M 96.406,5.892 L 107.744,5.892"
           style="fill:none;stroke:#000000;stroke-width:0.64428675;stroke-linecap:butt;stroke-linejoin:miter;stroke-miterlimit:10;stroke-dasharray:none;stroke-opacity:1"
           id="path10990" /></g></g><g
       id="g10992"><g
         id="g10994"
         clip-path="url(#clipPath10996)"><path
           d="M 99.807,4.002 L 107.365,5.892 L 99.807,7.781 L 99.807,4.002 z"
           style="fill:#000000;fill-opacity:1;fill-rule:evenodd;stroke:none"
           id="path11000" /><path
           d="M 99.807,4.002 L 107.365,5.892 L 99.807,7.781 L 99.807,4.002 z"
           style="fill:none;stroke:#000000;stroke-width:0.189;stroke-linecap:butt;stroke-linejoin:miter;stroke-miterlimit:10;stroke-dasharray:none;stroke-opacity:1"
           id="path11002" /></g></g><g
       id="g11004"><g
         id="g11006"
         clip-path="url(#clipPath11008)"><path
           d="M 144.594,59.749 L 155.932,59.749"
           style="fill:none;stroke:#000000;stroke-width:0.472;stroke-linecap:butt;stroke-linejoin:miter;stroke-miterlimit:10;stroke-dasharray:none;stroke-opacity:1"
           id="path11012" /></g></g><g
       id="g11014"><g
         id="g11016"
         clip-path="url(#clipPath11018)"><path
           d="M 147.994,57.858 L 155.553,59.749 L 147.994,61.638 L 147.994,57.858 z"
           style="fill:#000000;fill-opacity:1;fill-rule:evenodd;stroke:none"
           id="path11022" /><path
           d="M 147.994,57.858 L 155.553,59.749 L 147.994,61.638 L 147.994,57.858 z"
           style="fill:none;stroke:#000000;stroke-width:0.189;stroke-linecap:butt;stroke-linejoin:miter;stroke-miterlimit:10;stroke-dasharray:none;stroke-opacity:1"
           id="path11024" /></g></g><g
       id="g11026"
       transform="matrix(0.659516,0,0,0.659516,55.907469,70.449199)"><g
         id="g11028"
         clip-path="url(#clipPath11030)"><path
           d="M 164.436,207.145 L 175.773,207.774"
           style="fill:none;stroke:#000000;stroke-width:0.71567631;stroke-linecap:butt;stroke-linejoin:miter;stroke-miterlimit:10;stroke-dasharray:none;stroke-opacity:1"
           id="path11034" /></g></g><g
       id="g11036"><g
         id="g11038"
         clip-path="url(#clipPath11040)"><path
           d="M 167.898,205.508 L 175.395,207.774 L 167.711,209.287 L 167.898,205.508 z"
           style="fill:#000000;fill-opacity:1;fill-rule:evenodd;stroke:none"
           id="path11044" /><path
           d="M 167.898,205.508 L 175.395,207.774 L 167.711,209.287 L 167.898,205.508 z"
           style="fill:none;stroke:#000000;stroke-width:0.189;stroke-linecap:butt;stroke-linejoin:miter;stroke-miterlimit:10;stroke-dasharray:none;stroke-opacity:1"
           id="path11046" /><path
           d="M 8.535,139.115 L 77.509,197.696 L 269.313,207.145 L 218.291,150.454"
           style="fill:none;stroke:#000000;stroke-width:0.472;stroke-linecap:butt;stroke-linejoin:miter;stroke-miterlimit:10;stroke-dasharray:none;stroke-opacity:1"
           id="path11048" /></g></g><g
       id="g11050"
       transform="matrix(0.4994365,0,0,0.4994365,29.693429,18.438258)"><g
         id="g11052"
         clip-path="url(#clipPath11054)"><path
           d="M 59.556,37.071 L 68.689,44.315"
           style="fill:none;stroke:#000000;stroke-width:0.94506514;stroke-linecap:butt;stroke-linejoin:miter;stroke-miterlimit:10;stroke-dasharray:none;stroke-opacity:1"
           id="path11058" /></g></g><g
       id="g11060"><g
         id="g11062"
         clip-path="url(#clipPath11064)"><path
           d="M 63.588,37.891 L 68.375,44.063 L 61.257,40.852 L 63.588,37.891 z"
           style="fill:#000000;fill-opacity:1;fill-rule:evenodd;stroke:none"
           id="path11068" /><path
           d="M 63.588,37.891 L 68.375,44.063 L 61.257,40.852 L 63.588,37.891 z"
           style="fill:none;stroke:#000000;stroke-width:0.189;stroke-linecap:butt;stroke-linejoin:miter;stroke-miterlimit:10;stroke-dasharray:none;stroke-opacity:1"
           id="path11070" /></g></g><g
       id="g11072"
       transform="matrix(0.5773611,0,0,0.5773611,99.346771,75.468095)"><g
         id="g11074"
         clip-path="url(#clipPath11076)"><path
           d="M 235.299,178.8 L 243.172,187.303"
           style="fill:none;stroke:#000000;stroke-width:0.81751269;stroke-linecap:butt;stroke-linejoin:miter;stroke-miterlimit:10;stroke-dasharray:none;stroke-opacity:1"
           id="path11080" /></g></g><g
       id="g11082"><g
         id="g11084"
         clip-path="url(#clipPath11086)"><path
           d="M 239.141,180.185 L 242.92,186.987 L 236.369,182.768 L 239.141,180.185 z"
           style="fill:#000000;fill-opacity:1;fill-rule:evenodd;stroke:none"
           id="path11090" /><path
           d="M 239.141,180.185 L 242.92,186.987 L 236.369,182.768 L 239.141,180.185 z"
           style="fill:none;stroke:#000000;stroke-width:0.189;stroke-linecap:butt;stroke-linejoin:miter;stroke-miterlimit:10;stroke-dasharray:none;stroke-opacity:1"
           id="path11092" /></g></g><g
       id="g11094"><g
         id="g11096"
         clip-path="url(#clipPath11098)"><path
           d="M 212.62301,34.237002 L 216.58002,38.19401"
           style="fill:none;stroke:#000000;stroke-width:0.47200006;stroke-linecap:butt;stroke-linejoin:miter;stroke-miterlimit:10;stroke-dasharray:none;stroke-opacity:1"
           id="path11102" /></g></g><g
       id="g11104"><g
         id="g11106"
         clip-path="url(#clipPath11108)"><path
           d="M 216.15,35.12 L 220.182,41.796 L 213.441,37.828 L 216.15,35.12 z"
           style="fill:#000000;fill-opacity:1;fill-rule:evenodd;stroke:none"
           id="path11112" /><path
           d="M 216.15,35.12 L 220.182,41.796 L 213.441,37.828 L 216.15,35.12 z"
           style="fill:none;stroke:#000000;stroke-width:0.189;stroke-linecap:butt;stroke-linejoin:miter;stroke-miterlimit:10;stroke-dasharray:none;stroke-opacity:1"
           id="path11114" /></g></g><g
       id="g11116"
       transform="matrix(0.6657311,0,0,0.6657311,13.196601,57.793417)"><g
         id="g11118"
         clip-path="url(#clipPath11120)"><path
           d="M 39.715,173.131 L 48.219,181.004"
           style="fill:none;stroke:#000000;stroke-width:0.70899493;stroke-linecap:butt;stroke-linejoin:miter;stroke-miterlimit:10;stroke-dasharray:none;stroke-opacity:1"
           id="path11124" /></g></g><g
       id="g11126"><g
         id="g11128"
         clip-path="url(#clipPath11130)"><path
           d="M 43.619,174.265 L 47.902,180.753 L 41.038,177.036 L 43.619,174.265 z"
           style="fill:#000000;fill-opacity:1;fill-rule:evenodd;stroke:none"
           id="path11134" /><path
           d="M 43.619,174.265 L 47.902,180.753 L 41.038,177.036 L 43.619,174.265 z"
           style="fill:none;stroke:#000000;stroke-width:0.189;stroke-linecap:butt;stroke-linejoin:miter;stroke-miterlimit:10;stroke-dasharray:none;stroke-opacity:1"
           id="path11136" /></g></g><g
       id="g11138"
       transform="matrix(0.7013052,0,0,0.7013052,4.9714769,24.54943)"><g
         id="g11140"
         clip-path="url(#clipPath11142)"><path
           d="M 16.408,82.425 L 15.779,93.447"
           style="fill:none;stroke:#000000;stroke-width:0.67303085;stroke-linecap:butt;stroke-linejoin:miter;stroke-miterlimit:10;stroke-dasharray:none;stroke-opacity:1"
           id="path11146" /></g></g><g
       id="g11148"><g
         id="g11150"
         clip-path="url(#clipPath11152)"><path
           d="M 18.046,85.638 L 15.779,93.069 L 14.268,85.448 L 18.046,85.638 z"
           style="fill:#000000;fill-opacity:1;fill-rule:evenodd;stroke:none"
           id="path11156" /><path
           d="M 18.046,85.638 L 15.779,93.069 L 14.268,85.448 L 18.046,85.638 z"
           style="fill:none;stroke:#000000;stroke-width:0.189;stroke-linecap:butt;stroke-linejoin:miter;stroke-miterlimit:10;stroke-dasharray:none;stroke-opacity:1"
           id="path11158" /></g></g><g
       id="g11160"
       transform="matrix(1,0,0,0.4866182,0,61.14428)"><g
         id="g11162"
         clip-path="url(#clipPath11164)"><path
           d="M 71.21,119.337 L 71.21,130.359"
           style="fill:none;stroke:#000000;stroke-width:0.67662466;stroke-linecap:butt;stroke-linejoin:miter;stroke-miterlimit:10;stroke-dasharray:none;stroke-opacity:1"
           id="path11168" /></g></g><g
       id="g11170"><g
         id="g11172"
         clip-path="url(#clipPath11174)"><path
           d="M 73.099,122.424 L 71.21,129.982 L 69.32,122.424 L 73.099,122.424 z"
           style="fill:#000000;fill-opacity:1;fill-rule:evenodd;stroke:none"
           id="path11178" /><path
           d="M 73.099,122.424 L 71.21,129.982 L 69.32,122.424 L 73.099,122.424 z"
           style="fill:none;stroke:#000000;stroke-width:0.189;stroke-linecap:butt;stroke-linejoin:miter;stroke-miterlimit:10;stroke-dasharray:none;stroke-opacity:1"
           id="path11180" /></g></g><g
       id="g11182"
       transform="matrix(0.6080312,0,0,0.6080312,98.310079,48.930246)"><g
         id="g11184"
         clip-path="url(#clipPath11186)"><path
           d="M 251.047,125.068 L 253.566,136.092"
           style="fill:none;stroke:#000000;stroke-width:0.77627593;stroke-linecap:butt;stroke-linejoin:miter;stroke-miterlimit:10;stroke-dasharray:none;stroke-opacity:1"
           id="path11190" /></g></g><path
       d="M 253.629,127.967 L 253.504,135.715 L 249.975,128.786 L 253.629,127.967 z"
       style="fill:#000000;fill-opacity:1;fill-rule:evenodd;stroke:none"
       id="path11200" /><path
       d="M 253.629,127.967 L 253.504,135.715 L 249.975,128.786 L 253.629,127.967 z"
       style="fill:none;stroke:#000000;stroke-width:0.189;stroke-linecap:butt;stroke-linejoin:miter;stroke-miterlimit:10;stroke-dasharray:none;stroke-opacity:1"
       id="path11202" /><path
       d="M 269.061,207.145 L 269.564,207.145"
       style="fill:none;stroke:#000000;stroke-width:0.472;stroke-linecap:butt;stroke-linejoin:miter;stroke-miterlimit:10;stroke-dasharray:none;stroke-opacity:1"
       id="path11206" /><path
       d="M 223.961,54.079 L 185.223,15.341"
       style="fill:none;stroke:#000000;stroke-width:0.472;stroke-linecap:butt;stroke-linejoin:miter;stroke-miterlimit:10;stroke-dasharray:none;stroke-opacity:1"
       id="path11208" /><text
       transform="scale(1,-1)"
       id="text11210"
       x="102.0601"
       y="-133.4971"><tspan
         style="font-size:9.96259975px;font-variant:normal;font-weight:normal;font-stretch:normal;writing-mode:lr-tb;fill:#221814;fill-opacity:1;fill-rule:nonzero;stroke:none;font-family:cmr 10;-inkscape-font-specification:cmr10"
         x="102.0601"
         y="-133.4971"
         id="tspan11212">3</tspan></text>
<text
       transform="scale(1,-1)"
       id="text11214"
       x="195.6055"
       y="-88.136703"><tspan
         style="font-size:9.96259975px;font-variant:normal;font-weight:normal;font-stretch:normal;writing-mode:lr-tb;fill:#221814;fill-opacity:1;fill-rule:nonzero;stroke:none;font-family:cmr 10;-inkscape-font-specification:cmr10"
         x="195.6055"
         y="-88.136703"
         id="tspan11216">9</tspan></text>
<text
       transform="scale(1,-1)"
       id="text11218"
       x="184.26559"
       y="-5.9218998"><tspan
         style="font-size:11.95510006px;font-variant:normal;font-weight:normal;font-stretch:normal;writing-mode:lr-tb;fill:#221814;fill-opacity:1;fill-rule:nonzero;stroke:none;font-family:cmr 12;-inkscape-font-specification:cmr12"
         x="184.26559"
         y="-5.9218998"
         id="tspan11220">1</tspan></text>
<text
       transform="scale(1,-1)"
       id="text11222"
       x="226.791"
       y="-48.446301"><tspan
         style="font-size:11.95510006px;font-variant:normal;font-weight:normal;font-stretch:normal;writing-mode:lr-tb;fill:#221814;fill-opacity:1;fill-rule:nonzero;stroke:none;font-family:cmr 12;-inkscape-font-specification:cmr12"
         x="226.791"
         y="-48.446301"
         id="tspan11224">2</tspan></text>
<text
       transform="scale(1,-1)"
       id="text11226"
       x="39.689899"
       y="-22.931601"><tspan
         style="font-size:11.95510006px;font-variant:normal;font-weight:normal;font-stretch:normal;writing-mode:lr-tb;fill:#221814;fill-opacity:1;fill-rule:nonzero;stroke:none;font-family:cmmi 12;-inkscape-font-specification:cmmi12"
         x="39.689899"
         y="-22.931601"
         id="tspan11228">x</tspan></text>
<text
       transform="scale(1,-1)"
       id="text11230"
       x="46.340302"
       y="-21.1406"><tspan
         style="font-size:7.97009993px;font-variant:normal;font-weight:normal;font-stretch:normal;writing-mode:lr-tb;fill:#221814;fill-opacity:1;fill-rule:nonzero;stroke:none;font-family:cmr 8;-inkscape-font-specification:cmr8"
         x="46.340302"
         y="-21.1406"
         id="tspan11232">2</tspan></text>
<text
       transform="scale(1,-1)"
       id="text11234"
       x="17.0098"
       y="-37.1064"><tspan
         style="font-size:11.95510006px;font-variant:normal;font-weight:normal;font-stretch:normal;writing-mode:lr-tb;fill:#221814;fill-opacity:1;fill-rule:nonzero;stroke:none;font-family:cmmi 12;-inkscape-font-specification:cmmi12"
         x="17.0098"
         y="-37.1064"
         id="tspan11236">x</tspan></text>
<text
       transform="scale(1,-1)"
       id="text11238"
       x="23.660601"
       y="-35.315399"><tspan
         style="font-size:7.97009993px;font-variant:normal;font-weight:normal;font-stretch:normal;writing-mode:lr-tb;fill:#221814;fill-opacity:1;fill-rule:nonzero;stroke:none;font-family:cmr 8;-inkscape-font-specification:cmr8"
         x="23.660601"
         y="-35.315399"
         id="tspan11240">3</tspan></text>
<text
       transform="scale(1,-1)"
       id="text11242"
       x="42.524399"
       y="-3.0869"><tspan
         style="font-size:11.95510006px;font-variant:normal;font-weight:normal;font-stretch:normal;writing-mode:lr-tb;fill:#221814;fill-opacity:1;fill-rule:nonzero;stroke:none;font-family:cmmi 12;-inkscape-font-specification:cmmi12"
         x="42.524399"
         y="-3.0869"
         id="tspan11244">x</tspan></text>
<text
       transform="scale(1,-1)"
       id="text11246"
       x="49.1758"
       y="-1.2959"><tspan
         style="font-size:7.97009993px;font-variant:normal;font-weight:normal;font-stretch:normal;writing-mode:lr-tb;fill:#221814;fill-opacity:1;fill-rule:nonzero;stroke:none;font-family:cmr 8;-inkscape-font-specification:cmr8"
         x="49.1758"
         y="-1.2959"
         id="tspan11248">1</tspan></text>
<text
       transform="scale(1,-1)"
       id="text11250"
       x="5.6694002"
       y="-3.0869"><tspan
         style="font-size:11.95510006px;font-variant:normal;font-weight:normal;font-stretch:normal;writing-mode:lr-tb;fill:#221814;fill-opacity:1;fill-rule:nonzero;stroke:none;font-family:cmr 12;-inkscape-font-specification:cmr12"
         x="5.6694002"
         y="-3.0869"
         id="tspan11252">0</tspan></text>
<text
       transform="scale(1,-1)"
       id="text11254"
       x="79.379402"
       y="-59.787102"><tspan
         style="font-size:11.95510006px;font-variant:normal;font-weight:normal;font-stretch:normal;writing-mode:lr-tb;fill:#221814;fill-opacity:1;fill-rule:nonzero;stroke:none;font-family:cmr 12;-inkscape-font-specification:cmr12"
         x="79.379402"
         y="-59.787102"
         id="tspan11256">3</tspan></text>
<text
       transform="scale(1,-1)"
       id="text11258"
       x="-0.00050000002"
       y="-136.3232"><tspan
         style="font-size:11.95510006px;font-variant:normal;font-weight:normal;font-stretch:normal;writing-mode:lr-tb;fill:#221814;fill-opacity:1;fill-rule:nonzero;stroke:none;font-family:cmr 12;-inkscape-font-specification:cmr12"
         x="-0.00050000002"
         y="-136.3232"
         id="tspan11260">4</tspan></text>
<text
       transform="scale(1,-1)"
       id="text11262"
       x="212.6152"
       y="-153.33299"><tspan
         style="font-size:11.95510006px;font-variant:normal;font-weight:normal;font-stretch:normal;writing-mode:lr-tb;fill:#221814;fill-opacity:1;fill-rule:nonzero;stroke:none;font-family:cmr 12;-inkscape-font-specification:cmr12"
         x="212.6152"
         y="-153.33299"
         id="tspan11264">5</tspan></text>
<text
       transform="scale(1,-1)"
       id="text11266"
       x="76.544403"
       y="-201.52831"><tspan
         style="font-size:11.95510006px;font-variant:normal;font-weight:normal;font-stretch:normal;writing-mode:lr-tb;fill:#221814;fill-opacity:1;fill-rule:nonzero;stroke:none;font-family:cmr 12;-inkscape-font-specification:cmr12"
         x="76.544403"
         y="-201.52831"
         id="tspan11268">7</tspan></text>
<text
       transform="scale(1,-1)"
       id="text11270"
       x="272.15039"
       y="-204.3623"><tspan
         style="font-size:11.95510006px;font-variant:normal;font-weight:normal;font-stretch:normal;writing-mode:lr-tb;fill:#221814;fill-opacity:1;fill-rule:nonzero;stroke:none;font-family:cmr 12;-inkscape-font-specification:cmr12"
         x="272.15039"
         y="-204.3623"
         id="tspan11272">6</tspan></text>
<text
       transform="scale(1,-1)"
       id="text11278"
       x="158.75101"
       y="-204.3623"><tspan
         style="font-size:9.96259975px;font-variant:normal;font-weight:normal;font-stretch:normal;writing-mode:lr-tb;fill:#221814;fill-opacity:1;fill-rule:nonzero;stroke:none;font-family:cmr 10;-inkscape-font-specification:cmr10"
         x="158.75101"
         y="-204.3623"
         id="tspan11280">2</tspan></text>
<text
       transform="scale(1,-1)"
       id="text11282"
       x="138.9053"
       y="-56.952099"><tspan
         style="font-size:9.96259975px;font-variant:normal;font-weight:normal;font-stretch:normal;writing-mode:lr-tb;fill:#221814;fill-opacity:1;fill-rule:nonzero;stroke:none;font-family:cmr 10;-inkscape-font-specification:cmr10"
         x="138.9053"
         y="-56.952099"
         id="tspan11284">1</tspan></text>
<text
       transform="scale(1,-1)"
       id="text11286"
       x="53.8647"
       y="-31.436501"><tspan
         style="font-size:9.96259975px;font-variant:normal;font-weight:normal;font-stretch:normal;writing-mode:lr-tb;fill:#221814;fill-opacity:1;fill-rule:nonzero;stroke:none;font-family:cmr 10;-inkscape-font-specification:cmr10"
         x="53.8647"
         y="-31.436501"
         id="tspan11288">4</tspan></text>
<text
       transform="scale(1,-1)"
       id="text11290"
       x="206.9453"
       y="-28.601601"><tspan
         style="font-size:9.96259975px;font-variant:normal;font-weight:normal;font-stretch:normal;writing-mode:lr-tb;fill:#221814;fill-opacity:1;fill-rule:nonzero;stroke:none;font-family:cmr 10;-inkscape-font-specification:cmr10"
         x="206.9453"
         y="-28.601601"
         id="tspan11292">5</tspan></text>
<text
       transform="scale(1,-1)"
       id="text11294"
       x="229.62601"
       y="-173.1777"><tspan
         style="font-size:9.96259975px;font-variant:normal;font-weight:normal;font-stretch:normal;writing-mode:lr-tb;fill:#221814;fill-opacity:1;fill-rule:nonzero;stroke:none;font-family:cmr 10;-inkscape-font-specification:cmr10"
         x="229.62601"
         y="-173.1777"
         id="tspan11296">6</tspan></text>
<text
       transform="scale(1,-1)"
       id="text11298"
       x="34.02"
       y="-167.5078"><tspan
         style="font-size:9.96259975px;font-variant:normal;font-weight:normal;font-stretch:normal;writing-mode:lr-tb;fill:#221814;fill-opacity:1;fill-rule:nonzero;stroke:none;font-family:cmr 10;-inkscape-font-specification:cmr10"
         x="34.02"
         y="-167.5078"
         id="tspan11300">7</tspan></text>
<text
       transform="scale(1,-1)"
       id="text11302"
       x="246.6357"
       y="-116.4863"><tspan
         style="font-size:9.96259975px;font-variant:normal;font-weight:normal;font-stretch:normal;writing-mode:lr-tb;fill:#221814;fill-opacity:1;fill-rule:nonzero;stroke:none;font-family:cmr 10;-inkscape-font-specification:cmr10"
         x="246.6357 251.617"
         y="-116.4863"
         sodipodi:role="line"
         id="tspan11304">10</tspan></text>
<text
       transform="scale(1,-1)"
       id="text11306"
       x="14.1748"
       y="-73.961899"><tspan
         style="font-size:9.96259975px;font-variant:normal;font-weight:normal;font-stretch:normal;writing-mode:lr-tb;fill:#221814;fill-opacity:1;fill-rule:nonzero;stroke:none;font-family:cmr 10;-inkscape-font-specification:cmr10"
         x="14.1748"
         y="-73.961899"
         id="tspan11308">8</tspan></text>
<text
       transform="scale(1,-1)"
       id="text11310"
       x="66.149902"
       y="-110.8164"><tspan
         style="font-size:9.96259975px;font-variant:normal;font-weight:normal;font-stretch:normal;writing-mode:lr-tb;fill:#221814;fill-opacity:1;fill-rule:nonzero;stroke:none;font-family:cmr 10;-inkscape-font-specification:cmr10"
         x="66.149902 71.131203"
         y="-110.8164"
         sodipodi:role="line"
         id="tspan11312">11</tspan></text>
</g></svg>