<?xml version="1.0" encoding="UTF-8" standalone="no"?>
<!-- Created with Inkscape (http://www.inkscape.org/) -->
<svg
   xmlns:dc="http://purl.org/dc/elements/1.1/"
   xmlns:cc="http://creativecommons.org/ns#"
   xmlns:rdf="http://www.w3.org/1999/02/22-rdf-syntax-ns#"
   xmlns:svg="http://www.w3.org/2000/svg"
   xmlns="http://www.w3.org/2000/svg"
   xmlns:sodipodi="http://sodipodi.sourceforge.net/DTD/sodipodi-0.dtd"
   xmlns:inkscape="http://www.inkscape.org/namespaces/inkscape"
   id="svg17825"
   sodipodi:version="0.32"
   inkscape:version="0.46"
   width="395.57062"
   height="205.57719"
   xml:space="preserve"
   sodipodi:docname="fig-A-3-b.svg"
   version="1.0"
   inkscape:output_extension="org.inkscape.output.svg.inkscape"><metadata
     id="metadata17830"><rdf:RDF><cc:Work
         rdf:about=""><dc:format>image/svg+xml</dc:format><dc:type
           rdf:resource="http://purl.org/dc/dcmitype/StillImage" /></cc:Work></rdf:RDF></metadata><defs
     id="defs17828"><inkscape:perspective
       sodipodi:type="inkscape:persp3d"
       inkscape:vp_x="0 : 526.18109 : 1"
       inkscape:vp_y="0 : 1000 : 0"
       inkscape:vp_z="744.09448 : 526.18109 : 1"
       inkscape:persp3d-origin="372.04724 : 350.78739 : 1"
       id="perspective17832" /><clipPath
       clipPathUnits="userSpaceOnUse"
       id="clipPath17848"><path
         d="M 11.501,18.243 L 83.058,18.243 L 83.058,78.209 L 11.501,78.209 L 11.501,18.243 z"
         id="path17850" /></clipPath><clipPath
       clipPathUnits="userSpaceOnUse"
       id="clipPath17896"><path
         d="M 0,0 L 273,0 L 273,166 L 0,166 L 0,0 z M 249.352,48.479 L 249.352,44.698 L 258.863,44.698 L 251.304,46.589 L 258.863,48.479 L 249.352,48.479 z"
         clip-rule="evenodd"
         id="path17898" /></clipPath><clipPath
       clipPathUnits="userSpaceOnUse"
       id="clipPath17906"><path
         d="M 0,0 L 273,0 L 273,166 L 0,166 L 0,0 z"
         id="path17908" /></clipPath><clipPath
       clipPathUnits="userSpaceOnUse"
       id="clipPath17920"><path
         d="M 158.896,91.94 L 230.454,91.94 L 230.454,151.907 L 158.896,151.907 L 158.896,91.94 z"
         id="path17922" /></clipPath><clipPath
       clipPathUnits="userSpaceOnUse"
       id="clipPath17968"><path
         d="M 0,0 L 273,0 L 273,166 L 0,166 L 0,0 z M 140.693,47.534 L 140.693,51.313 L 131.182,51.313 L 138.74,49.424 L 131.182,47.534 L 140.693,47.534 z"
         clip-rule="evenodd"
         id="path17970" /></clipPath><clipPath
       clipPathUnits="userSpaceOnUse"
       id="clipPath17978"><path
         d="M 0,0 L 273,0 L 273,166 L 0,166 L 0,0 z"
         id="path17980" /></clipPath></defs><sodipodi:namedview
     inkscape:window-height="722"
     inkscape:window-width="789"
     inkscape:pageshadow="2"
     inkscape:pageopacity="0.0"
     guidetolerance="10.0"
     gridtolerance="10.0"
     objecttolerance="10.0"
     borderopacity="1.0"
     bordercolor="#666666"
     pagecolor="#ffffff"
     id="base"
     showgrid="false"
     inkscape:zoom="2.0161172"
     inkscape:cx="170.625"
     inkscape:cy="103.75"
     inkscape:window-x="0"
     inkscape:window-y="25"
     inkscape:current-layer="g17834" /><g
     id="g17834"
     inkscape:groupmode="layer"
     inkscape:label="fig-A-3-b"
     transform="matrix(1.25,0,0,-1.25,1.3306299,206.99023)"><g
       clip-path="none"
       id="g17838"><g
         id="g17844"><g
           clip-path="url(#clipPath17848)"
           id="g17846"><path
             id="path17852"
             style="fill:#221814;fill-opacity:1;fill-rule:evenodd;stroke:none"
             d="M 27.539,44.12 L 67.219,44.12 L 67.219,40.755 L 27.539,40.755 L 27.539,44.12 z" /><path
             id="path17854"
             style="fill:none;stroke:#221814;stroke-width:0.142;stroke-linecap:butt;stroke-linejoin:bevel;stroke-miterlimit:2.61299992;stroke-dasharray:none;stroke-opacity:1"
             d="M 27.538,44.121 L 67.217,44.121 L 67.217,40.755 L 27.538,40.755 L 27.538,44.121 z" /><path
             id="path17856"
             style="fill:#221814;fill-opacity:1;fill-rule:evenodd;stroke:none"
             d="M 25.091,43.71 L 69.695,43.71 L 69.695,78.036 L 25.091,78.036 L 25.091,43.71 z" /><path
             id="path17858"
             style="fill:none;stroke:#221814;stroke-width:0.142;stroke-linecap:butt;stroke-linejoin:bevel;stroke-miterlimit:2.61299992;stroke-dasharray:none;stroke-opacity:1"
             d="M 25.091,43.71 L 69.693,43.71 L 69.693,78.036 L 25.091,78.036 L 25.091,43.71 z" /><path
             id="path17860"
             style="fill:#221814;fill-opacity:1;fill-rule:evenodd;stroke:none"
             d="M 22.472,41.593 L 72.086,41.593 L 72.086,28.327 L 22.472,28.327 L 22.472,41.593 z" /><path
             id="path17862"
             style="fill:none;stroke:#221814;stroke-width:0.142;stroke-linecap:butt;stroke-linejoin:bevel;stroke-miterlimit:2.61299992;stroke-dasharray:none;stroke-opacity:1"
             d="M 22.472,41.593 L 72.086,41.593 L 72.086,28.327 L 22.472,28.327 L 22.472,41.593 z" /><path
             id="path17864"
             style="fill:#ffffff;fill-opacity:1;fill-rule:evenodd;stroke:none"
             d="M 54.751,39.491 L 69.752,39.491 L 69.752,32.319 L 54.751,32.319 L 54.751,39.491 z" /><path
             id="path17866"
             style="fill:none;stroke:#221814;stroke-width:0.142;stroke-linecap:butt;stroke-linejoin:bevel;stroke-miterlimit:2.61299992;stroke-dasharray:none;stroke-opacity:1"
             d="M 54.75,39.491 L 69.751,39.491 L 69.751,32.318 L 54.75,32.318 L 54.75,39.491 z" /><path
             id="path17868"
             style="fill:#221814;fill-opacity:1;fill-rule:evenodd;stroke:none"
             d="M 54.751,36.11 L 69.752,36.11 L 69.752,35.272 L 54.751,35.272 L 54.751,36.11 z" /><path
             id="path17870"
             style="fill:none;stroke:#221814;stroke-width:0.142;stroke-linecap:butt;stroke-linejoin:bevel;stroke-miterlimit:2.61299992;stroke-dasharray:none;stroke-opacity:1"
             d="M 54.75,36.11 L 69.751,36.11 L 69.751,35.273 L 54.75,35.273 L 54.75,36.11 z" /><path
             id="path17872"
             style="fill:#221814;fill-opacity:1;fill-rule:evenodd;stroke:none"
             d="M 60.529,37.588 L 64.556,37.588 L 64.556,33.796 L 60.529,33.796 L 60.529,37.588 z" /><path
             id="path17874"
             style="fill:none;stroke:#221814;stroke-width:0.142;stroke-linecap:butt;stroke-linejoin:bevel;stroke-miterlimit:2.61299992;stroke-dasharray:none;stroke-opacity:1"
             d="M 60.528,37.588 L 64.557,37.588 L 64.557,33.796 L 60.528,33.796 L 60.528,37.588 z" /><path
             id="path17876"
             style="fill:#ffffff;fill-opacity:1;fill-rule:evenodd;stroke:none"
             d="M 22.443,30.43 L 11.77,19.75 L 11.699,19.423 L 11.699,19.04 L 11.827,18.671 L 12.325,18.415 L 82.234,18.415 L 82.746,18.485 L 82.859,18.969 L 82.746,19.536 L 82.404,20.02 L 72.086,30.43 L 22.443,30.43 z" /><path
             id="path17878"
             style="fill:none;stroke:#221814;stroke-width:0.142;stroke-linecap:butt;stroke-linejoin:bevel;stroke-miterlimit:2.61299992;stroke-dasharray:none;stroke-opacity:1"
             d="M 22.443,30.431 L 11.769,19.749 L 11.698,19.423 L 11.698,19.039 L 11.826,18.671 L 12.324,18.414 L 82.232,18.414 L 82.746,18.485 L 82.858,18.968 L 82.746,19.536 L 82.403,20.019 L 72.086,30.431 L 22.443,30.431 z" /><path
             id="path17880"
             style="fill:#221814;fill-opacity:1;fill-rule:evenodd;stroke:none"
             d="M 59.191,29.165 L 23.682,29.165 L 20.138,25.161 L 23.013,25.146 L 20.779,22.206 L 60.045,22.206 L 58.979,24.749 L 61.298,24.749 L 59.689,28.2 L 59.191,29.165 z" /><path
             id="path17882"
             style="fill:none;stroke:#221814;stroke-width:0.142;stroke-linecap:butt;stroke-linejoin:bevel;stroke-miterlimit:2.61299992;stroke-dasharray:none;stroke-opacity:1"
             d="M 59.191,29.165 L 23.682,29.165 L 20.138,25.161 L 23.012,25.146 L 20.778,22.207 L 60.045,22.207 L 58.979,24.748 L 61.297,24.748 L 59.688,28.2 L 59.191,29.165 z" /><path
             id="path17884"
             style="fill:#221814;fill-opacity:1;fill-rule:evenodd;stroke:none"
             d="M 62.138,29.165 L 66.15,22.618 L 76.299,22.618 L 70.506,29.138 L 62.138,29.165 z" /><path
             id="path17886"
             style="fill:none;stroke:#221814;stroke-width:0.142;stroke-linecap:butt;stroke-linejoin:bevel;stroke-miterlimit:2.61299992;stroke-dasharray:none;stroke-opacity:1"
             d="M 62.137,29.165 L 66.15,22.618 L 76.298,22.618 L 70.506,29.138 L 62.137,29.165 z" /><path
             id="path17888"
             style="fill:#ffffff;fill-opacity:1;fill-rule:evenodd;stroke:none"
             d="M 28.55,48.723 L 28.55,73.052 L 28.635,73.464 L 28.849,73.89 L 29.09,74.23 L 29.375,74.528 L 29.802,74.771 L 30.258,74.969 L 30.826,75.055 L 63.988,75.055 L 64.344,75.04 L 64.855,74.927 L 65.227,74.771 L 65.596,74.558 L 65.838,74.344 L 66.107,74.018 L 66.308,73.521 L 66.365,72.995 L 66.365,48.567 L 66.222,48.112 L 65.98,47.7 L 65.625,47.36 L 65.084,47.032 L 64.699,46.919 L 64.13,46.834 L 30.643,46.834 L 29.93,47.005 L 29.361,47.331 L 29.005,47.657 L 28.749,48.026 L 28.663,48.269 L 28.592,48.61 L 28.55,48.723 z" /><path
             id="path17890"
             style="fill:none;stroke:#221814;stroke-width:0.142;stroke-linecap:butt;stroke-linejoin:bevel;stroke-miterlimit:2.61299992;stroke-dasharray:none;stroke-opacity:1"
             d="M 28.549,48.722 L 28.549,73.052 L 28.635,73.464 L 28.848,73.89 L 29.09,74.23 L 29.374,74.528 L 29.801,74.771 L 30.257,74.969 L 30.826,75.054 L 63.986,75.054 L 64.344,75.04 L 64.855,74.927 L 65.225,74.771 L 65.596,74.558 L 65.837,74.345 L 66.107,74.018 L 66.308,73.521 L 66.363,72.995 L 66.363,48.566 L 66.221,48.112 L 65.98,47.7 L 65.623,47.36 L 65.083,47.033 L 64.699,46.919 L 64.129,46.834 L 30.641,46.834 L 29.93,47.004 L 29.359,47.331 L 29.005,47.657 L 28.748,48.026 L 28.662,48.268 L 28.592,48.609 L 28.549,48.722 z" /></g></g><g
         id="g17892"><g
           clip-path="url(#clipPath17896)"
           id="g17894"><path
             id="path17900"
             style="fill:none;stroke:#000000;stroke-width:0.472;stroke-linecap:butt;stroke-linejoin:miter;stroke-miterlimit:10;stroke-dasharray:none;stroke-opacity:1"
             d="M 250.296,63.596 L 270.138,63.596 L 270.138,46.589 L 250.296,46.589" /></g></g><g
         id="g17902"><g
           clip-path="url(#clipPath17906)"
           id="g17904"><path
             id="path17910"
             style="fill:#000000;fill-opacity:1;fill-rule:evenodd;stroke:none"
             d="M 258.863,48.479 L 251.304,46.589 L 258.863,44.698 L 258.863,48.479 z" /><path
             id="path17912"
             style="fill:none;stroke:#000000;stroke-width:0.472;stroke-linecap:butt;stroke-linejoin:miter;stroke-miterlimit:10;stroke-dasharray:none;stroke-opacity:1"
             d="M 258.863,48.479 L 251.304,46.589 L 258.863,44.698 L 258.863,48.479 z" /><path
             id="path17914"
             style="fill:none;stroke:#000000;stroke-width:0.472;stroke-linecap:butt;stroke-linejoin:miter;stroke-miterlimit:10;stroke-dasharray:none;stroke-opacity:1"
             d="M 139.749,12.573 L 250.296,12.573 L 250.296,89.106 L 139.749,89.106 L 139.749,12.573 z" /></g></g><g
         id="g17916"><g
           clip-path="url(#clipPath17920)"
           id="g17918"><path
             id="path17924"
             style="fill:#221814;fill-opacity:1;fill-rule:evenodd;stroke:none"
             d="M 174.936,117.819 L 214.616,117.819 L 214.616,114.452 L 174.936,114.452 L 174.936,117.819 z" /><path
             id="path17926"
             style="fill:none;stroke:#221814;stroke-width:0.142;stroke-linecap:butt;stroke-linejoin:bevel;stroke-miterlimit:2.61299992;stroke-dasharray:none;stroke-opacity:1"
             d="M 174.935,117.819 L 214.613,117.819 L 214.613,114.452 L 174.935,114.452 L 174.935,117.819 z" /><path
             id="path17928"
             style="fill:#221814;fill-opacity:1;fill-rule:evenodd;stroke:none"
             d="M 172.488,117.407 L 217.092,117.407 L 217.092,151.735 L 172.488,151.735 L 172.488,117.407 z" /><path
             id="path17930"
             style="fill:none;stroke:#221814;stroke-width:0.142;stroke-linecap:butt;stroke-linejoin:bevel;stroke-miterlimit:2.61299992;stroke-dasharray:none;stroke-opacity:1"
             d="M 172.486,117.407 L 217.09,117.407 L 217.09,151.734 L 172.486,151.734 L 172.486,117.407 z" /><path
             id="path17932"
             style="fill:#221814;fill-opacity:1;fill-rule:evenodd;stroke:none"
             d="M 169.869,115.29 L 219.482,115.29 L 219.482,102.026 L 169.869,102.026 L 169.869,115.29 z" /><path
             id="path17934"
             style="fill:none;stroke:#221814;stroke-width:0.142;stroke-linecap:butt;stroke-linejoin:bevel;stroke-miterlimit:2.61299992;stroke-dasharray:none;stroke-opacity:1"
             d="M 169.868,115.29 L 219.481,115.29 L 219.481,102.025 L 169.868,102.025 L 169.868,115.29 z" /><path
             id="path17936"
             style="fill:#ffffff;fill-opacity:1;fill-rule:evenodd;stroke:none"
             d="M 202.147,113.188 L 217.148,113.188 L 217.148,106.016 L 202.147,106.016 L 202.147,113.188 z" /><path
             id="path17938"
             style="fill:none;stroke:#221814;stroke-width:0.142;stroke-linecap:butt;stroke-linejoin:bevel;stroke-miterlimit:2.61299992;stroke-dasharray:none;stroke-opacity:1"
             d="M 202.146,113.188 L 217.147,113.188 L 217.147,106.017 L 202.146,106.017 L 202.146,113.188 z" /><path
             id="path17940"
             style="fill:#221814;fill-opacity:1;fill-rule:evenodd;stroke:none"
             d="M 202.147,109.809 L 217.148,109.809 L 217.148,108.971 L 202.147,108.971 L 202.147,109.809 z" /><path
             id="path17942"
             style="fill:none;stroke:#221814;stroke-width:0.142;stroke-linecap:butt;stroke-linejoin:bevel;stroke-miterlimit:2.61299992;stroke-dasharray:none;stroke-opacity:1"
             d="M 202.146,109.809 L 217.147,109.809 L 217.147,108.972 L 202.146,108.972 L 202.146,109.809 z" /><path
             id="path17944"
             style="fill:#221814;fill-opacity:1;fill-rule:evenodd;stroke:none"
             d="M 207.926,111.286 L 211.954,111.286 L 211.954,107.493 L 207.926,107.493 L 207.926,111.286 z" /><path
             id="path17946"
             style="fill:none;stroke:#221814;stroke-width:0.142;stroke-linecap:butt;stroke-linejoin:bevel;stroke-miterlimit:2.61299992;stroke-dasharray:none;stroke-opacity:1"
             d="M 207.925,111.286 L 211.953,111.286 L 211.953,107.493 L 207.925,107.493 L 207.925,111.286 z" /><path
             id="path17948"
             style="fill:#ffffff;fill-opacity:1;fill-rule:evenodd;stroke:none"
             d="M 169.84,104.128 L 159.166,93.448 L 159.095,93.12 L 159.095,92.737 L 159.223,92.368 L 159.721,92.112 L 229.63,92.112 L 230.143,92.184 L 230.256,92.667 L 230.143,93.235 L 229.801,93.718 L 219.482,104.128 L 169.84,104.128 z" /><path
             id="path17950"
             style="fill:none;stroke:#221814;stroke-width:0.142;stroke-linecap:butt;stroke-linejoin:bevel;stroke-miterlimit:2.61299992;stroke-dasharray:none;stroke-opacity:1"
             d="M 169.839,104.128 L 159.165,93.447 L 159.094,93.121 L 159.094,92.737 L 159.222,92.368 L 159.721,92.112 L 229.629,92.112 L 230.142,92.184 L 230.255,92.667 L 230.142,93.235 L 229.799,93.718 L 219.481,104.128 L 169.839,104.128 z" /><path
             id="path17952"
             style="fill:#221814;fill-opacity:1;fill-rule:evenodd;stroke:none"
             d="M 206.588,102.864 L 171.079,102.864 L 167.535,98.858 L 170.41,98.845 L 168.175,95.905 L 207.441,95.905 L 206.375,98.446 L 208.695,98.446 L 207.086,101.897 L 206.588,102.864 z" /><path
             id="path17954"
             style="fill:none;stroke:#221814;stroke-width:0.142;stroke-linecap:butt;stroke-linejoin:bevel;stroke-miterlimit:2.61299992;stroke-dasharray:none;stroke-opacity:1"
             d="M 206.586,102.864 L 171.077,102.864 L 167.533,98.858 L 170.408,98.845 L 168.174,95.905 L 207.44,95.905 L 206.373,98.446 L 208.693,98.446 L 207.085,101.897 L 206.586,102.864 z" /><path
             id="path17956"
             style="fill:#221814;fill-opacity:1;fill-rule:evenodd;stroke:none"
             d="M 209.534,102.864 L 213.548,96.317 L 223.695,96.317 L 217.903,102.836 L 209.534,102.864 z" /><path
             id="path17958"
             style="fill:none;stroke:#221814;stroke-width:0.142;stroke-linecap:butt;stroke-linejoin:bevel;stroke-miterlimit:2.61299992;stroke-dasharray:none;stroke-opacity:1"
             d="M 209.533,102.864 L 213.546,96.316 L 223.694,96.316 L 217.902,102.836 L 209.533,102.864 z" /><path
             id="path17960"
             style="fill:#ffffff;fill-opacity:1;fill-rule:evenodd;stroke:none"
             d="M 175.946,122.421 L 175.946,146.75 L 176.031,147.161 L 176.245,147.588 L 176.487,147.929 L 176.771,148.227 L 177.199,148.469 L 177.654,148.667 L 178.223,148.753 L 211.385,148.753 L 211.74,148.739 L 212.252,148.625 L 212.623,148.469 L 212.993,148.256 L 213.234,148.042 L 213.505,147.716 L 213.704,147.219 L 213.761,146.692 L 213.761,122.265 L 213.619,121.81 L 213.377,121.399 L 213.021,121.058 L 212.479,120.73 L 212.096,120.616 L 211.527,120.532 L 178.038,120.532 L 177.327,120.702 L 176.757,121.028 L 176.402,121.355 L 176.145,121.725 L 176.06,121.967 L 175.989,122.308 L 175.946,122.421 z" /><path
             id="path17962"
             style="fill:none;stroke:#221814;stroke-width:0.142;stroke-linecap:butt;stroke-linejoin:bevel;stroke-miterlimit:2.61299992;stroke-dasharray:none;stroke-opacity:1"
             d="M 175.945,122.42 L 175.945,146.75 L 176.03,147.161 L 176.243,147.588 L 176.486,147.929 L 176.771,148.228 L 177.197,148.468 L 177.653,148.667 L 178.222,148.752 L 211.383,148.752 L 211.738,148.737 L 212.251,148.625 L 212.621,148.468 L 212.991,148.255 L 213.233,148.042 L 213.503,147.716 L 213.702,147.218 L 213.76,146.692 L 213.76,122.265 L 213.617,121.81 L 213.375,121.398 L 213.02,121.058 L 212.479,120.731 L 212.095,120.617 L 211.525,120.532 L 178.036,120.532 L 177.326,120.702 L 176.756,121.028 L 176.4,121.355 L 176.145,121.726 L 176.059,121.967 L 175.987,122.308 L 175.945,122.42 z" /></g></g><g
         id="g17964"><g
           clip-path="url(#clipPath17968)"
           id="g17966"><path
             id="path17972"
             style="fill:none;stroke:#000000;stroke-width:0.472;stroke-linecap:butt;stroke-linejoin:miter;stroke-miterlimit:10;stroke-dasharray:none;stroke-opacity:1"
             d="M 139.749,49.424 L 83.058,49.424" /></g></g><g
         id="g17974"><g
           clip-path="url(#clipPath17978)"
           id="g17976"><path
             id="path17982"
             style="fill:#000000;fill-opacity:1;fill-rule:evenodd;stroke:none"
             d="M 131.182,47.534 L 138.74,49.424 L 131.182,51.313 L 131.182,47.534 z" /><path
             id="path17984"
             style="fill:none;stroke:#000000;stroke-width:0.472;stroke-linecap:butt;stroke-linejoin:miter;stroke-miterlimit:10;stroke-dasharray:none;stroke-opacity:1"
             d="M 131.182,47.534 L 138.74,49.424 L 131.182,51.313 L 131.182,47.534 z" /><path
             id="path17986"
             style="fill:none;stroke:#000000;stroke-width:0.472;stroke-linecap:butt;stroke-linejoin:miter;stroke-miterlimit:10;stroke-dasharray:3.779, 3.779;stroke-dashoffset:0;stroke-opacity:1"
             d="M 139.749,55.093 L 250.296,55.093" /><path
             id="path17988"
             style="fill:none;stroke:#000000;stroke-width:0.472;stroke-linecap:butt;stroke-linejoin:miter;stroke-miterlimit:10;stroke-dasharray:3.779, 3.779;stroke-dashoffset:0;stroke-opacity:1"
             d="M 139.749,38.085 L 250.296,38.085" /><path
             id="path17990"
             style="fill:none;stroke:#000000;stroke-width:0.472;stroke-linecap:butt;stroke-linejoin:miter;stroke-miterlimit:10;stroke-dasharray:none;stroke-opacity:1"
             d="M 139.749,72.1 L 250.296,72.1" /></g></g><text
         id="text17992"
         transform="matrix(1,0,0,-1,272.1504,51.5967)"><tspan
           id="tspan17994"
           sodipodi:role="line"
           y="0"
           x="0 4.554893 9.7553616 15.601405 18.853193 23.467861 28.022755 33.223225 37.778114"
           style="font-size:11.95510006px;font-variant:normal;font-weight:normal;font-stretch:normal;writing-mode:lr-tb;fill:#000000;fill-opacity:1;fill-rule:nonzero;stroke:none;font-family:cmr 12;-inkscape-font-specification:cmr12">registers</tspan></text>
<text
         id="text17996"
         transform="matrix(1,0,0,-1,148.896,76.7969)"><tspan
           id="tspan17998"
           sodipodi:role="line"
           y="0"
           x="0 10.149879 13.329936 20.813829"
           style="font-size:11.95510006px;font-variant:normal;font-weight:normal;font-stretch:normal;writing-mode:lr-tb;fill:#000000;fill-opacity:1;fill-rule:nonzero;stroke:none;font-family:cmss 12;-inkscape-font-specification:cmss12">MICO</tspan></text>
<text
         id="text18000"
         transform="matrix(1,0,0,-1,182.249,76.7969)"><tspan
           id="tspan18002"
           sodipodi:role="line"
           y="0"
           x="0 6.5035744 12.361573"
           style="font-size:11.95510006px;font-variant:normal;font-weight:normal;font-stretch:normal;writing-mode:lr-tb;fill:#000000;fill-opacity:1;fill-rule:nonzero;stroke:none;font-family:cmr 12;-inkscape-font-specification:cmr12">nam</tspan></text>
<text
         id="text18004"
         transform="matrix(1,0,0,-1,204.3604,76.7969)"><tspan
           id="tspan18006"
           y="0"
           x="0"
           style="font-size:11.95510006px;font-variant:normal;font-weight:normal;font-stretch:normal;writing-mode:lr-tb;fill:#000000;fill-opacity:1;fill-rule:nonzero;stroke:none;font-family:cmr 12;-inkscape-font-specification:cmr12">e</tspan></text>
<text
         id="text18008"
         transform="matrix(1,0,0,-1,213.46,76.7969)"><tspan
           id="tspan18010"
           sodipodi:role="line"
           y="0"
           x="0 4.6146684 9.8151369"
           style="font-size:11.95510006px;font-variant:normal;font-weight:normal;font-stretch:normal;writing-mode:lr-tb;fill:#000000;fill-opacity:1;fill-rule:nonzero;stroke:none;font-family:cmr 12;-inkscape-font-specification:cmr12">ser</tspan></text>
<text
         id="text18012"
         transform="matrix(1,0,0,-1,227.832,76.7969)"><tspan
           id="tspan18014"
           y="0"
           x="0"
           style="font-size:11.95510006px;font-variant:normal;font-weight:normal;font-stretch:normal;writing-mode:lr-tb;fill:#000000;fill-opacity:1;fill-rule:nonzero;stroke:none;font-family:cmr 12;-inkscape-font-specification:cmr12">v</tspan></text>
<text
         id="text18016"
         transform="matrix(1,0,0,-1,233.6875,76.7969)"><tspan
           id="tspan18018"
           sodipodi:role="line"
           y="0"
           x="0 5.2004685"
           style="font-size:11.95510006px;font-variant:normal;font-weight:normal;font-stretch:normal;writing-mode:lr-tb;fill:#000000;fill-opacity:1;fill-rule:nonzero;stroke:none;font-family:cmr 12;-inkscape-font-specification:cmr12">er</tspan></text>
<text
         id="text18020"
         transform="matrix(1,0,0,-1,141.7407,60.1021)"><tspan
           id="tspan18022"
           y="0"
           x="0"
           style="font-size:11.95510006px;font-variant:normal;font-weight:normal;font-stretch:normal;writing-mode:lr-tb;fill:#000000;fill-opacity:1;fill-rule:nonzero;stroke:none;font-family:cmss 12;-inkscape-font-specification:cmss12">F</tspan></text>
<text
         id="text18024"
         transform="matrix(1,0,0,-1,148.0664,60.1021)"><tspan
           id="tspan18026"
           sodipodi:role="line"
           y="0"
           x="0 5.8460441 11.452986 20.706234 28.441183 36.64238 42.500381 46.983543 51.215649 58.986462"
           style="font-size:11.95510006px;font-variant:normal;font-weight:normal;font-stretch:normal;writing-mode:lr-tb;fill:#000000;fill-opacity:1;fill-rule:nonzero;stroke:none;font-family:cmss 12;-inkscape-font-specification:cmss12">oamXHostBr</tspan></text>
<text
         id="text18028"
         transform="matrix(1,0,0,-1,211.0332,60.1021)"><tspan
           id="tspan18030"
           y="0"
           x="0"
           style="font-size:11.95510006px;font-variant:normal;font-weight:normal;font-stretch:normal;writing-mode:lr-tb;fill:#000000;fill-opacity:1;fill-rule:nonzero;stroke:none;font-family:cmss 12;-inkscape-font-specification:cmss12">o</tspan></text>
<text
         id="text18032"
         transform="matrix(1,0,0,-1,216.5752,60.1021)"><tspan
           id="tspan18034"
           sodipodi:role="line"
           y="0"
           x="0 7.9501414 12.433304 17.633772"
           style="font-size:11.95510006px;font-variant:normal;font-weight:normal;font-stretch:normal;writing-mode:lr-tb;fill:#000000;fill-opacity:1;fill-rule:nonzero;stroke:none;font-family:cmss 12;-inkscape-font-specification:cmss12">wser</tspan></text>
<text
         id="text18036"
         transform="matrix(1,0,0,-1,-5e-4,3.4019)"><tspan
           id="tspan18038"
           sodipodi:role="line"
           y="0"
           x="0 6.5035744 11.058468 16.90451 21.459404"
           style="font-size:11.95510006px;font-variant:normal;font-weight:normal;font-stretch:normal;writing-mode:lr-tb;fill:#000000;fill-opacity:1;fill-rule:nonzero;stroke:none;font-family:cmr 12;-inkscape-font-specification:cmr12">Start</tspan></text>
<text
         id="text18040"
         transform="matrix(1,0,0,-1,29.9155,3.4019)"><tspan
           id="tspan18042"
           y="0"
           x="0"
           style="font-size:11.95510006px;font-variant:normal;font-weight:normal;font-stretch:normal;writing-mode:lr-tb;fill:#000000;fill-opacity:1;fill-rule:nonzero;stroke:none;font-family:cmss 12;-inkscape-font-specification:cmss12">F</tspan></text>
<text
         id="text18044"
         transform="matrix(1,0,0,-1,36.2412,3.4019)"><tspan
           id="tspan18046"
           sodipodi:role="line"
           y="0"
           x="0 5.8460441 11.452986"
           style="font-size:11.95510006px;font-variant:normal;font-weight:normal;font-stretch:normal;writing-mode:lr-tb;fill:#000000;fill-opacity:1;fill-rule:nonzero;stroke:none;font-family:cmss 12;-inkscape-font-specification:cmss12">oam</tspan></text>
<text
         id="text18048"
         transform="matrix(1,0,0,-1,56.9536,3.4019)"><tspan
           id="tspan18050"
           y="0"
           x="0"
           style="font-size:11.95510006px;font-variant:normal;font-weight:normal;font-stretch:normal;writing-mode:lr-tb;fill:#000000;fill-opacity:1;fill-rule:nonzero;stroke:none;font-family:cmss 12;-inkscape-font-specification:cmss12">X</tspan></text>
<text
         id="text18052"
         transform="matrix(1,0,0,-1,64.3657,3.4019)"><tspan
           id="tspan18054"
           sodipodi:role="line"
           y="0"
           x="0 7.4838924 13.090835 17.573997 22.774466 30.54528"
           style="font-size:11.95510006px;font-variant:normal;font-weight:normal;font-stretch:normal;writing-mode:lr-tb;fill:#000000;fill-opacity:1;fill-rule:nonzero;stroke:none;font-family:cmss 12;-inkscape-font-specification:cmss12">CaseBr</tspan></text>
<text
         id="text18056"
         transform="matrix(1,0,0,-1,98.8848,3.4019)"><tspan
           id="tspan18058"
           y="0"
           x="0"
           style="font-size:11.95510006px;font-variant:normal;font-weight:normal;font-stretch:normal;writing-mode:lr-tb;fill:#000000;fill-opacity:1;fill-rule:nonzero;stroke:none;font-family:cmss 12;-inkscape-font-specification:cmss12">o</tspan></text>
<text
         id="text18060"
         transform="matrix(1,0,0,-1,104.4268,3.4019)"><tspan
           id="tspan18062"
           sodipodi:role="line"
           y="0"
           x="0 7.9501414 12.433304 17.633772"
           style="font-size:11.95510006px;font-variant:normal;font-weight:normal;font-stretch:normal;writing-mode:lr-tb;fill:#000000;fill-opacity:1;fill-rule:nonzero;stroke:none;font-family:cmss 12;-inkscape-font-specification:cmss12">wser</tspan></text>
<text
         id="text18064"
         transform="matrix(1,0,0,-1,141.7402,43.0918)"><tspan
           id="tspan18066"
           y="0"
           x="0"
           style="font-size:11.95510006px;font-variant:normal;font-weight:normal;font-stretch:normal;writing-mode:lr-tb;fill:#000000;fill-opacity:1;fill-rule:nonzero;stroke:none;font-family:cmss 12;-inkscape-font-specification:cmss12">F</tspan></text>
<text
         id="text18068"
         transform="matrix(1,0,0,-1,148.0659,43.0918)"><tspan
           id="tspan18070"
           sodipodi:role="line"
           y="0"
           x="0 5.8460441 11.452986"
           style="font-size:11.95510006px;font-variant:normal;font-weight:normal;font-stretch:normal;writing-mode:lr-tb;fill:#000000;fill-opacity:1;fill-rule:nonzero;stroke:none;font-family:cmss 12;-inkscape-font-specification:cmss12">oam</tspan></text>
<text
         id="text18072"
         transform="matrix(1,0,0,-1,168.7783,43.0918)"><tspan
           id="tspan18074"
           y="0"
           x="0"
           style="font-size:11.95510006px;font-variant:normal;font-weight:normal;font-stretch:normal;writing-mode:lr-tb;fill:#000000;fill-opacity:1;fill-rule:nonzero;stroke:none;font-family:cmss 12;-inkscape-font-specification:cmss12">X</tspan></text>
<text
         id="text18076"
         transform="matrix(1,0,0,-1,176.1904,43.0918)"><tspan
           id="tspan18078"
           sodipodi:role="line"
           y="0"
           x="0 7.4838924 13.090835 17.573997 22.774466 30.54528"
           style="font-size:11.95510006px;font-variant:normal;font-weight:normal;font-stretch:normal;writing-mode:lr-tb;fill:#000000;fill-opacity:1;fill-rule:nonzero;stroke:none;font-family:cmss 12;-inkscape-font-specification:cmss12">CaseBr</tspan></text>
<text
         id="text18080"
         transform="matrix(1,0,0,-1,210.71,43.0918)"><tspan
           id="tspan18082"
           y="0"
           x="0"
           style="font-size:11.95510006px;font-variant:normal;font-weight:normal;font-stretch:normal;writing-mode:lr-tb;fill:#000000;fill-opacity:1;fill-rule:nonzero;stroke:none;font-family:cmss 12;-inkscape-font-specification:cmss12">o</tspan></text>
<text
         id="text18084"
         transform="matrix(1,0,0,-1,216.251,43.0918)"><tspan
           id="tspan18086"
           sodipodi:role="line"
           y="0"
           x="0 7.9501414 12.433304 17.633772"
           style="font-size:11.95510006px;font-variant:normal;font-weight:normal;font-stretch:normal;writing-mode:lr-tb;fill:#000000;fill-opacity:1;fill-rule:nonzero;stroke:none;font-family:cmss 12;-inkscape-font-specification:cmss12">wser</tspan></text>
<text
         id="text18088"
         transform="matrix(1,0,0,-1,161.585,156.4824)"><tspan
           id="tspan18090"
           sodipodi:role="line"
           y="0"
           x="0 6.5035744 12.361573"
           style="font-size:11.95510006px;font-variant:normal;font-weight:normal;font-stretch:normal;writing-mode:lr-tb;fill:#000000;fill-opacity:1;fill-rule:nonzero;stroke:none;font-family:cmr 12;-inkscape-font-specification:cmr12">hos</tspan></text>
<text
         id="text18092"
         transform="matrix(1,0,0,-1,178.5586,156.4824)"><tspan
           id="tspan18094"
           y="0"
           x="0"
           style="font-size:11.95510006px;font-variant:normal;font-weight:normal;font-stretch:normal;writing-mode:lr-tb;fill:#000000;fill-opacity:1;fill-rule:nonzero;stroke:none;font-family:cmr 12;-inkscape-font-specification:cmr12">t</tspan></text>
<text
         id="text18096"
         transform="matrix(1,0,0,-1,187.0195,156.4824)"><tspan
           id="tspan18098"
           sodipodi:role="line"
           y="0"
           x="0 9.7553616"
           style="font-size:11.95510006px;font-variant:normal;font-weight:normal;font-stretch:normal;writing-mode:lr-tb;fill:#000000;fill-opacity:1;fill-rule:nonzero;stroke:none;font-family:cmr 12;-inkscape-font-specification:cmr12">ma</tspan></text>
<text
         id="text18100"
         transform="matrix(1,0,0,-1,202.6279,156.4824)"><tspan
           id="tspan18102"
           y="0"
           x="0"
           style="font-size:11.95510006px;font-variant:normal;font-weight:normal;font-stretch:normal;writing-mode:lr-tb;fill:#000000;fill-opacity:1;fill-rule:nonzero;stroke:none;font-family:cmr 12;-inkscape-font-specification:cmr12">c</tspan></text>
<text
         id="text18104"
         transform="matrix(1,0,0,-1,207.5068,156.4824)"><tspan
           id="tspan18106"
           sodipodi:role="line"
           y="0"
           x="0 6.5035744 9.7553616 16.258936"
           style="font-size:11.95510006px;font-variant:normal;font-weight:normal;font-stretch:normal;writing-mode:lr-tb;fill:#000000;fill-opacity:1;fill-rule:nonzero;stroke:none;font-family:cmr 12;-inkscape-font-specification:cmr12">hine</tspan></text>
</g></g></svg>