<?xml version="1.0" encoding="UTF-8" standalone="no"?>
<!-- Created with Inkscape (http://www.inkscape.org/) -->
<svg
   xmlns:dc="http://purl.org/dc/elements/1.1/"
   xmlns:cc="http://creativecommons.org/ns#"
   xmlns:rdf="http://www.w3.org/1999/02/22-rdf-syntax-ns#"
   xmlns:svg="http://www.w3.org/2000/svg"
   xmlns="http://www.w3.org/2000/svg"
   xmlns:sodipodi="http://sodipodi.sourceforge.net/DTD/sodipodi-0.dtd"
   xmlns:inkscape="http://www.inkscape.org/namespaces/inkscape"
   id="svg17144"
   sodipodi:version="0.32"
   inkscape:version="0.46"
   width="225.71756"
   height="191.37973"
   xml:space="preserve"
   sodipodi:docname="fig-A-2-b.svg"
   version="1.0"
   inkscape:output_extension="org.inkscape.output.svg.inkscape"><metadata
     id="metadata17149"><rdf:RDF><cc:Work
         rdf:about=""><dc:format>image/svg+xml</dc:format><dc:type
           rdf:resource="http://purl.org/dc/dcmitype/StillImage" /></cc:Work></rdf:RDF></metadata><defs
     id="defs17147"><inkscape:perspective
       sodipodi:type="inkscape:persp3d"
       inkscape:vp_x="0 : 526.18109 : 1"
       inkscape:vp_y="0 : 1000 : 0"
       inkscape:vp_z="744.09448 : 526.18109 : 1"
       inkscape:persp3d-origin="372.04724 : 350.78739 : 1"
       id="perspective17151" /><clipPath
       clipPathUnits="userSpaceOnUse"
       id="clipPath17167"><path
         d="M 20.897,80.939 L 92.454,80.939 L 92.454,140.907 L 20.897,140.907 L 20.897,80.939 z"
         id="path17169" /></clipPath><clipPath
       clipPathUnits="userSpaceOnUse"
       id="clipPath17215"><path
         d="M 0,0 L 135,0 L 135,155 L 0,155 L 0,0 z"
         id="path17217" /></clipPath><clipPath
       clipPathUnits="userSpaceOnUse"
       id="clipPath17229"><path
         d="M 0,0 L 135,0 L 135,155 L 0,155 L 0,0 z M 111.352,54.486 L 111.352,50.706 L 120.863,50.706 L 113.305,52.596 L 120.863,54.486 L 111.352,54.486 z"
         clip-rule="evenodd"
         id="path17231" /></clipPath><clipPath
       clipPathUnits="userSpaceOnUse"
       id="clipPath17239"><path
         d="M 0,0 L 135,0 L 135,155 L 0,155 L 0,0 z"
         id="path17241" /></clipPath></defs><sodipodi:namedview
     inkscape:window-height="722"
     inkscape:window-width="789"
     inkscape:pageshadow="2"
     inkscape:pageopacity="0.0"
     guidetolerance="10.0"
     gridtolerance="10.0"
     objecttolerance="10.0"
     borderopacity="1.0"
     bordercolor="#666666"
     pagecolor="#ffffff"
     id="base"
     showgrid="false"
     inkscape:zoom="2.5496774"
     inkscape:cx="84.375"
     inkscape:cy="96.875"
     inkscape:window-x="0"
     inkscape:window-y="25"
     inkscape:current-layer="g17153" /><g
     id="g17153"
     inkscape:groupmode="layer"
     inkscape:label="fig-A-2-b"
     transform="matrix(1.25,0,0,-1.25,-1.89125,193.05223)"><g
       clip-path="none"
       id="g17157"><g
         id="g17163"><g
           clip-path="url(#clipPath17167)"
           id="g17165"><path
             id="path17171"
             style="fill:#221814;fill-opacity:1;fill-rule:evenodd;stroke:none"
             d="M 36.936,106.818 L 76.616,106.818 L 76.616,103.453 L 36.936,103.453 L 36.936,106.818 z" /><path
             id="path17173"
             style="fill:none;stroke:#221814;stroke-width:0.142;stroke-linecap:butt;stroke-linejoin:bevel;stroke-miterlimit:2.61299992;stroke-dasharray:none;stroke-opacity:1"
             d="M 36.935,106.818 L 76.614,106.818 L 76.614,103.453 L 36.935,103.453 L 36.935,106.818 z" /><path
             id="path17175"
             style="fill:#221814;fill-opacity:1;fill-rule:evenodd;stroke:none"
             d="M 34.488,106.407 L 79.092,106.407 L 79.092,140.734 L 34.488,140.734 L 34.488,106.407 z" /><path
             id="path17177"
             style="fill:none;stroke:#221814;stroke-width:0.142;stroke-linecap:butt;stroke-linejoin:bevel;stroke-miterlimit:2.61299992;stroke-dasharray:none;stroke-opacity:1"
             d="M 34.486,106.407 L 79.091,106.407 L 79.091,140.734 L 34.486,140.734 L 34.486,106.407 z" /><path
             id="path17179"
             style="fill:#221814;fill-opacity:1;fill-rule:evenodd;stroke:none"
             d="M 31.869,104.291 L 81.483,104.291 L 81.483,91.025 L 31.869,91.025 L 31.869,104.291 z" /><path
             id="path17181"
             style="fill:none;stroke:#221814;stroke-width:0.142;stroke-linecap:butt;stroke-linejoin:bevel;stroke-miterlimit:2.61299992;stroke-dasharray:none;stroke-opacity:1"
             d="M 31.867,104.291 L 81.48,104.291 L 81.48,91.025 L 31.867,91.025 L 31.867,104.291 z" /><path
             id="path17183"
             style="fill:#ffffff;fill-opacity:1;fill-rule:evenodd;stroke:none"
             d="M 64.147,102.189 L 79.149,102.189 L 79.149,95.017 L 64.147,95.017 L 64.147,102.189 z" /><path
             id="path17185"
             style="fill:none;stroke:#221814;stroke-width:0.142;stroke-linecap:butt;stroke-linejoin:bevel;stroke-miterlimit:2.61299992;stroke-dasharray:none;stroke-opacity:1"
             d="M 64.146,102.189 L 79.147,102.189 L 79.147,95.016 L 64.146,95.016 L 64.146,102.189 z" /><path
             id="path17187"
             style="fill:#221814;fill-opacity:1;fill-rule:evenodd;stroke:none"
             d="M 64.147,98.809 L 79.149,98.809 L 79.149,97.971 L 64.147,97.971 L 64.147,98.809 z" /><path
             id="path17189"
             style="fill:none;stroke:#221814;stroke-width:0.142;stroke-linecap:butt;stroke-linejoin:bevel;stroke-miterlimit:2.61299992;stroke-dasharray:none;stroke-opacity:1"
             d="M 64.146,98.809 L 79.147,98.809 L 79.147,97.971 L 64.146,97.971 L 64.146,98.809 z" /><path
             id="path17191"
             style="fill:#221814;fill-opacity:1;fill-rule:evenodd;stroke:none"
             d="M 69.926,100.286 L 73.954,100.286 L 73.954,96.494 L 69.926,96.494 L 69.926,100.286 z" /><path
             id="path17193"
             style="fill:none;stroke:#221814;stroke-width:0.142;stroke-linecap:butt;stroke-linejoin:bevel;stroke-miterlimit:2.61299992;stroke-dasharray:none;stroke-opacity:1"
             d="M 69.925,100.285 L 73.952,100.285 L 73.952,96.494 L 69.925,96.494 L 69.925,100.285 z" /><path
             id="path17195"
             style="fill:#ffffff;fill-opacity:1;fill-rule:evenodd;stroke:none"
             d="M 31.841,93.128 L 21.166,82.447 L 21.095,82.121 L 21.095,81.737 L 21.223,81.368 L 21.721,81.112 L 91.63,81.112 L 92.143,81.184 L 92.257,81.666 L 92.143,82.234 L 91.801,82.717 L 81.483,93.128 L 31.841,93.128 z" /><path
             id="path17197"
             style="fill:none;stroke:#221814;stroke-width:0.142;stroke-linecap:butt;stroke-linejoin:bevel;stroke-miterlimit:2.61299992;stroke-dasharray:none;stroke-opacity:1"
             d="M 31.839,93.127 L 21.165,82.447 L 21.094,82.121 L 21.094,81.737 L 21.223,81.367 L 21.72,81.111 L 91.628,81.111 L 92.141,81.183 L 92.255,81.666 L 92.141,82.234 L 91.8,82.717 L 81.48,93.127 L 31.839,93.127 z" /><path
             id="path17199"
             style="fill:#221814;fill-opacity:1;fill-rule:evenodd;stroke:none"
             d="M 68.588,91.864 L 33.079,91.864 L 29.535,87.859 L 32.41,87.844 L 30.175,84.904 L 69.442,84.904 L 68.375,87.447 L 70.695,87.447 L 69.086,90.898 L 68.588,91.864 z" /><path
             id="path17201"
             style="fill:none;stroke:#221814;stroke-width:0.142;stroke-linecap:butt;stroke-linejoin:bevel;stroke-miterlimit:2.61299992;stroke-dasharray:none;stroke-opacity:1"
             d="M 68.587,91.863 L 33.077,91.863 L 29.534,87.859 L 32.409,87.844 L 30.174,84.904 L 69.44,84.904 L 68.373,87.446 L 70.693,87.446 L 69.085,90.897 L 68.587,91.863 z" /><path
             id="path17203"
             style="fill:#221814;fill-opacity:1;fill-rule:evenodd;stroke:none"
             d="M 71.534,91.864 L 75.548,85.316 L 85.696,85.316 L 79.903,91.835 L 71.534,91.864 z" /><path
             id="path17205"
             style="fill:none;stroke:#221814;stroke-width:0.142;stroke-linecap:butt;stroke-linejoin:bevel;stroke-miterlimit:2.61299992;stroke-dasharray:none;stroke-opacity:1"
             d="M 71.532,91.863 L 75.547,85.316 L 85.694,85.316 L 79.901,91.836 L 71.532,91.863 z" /><path
             id="path17207"
             style="fill:#ffffff;fill-opacity:1;fill-rule:evenodd;stroke:none"
             d="M 37.946,111.42 L 37.946,135.75 L 38.032,136.161 L 38.245,136.588 L 38.487,136.93 L 38.771,137.227 L 39.199,137.469 L 39.654,137.667 L 40.223,137.752 L 73.385,137.752 L 73.741,137.738 L 74.253,137.624 L 74.623,137.469 L 74.993,137.255 L 75.235,137.042 L 75.505,136.715 L 75.705,136.219 L 75.761,135.693 L 75.761,111.266 L 75.619,110.811 L 75.377,110.398 L 75.021,110.057 L 74.479,109.73 L 74.096,109.617 L 73.527,109.532 L 40.038,109.532 L 39.327,109.702 L 38.757,110.029 L 38.402,110.355 L 38.146,110.725 L 38.06,110.966 L 37.989,111.307 L 37.946,111.42 z" /><path
             id="path17209"
             style="fill:none;stroke:#221814;stroke-width:0.142;stroke-linecap:butt;stroke-linejoin:bevel;stroke-miterlimit:2.61299992;stroke-dasharray:none;stroke-opacity:1"
             d="M 37.944,111.42 L 37.944,135.75 L 38.029,136.161 L 38.244,136.588 L 38.485,136.929 L 38.771,137.227 L 39.197,137.468 L 39.652,137.667 L 40.222,137.752 L 73.384,137.752 L 73.739,137.738 L 74.251,137.624 L 74.622,137.468 L 74.991,137.256 L 75.233,137.041 L 75.504,136.715 L 75.703,136.219 L 75.76,135.693 L 75.76,111.264 L 75.618,110.81 L 75.375,110.398 L 75.021,110.057 L 74.479,109.73 L 74.094,109.617 L 73.525,109.531 L 40.037,109.531 L 39.325,109.702 L 38.756,110.029 L 38.4,110.355 L 38.144,110.725 L 38.059,110.966 L 37.987,111.307 L 37.944,111.42 z" /></g></g><g
         id="g17211"><g
           clip-path="url(#clipPath17215)"
           id="g17213"><path
             id="path17219"
             style="fill:none;stroke:#000000;stroke-width:0.472;stroke-linecap:butt;stroke-linejoin:miter;stroke-miterlimit:10;stroke-dasharray:none;stroke-opacity:1"
             d="M 1.749,1.574 L 112.296,1.574 L 112.296,78.107 L 1.749,78.107 L 1.749,1.574 z" /><path
             id="path17221"
             style="fill:none;stroke:#000000;stroke-width:0.472;stroke-linecap:butt;stroke-linejoin:miter;stroke-miterlimit:10;stroke-dasharray:none;stroke-opacity:1"
             d="M 1.749,61.1 L 112.296,61.1" /><path
             id="path17223"
             style="fill:none;stroke:#000000;stroke-width:0.472;stroke-linecap:butt;stroke-linejoin:miter;stroke-miterlimit:10;stroke-dasharray:3.779, 3.779;stroke-dashoffset:0;stroke-opacity:1"
             d="M 1.749,44.092 L 112.296,44.092" /></g></g><g
         id="g17225"><g
           clip-path="url(#clipPath17229)"
           id="g17227"><path
             id="path17233"
             style="fill:none;stroke:#000000;stroke-width:0.472;stroke-linecap:butt;stroke-linejoin:miter;stroke-miterlimit:10;stroke-dasharray:none;stroke-opacity:1"
             d="M 112.296,69.604 L 132.139,69.604 L 132.139,52.596 L 112.296,52.596" /></g></g><g
         id="g17235"><g
           clip-path="url(#clipPath17239)"
           id="g17237"><path
             id="path17243"
             style="fill:#000000;fill-opacity:1;fill-rule:evenodd;stroke:none"
             d="M 120.863,54.486 L 113.305,52.596 L 120.863,50.706 L 120.863,54.486 z" /><path
             id="path17245"
             style="fill:none;stroke:#000000;stroke-width:0.472;stroke-linecap:butt;stroke-linejoin:miter;stroke-miterlimit:10;stroke-dasharray:none;stroke-opacity:1"
             d="M 120.863,54.486 L 113.305,52.596 L 120.863,50.706 L 120.863,54.486 z" /></g></g><text
         id="text17247"
         transform="matrix(1,0,0,-1,10.1787,65.9609)"><tspan
           id="tspan17249"
           sodipodi:role="line"
           y="0"
           x="0 10.149879 13.329936 20.801874"
           style="font-size:11.95510006px;font-variant:normal;font-weight:normal;font-stretch:normal;writing-mode:lr-tb;fill:#000000;fill-opacity:1;fill-rule:nonzero;stroke:none;font-family:cmss 12;-inkscape-font-specification:cmss12">MICO</tspan></text>
<text
         id="text17251"
         transform="matrix(1,0,0,-1,43.5322,65.9609)"><tspan
           id="tspan17253"
           sodipodi:role="line"
           y="0"
           x="0 6.5035744 12.361573"
           style="font-size:11.95510006px;font-variant:normal;font-weight:normal;font-stretch:normal;writing-mode:lr-tb;fill:#000000;fill-opacity:1;fill-rule:nonzero;stroke:none;font-family:cmr 12;-inkscape-font-specification:cmr12">nam</tspan></text>
<text
         id="text17255"
         transform="matrix(1,0,0,-1,65.6436,65.9609)"><tspan
           id="tspan17257"
           y="0"
           x="0"
           style="font-size:11.95510006px;font-variant:normal;font-weight:normal;font-stretch:normal;writing-mode:lr-tb;fill:#000000;fill-opacity:1;fill-rule:nonzero;stroke:none;font-family:cmr 12;-inkscape-font-specification:cmr12">e</tspan></text>
<text
         id="text17259"
         transform="matrix(1,0,0,-1,74.7432,65.9609)"><tspan
           id="tspan17261"
           sodipodi:role="line"
           y="0"
           x="0 4.6146684 9.8151369"
           style="font-size:11.95510006px;font-variant:normal;font-weight:normal;font-stretch:normal;writing-mode:lr-tb;fill:#000000;fill-opacity:1;fill-rule:nonzero;stroke:none;font-family:cmr 12;-inkscape-font-specification:cmr12">ser</tspan></text>
<text
         id="text17263"
         transform="matrix(1,0,0,-1,89.1152,65.9609)"><tspan
           id="tspan17265"
           y="0"
           x="0"
           style="font-size:11.95510006px;font-variant:normal;font-weight:normal;font-stretch:normal;writing-mode:lr-tb;fill:#000000;fill-opacity:1;fill-rule:nonzero;stroke:none;font-family:cmr 12;-inkscape-font-specification:cmr12">v</tspan></text>
<text
         id="text17267"
         transform="matrix(1,0,0,-1,94.9707,65.9609)"><tspan
           id="tspan17269"
           sodipodi:role="line"
           y="0"
           x="0 5.2004685"
           style="font-size:11.95510006px;font-variant:normal;font-weight:normal;font-stretch:normal;writing-mode:lr-tb;fill:#000000;fill-opacity:1;fill-rule:nonzero;stroke:none;font-family:cmr 12;-inkscape-font-specification:cmr12">er</tspan></text>
<text
         id="text17271"
         transform="matrix(1,0,0,-1,3.5908,48.9512)"><tspan
           id="tspan17273"
           y="0"
           x="0"
           style="font-size:11.95510006px;font-variant:normal;font-weight:normal;font-stretch:normal;writing-mode:lr-tb;fill:#000000;fill-opacity:1;fill-rule:nonzero;stroke:none;font-family:cmss 12;-inkscape-font-specification:cmss12">F</tspan></text>
<text
         id="text17275"
         transform="matrix(1,0,0,-1,9.916,48.9512)"><tspan
           id="tspan17277"
           sodipodi:role="line"
           y="0"
           x="0 5.8460441 11.452986 20.706234 28.441183 36.64238 42.500381 46.983543 51.215649 58.986462"
           style="font-size:11.95510006px;font-variant:normal;font-weight:normal;font-stretch:normal;writing-mode:lr-tb;fill:#000000;fill-opacity:1;fill-rule:nonzero;stroke:none;font-family:cmss 12;-inkscape-font-specification:cmss12">oamXHostBr</tspan></text>
<text
         id="text17279"
         transform="matrix(1,0,0,-1,72.8838,48.9512)"><tspan
           id="tspan17281"
           y="0"
           x="0"
           style="font-size:11.95510006px;font-variant:normal;font-weight:normal;font-stretch:normal;writing-mode:lr-tb;fill:#000000;fill-opacity:1;fill-rule:nonzero;stroke:none;font-family:cmss 12;-inkscape-font-specification:cmss12">o</tspan></text>
<text
         id="text17283"
         transform="matrix(1,0,0,-1,78.4248,48.9512)"><tspan
           id="tspan17285"
           sodipodi:role="line"
           y="0"
           x="0 7.9620967 12.445259 17.645727"
           style="font-size:11.95510006px;font-variant:normal;font-weight:normal;font-stretch:normal;writing-mode:lr-tb;fill:#000000;fill-opacity:1;fill-rule:nonzero;stroke:none;font-family:cmss 12;-inkscape-font-specification:cmss12">wser</tspan></text>
<text
         id="text17287"
         transform="matrix(1,0,0,-1,133.9922,57.4565)"><tspan
           id="tspan17289"
           sodipodi:role="line"
           y="0"
           x="0 4.554893 9.7553616 15.601405 18.853193 23.467861 28.022755 33.223225 37.778114"
           style="font-size:11.95510006px;font-variant:normal;font-weight:normal;font-stretch:normal;writing-mode:lr-tb;fill:#000000;fill-opacity:1;fill-rule:nonzero;stroke:none;font-family:cmr 12;-inkscape-font-specification:cmr12">registers</tspan></text>
<text
         id="text17291"
         transform="matrix(1,0,0,-1,23.4355,145.332)"><tspan
           id="tspan17293"
           sodipodi:role="line"
           y="0"
           x="0 6.5035744 12.361573"
           style="font-size:11.95510006px;font-variant:normal;font-weight:normal;font-stretch:normal;writing-mode:lr-tb;fill:#000000;fill-opacity:1;fill-rule:nonzero;stroke:none;font-family:cmr 12;-inkscape-font-specification:cmr12">hos</tspan></text>
<text
         id="text17295"
         transform="matrix(1,0,0,-1,40.4092,145.332)"><tspan
           id="tspan17297"
           y="0"
           x="0"
           style="font-size:11.95510006px;font-variant:normal;font-weight:normal;font-stretch:normal;writing-mode:lr-tb;fill:#000000;fill-opacity:1;fill-rule:nonzero;stroke:none;font-family:cmr 12;-inkscape-font-specification:cmr12">t</tspan></text>
<text
         id="text17299"
         transform="matrix(1,0,0,-1,48.8701,145.332)"><tspan
           id="tspan17301"
           sodipodi:role="line"
           y="0"
           x="0 9.7553616"
           style="font-size:11.95510006px;font-variant:normal;font-weight:normal;font-stretch:normal;writing-mode:lr-tb;fill:#000000;fill-opacity:1;fill-rule:nonzero;stroke:none;font-family:cmr 12;-inkscape-font-specification:cmr12">ma</tspan></text>
<text
         id="text17303"
         transform="matrix(1,0,0,-1,64.4785,145.332)"><tspan
           id="tspan17305"
           y="0"
           x="0"
           style="font-size:11.95510006px;font-variant:normal;font-weight:normal;font-stretch:normal;writing-mode:lr-tb;fill:#000000;fill-opacity:1;fill-rule:nonzero;stroke:none;font-family:cmr 12;-inkscape-font-specification:cmr12">c</tspan></text>
<text
         id="text17307"
         transform="matrix(1,0,0,-1,69.3574,145.332)"><tspan
           id="tspan17309"
           sodipodi:role="line"
           y="0"
           x="0 6.5035744 9.7553616 16.258936"
           style="font-size:11.95510006px;font-variant:normal;font-weight:normal;font-stretch:normal;writing-mode:lr-tb;fill:#000000;fill-opacity:1;fill-rule:nonzero;stroke:none;font-family:cmr 12;-inkscape-font-specification:cmr12">hine</tspan></text>
<text
         id="text17311"
         transform="matrix(1,0,0,-1,85.8057,122.6519)"><tspan
           id="tspan17313"
           sodipodi:role="line"
           y="0"
           x="0 6.5035744 11.058468 16.90451 21.459404"
           style="font-size:11.95510006px;font-variant:normal;font-weight:normal;font-stretch:normal;writing-mode:lr-tb;fill:#000000;fill-opacity:1;fill-rule:nonzero;stroke:none;font-family:cmr 12;-inkscape-font-specification:cmr12">Start</tspan></text>
<text
         id="text17315"
         transform="matrix(1,0,0,-1,85.8057,108.4771)"><tspan
           id="tspan17317"
           y="0"
           x="0"
           style="font-size:11.95510006px;font-variant:normal;font-weight:normal;font-stretch:normal;writing-mode:lr-tb;fill:#000000;fill-opacity:1;fill-rule:nonzero;stroke:none;font-family:cmss 12;-inkscape-font-specification:cmss12">F</tspan></text>
<text
         id="text17319"
         transform="matrix(1,0,0,-1,92.1309,108.4771)"><tspan
           id="tspan17321"
           sodipodi:role="line"
           y="0"
           x="0 5.8460441 11.452986 20.706234 28.441183 36.64238 42.500381 46.983543 51.215649 58.986462"
           style="font-size:11.95510006px;font-variant:normal;font-weight:normal;font-stretch:normal;writing-mode:lr-tb;fill:#000000;fill-opacity:1;fill-rule:nonzero;stroke:none;font-family:cmss 12;-inkscape-font-specification:cmss12">oamXHostBr</tspan></text>
<text
         id="text17323"
         transform="matrix(1,0,0,-1,155.0986,108.4771)"><tspan
           id="tspan17325"
           y="0"
           x="0"
           style="font-size:11.95510006px;font-variant:normal;font-weight:normal;font-stretch:normal;writing-mode:lr-tb;fill:#000000;fill-opacity:1;fill-rule:nonzero;stroke:none;font-family:cmss 12;-inkscape-font-specification:cmss12">o</tspan></text>
<text
         id="text17327"
         transform="matrix(1,0,0,-1,160.6396,108.4771)"><tspan
           id="tspan17329"
           sodipodi:role="line"
           y="0"
           x="0 7.9620967 12.445259 17.645727"
           style="font-size:11.95510006px;font-variant:normal;font-weight:normal;font-stretch:normal;writing-mode:lr-tb;fill:#000000;fill-opacity:1;fill-rule:nonzero;stroke:none;font-family:cmss 12;-inkscape-font-specification:cmss12">wser</tspan></text>
</g></g></svg>