<?xml version="1.0" encoding="UTF-8" standalone="no"?>
<!-- Created with Inkscape (http://www.inkscape.org/) -->

<svg
   xmlns:dc="http://purl.org/dc/elements/1.1/"
   xmlns:cc="http://creativecommons.org/ns#"
   xmlns:rdf="http://www.w3.org/1999/02/22-rdf-syntax-ns#"
   xmlns:svg="http://www.w3.org/2000/svg"
   xmlns="http://www.w3.org/2000/svg"
   xmlns:sodipodi="http://sodipodi.sourceforge.net/DTD/sodipodi-0.dtd"
   xmlns:inkscape="http://www.inkscape.org/namespaces/inkscape"
   id="svg15917"
   sodipodi:version="0.32"
   inkscape:version="0.48.2 r9819"
   width="442.7323"
   height="265.3887"
   xml:space="preserve"
   sodipodi:docname="fig-6-5.svg"
   version="1.0"
   inkscape:output_extension="org.inkscape.output.svg.inkscape"><metadata
     id="metadata15922"><rdf:RDF><cc:Work
         rdf:about=""><dc:format>image/svg+xml</dc:format><dc:type
           rdf:resource="http://purl.org/dc/dcmitype/StillImage" /></cc:Work></rdf:RDF></metadata><defs
     id="defs15920"><inkscape:perspective
   sodipodi:type="inkscape:persp3d"
   inkscape:vp_x="0 : 526.18109 : 1"
   inkscape:vp_y="0 : 1000 : 0"
   inkscape:vp_z="744.09448 : 526.18109 : 1"
   inkscape:persp3d-origin="372.04724 : 350.78739 : 1"
   id="perspective15924" />




















</defs><sodipodi:namedview
     inkscape:window-height="920"
     inkscape:window-width="1680"
     inkscape:pageshadow="2"
     inkscape:pageopacity="0.0"
     guidetolerance="10.0"
     gridtolerance="10.0"
     objecttolerance="10.0"
     borderopacity="1.0"
     bordercolor="#666666"
     pagecolor="#ffffff"
     id="base"
     showgrid="false"
     inkscape:zoom="2.6451767"
     inkscape:cx="221.36615"
     inkscape:cy="132.69435"
     inkscape:window-x="0"
     inkscape:window-y="0"
     inkscape:current-layer="g15926"
     inkscape:window-maximized="0" /><g
     id="g15926"
     inkscape:groupmode="layer"
     inkscape:label="fig-6-5"
     transform="matrix(1.25,0,0,-1.25,-2.3373792,265.60235)"><path
       inkscape:connector-curvature="0"
       d="m 49.833,31.144 6.3,0 m 288.701,0 -6.301,0 m -288.7,10.601 3.1,0 m 291.901,0 -3.1,0 m -291.901,14 3.1,0 m 291.901,0 -3.1,0 m -291.901,7.199 3.1,0 m 291.901,0 -3.1,0 m -291.901,3.401 6.3,0 m 288.701,0 -6.301,0 m -288.7,10.599 3.1,0 m 291.901,0 -3.1,0 m -291.901,14 3.1,0 m 291.901,0 -3.1,0 m -291.901,7.2 3.1,0 m 291.901,0 -3.1,0 m -291.901,3.4 6.3,0 m 288.701,0 -6.301,0 m -288.7,10.599 3.1,0 m 291.901,0 -3.1,0 m -291.901,14.001 3.1,0 m 291.901,0 -3.1,0 m -291.901,7.2 3.1,0 m 291.901,0 -3.1,0 m -291.901,3.4 6.3,0 m 288.701,0 -6.301,0 m -288.7,10.6 3.1,0 m 291.901,0 -3.1,0 m -291.901,14 3.1,0 m 291.901,0 -3.1,0 m -291.901,7.199 3.1,0 m 291.901,0 -3.1,0 m -291.901,3.4 6.3,0 m 288.701,0 -6.301,0 m -288.7,10.6 3.1,0 m 291.901,0 -3.1,0 m -291.901,14 3.1,0 m 291.901,0 -3.1,0 m -291.901,7.201 3.1,0 m 291.901,0 -3.1,0 m -291.901,3.4 6.3,0 m 288.701,0 -6.301,0 m -288.7,-176 0,6.3 m 0,169.7 0,-6.3 m 32.8,-169.7 0,6.3 m 0,169.7 0,-6.3 m 32.8,-169.7 0,6.3 m 0,169.7 0,-6.3 m 32.701,-169.7 0,6.3 m 0,169.7 0,-6.3 m 32.8,-169.7 0,6.3 m 0,169.7 0,-6.3 m 32.8,-169.7 0,6.3 m 0,169.7 0,-6.3 m 32.799,-169.7 0,6.3 m 0,169.7 0,-6.3 m 32.701,-169.7 0,6.3 m 0,169.7 0,-6.3 m 32.799,-169.7 0,6.3 m 0,169.7 0,-6.3 m 32.801,-169.7 0,6.3 m 0,169.7 0,-6.3"
       style="fill:none;stroke:#000000;stroke-width:1;stroke-linecap:butt;stroke-linejoin:miter;stroke-miterlimit:10;stroke-opacity:1;stroke-dasharray:none"
       id="path15936" /><path
       inkscape:connector-curvature="0"
       d="m 49.833,31.144 295.001,0 0,176 -295.001,0 0,-176 z"
       style="fill:none;stroke:#000000;stroke-width:1;stroke-linecap:butt;stroke-linejoin:miter;stroke-miterlimit:10;stroke-opacity:1;stroke-dasharray:none"
       id="path15938" /><path
       inkscape:connector-curvature="0"
       d="m 60.553,207.144 c 0,1.391 -1.129,2.52 -2.52,2.52 -1.392,0 -2.52,-1.129 -2.52,-2.52 0,-1.392 1.128,-2.521 2.52,-2.521 1.391,0 2.52,1.129 2.52,2.521"
       style="fill:none;stroke:#000000;stroke-width:1;stroke-linecap:butt;stroke-linejoin:miter;stroke-miterlimit:10;stroke-opacity:1;stroke-dasharray:none"
       id="path15940" /><path
       inkscape:connector-curvature="0"
       d="m 58.033,207.144 0,0"
       style="fill:none;stroke:#000000;stroke-width:1;stroke-linecap:round;stroke-linejoin:miter;stroke-miterlimit:10;stroke-opacity:1;stroke-dasharray:none"
       id="path15942" /><path
       inkscape:connector-curvature="0"
       d="m 68.753,178.043 c 0,1.392 -1.129,2.52 -2.52,2.52 -1.391,0 -2.52,-1.128 -2.52,-2.52 0,-1.391 1.129,-2.52 2.52,-2.52 1.391,0 2.52,1.129 2.52,2.52"
       style="fill:none;stroke:#000000;stroke-width:1;stroke-linecap:butt;stroke-linejoin:miter;stroke-miterlimit:10;stroke-opacity:1;stroke-dasharray:none"
       id="path15944" /><path
       inkscape:connector-curvature="0"
       d="m 66.233,178.043 0,0"
       style="fill:none;stroke:#000000;stroke-width:1;stroke-linecap:round;stroke-linejoin:miter;stroke-miterlimit:10;stroke-opacity:1;stroke-dasharray:none"
       id="path15946" /><path
       inkscape:connector-curvature="0"
       d="m 76.953,159.644 c 0,1.391 -1.129,2.52 -2.519,2.52 -1.393,0 -2.521,-1.129 -2.521,-2.52 0,-1.392 1.128,-2.521 2.521,-2.521 1.39,0 2.519,1.129 2.519,2.521"
       style="fill:none;stroke:#000000;stroke-width:1;stroke-linecap:butt;stroke-linejoin:miter;stroke-miterlimit:10;stroke-opacity:1;stroke-dasharray:none"
       id="path15948" /><path
       inkscape:connector-curvature="0"
       d="m 74.434,159.644 0,0"
       style="fill:none;stroke:#000000;stroke-width:1;stroke-linecap:round;stroke-linejoin:miter;stroke-miterlimit:10;stroke-opacity:1;stroke-dasharray:none"
       id="path15950" /><path
       inkscape:connector-curvature="0"
       d="m 85.153,149.844 c 0,1.39 -1.129,2.519 -2.52,2.519 -1.392,0 -2.52,-1.129 -2.52,-2.519 0,-1.391 1.128,-2.52 2.52,-2.52 1.391,0 2.52,1.129 2.52,2.52"
       style="fill:none;stroke:#000000;stroke-width:1;stroke-linecap:butt;stroke-linejoin:miter;stroke-miterlimit:10;stroke-opacity:1;stroke-dasharray:none"
       id="path15952" /><path
       inkscape:connector-curvature="0"
       d="m 82.633,149.844 0,0"
       style="fill:none;stroke:#000000;stroke-width:1;stroke-linecap:round;stroke-linejoin:miter;stroke-miterlimit:10;stroke-opacity:1;stroke-dasharray:none"
       id="path15954" /><path
       inkscape:connector-curvature="0"
       d="m 93.354,142.844 c 0,1.39 -1.129,2.519 -2.521,2.519 -1.392,0 -2.52,-1.129 -2.52,-2.519 0,-1.391 1.128,-2.52 2.52,-2.52 1.392,0 2.521,1.129 2.521,2.52"
       style="fill:none;stroke:#000000;stroke-width:1;stroke-linecap:butt;stroke-linejoin:miter;stroke-miterlimit:10;stroke-opacity:1;stroke-dasharray:none"
       id="path15956" /><path
       inkscape:connector-curvature="0"
       d="m 90.833,142.844 0,0"
       style="fill:none;stroke:#000000;stroke-width:1;stroke-linecap:round;stroke-linejoin:miter;stroke-miterlimit:10;stroke-opacity:1;stroke-dasharray:none"
       id="path15958" /><path
       inkscape:connector-curvature="0"
       d="m 101.554,137.144 c 0,1.391 -1.129,2.52 -2.521,2.52 -1.392,0 -2.519,-1.129 -2.519,-2.52 0,-1.392 1.127,-2.521 2.519,-2.521 1.392,0 2.521,1.129 2.521,2.521"
       style="fill:none;stroke:#000000;stroke-width:1;stroke-linecap:butt;stroke-linejoin:miter;stroke-miterlimit:10;stroke-opacity:1;stroke-dasharray:none"
       id="path15960" /><path
       inkscape:connector-curvature="0"
       d="m 99.033,137.144 0,0"
       style="fill:none;stroke:#000000;stroke-width:1;stroke-linecap:round;stroke-linejoin:miter;stroke-miterlimit:10;stroke-opacity:1;stroke-dasharray:none"
       id="path15962" /><path
       inkscape:connector-curvature="0"
       d="m 109.753,132.043 c 0,1.392 -1.129,2.52 -2.52,2.52 -1.392,0 -2.519,-1.128 -2.519,-2.52 0,-1.391 1.127,-2.52 2.519,-2.52 1.391,0 2.52,1.129 2.52,2.52"
       style="fill:none;stroke:#000000;stroke-width:1;stroke-linecap:butt;stroke-linejoin:miter;stroke-miterlimit:10;stroke-opacity:1;stroke-dasharray:none"
       id="path15964" /><path
       inkscape:connector-curvature="0"
       d="m 107.233,132.043 0,0"
       style="fill:none;stroke:#000000;stroke-width:1;stroke-linecap:round;stroke-linejoin:miter;stroke-miterlimit:10;stroke-opacity:1;stroke-dasharray:none"
       id="path15966" /><path
       inkscape:connector-curvature="0"
       d="m 117.953,127.443 c 0,1.391 -1.129,2.52 -2.52,2.52 -1.392,0 -2.52,-1.129 -2.52,-2.52 0,-1.39 1.128,-2.519 2.52,-2.519 1.391,0 2.52,1.129 2.52,2.519"
       style="fill:none;stroke:#000000;stroke-width:1;stroke-linecap:butt;stroke-linejoin:miter;stroke-miterlimit:10;stroke-opacity:1;stroke-dasharray:none"
       id="path15968" /><path
       inkscape:connector-curvature="0"
       d="m 115.433,127.443 0,0"
       style="fill:none;stroke:#000000;stroke-width:1;stroke-linecap:round;stroke-linejoin:miter;stroke-miterlimit:10;stroke-opacity:1;stroke-dasharray:none"
       id="path15970" /><path
       inkscape:connector-curvature="0"
       d="m 126.054,123.043 c 0,1.392 -1.129,2.52 -2.521,2.52 -1.391,0 -2.52,-1.128 -2.52,-2.52 0,-1.391 1.129,-2.52 2.52,-2.52 1.392,0 2.521,1.129 2.521,2.52"
       style="fill:none;stroke:#000000;stroke-width:1;stroke-linecap:butt;stroke-linejoin:miter;stroke-miterlimit:10;stroke-opacity:1;stroke-dasharray:none"
       id="path15972" /><path
       inkscape:connector-curvature="0"
       d="m 123.533,123.043 0,0"
       style="fill:none;stroke:#000000;stroke-width:1;stroke-linecap:round;stroke-linejoin:miter;stroke-miterlimit:10;stroke-opacity:1;stroke-dasharray:none"
       id="path15974" /><path
       inkscape:connector-curvature="0"
       d="m 134.253,119.043 c 0,1.392 -1.129,2.52 -2.52,2.52 -1.392,0 -2.519,-1.128 -2.519,-2.52 0,-1.391 1.127,-2.52 2.519,-2.52 1.391,0 2.52,1.129 2.52,2.52"
       style="fill:none;stroke:#000000;stroke-width:1;stroke-linecap:butt;stroke-linejoin:miter;stroke-miterlimit:10;stroke-opacity:1;stroke-dasharray:none"
       id="path15976" /><path
       inkscape:connector-curvature="0"
       d="m 131.733,119.043 0,0"
       style="fill:none;stroke:#000000;stroke-width:1;stroke-linecap:round;stroke-linejoin:miter;stroke-miterlimit:10;stroke-opacity:1;stroke-dasharray:none"
       id="path15978" /><path
       inkscape:connector-curvature="0"
       d="m 142.453,115.043 c 0,1.392 -1.129,2.52 -2.52,2.52 -1.392,0 -2.52,-1.128 -2.52,-2.52 0,-1.39 1.128,-2.519 2.52,-2.519 1.391,0 2.52,1.129 2.52,2.519"
       style="fill:none;stroke:#000000;stroke-width:1;stroke-linecap:butt;stroke-linejoin:miter;stroke-miterlimit:10;stroke-opacity:1;stroke-dasharray:none"
       id="path15980" /><path
       inkscape:connector-curvature="0"
       d="m 139.933,115.043 0,0"
       style="fill:none;stroke:#000000;stroke-width:1;stroke-linecap:round;stroke-linejoin:miter;stroke-miterlimit:10;stroke-opacity:1;stroke-dasharray:none"
       id="path15982" /><path
       inkscape:connector-curvature="0"
       d="m 150.653,111.143 c 0,1.393 -1.129,2.522 -2.519,2.522 -1.393,0 -2.521,-1.129 -2.521,-2.522 0,-1.391 1.128,-2.519 2.521,-2.519 1.39,0 2.519,1.128 2.519,2.519"
       style="fill:none;stroke:#000000;stroke-width:1;stroke-linecap:butt;stroke-linejoin:miter;stroke-miterlimit:10;stroke-opacity:1;stroke-dasharray:none"
       id="path15984" /><path
       inkscape:connector-curvature="0"
       d="m 148.134,111.143 0,0"
       style="fill:none;stroke:#000000;stroke-width:1;stroke-linecap:round;stroke-linejoin:miter;stroke-miterlimit:10;stroke-opacity:1;stroke-dasharray:none"
       id="path15986" /><path
       inkscape:connector-curvature="0"
       d="m 158.853,107.344 c 0,1.391 -1.129,2.52 -2.52,2.52 -1.392,0 -2.52,-1.129 -2.52,-2.52 0,-1.39 1.128,-2.519 2.52,-2.519 1.391,0 2.52,1.129 2.52,2.519"
       style="fill:none;stroke:#000000;stroke-width:1;stroke-linecap:butt;stroke-linejoin:miter;stroke-miterlimit:10;stroke-opacity:1;stroke-dasharray:none"
       id="path15988" /><path
       inkscape:connector-curvature="0"
       d="m 156.333,107.344 0,0"
       style="fill:none;stroke:#000000;stroke-width:1;stroke-linecap:round;stroke-linejoin:miter;stroke-miterlimit:10;stroke-opacity:1;stroke-dasharray:none"
       id="path15990" /><path
       inkscape:connector-curvature="0"
       d="m 167.054,103.644 c 0,1.392 -1.129,2.521 -2.521,2.521 -1.391,0 -2.52,-1.129 -2.52,-2.521 0,-1.391 1.129,-2.52 2.52,-2.52 1.392,0 2.521,1.129 2.521,2.52"
       style="fill:none;stroke:#000000;stroke-width:1;stroke-linecap:butt;stroke-linejoin:miter;stroke-miterlimit:10;stroke-opacity:1;stroke-dasharray:none"
       id="path15992" /><path
       inkscape:connector-curvature="0"
       d="m 164.533,103.644 0,0"
       style="fill:none;stroke:#000000;stroke-width:1;stroke-linecap:round;stroke-linejoin:miter;stroke-miterlimit:10;stroke-opacity:1;stroke-dasharray:none"
       id="path15994" /><path
       inkscape:connector-curvature="0"
       d="m 175.253,99.944 c 0,1.391 -1.129,2.52 -2.52,2.52 -1.392,0 -2.519,-1.129 -2.519,-2.52 0,-1.39 1.127,-2.519 2.519,-2.519 1.391,0 2.52,1.129 2.52,2.519"
       style="fill:none;stroke:#000000;stroke-width:1;stroke-linecap:butt;stroke-linejoin:miter;stroke-miterlimit:10;stroke-opacity:1;stroke-dasharray:none"
       id="path15996" /><path
       inkscape:connector-curvature="0"
       d="m 172.733,99.944 0,0"
       style="fill:none;stroke:#000000;stroke-width:1;stroke-linecap:round;stroke-linejoin:miter;stroke-miterlimit:10;stroke-opacity:1;stroke-dasharray:none"
       id="path15998" /><path
       inkscape:connector-curvature="0"
       d="m 183.453,96.345 c 0,1.39 -1.129,2.519 -2.519,2.519 -1.393,0 -2.522,-1.129 -2.522,-2.519 0,-1.391 1.129,-2.52 2.522,-2.52 1.39,0 2.519,1.129 2.519,2.52"
       style="fill:none;stroke:#000000;stroke-width:1;stroke-linecap:butt;stroke-linejoin:miter;stroke-miterlimit:10;stroke-opacity:1;stroke-dasharray:none"
       id="path16000" /><path
       inkscape:connector-curvature="0"
       d="m 180.934,96.345 0,0"
       style="fill:none;stroke:#000000;stroke-width:1;stroke-linecap:round;stroke-linejoin:miter;stroke-miterlimit:10;stroke-opacity:1;stroke-dasharray:none"
       id="path16002" /><path
       inkscape:connector-curvature="0"
       d="m 191.654,92.745 c 0,1.391 -1.129,2.52 -2.521,2.52 -1.391,0 -2.52,-1.129 -2.52,-2.52 0,-1.392 1.129,-2.521 2.52,-2.521 1.392,0 2.521,1.129 2.521,2.521"
       style="fill:none;stroke:#000000;stroke-width:1;stroke-linecap:butt;stroke-linejoin:miter;stroke-miterlimit:10;stroke-opacity:1;stroke-dasharray:none"
       id="path16004" /><path
       inkscape:connector-curvature="0"
       d="m 189.133,92.745 0,0"
       style="fill:none;stroke:#000000;stroke-width:1;stroke-linecap:round;stroke-linejoin:miter;stroke-miterlimit:10;stroke-opacity:1;stroke-dasharray:none"
       id="path16006" /><path
       inkscape:connector-curvature="0"
       d="m 199.854,89.144 c 0,1.392 -1.129,2.521 -2.52,2.521 -1.393,0 -2.52,-1.129 -2.52,-2.521 0,-1.391 1.127,-2.52 2.52,-2.52 1.391,0 2.52,1.129 2.52,2.52"
       style="fill:none;stroke:#000000;stroke-width:1;stroke-linecap:butt;stroke-linejoin:miter;stroke-miterlimit:10;stroke-opacity:1;stroke-dasharray:none"
       id="path16008" /><path
       inkscape:connector-curvature="0"
       d="m 197.334,89.144 0,0"
       style="fill:none;stroke:#000000;stroke-width:1;stroke-linecap:round;stroke-linejoin:miter;stroke-miterlimit:10;stroke-opacity:1;stroke-dasharray:none"
       id="path16010" /><path
       inkscape:connector-curvature="0"
       d="m 208.053,85.444 c 0,1.391 -1.129,2.52 -2.52,2.52 -1.39,0 -2.519,-1.129 -2.519,-2.52 0,-1.39 1.129,-2.519 2.519,-2.519 1.391,0 2.52,1.129 2.52,2.519"
       style="fill:none;stroke:#000000;stroke-width:1;stroke-linecap:butt;stroke-linejoin:miter;stroke-miterlimit:10;stroke-opacity:1;stroke-dasharray:none"
       id="path16012" /><path
       inkscape:connector-curvature="0"
       d="m 205.533,85.444 0,0"
       style="fill:none;stroke:#000000;stroke-width:1;stroke-linecap:round;stroke-linejoin:miter;stroke-miterlimit:10;stroke-opacity:1;stroke-dasharray:none"
       id="path16014" /><path
       inkscape:connector-curvature="0"
       d="m 216.254,81.845 c 0,1.39 -1.129,2.519 -2.52,2.519 -1.392,0 -2.521,-1.129 -2.521,-2.519 0,-1.391 1.129,-2.52 2.521,-2.52 1.391,0 2.52,1.129 2.52,2.52"
       style="fill:none;stroke:#000000;stroke-width:1;stroke-linecap:butt;stroke-linejoin:miter;stroke-miterlimit:10;stroke-opacity:1;stroke-dasharray:none"
       id="path16016" /><path
       inkscape:connector-curvature="0"
       d="m 213.734,81.845 0,0"
       style="fill:none;stroke:#000000;stroke-width:1;stroke-linecap:round;stroke-linejoin:miter;stroke-miterlimit:10;stroke-opacity:1;stroke-dasharray:none"
       id="path16018" /><path
       inkscape:connector-curvature="0"
       d="m 224.453,78.245 c 0,1.391 -1.129,2.52 -2.519,2.52 -1.393,0 -2.52,-1.129 -2.52,-2.52 0,-1.392 1.127,-2.521 2.52,-2.521 1.39,0 2.519,1.129 2.519,2.521"
       style="fill:none;stroke:#000000;stroke-width:1;stroke-linecap:butt;stroke-linejoin:miter;stroke-miterlimit:10;stroke-opacity:1;stroke-dasharray:none"
       id="path16020" /><path
       inkscape:connector-curvature="0"
       d="m 221.934,78.245 0,0"
       style="fill:none;stroke:#000000;stroke-width:1;stroke-linecap:round;stroke-linejoin:miter;stroke-miterlimit:10;stroke-opacity:1;stroke-dasharray:none"
       id="path16022" /><path
       inkscape:connector-curvature="0"
       d="m 232.654,74.644 c 0,1.392 -1.129,2.521 -2.521,2.521 -1.391,0 -2.52,-1.129 -2.52,-2.521 0,-1.391 1.129,-2.52 2.52,-2.52 1.392,0 2.521,1.129 2.521,2.52"
       style="fill:none;stroke:#000000;stroke-width:1;stroke-linecap:butt;stroke-linejoin:miter;stroke-miterlimit:10;stroke-opacity:1;stroke-dasharray:none"
       id="path16024" /><path
       inkscape:connector-curvature="0"
       d="m 230.133,74.644 0,0"
       style="fill:none;stroke:#000000;stroke-width:1;stroke-linecap:round;stroke-linejoin:miter;stroke-miterlimit:10;stroke-opacity:1;stroke-dasharray:none"
       id="path16026" /><path
       inkscape:connector-curvature="0"
       d="m 240.854,71.144 c 0,1.392 -1.129,2.521 -2.52,2.521 -1.393,0 -2.52,-1.129 -2.52,-2.521 0,-1.391 1.127,-2.52 2.52,-2.52 1.391,0 2.52,1.129 2.52,2.52"
       style="fill:none;stroke:#000000;stroke-width:1;stroke-linecap:butt;stroke-linejoin:miter;stroke-miterlimit:10;stroke-opacity:1;stroke-dasharray:none"
       id="path16028" /><path
       inkscape:connector-curvature="0"
       d="m 238.334,71.144 0,0"
       style="fill:none;stroke:#000000;stroke-width:1;stroke-linecap:round;stroke-linejoin:miter;stroke-miterlimit:10;stroke-opacity:1;stroke-dasharray:none"
       id="path16030" /><path
       inkscape:connector-curvature="0"
       d="m 249.053,67.544 c 0,1.391 -1.129,2.519 -2.52,2.519 -1.39,0 -2.519,-1.128 -2.519,-2.519 0,-1.391 1.129,-2.52 2.519,-2.52 1.391,0 2.52,1.129 2.52,2.52"
       style="fill:none;stroke:#000000;stroke-width:1;stroke-linecap:butt;stroke-linejoin:miter;stroke-miterlimit:10;stroke-opacity:1;stroke-dasharray:none"
       id="path16032" /><path
       inkscape:connector-curvature="0"
       d="m 246.533,67.544 0,0"
       style="fill:none;stroke:#000000;stroke-width:1;stroke-linecap:round;stroke-linejoin:miter;stroke-miterlimit:10;stroke-opacity:1;stroke-dasharray:none"
       id="path16034" /><path
       inkscape:connector-curvature="0"
       d="m 257.254,63.944 c 0,1.391 -1.129,2.52 -2.52,2.52 -1.392,0 -2.521,-1.129 -2.521,-2.52 0,-1.39 1.129,-2.519 2.521,-2.519 1.391,0 2.52,1.129 2.52,2.519"
       style="fill:none;stroke:#000000;stroke-width:1;stroke-linecap:butt;stroke-linejoin:miter;stroke-miterlimit:10;stroke-opacity:1;stroke-dasharray:none"
       id="path16036" /><path
       inkscape:connector-curvature="0"
       d="m 254.734,63.944 0,0"
       style="fill:none;stroke:#000000;stroke-width:1;stroke-linecap:round;stroke-linejoin:miter;stroke-miterlimit:10;stroke-opacity:1;stroke-dasharray:none"
       id="path16038" /><path
       inkscape:connector-curvature="0"
       d="m 265.453,60.345 c 0,1.39 -1.129,2.519 -2.519,2.519 -1.393,0 -2.52,-1.129 -2.52,-2.519 0,-1.391 1.127,-2.52 2.52,-2.52 1.39,0 2.519,1.129 2.519,2.52"
       style="fill:none;stroke:#000000;stroke-width:1;stroke-linecap:butt;stroke-linejoin:miter;stroke-miterlimit:10;stroke-opacity:1;stroke-dasharray:none"
       id="path16040" /><path
       inkscape:connector-curvature="0"
       d="m 262.934,60.345 0,0"
       style="fill:none;stroke:#000000;stroke-width:1;stroke-linecap:round;stroke-linejoin:miter;stroke-miterlimit:10;stroke-opacity:1;stroke-dasharray:none"
       id="path16042" /><path
       inkscape:connector-curvature="0"
       d="m 273.553,56.845 c 0,1.39 -1.129,2.519 -2.52,2.519 -1.39,0 -2.519,-1.129 -2.519,-2.519 0,-1.391 1.129,-2.52 2.519,-2.52 1.391,0 2.52,1.129 2.52,2.52"
       style="fill:none;stroke:#000000;stroke-width:1;stroke-linecap:butt;stroke-linejoin:miter;stroke-miterlimit:10;stroke-opacity:1;stroke-dasharray:none"
       id="path16044" /><path
       inkscape:connector-curvature="0"
       d="m 271.033,56.845 0,0"
       style="fill:none;stroke:#000000;stroke-width:1;stroke-linecap:round;stroke-linejoin:miter;stroke-miterlimit:10;stroke-opacity:1;stroke-dasharray:none"
       id="path16046" /><path
       inkscape:connector-curvature="0"
       d="m 281.754,53.245 c 0,1.391 -1.129,2.52 -2.52,2.52 -1.392,0 -2.521,-1.129 -2.521,-2.52 0,-1.392 1.129,-2.521 2.521,-2.521 1.391,0 2.52,1.129 2.52,2.521"
       style="fill:none;stroke:#000000;stroke-width:1;stroke-linecap:butt;stroke-linejoin:miter;stroke-miterlimit:10;stroke-opacity:1;stroke-dasharray:none"
       id="path16048" /><path
       inkscape:connector-curvature="0"
       d="m 279.234,53.245 0,0"
       style="fill:none;stroke:#000000;stroke-width:1;stroke-linecap:round;stroke-linejoin:miter;stroke-miterlimit:10;stroke-opacity:1;stroke-dasharray:none"
       id="path16050" /><path
       inkscape:connector-curvature="0"
       d="m 289.953,49.544 c 0,1.391 -1.129,2.519 -2.519,2.519 -1.393,0 -2.52,-1.128 -2.52,-2.519 0,-1.391 1.127,-2.52 2.52,-2.52 1.39,0 2.519,1.129 2.519,2.52"
       style="fill:none;stroke:#000000;stroke-width:1;stroke-linecap:butt;stroke-linejoin:miter;stroke-miterlimit:10;stroke-opacity:1;stroke-dasharray:none"
       id="path16052" /><path
       inkscape:connector-curvature="0"
       d="m 287.434,49.544 0,0"
       style="fill:none;stroke:#000000;stroke-width:1;stroke-linecap:round;stroke-linejoin:miter;stroke-miterlimit:10;stroke-opacity:1;stroke-dasharray:none"
       id="path16054" /><path
       inkscape:connector-curvature="0"
       d="m 298.154,45.944 c 0,1.391 -1.129,2.52 -2.521,2.52 -1.391,0 -2.52,-1.129 -2.52,-2.52 0,-1.39 1.129,-2.519 2.52,-2.519 1.392,0 2.521,1.129 2.521,2.519"
       style="fill:none;stroke:#000000;stroke-width:1;stroke-linecap:butt;stroke-linejoin:miter;stroke-miterlimit:10;stroke-opacity:1;stroke-dasharray:none"
       id="path16056" /><path
       inkscape:connector-curvature="0"
       d="m 295.633,45.944 0,0"
       style="fill:none;stroke:#000000;stroke-width:1;stroke-linecap:round;stroke-linejoin:miter;stroke-miterlimit:10;stroke-opacity:1;stroke-dasharray:none"
       id="path16058" /><path
       inkscape:connector-curvature="0"
       d="m 306.354,43.444 c 0,1.391 -1.129,2.52 -2.52,2.52 -1.393,0 -2.52,-1.129 -2.52,-2.52 0,-1.39 1.127,-2.519 2.52,-2.519 1.391,0 2.52,1.129 2.52,2.519"
       style="fill:none;stroke:#000000;stroke-width:1;stroke-linecap:butt;stroke-linejoin:miter;stroke-miterlimit:10;stroke-opacity:1;stroke-dasharray:none"
       id="path16060" /><path
       inkscape:connector-curvature="0"
       d="m 303.834,43.444 0,0"
       style="fill:none;stroke:#000000;stroke-width:1;stroke-linecap:round;stroke-linejoin:miter;stroke-miterlimit:10;stroke-opacity:1;stroke-dasharray:none"
       id="path16062" /><path
       inkscape:connector-curvature="0"
       d="m 314.553,40.544 c 0,1.391 -1.129,2.519 -2.52,2.519 -1.39,0 -2.519,-1.128 -2.519,-2.519 0,-1.391 1.129,-2.52 2.519,-2.52 1.391,0 2.52,1.129 2.52,2.52"
       style="fill:none;stroke:#000000;stroke-width:1;stroke-linecap:butt;stroke-linejoin:miter;stroke-miterlimit:10;stroke-opacity:1;stroke-dasharray:none"
       id="path16064" /><path
       inkscape:connector-curvature="0"
       d="m 312.033,40.544 0,0"
       style="fill:none;stroke:#000000;stroke-width:1;stroke-linecap:round;stroke-linejoin:miter;stroke-miterlimit:10;stroke-opacity:1;stroke-dasharray:none"
       id="path16066" /><path
       inkscape:connector-curvature="0"
       d="m 322.754,37.544 c 0,1.391 -1.129,2.519 -2.52,2.519 -1.392,0 -2.521,-1.128 -2.521,-2.519 0,-1.391 1.129,-2.52 2.521,-2.52 1.391,0 2.52,1.129 2.52,2.52"
       style="fill:none;stroke:#000000;stroke-width:1;stroke-linecap:butt;stroke-linejoin:miter;stroke-miterlimit:10;stroke-opacity:1;stroke-dasharray:none"
       id="path16068" /><path
       inkscape:connector-curvature="0"
       d="m 320.234,37.544 0,0"
       style="fill:none;stroke:#000000;stroke-width:1;stroke-linecap:round;stroke-linejoin:miter;stroke-miterlimit:10;stroke-opacity:1;stroke-dasharray:none"
       id="path16070" /><path
       inkscape:connector-curvature="0"
       d="m 330.953,34.845 c 0,1.39 -1.129,2.519 -2.519,2.519 -1.393,0 -2.52,-1.129 -2.52,-2.519 0,-1.391 1.127,-2.52 2.52,-2.52 1.39,0 2.519,1.129 2.519,2.52"
       style="fill:none;stroke:#000000;stroke-width:1;stroke-linecap:butt;stroke-linejoin:miter;stroke-miterlimit:10;stroke-opacity:1;stroke-dasharray:none"
       id="path16072" /><path
       inkscape:connector-curvature="0"
       d="m 328.434,34.845 0,0"
       style="fill:none;stroke:#000000;stroke-width:1;stroke-linecap:round;stroke-linejoin:miter;stroke-miterlimit:10;stroke-opacity:1;stroke-dasharray:none"
       id="path16074" /><path
       inkscape:connector-curvature="0"
       d="m 339.154,31.845 c 0,1.39 -1.129,2.519 -2.521,2.519 -1.391,0 -2.52,-1.129 -2.52,-2.519 0,-1.391 1.129,-2.52 2.52,-2.52 1.392,0 2.521,1.129 2.521,2.52"
       style="fill:none;stroke:#000000;stroke-width:1;stroke-linecap:butt;stroke-linejoin:miter;stroke-miterlimit:10;stroke-opacity:1;stroke-dasharray:none"
       id="path16076" /><path
       inkscape:connector-curvature="0"
       d="m 336.633,31.845 0,0"
       style="fill:none;stroke:#000000;stroke-width:1;stroke-linecap:round;stroke-linejoin:miter;stroke-miterlimit:10;stroke-opacity:1;stroke-dasharray:none"
       id="path16078" /><text
       transform="scale(1,-1)"
       id="text16080"
       x="176.4854"
       y="-3.1596999"
       style="-inkscape-font-specification:LMRoman12;font-family:LMRoman12;font-weight:normal;font-style:normal;font-stretch:normal;font-variant:normal;font-size:11.95510025px;text-anchor:start;text-align:start;writing-mode:lr;line-height:125%"
       sodipodi:linespacing="125%"><tspan
         style="font-size:11.95510025px;font-variant:normal;font-weight:normal;font-stretch:normal;writing-mode:lr;fill:#221814;fill-opacity:1;fill-rule:nonzero;stroke:none;font-family:LMRoman12;-inkscape-font-specification:LMRoman12;font-style:normal;text-anchor:start;text-align:start;line-height:125%"
         x="176.4854 184.93765 188.18944"
         y="-3.1596999"
         sodipodi:role="line"
         id="tspan16082">Tim</tspan></text>
<text
       transform="scale(1,-1)"
       id="text16084"
       x="197.9463"
       y="-3.1596999"
       style="-inkscape-font-specification:LMRoman12;font-family:LMRoman12;font-weight:normal;font-style:normal;font-stretch:normal;font-variant:normal;font-size:11.95510025px;text-anchor:start;text-align:start;writing-mode:lr;line-height:125%"
       sodipodi:linespacing="125%"><tspan
         style="font-size:11.95510025px;font-variant:normal;font-weight:normal;font-stretch:normal;writing-mode:lr;fill:#221814;fill-opacity:1;fill-rule:nonzero;stroke:none;font-family:LMRoman12;-inkscape-font-specification:LMRoman12;font-style:normal;text-anchor:start;text-align:start;line-height:125%"
         x="197.9463"
         y="-3.1596999"
         id="tspan16086">e</tspan></text>
<text
       transform="scale(1,-1)"
       id="text16088"
       x="207.0459"
       y="-3.1596999"
       style="-inkscape-font-specification:LMRoman12;font-family:LMRoman12;font-weight:normal;font-style:normal;font-stretch:normal;font-variant:normal;font-size:11.95510025px;text-anchor:start;text-align:start;writing-mode:lr;line-height:125%"
       sodipodi:linespacing="125%"><tspan
         style="font-size:11.95510025px;font-variant:normal;font-weight:normal;font-stretch:normal;writing-mode:lr;fill:#221814;fill-opacity:1;fill-rule:nonzero;stroke:none;font-family:LMRoman12;-inkscape-font-specification:LMRoman12;font-style:normal;text-anchor:start;text-align:start;line-height:125%"
         x="207.0459 210.29768 214.91235"
         y="-3.1596999"
         sodipodi:role="line"
         id="tspan16090">[s]</tspan></text>
<text
       transform="matrix(0,1,1,0,0,0)"
       id="text16092"
       x="107.7012"
       y="9.8319998"
       style="-inkscape-font-specification:LMMono12;font-family:LMMono12;font-weight:normal;font-style:normal;font-stretch:normal;font-variant:normal;font-size:12px;text-anchor:start;text-align:start;writing-mode:lr;line-height:125%"
       sodipodi:linespacing="125%"><tspan
         style="font-size:12px;font-variant:normal;font-weight:normal;font-stretch:normal;writing-mode:lr;fill:#221814;fill-opacity:1;fill-rule:nonzero;stroke:none;font-family:LMMono12;-inkscape-font-specification:LMMono12;font-style:normal;text-anchor:start;text-align:start;line-height:125%"
         x="107.7012 113.84612"
         y="9.8319998"
         sodipodi:role="line"
         id="tspan16094">Ux</tspan></text>
<path
       inkscape:connector-curvature="0"
       d="m 9.629,120.754 0,3.699"
       style="fill:none;stroke:#221814;stroke-width:0.40500000000000003;stroke-linecap:butt;stroke-linejoin:miter;stroke-miterlimit:10;stroke-opacity:1;stroke-dasharray:none"
       id="path16096" /><text
       transform="matrix(0,1,1,0,0,0)"
       id="text16098"
       x="124.4355"
       y="9.8319998"
       style="-inkscape-font-specification:LMMono12;font-family:LMMono12;font-weight:normal;font-style:normal;font-stretch:normal;font-variant:normal;font-size:12px;text-anchor:start;text-align:start;writing-mode:lr;line-height:125%"
       sodipodi:linespacing="125%"><tspan
         style="font-size:12px;font-variant:normal;font-weight:normal;font-stretch:normal;writing-mode:lr;fill:#221814;fill-opacity:1;fill-rule:nonzero;stroke:none;font-family:LMMono12;-inkscape-font-specification:LMMono12;font-style:normal;text-anchor:start;text-align:start;line-height:125%"
         x="124.4355"
         y="9.8319998"
         id="tspan16100">0</tspan></text>
<text
       transform="scale(1,-1)"
       id="text16102"
       x="334.41699"
       y="-17.2988"
       style="-inkscape-font-specification:LMRoman12;font-family:LMRoman12;font-weight:normal;font-style:normal;font-stretch:normal;font-variant:normal;font-size:11.95510025px;text-anchor:start;text-align:start;writing-mode:lr;line-height:125%"
       sodipodi:linespacing="125%"><tspan
         style="font-size:11.95510025px;font-variant:normal;font-weight:normal;font-stretch:normal;writing-mode:lr;fill:#221814;fill-opacity:1;fill-rule:nonzero;stroke:none;font-family:LMRoman12;-inkscape-font-specification:LMRoman12;font-style:normal;text-anchor:start;text-align:start;line-height:125%"
         x="334.41699 340.26303 343.51483 349.36087"
         y="-17.2988"
         sodipodi:role="line"
         id="tspan16104">0.18</tspan></text>
<text
       transform="scale(1,-1)"
       id="text16106"
       x="301.6123"
       y="-17.2988"
       style="-inkscape-font-specification:LMRoman12;font-family:LMRoman12;font-weight:normal;font-style:normal;font-stretch:normal;font-variant:normal;font-size:11.95510025px;text-anchor:start;text-align:start;writing-mode:lr;line-height:125%"
       sodipodi:linespacing="125%"><tspan
         style="font-size:11.95510025px;font-variant:normal;font-weight:normal;font-stretch:normal;writing-mode:lr;fill:#221814;fill-opacity:1;fill-rule:nonzero;stroke:none;font-family:LMRoman12;-inkscape-font-specification:LMRoman12;font-style:normal;text-anchor:start;text-align:start;line-height:125%"
         x="301.6123 307.45834 310.71014 316.55618"
         y="-17.2988"
         sodipodi:role="line"
         id="tspan16108">0.16</tspan></text>
<text
       transform="scale(1,-1)"
       id="text16110"
       x="268.81641"
       y="-17.2988"
       style="-inkscape-font-specification:LMRoman12;font-family:LMRoman12;font-weight:normal;font-style:normal;font-stretch:normal;font-variant:normal;font-size:11.95510025px;text-anchor:start;text-align:start;writing-mode:lr;line-height:125%"
       sodipodi:linespacing="125%"><tspan
         style="font-size:11.95510025px;font-variant:normal;font-weight:normal;font-stretch:normal;writing-mode:lr;fill:#221814;fill-opacity:1;fill-rule:nonzero;stroke:none;font-family:LMRoman12;-inkscape-font-specification:LMRoman12;font-style:normal;text-anchor:start;text-align:start;line-height:125%"
         x="268.81641 274.66245 277.91425 283.76028"
         y="-17.2988"
         sodipodi:role="line"
         id="tspan16112">0.14</tspan></text>
<text
       transform="scale(1,-1)"
       id="text16114"
       x="236.11909"
       y="-17.2988"
       style="-inkscape-font-specification:LMRoman12;font-family:LMRoman12;font-weight:normal;font-style:normal;font-stretch:normal;font-variant:normal;font-size:11.95510025px;text-anchor:start;text-align:start;writing-mode:lr;line-height:125%"
       sodipodi:linespacing="125%"><tspan
         style="font-size:11.95510025px;font-variant:normal;font-weight:normal;font-stretch:normal;writing-mode:lr;fill:#221814;fill-opacity:1;fill-rule:nonzero;stroke:none;font-family:LMRoman12;-inkscape-font-specification:LMRoman12;font-style:normal;text-anchor:start;text-align:start;line-height:125%"
         x="236.11909 241.96515 245.21693 251.06297"
         y="-17.2988"
         sodipodi:role="line"
         id="tspan16116">0.12</tspan></text>
<text
       transform="scale(1,-1)"
       id="text16118"
       x="203.31351"
       y="-17.2988"
       style="-inkscape-font-specification:LMRoman12;font-family:LMRoman12;font-weight:normal;font-style:normal;font-stretch:normal;font-variant:normal;font-size:11.95510025px;text-anchor:start;text-align:start;writing-mode:lr;line-height:125%"
       sodipodi:linespacing="125%"><tspan
         style="font-size:11.95510025px;font-variant:normal;font-weight:normal;font-stretch:normal;writing-mode:lr;fill:#221814;fill-opacity:1;fill-rule:nonzero;stroke:none;font-family:LMRoman12;-inkscape-font-specification:LMRoman12;font-style:normal;text-anchor:start;text-align:start;line-height:125%"
         x="203.31351 209.15955 212.41133 218.25737"
         y="-17.2988"
         sodipodi:role="line"
         id="tspan16120">0.10</tspan></text>
<text
       transform="scale(1,-1)"
       id="text16122"
       x="170.5181"
       y="-17.2988"
       style="-inkscape-font-specification:LMRoman12;font-family:LMRoman12;font-weight:normal;font-style:normal;font-stretch:normal;font-variant:normal;font-size:11.95510025px;text-anchor:start;text-align:start;writing-mode:lr;line-height:125%"
       sodipodi:linespacing="125%"><tspan
         style="font-size:11.95510025px;font-variant:normal;font-weight:normal;font-stretch:normal;writing-mode:lr;fill:#221814;fill-opacity:1;fill-rule:nonzero;stroke:none;font-family:LMRoman12;-inkscape-font-specification:LMRoman12;font-style:normal;text-anchor:start;text-align:start;line-height:125%"
         x="170.5181 176.36415 179.61594 185.47394"
         y="-17.2988"
         sodipodi:role="line"
         id="tspan16124">0.08</tspan></text>
<text
       transform="scale(1,-1)"
       id="text16126"
       x="137.72169"
       y="-17.2988"
       style="-inkscape-font-specification:LMRoman12;font-family:LMRoman12;font-weight:normal;font-style:normal;font-stretch:normal;font-variant:normal;font-size:11.95510025px;text-anchor:start;text-align:start;writing-mode:lr;line-height:125%"
       sodipodi:linespacing="125%"><tspan
         style="font-size:11.95510025px;font-variant:normal;font-weight:normal;font-stretch:normal;writing-mode:lr;fill:#221814;fill-opacity:1;fill-rule:nonzero;stroke:none;font-family:LMRoman12;-inkscape-font-specification:LMRoman12;font-style:normal;text-anchor:start;text-align:start;line-height:125%"
         x="137.72169 143.56775 146.81953 152.67754"
         y="-17.2988"
         sodipodi:role="line"
         id="tspan16128">0.06</tspan></text>
<text
       transform="scale(1,-1)"
       id="text16130"
       x="105.0249"
       y="-17.2988"
       style="-inkscape-font-specification:LMRoman12;font-family:LMRoman12;font-weight:normal;font-style:normal;font-stretch:normal;font-variant:normal;font-size:11.95510025px;text-anchor:start;text-align:start;writing-mode:lr;line-height:125%"
       sodipodi:linespacing="125%"><tspan
         style="font-size:11.95510025px;font-variant:normal;font-weight:normal;font-stretch:normal;writing-mode:lr;fill:#221814;fill-opacity:1;fill-rule:nonzero;stroke:none;font-family:LMRoman12;-inkscape-font-specification:LMRoman12;font-style:normal;text-anchor:start;text-align:start;line-height:125%"
         x="105.0249 110.87094 114.12273 119.98073"
         y="-17.2988"
         sodipodi:role="line"
         id="tspan16132">0.04</tspan></text>
<text
       transform="scale(1,-1)"
       id="text16134"
       x="72.219704"
       y="-17.2988"
       style="-inkscape-font-specification:LMRoman12;font-family:LMRoman12;font-weight:normal;font-style:normal;font-stretch:normal;font-variant:normal;font-size:11.95510025px;text-anchor:start;text-align:start;writing-mode:lr;line-height:125%"
       sodipodi:linespacing="125%"><tspan
         style="font-size:11.95510025px;font-variant:normal;font-weight:normal;font-stretch:normal;writing-mode:lr;fill:#221814;fill-opacity:1;fill-rule:nonzero;stroke:none;font-family:LMRoman12;-inkscape-font-specification:LMRoman12;font-style:normal;text-anchor:start;text-align:start;line-height:125%"
         x="72.219704 78.065742 81.317528 87.175529"
         y="-17.2988"
         sodipodi:role="line"
         id="tspan16136">0.02</tspan></text>
<text
       transform="scale(1,-1)"
       id="text16138"
       x="39.423801"
       y="-17.2988"
       style="-inkscape-font-specification:LMRoman12;font-family:LMRoman12;font-weight:normal;font-style:normal;font-stretch:normal;font-variant:normal;font-size:11.95510025px;text-anchor:start;text-align:start;writing-mode:lr;line-height:125%"
       sodipodi:linespacing="125%"><tspan
         style="font-size:11.95510025px;font-variant:normal;font-weight:normal;font-stretch:normal;writing-mode:lr;fill:#221814;fill-opacity:1;fill-rule:nonzero;stroke:none;font-family:LMRoman12;-inkscape-font-specification:LMRoman12;font-style:normal;text-anchor:start;text-align:start;line-height:125%"
         x="39.423801 45.269844 48.521629 54.379631"
         y="-17.2988"
         sodipodi:role="line"
         id="tspan16140">0.00</tspan></text>
<text
       transform="scale(1,-1)"
       id="text16142"
       x="12.9639"
       y="-203.74271"
       style="-inkscape-font-specification:LMRoman12;font-family:LMRoman12;font-weight:normal;font-style:normal;font-stretch:normal;font-variant:normal;font-size:11.95510025px;text-anchor:start;text-align:start;writing-mode:lr;line-height:125%"
       sodipodi:linespacing="125%"><tspan
         style="font-size:11.95510025px;font-variant:normal;font-weight:normal;font-stretch:normal;writing-mode:lr;fill:#221814;fill-opacity:1;fill-rule:nonzero;stroke:none;font-family:LMRoman12;-inkscape-font-specification:LMRoman12;font-style:normal;text-anchor:start;text-align:start;line-height:125%"
         x="12.9639 18.809944 24.010412 33.108246 38.966244"
         y="-203.74271"
         sodipodi:role="line"
         id="tspan16144">1e+00</tspan></text>
<text
       transform="scale(1,-1)"
       id="text16146"
       x="18.166"
       y="-168.09419"
       style="-inkscape-font-specification:LMRoman12;font-family:LMRoman12;font-weight:normal;font-style:normal;font-stretch:normal;font-variant:normal;font-size:11.95510025px;text-anchor:start;text-align:start;writing-mode:lr;line-height:125%"
       sodipodi:linespacing="125%"><tspan
         style="font-size:11.95510025px;font-variant:normal;font-weight:normal;font-stretch:normal;writing-mode:lr;fill:#221814;fill-opacity:1;fill-rule:nonzero;stroke:none;font-family:LMRoman12;-inkscape-font-specification:LMRoman12;font-style:normal;text-anchor:start;text-align:start;line-height:125%"
         x="18.166 24.012045 29.212513 33.109875 38.955917"
         y="-168.09419"
         sodipodi:role="line"
         id="tspan16148">1e-01</tspan></text>
<text
       transform="scale(1,-1)"
       id="text16150"
       x="18.166"
       y="-132.895"
       style="-inkscape-font-specification:LMRoman12;font-family:LMRoman12;font-weight:normal;font-style:normal;font-stretch:normal;font-variant:normal;font-size:11.95510025px;text-anchor:start;text-align:start;writing-mode:lr;line-height:125%"
       sodipodi:linespacing="125%"><tspan
         style="font-size:11.95510025px;font-variant:normal;font-weight:normal;font-stretch:normal;writing-mode:lr;fill:#221814;fill-opacity:1;fill-rule:nonzero;stroke:none;font-family:LMRoman12;-inkscape-font-specification:LMRoman12;font-style:normal;text-anchor:start;text-align:start;line-height:125%"
         x="18.166 24.012045 29.212513 33.109875 38.955917"
         y="-132.895"
         sodipodi:role="line"
         id="tspan16152">1e-02</tspan></text>
<text
       transform="scale(1,-1)"
       id="text16154"
       x="18.166"
       y="-97.695801"
       style="-inkscape-font-specification:LMRoman12;font-family:LMRoman12;font-weight:normal;font-style:normal;font-stretch:normal;font-variant:normal;font-size:11.95510025px;text-anchor:start;text-align:start;writing-mode:lr;line-height:125%"
       sodipodi:linespacing="125%"><tspan
         style="font-size:11.95510025px;font-variant:normal;font-weight:normal;font-stretch:normal;writing-mode:lr;fill:#221814;fill-opacity:1;fill-rule:nonzero;stroke:none;font-family:LMRoman12;-inkscape-font-specification:LMRoman12;font-style:normal;text-anchor:start;text-align:start;line-height:125%"
         x="18.166 24.012045 29.212513 33.109875 38.955917"
         y="-97.695801"
         sodipodi:role="line"
         id="tspan16156">1e-03</tspan></text>
<text
       transform="scale(1,-1)"
       id="text16158"
       x="18.166"
       y="-62.496601"
       style="-inkscape-font-specification:LMRoman12;font-family:LMRoman12;font-weight:normal;font-style:normal;font-stretch:normal;font-variant:normal;font-size:11.95510025px;text-anchor:start;text-align:start;writing-mode:lr;line-height:125%"
       sodipodi:linespacing="125%"><tspan
         style="font-size:11.95510025px;font-variant:normal;font-weight:normal;font-stretch:normal;writing-mode:lr;fill:#221814;fill-opacity:1;fill-rule:nonzero;stroke:none;font-family:LMRoman12;-inkscape-font-specification:LMRoman12;font-style:normal;text-anchor:start;text-align:start;line-height:125%"
         x="18.166 24.012045 29.212513 33.109875 38.955917"
         y="-62.496601"
         sodipodi:role="line"
         id="tspan16160">1e-04</tspan></text>
<text
       transform="scale(1,-1)"
       id="text16162"
       x="18.166"
       y="-27.2974"
       style="-inkscape-font-specification:LMRoman12;font-family:LMRoman12;font-weight:normal;font-style:normal;font-stretch:normal;font-variant:normal;font-size:11.95510025px;text-anchor:start;text-align:start;writing-mode:lr;line-height:125%"
       sodipodi:linespacing="125%"><tspan
         style="font-size:11.95510025px;font-variant:normal;font-weight:normal;font-stretch:normal;writing-mode:lr;fill:#221814;fill-opacity:1;fill-rule:nonzero;stroke:none;font-family:LMRoman12;-inkscape-font-specification:LMRoman12;font-style:normal;text-anchor:start;text-align:start;line-height:125%"
         x="18.166 24.012045 29.212513 33.109875 38.955917"
         y="-27.2974"
         sodipodi:role="line"
         id="tspan16164">1e-05</tspan></text>
</g></svg>