<?xml version="1.0" encoding="UTF-8" standalone="no"?>
<!-- Created with Inkscape (http://www.inkscape.org/) -->
<svg
   xmlns:dc="http://purl.org/dc/elements/1.1/"
   xmlns:cc="http://creativecommons.org/ns#"
   xmlns:rdf="http://www.w3.org/1999/02/22-rdf-syntax-ns#"
   xmlns:svg="http://www.w3.org/2000/svg"
   xmlns="http://www.w3.org/2000/svg"
   xmlns:sodipodi="http://sodipodi.sourceforge.net/DTD/sodipodi-0.dtd"
   xmlns:inkscape="http://www.inkscape.org/namespaces/inkscape"
   id="svg10440"
   sodipodi:version="0.32"
   inkscape:version="0.46"
   width="475.3775"
   height="306.98782"
   xml:space="preserve"
   sodipodi:docname="fig-5-4.svg"
   version="1.0"
   inkscape:output_extension="org.inkscape.output.svg.inkscape"><metadata
     id="metadata10445"><rdf:RDF><cc:Work
         rdf:about=""><dc:format>image/svg+xml</dc:format><dc:type
           rdf:resource="http://purl.org/dc/dcmitype/StillImage" /></cc:Work></rdf:RDF></metadata><defs
     id="defs10443"><inkscape:perspective
   sodipodi:type="inkscape:persp3d"
   inkscape:vp_x="0 : 526.18109 : 1"
   inkscape:vp_y="0 : 1000 : 0"
   inkscape:vp_z="744.09448 : 526.18109 : 1"
   inkscape:persp3d-origin="372.04724 : 350.78739 : 1"
   id="perspective10447" /><clipPath
   clipPathUnits="userSpaceOnUse"
   id="clipPath10463"><path
     d="M 0,0 L 382,0 L 382,246 L 0,246 L 0,0 z"
     id="path10465" /></clipPath><clipPath
   clipPathUnits="userSpaceOnUse"
   id="clipPath10503"><path
     d="M 0,0 L 382,0 L 382,246 L 0,246 L 0,0 z M 95.543,52.85 L 95.543,56.63 L 86.031,56.63 L 93.591,54.739 L 86.031,52.85 L 95.543,52.85 z M 59.64,56.63 L 59.64,52.85 L 69.15,52.85 L 61.591,54.739 L 69.15,56.63 L 59.64,56.63 z"
     clip-rule="evenodd"
     id="path10505" /></clipPath><clipPath
   clipPathUnits="userSpaceOnUse"
   id="clipPath10513"><path
     d="M 0,0 L 382,0 L 382,246 L 0,246 L 0,0 z"
     id="path10515" /></clipPath><clipPath
   clipPathUnits="userSpaceOnUse"
   id="clipPath10529"><path
     d="M 0,0 L 382,0 L 382,246 L 0,246 L 0,0 z M 95.543,38.678 L 95.543,42.457 L 86.031,42.457 L 93.591,40.567 L 86.031,38.678 L 95.543,38.678 z M 59.64,42.457 L 59.64,38.678 L 69.15,38.678 L 61.591,40.567 L 69.15,42.457 L 59.64,42.457 z"
     clip-rule="evenodd"
     id="path10531" /></clipPath><clipPath
   clipPathUnits="userSpaceOnUse"
   id="clipPath10539"><path
     d="M 0,0 L 382,0 L 382,246 L 0,246 L 0,0 z"
     id="path10541" /></clipPath><clipPath
   clipPathUnits="userSpaceOnUse"
   id="clipPath10555"><path
     d="M 0,0 L 382,0 L 382,246 L 0,246 L 0,0 z M 95.543,24.505 L 95.543,28.284 L 86.031,28.284 L 93.591,26.394 L 86.031,24.505 L 95.543,24.505 z M 59.64,28.284 L 59.64,24.505 L 69.15,24.505 L 61.591,26.394 L 69.15,28.284 L 59.64,28.284 z"
     clip-rule="evenodd"
     id="path10557" /></clipPath><clipPath
   clipPathUnits="userSpaceOnUse"
   id="clipPath10565"><path
     d="M 0,0 L 382,0 L 382,246 L 0,246 L 0,0 z"
     id="path10567" /></clipPath><clipPath
   clipPathUnits="userSpaceOnUse"
   id="clipPath10583"><path
     d="M 0,0 L 382,0 L 382,246 L 0,246 L 0,0 z M 196.453,183.051 L 198.405,186.325 L 190.218,191.176 L 195.761,185.633 L 188.265,187.964 L 196.453,183.051 z"
     clip-rule="evenodd"
     id="path10585" /></clipPath><clipPath
   clipPathUnits="userSpaceOnUse"
   id="clipPath10593"><path
     d="M 0,0 L 382,0 L 382,246 L 0,246 L 0,0 z"
     id="path10595" /></clipPath><clipPath
   clipPathUnits="userSpaceOnUse"
   id="clipPath10605"><path
     d="M 0,0 L 382,0 L 382,246 L 0,246 L 0,0 z M 198.595,119.241 L 196.013,122.014 L 189.021,115.588 L 195.886,119.241 L 191.539,112.754 L 198.595,119.241 z"
     clip-rule="evenodd"
     id="path10607" /></clipPath><clipPath
   clipPathUnits="userSpaceOnUse"
   id="clipPath10615"><path
     d="M 0,0 L 382,0 L 382,246 L 0,246 L 0,0 z"
     id="path10617" /></clipPath>





















</defs><sodipodi:namedview
     inkscape:window-height="1125"
     inkscape:window-width="1600"
     inkscape:pageshadow="2"
     inkscape:pageopacity="0.0"
     guidetolerance="10.0"
     gridtolerance="10.0"
     objecttolerance="10.0"
     borderopacity="1.0"
     bordercolor="#666666"
     pagecolor="#ffffff"
     id="base"
     showgrid="false"
     inkscape:zoom="1.4408377"
     inkscape:cx="123.58115"
     inkscape:cy="197.35864"
     inkscape:window-x="0"
     inkscape:window-y="25"
     inkscape:current-layer="g10449" /><g
     id="g10449"
     inkscape:groupmode="layer"
     inkscape:label="fig-5-4"
     transform="matrix(1.25,0,0,-1.25,-1.0275,307.87782)"><g
       id="g10459"><g
         id="g10461"
         clip-path="url(#clipPath10463)"><path
           d="M 201.87,215.427 C 201.87,208.505 196.257,202.892 189.335,202.892 C 182.412,202.892 176.8,208.505 176.8,215.427 C 176.8,222.35 182.412,227.962 189.335,227.962 C 196.257,227.962 201.87,222.35 201.87,215.427 z"
           style="fill:none;stroke:#000000;stroke-width:0.472;stroke-linecap:butt;stroke-linejoin:miter;stroke-miterlimit:10;stroke-dasharray:none;stroke-opacity:1"
           id="path10467" /><path
           d="M 277.206,215.427 C 277.206,208.505 271.594,202.892 264.671,202.892 C 257.748,202.892 252.136,208.505 252.136,215.427 C 252.136,222.35 257.748,227.962 264.671,227.962 C 271.594,227.962 277.206,222.35 277.206,215.427 z"
           style="fill:none;stroke:#000000;stroke-width:0.472;stroke-linecap:butt;stroke-linejoin:miter;stroke-miterlimit:10;stroke-dasharray:none;stroke-opacity:1"
           id="path10469" /><path
           d="M 352.542,215.427 C 352.542,208.505 346.931,202.892 340.007,202.892 C 333.084,202.892 327.472,208.505 327.472,215.427 C 327.472,222.35 333.084,227.962 340.007,227.962 C 346.931,227.962 352.542,222.35 352.542,215.427 z"
           style="fill:none;stroke:#000000;stroke-width:0.472;stroke-linecap:butt;stroke-linejoin:miter;stroke-miterlimit:10;stroke-dasharray:none;stroke-opacity:1"
           id="path10471" /><path
           d="M 201.87,152.688 C 201.87,145.767 196.257,140.155 189.335,140.155 C 182.412,140.155 176.8,145.767 176.8,152.688 C 176.8,159.612 182.412,165.224 189.335,165.224 C 196.257,165.224 201.87,159.612 201.87,152.688 z"
           style="fill:none;stroke:#000000;stroke-width:0.472;stroke-linecap:butt;stroke-linejoin:miter;stroke-miterlimit:10;stroke-dasharray:none;stroke-opacity:1"
           id="path10473" /><path
           d="M 277.206,152.688 C 277.206,145.767 271.594,140.155 264.671,140.155 C 257.748,140.155 252.136,145.767 252.136,152.688 C 252.136,159.612 257.748,165.224 264.671,165.224 C 271.594,165.224 277.206,159.612 277.206,152.688 z"
           style="fill:none;stroke:#000000;stroke-width:0.472;stroke-linecap:butt;stroke-linejoin:miter;stroke-miterlimit:10;stroke-dasharray:none;stroke-opacity:1"
           id="path10475" /><path
           d="M 352.542,152.688 C 352.542,145.767 346.931,140.155 340.007,140.155 C 333.084,140.155 327.472,145.767 327.472,152.688 C 327.472,159.612 333.084,165.224 340.007,165.224 C 346.931,165.224 352.542,159.612 352.542,152.688 z"
           style="fill:none;stroke:#000000;stroke-width:0.472;stroke-linecap:butt;stroke-linejoin:miter;stroke-miterlimit:10;stroke-dasharray:none;stroke-opacity:1"
           id="path10477" /><path
           d="M 201.87,89.95 C 201.87,83.028 196.257,77.416 189.335,77.416 C 182.412,77.416 176.8,83.028 176.8,89.95 C 176.8,96.874 182.412,102.485 189.335,102.485 C 196.257,102.485 201.87,96.874 201.87,89.95 z"
           style="fill:none;stroke:#000000;stroke-width:0.472;stroke-linecap:butt;stroke-linejoin:miter;stroke-miterlimit:10;stroke-dasharray:none;stroke-opacity:1"
           id="path10479" /><path
           d="M 277.206,89.95 C 277.206,83.028 271.594,77.416 264.671,77.416 C 257.748,77.416 252.136,83.028 252.136,89.95 C 252.136,96.874 257.748,102.485 264.671,102.485 C 271.594,102.485 277.206,96.874 277.206,89.95 z"
           style="fill:none;stroke:#000000;stroke-width:0.472;stroke-linecap:butt;stroke-linejoin:miter;stroke-miterlimit:10;stroke-dasharray:none;stroke-opacity:1"
           id="path10481" /><path
           d="M 352.542,89.95 C 352.542,83.028 346.931,77.416 340.007,77.416 C 333.084,77.416 327.472,83.028 327.472,89.95 C 327.472,96.874 333.084,102.485 340.007,102.485 C 346.931,102.485 352.542,96.874 352.542,89.95 z"
           style="fill:none;stroke:#000000;stroke-width:0.472;stroke-linecap:butt;stroke-linejoin:miter;stroke-miterlimit:10;stroke-dasharray:none;stroke-opacity:1"
           id="path10483" /><path
           d="M 1.058,17.891 L 52.08,17.891 L 52.08,63.243 L 1.058,63.243 L 1.058,17.891 z"
           style="fill:none;stroke:#000000;stroke-width:0.472;stroke-linecap:butt;stroke-linejoin:miter;stroke-miterlimit:10;stroke-dasharray:none;stroke-opacity:1"
           id="path10485" /><path
           d="M 380.888,122.769 L 380.888,182.295"
           style="fill:none;stroke:#000000;stroke-width:0.472;stroke-linecap:butt;stroke-linejoin:miter;stroke-miterlimit:10;stroke-dasharray:none;stroke-opacity:1"
           id="path10487" /><path
           d="M 148.454,182.295 L 148.454,122.769"
           style="fill:none;stroke:#000000;stroke-width:0.472;stroke-linecap:butt;stroke-linejoin:miter;stroke-miterlimit:10;stroke-dasharray:none;stroke-opacity:1"
           id="path10489" /><path
           d="M 148.454,182.295 L 380.888,182.295"
           style="fill:none;stroke:#000000;stroke-width:0.472;stroke-linecap:butt;stroke-linejoin:miter;stroke-miterlimit:10;stroke-dasharray:3.779, 3.779;stroke-dashoffset:0;stroke-opacity:1"
           id="path10491" /><path
           d="M 148.454,122.769 L 380.888,122.769"
           style="fill:none;stroke:#000000;stroke-width:0.472;stroke-linecap:butt;stroke-linejoin:miter;stroke-miterlimit:10;stroke-dasharray:3.779, 3.779;stroke-dashoffset:0;stroke-opacity:1"
           id="path10493" /><path
           d="M 52.08,151.114 L 103.103,151.114"
           style="fill:none;stroke:#000000;stroke-width:0.472;stroke-linecap:butt;stroke-linejoin:miter;stroke-miterlimit:10;stroke-dasharray:none;stroke-opacity:1"
           id="path10495" /><path
           d="M 52.08,105.762 L 103.103,105.762 L 103.103,196.468 L 52.08,196.468 L 52.08,105.762 z"
           style="fill:none;stroke:#000000;stroke-width:0.472;stroke-linecap:butt;stroke-linejoin:miter;stroke-miterlimit:10;stroke-dasharray:none;stroke-opacity:1"
           id="path10497" /></g></g><g
       id="g10499"><g
         id="g10501"
         clip-path="url(#clipPath10503)"><path
           d="M 60.583,54.739 L 94.599,54.739"
           style="fill:none;stroke:#000000;stroke-width:0.472;stroke-linecap:butt;stroke-linejoin:miter;stroke-miterlimit:10;stroke-dasharray:none;stroke-opacity:1"
           id="path10507" /></g></g><g
       id="g10509"><g
         id="g10511"
         clip-path="url(#clipPath10513)"><path
           d="M 69.15,56.63 L 61.591,54.739 L 69.15,52.85 L 69.15,56.63 z"
           style="fill:#000000;fill-opacity:1;fill-rule:evenodd;stroke:none"
           id="path10517" /><path
           d="M 69.15,56.63 L 61.591,54.739 L 69.15,52.85 L 69.15,56.63 z"
           style="fill:none;stroke:#000000;stroke-width:0.472;stroke-linecap:butt;stroke-linejoin:miter;stroke-miterlimit:10;stroke-dasharray:none;stroke-opacity:1"
           id="path10519" /><path
           d="M 86.031,52.85 L 93.591,54.739 L 86.031,56.63 L 86.031,52.85 z"
           style="fill:#000000;fill-opacity:1;fill-rule:evenodd;stroke:none"
           id="path10521" /><path
           d="M 86.031,52.85 L 93.591,54.739 L 86.031,56.63 L 86.031,52.85 z"
           style="fill:none;stroke:#000000;stroke-width:0.472;stroke-linecap:butt;stroke-linejoin:miter;stroke-miterlimit:10;stroke-dasharray:none;stroke-opacity:1"
           id="path10523" /></g></g><g
       id="g10525"><g
         id="g10527"
         clip-path="url(#clipPath10529)"><path
           d="M 60.583,40.567 L 94.599,40.567"
           style="fill:none;stroke:#000000;stroke-width:0.472;stroke-linecap:butt;stroke-linejoin:miter;stroke-miterlimit:10;stroke-dasharray:none;stroke-opacity:1"
           id="path10533" /></g></g><g
       id="g10535"><g
         id="g10537"
         clip-path="url(#clipPath10539)"><path
           d="M 69.15,42.457 L 61.591,40.567 L 69.15,38.678 L 69.15,42.457 z"
           style="fill:#000000;fill-opacity:1;fill-rule:evenodd;stroke:none"
           id="path10543" /><path
           d="M 69.15,42.457 L 61.591,40.567 L 69.15,38.678 L 69.15,42.457 z"
           style="fill:none;stroke:#000000;stroke-width:0.472;stroke-linecap:butt;stroke-linejoin:miter;stroke-miterlimit:10;stroke-dasharray:none;stroke-opacity:1"
           id="path10545" /><path
           d="M 86.031,38.678 L 93.591,40.567 L 86.031,42.457 L 86.031,38.678 z"
           style="fill:#000000;fill-opacity:1;fill-rule:evenodd;stroke:none"
           id="path10547" /><path
           d="M 86.031,38.678 L 93.591,40.567 L 86.031,42.457 L 86.031,38.678 z"
           style="fill:none;stroke:#000000;stroke-width:0.472;stroke-linecap:butt;stroke-linejoin:miter;stroke-miterlimit:10;stroke-dasharray:none;stroke-opacity:1"
           id="path10549" /></g></g><g
       id="g10551"><g
         id="g10553"
         clip-path="url(#clipPath10555)"><path
           d="M 60.583,26.394 L 94.599,26.394"
           style="fill:none;stroke:#000000;stroke-width:0.472;stroke-linecap:butt;stroke-linejoin:miter;stroke-miterlimit:10;stroke-dasharray:none;stroke-opacity:1"
           id="path10559" /></g></g><g
       id="g10561"><g
         id="g10563"
         clip-path="url(#clipPath10565)"><path
           d="M 69.15,28.284 L 61.591,26.394 L 69.15,24.505 L 69.15,28.284 z"
           style="fill:#000000;fill-opacity:1;fill-rule:evenodd;stroke:none"
           id="path10569" /><path
           d="M 69.15,28.284 L 61.591,26.394 L 69.15,24.505 L 69.15,28.284 z"
           style="fill:none;stroke:#000000;stroke-width:0.472;stroke-linecap:butt;stroke-linejoin:miter;stroke-miterlimit:10;stroke-dasharray:none;stroke-opacity:1"
           id="path10571" /><path
           d="M 86.031,24.505 L 93.591,26.394 L 86.031,28.284 L 86.031,24.505 z"
           style="fill:#000000;fill-opacity:1;fill-rule:evenodd;stroke:none"
           id="path10573" /><path
           d="M 86.031,24.505 L 93.591,26.394 L 86.031,28.284 L 86.031,24.505 z"
           style="fill:none;stroke:#000000;stroke-width:0.472;stroke-linecap:butt;stroke-linejoin:miter;stroke-miterlimit:10;stroke-dasharray:none;stroke-opacity:1"
           id="path10575" /><path
           d="M 103.103,17.891 L 154.124,17.891 L 154.124,63.243 L 103.103,63.243 L 103.103,17.891 z"
           style="fill:none;stroke:#000000;stroke-width:0.472;stroke-linecap:butt;stroke-linejoin:miter;stroke-miterlimit:10;stroke-dasharray:none;stroke-opacity:1"
           id="path10577" /></g></g><g
       id="g10579"><g
         id="g10581"
         clip-path="url(#clipPath10583)"><path
           d="M 80.425,176.626 L 80.488,176.688 L 80.552,176.815 L 80.804,177.067 L 81.118,177.381 L 81.56,177.948 L 82.126,178.577 L 82.882,179.397 L 83.765,180.342 L 84.834,181.476 L 85.968,182.673 L 87.291,183.995 L 88.677,185.317 L 90.252,186.767 L 91.827,188.216 L 93.591,189.728 L 95.354,191.176 L 97.308,192.625 L 99.259,194.011 L 101.401,195.397 L 103.604,196.782 L 105.999,198.042 L 108.519,199.239 L 111.164,200.373 L 114.062,201.444 L 117.147,202.452 L 120.425,203.271 L 123.951,204.026 L 127.604,204.593 L 131.447,204.971 L 135.101,205.159 L 138.691,205.159 L 142.281,204.971 L 145.746,204.655 L 149.022,204.278 L 152.234,203.712 L 155.32,203.081 L 158.281,202.388 L 161.179,201.569 L 163.95,200.751 L 166.659,199.806 L 169.241,198.86 L 171.824,197.853 L 174.281,196.782 L 176.675,195.712 L 179.005,194.577 L 181.272,193.507 L 183.414,192.436 L 185.431,191.364 L 187.382,190.358 L 189.083,189.413 L 190.722,188.53 L 192.106,187.774 L 193.304,187.082 L 194.312,186.515 L 195.13,186.011 L 195.697,185.696 L 196.642,185.13"
           style="fill:none;stroke:#000000;stroke-width:0.472;stroke-linecap:butt;stroke-linejoin:bevel;stroke-miterlimit:10;stroke-dasharray:none;stroke-opacity:1"
           id="path10587" /></g></g><g
       id="g10589"><g
         id="g10591"
         clip-path="url(#clipPath10593)"><path
           d="M 188.265,187.964 L 195.761,185.633 L 190.218,191.176 L 188.265,187.964 z"
           style="fill:#000000;fill-opacity:1;fill-rule:evenodd;stroke:none"
           id="path10597" /><path
           d="M 188.265,187.964 L 195.761,185.633 L 190.218,191.176 L 188.265,187.964 z"
           style="fill:none;stroke:#000000;stroke-width:0.472;stroke-linecap:butt;stroke-linejoin:miter;stroke-miterlimit:10;stroke-dasharray:none;stroke-opacity:1"
           id="path10599" /></g></g><g
       id="g10601"><g
         id="g10603"
         clip-path="url(#clipPath10605)"><path
           d="M 80.425,128.438 L 80.488,128.375 L 80.614,128.249 L 80.804,127.997 L 81.118,127.618 L 81.622,127.114 L 82.252,126.422 L 83.009,125.604 L 83.953,124.596 L 85.022,123.399 L 86.283,122.139 L 87.669,120.754 L 89.181,119.241 L 90.819,117.667 L 92.519,116.03 L 94.347,114.329 L 96.236,112.69 L 98.188,110.989 L 100.267,109.353 L 102.409,107.778 L 104.613,106.202 L 106.882,104.69 L 109.339,103.18 L 111.856,101.794 L 114.503,100.471 L 117.274,99.211 L 120.235,98.077 L 123.322,97.069 L 126.534,96.124 L 129.998,95.368 L 133.526,94.802 L 137.116,94.424 L 140.771,94.298 L 144.298,94.36 L 147.763,94.612 L 151.101,94.991 L 154.25,95.62 L 157.272,96.313 L 160.171,97.132 L 162.942,98.077 L 165.589,99.085 L 168.106,100.155 L 170.501,101.353 L 172.896,102.612 L 175.162,103.872 L 177.304,105.258 L 179.446,106.581 L 181.524,107.967 L 183.478,109.353 L 185.304,110.737 L 187.067,112.061 L 188.705,113.321 L 190.218,114.517 L 191.603,115.651 L 192.8,116.596 L 193.808,117.478 L 194.688,118.233 L 195.319,118.801 L 195.886,119.241 L 196.642,119.935"
           style="fill:none;stroke:#000000;stroke-width:0.472;stroke-linecap:butt;stroke-linejoin:bevel;stroke-miterlimit:10;stroke-dasharray:none;stroke-opacity:1"
           id="path10609" /></g></g><g
       id="g10611"><g
         id="g10613"
         clip-path="url(#clipPath10615)"><path
           d="M 191.539,112.754 L 195.886,119.241 L 189.021,115.588 L 191.539,112.754 z"
           style="fill:#000000;fill-opacity:1;fill-rule:evenodd;stroke:none"
           id="path10619" /><path
           d="M 191.539,112.754 L 195.886,119.241 L 189.021,115.588 L 191.539,112.754 z"
           style="fill:none;stroke:#000000;stroke-width:0.472;stroke-linecap:butt;stroke-linejoin:miter;stroke-miterlimit:10;stroke-dasharray:none;stroke-opacity:1"
           id="path10621" /></g></g><text
       transform="scale(1,-1)"
       id="text10623"
       x="57.4473"
       y="-170.6577"><tspan
         style="font-size:11.95510006px;font-variant:normal;font-weight:normal;font-stretch:normal;writing-mode:lr-tb;fill:#000000;fill-opacity:1;fill-rule:nonzero;stroke:none;font-family:cmr 12;-inkscape-font-specification:cmr12"
         x="57.4473"
         y="-170.6577"
         id="tspan10625">2</tspan></text>
<text
       transform="scale(1,-1)"
       id="text10627"
       x="57.4473"
       y="-156.48289"><tspan
         style="font-size:11.95510006px;font-variant:normal;font-weight:normal;font-stretch:normal;writing-mode:lr-tb;fill:#000000;fill-opacity:1;fill-rule:nonzero;stroke:none;font-family:cmr 12;-inkscape-font-specification:cmr12"
         x="57.4473"
         y="-156.48289"
         id="tspan10629">3</tspan></text>
<text
       transform="scale(1,-1)"
       id="text10631"
       x="57.4473"
       y="-184.83299"><tspan
         style="font-size:11.95510006px;font-variant:normal;font-weight:normal;font-stretch:normal;writing-mode:lr-tb;fill:#000000;fill-opacity:1;fill-rule:nonzero;stroke:none;font-family:cmr 12;-inkscape-font-specification:cmr12"
         x="57.4473"
         y="-184.83299"
         id="tspan10633">1</tspan></text>
<text
       transform="scale(1,-1)"
       id="text10635"
       x="6.4263"
       y="-51.587898"><tspan
         style="font-size:11.95510006px;font-variant:normal;font-weight:normal;font-stretch:normal;writing-mode:lr-tb;fill:#000000;fill-opacity:1;fill-rule:nonzero;stroke:none;font-family:cmr 12;-inkscape-font-specification:cmr12"
         x="6.4263"
         y="-51.587898"
         id="tspan10637">1</tspan></text>
<text
       transform="scale(1,-1)"
       id="text10639"
       x="6.4263"
       y="-37.421902"><tspan
         style="font-size:11.95510006px;font-variant:normal;font-weight:normal;font-stretch:normal;writing-mode:lr-tb;fill:#000000;fill-opacity:1;fill-rule:nonzero;stroke:none;font-family:cmr 12;-inkscape-font-specification:cmr12"
         x="6.4263"
         y="-37.421902"
         id="tspan10641">2</tspan></text>
<text
       transform="scale(1,-1)"
       id="text10643"
       x="6.4263"
       y="-23.246599"><tspan
         style="font-size:11.95510006px;font-variant:normal;font-weight:normal;font-stretch:normal;writing-mode:lr-tb;fill:#000000;fill-opacity:1;fill-rule:nonzero;stroke:none;font-family:cmr 12;-inkscape-font-specification:cmr12"
         x="6.4263"
         y="-23.246599"
         id="tspan10645">3</tspan></text>
<text
       transform="scale(1,-1)"
       id="text10647"
       x="58.607899"
       y="-204.6689"><tspan
         style="font-size:11.95510006px;font-variant:normal;font-weight:normal;font-stretch:normal;writing-mode:lr-tb;fill:#000000;fill-opacity:1;fill-rule:nonzero;stroke:none;font-family:cmss 12;-inkscape-font-specification:cmss12"
         x="58.607899 62.182476 67.789413 72.989883 78.190353 84.514603 87.264275 91.747437"
         y="-204.6689"
         sodipodi:role="line"
         id="tspan10649">faceList</tspan></text>
<text
       transform="scale(1,-1)"
       id="text10651"
       x="108.4771"
       y="-51.587898"><tspan
         style="font-size:11.95510006px;font-variant:normal;font-weight:normal;font-stretch:normal;writing-mode:lr-tb;fill:#000000;fill-opacity:1;fill-rule:nonzero;stroke:none;font-family:cmr 12;-inkscape-font-specification:cmr12"
         x="108.4771"
         y="-51.587898"
         id="tspan10653">4</tspan></text>
<text
       transform="scale(1,-1)"
       id="text10655"
       x="108.4771"
       y="-37.421902"><tspan
         style="font-size:11.95510006px;font-variant:normal;font-weight:normal;font-stretch:normal;writing-mode:lr-tb;fill:#000000;fill-opacity:1;fill-rule:nonzero;stroke:none;font-family:cmr 12;-inkscape-font-specification:cmr12"
         x="108.4771"
         y="-37.421902"
         id="tspan10657">5</tspan></text>
<text
       transform="scale(1,-1)"
       id="text10659"
       x="108.4771"
       y="-23.246599"><tspan
         style="font-size:11.95510006px;font-variant:normal;font-weight:normal;font-stretch:normal;writing-mode:lr-tb;fill:#000000;fill-opacity:1;fill-rule:nonzero;stroke:none;font-family:cmr 12;-inkscape-font-specification:cmr12"
         x="108.4771"
         y="-23.246599"
         id="tspan10661">6</tspan></text>
<text
       transform="scale(1,-1)"
       id="text10663"
       x="57.4473"
       y="-139.4727"><tspan
         style="font-size:11.95510006px;font-variant:normal;font-weight:normal;font-stretch:normal;writing-mode:lr-tb;fill:#000000;fill-opacity:1;fill-rule:nonzero;stroke:none;font-family:cmr 12;-inkscape-font-specification:cmr12"
         x="57.4473"
         y="-139.4727"
         id="tspan10665">4</tspan></text>
<text
       transform="scale(1,-1)"
       id="text10667"
       x="57.4473"
       y="-125.2979"><tspan
         style="font-size:11.95510006px;font-variant:normal;font-weight:normal;font-stretch:normal;writing-mode:lr-tb;fill:#000000;fill-opacity:1;fill-rule:nonzero;stroke:none;font-family:cmr 12;-inkscape-font-specification:cmr12"
         x="57.4473"
         y="-125.2979"
         id="tspan10669">5</tspan></text>
<text
       transform="scale(1,-1)"
       id="text10671"
       x="57.4473"
       y="-111.123"><tspan
         style="font-size:11.95510006px;font-variant:normal;font-weight:normal;font-stretch:normal;writing-mode:lr-tb;fill:#000000;fill-opacity:1;fill-rule:nonzero;stroke:none;font-family:cmr 12;-inkscape-font-specification:cmr12"
         x="57.4473"
         y="-111.123"
         id="tspan10673">6</tspan></text>
<text
       transform="scale(1,-1)"
       id="text10675"
       x="64.061996"
       y="-218.8437"><tspan
         style="font-size:11.95510006px;font-variant:normal;font-weight:normal;font-stretch:normal;writing-mode:lr-tb;fill:#000000;fill-opacity:1;fill-rule:nonzero;stroke:none;font-family:cmss 12;-inkscape-font-specification:cmss12"
         x="64.061996 69.262466 74.618355 79.818825 82.568497 85.318169"
         y="-218.8437"
         sodipodi:role="line"
         id="tspan10677">cyclic</tspan></text>
<text
       xml:space="preserve"
       style="font-size:12px;font-style:normal;font-variant:normal;font-weight:normal;font-stretch:normal;text-align:start;line-height:125%;writing-mode:lr-tb;text-anchor:start;fill:#000000;fill-opacity:1;stroke:none;stroke-width:1px;stroke-linecap:butt;stroke-linejoin:miter;stroke-opacity:1;font-family:'IPA明朝';-inkscape-font-specification:'IPA明朝'"
       x="34.088047"
       y="-1.7680025"
       id="text3575"
       sodipodi:linespacing="125%"
       transform="scale(1,-1)"><tspan
         sodipodi:role="line"
         id="tspan3577"
         x="34.088047"
         y="-1.7680025">計算上のリンク</tspan></text>
<text
       xml:space="preserve"
       style="font-size:12px;font-style:normal;font-variant:normal;font-weight:normal;font-stretch:normal;text-align:start;line-height:125%;writing-mode:lr-tb;text-anchor:start;fill:#000000;fill-opacity:1;stroke:none;stroke-width:1px;stroke-linecap:butt;stroke-linejoin:miter;stroke-opacity:1;font-family:'IPA明朝';-inkscape-font-specification:'IPA明朝'"
       x="215.37007"
       y="-236.29425"
       id="text3579"
       sodipodi:linespacing="125%"
       transform="scale(1,-1)"><tspan
         sodipodi:role="line"
         id="tspan3581"
         x="215.37007"
         y="-236.29425">繰り替えされる形状</tspan></text>
</g></svg>