<?xml version="1.0" encoding="UTF-8" standalone="no"?>
<!-- Created with Inkscape (http://www.inkscape.org/) -->
<svg
   xmlns:dc="http://purl.org/dc/elements/1.1/"
   xmlns:cc="http://creativecommons.org/ns#"
   xmlns:rdf="http://www.w3.org/1999/02/22-rdf-syntax-ns#"
   xmlns:svg="http://www.w3.org/2000/svg"
   xmlns="http://www.w3.org/2000/svg"
   xmlns:sodipodi="http://sodipodi.sourceforge.net/DTD/sodipodi-0.dtd"
   xmlns:inkscape="http://www.inkscape.org/namespaces/inkscape"
   id="svg5179"
   sodipodi:version="0.32"
   inkscape:version="0.46"
   width="442.97736"
   height="428.63086"
   xml:space="preserve"
   sodipodi:docname="fig-2-16.svg"
   version="1.0"
   inkscape:output_extension="org.inkscape.output.svg.inkscape"><metadata
     id="metadata5184"><rdf:RDF><cc:Work
         rdf:about=""><dc:format>image/svg+xml</dc:format><dc:type
           rdf:resource="http://purl.org/dc/dcmitype/StillImage" /></cc:Work></rdf:RDF></metadata><defs
     id="defs5182"><inkscape:perspective
       sodipodi:type="inkscape:persp3d"
       inkscape:vp_x="0 : 526.18109 : 1"
       inkscape:vp_y="0 : 1000 : 0"
       inkscape:vp_z="744.09448 : 526.18109 : 1"
       inkscape:persp3d-origin="372.04724 : 350.78739 : 1"
       id="perspective5186" /><clipPath
       clipPathUnits="userSpaceOnUse"
       id="clipPath5202"><path
         d="M 0,0 L 331,0 L 331,343 L 0,343 L 0,0 z"
         id="path5204" /></clipPath><clipPath
       clipPathUnits="userSpaceOnUse"
       id="clipPath5218"><path
         d="M 0,0 L 331,0 L 331,343 L 0,343 L 0,0 z M 62.271,24.583 L 62.271,28.362 L 52.76,28.362 L 60.319,26.474 L 52.76,24.583 L 62.271,24.583 z M 25.422,65.211 L 21.643,65.211 L 21.643,55.7 L 23.533,63.259 L 25.422,55.7 L 25.422,65.211 z"
         clip-rule="evenodd"
         id="path5220" /></clipPath><clipPath
       clipPathUnits="userSpaceOnUse"
       id="clipPath5228"><path
         d="M 0,0 L 331,0 L 331,343 L 0,343 L 0,0 z"
         id="path5230" /></clipPath><clipPath
       clipPathUnits="userSpaceOnUse"
       id="clipPath5244"><path
         d="M 0,0 L 331,0 L 331,343 L 0,343 L 0,0 z M 104.854,105.21 L 102.207,107.855 L 95.467,101.179 L 102.207,105.147 L 98.176,98.471 L 104.854,105.21 z M 52.508,107.855 L 49.862,105.21 L 56.539,98.471 L 52.571,105.147 L 59.248,101.179 L 52.508,107.855 z"
         clip-rule="evenodd"
         id="path5246" /></clipPath><clipPath
       clipPathUnits="userSpaceOnUse"
       id="clipPath5254"><path
         d="M 0,0 L 331,0 L 331,343 L 0,343 L 0,0 z"
         id="path5256" /></clipPath><clipPath
       clipPathUnits="userSpaceOnUse"
       id="clipPath5270"><path
         d="M 0,0 L 331,0 L 331,343 L 0,343 L 0,0 z M 62.271,174.814 L 62.271,178.593 L 52.76,178.593 L 60.319,176.704 L 52.76,174.814 L 62.271,174.814 z M 25.422,215.443 L 21.643,215.443 L 21.643,205.932 L 23.533,213.49 L 25.422,205.932 L 25.422,215.443 z"
         clip-rule="evenodd"
         id="path5272" /></clipPath><clipPath
       clipPathUnits="userSpaceOnUse"
       id="clipPath5280"><path
         d="M 0,0 L 331,0 L 331,343 L 0,343 L 0,0 z"
         id="path5282" /></clipPath><clipPath
       clipPathUnits="userSpaceOnUse"
       id="clipPath5296"><path
         d="M 0,0 L 331,0 L 331,343 L 0,343 L 0,0 z M 169.984,132.296 L 169.984,136.075 L 160.473,136.075 L 168.031,134.187 L 160.473,132.296 L 169.984,132.296 z M 133.135,172.924 L 129.356,172.924 L 129.356,163.413 L 131.245,170.972 L 133.135,163.413 L 133.135,172.924 z"
         clip-rule="evenodd"
         id="path5298" /></clipPath><clipPath
       clipPathUnits="userSpaceOnUse"
       id="clipPath5306"><path
         d="M 0,0 L 331,0 L 331,343 L 0,343 L 0,0 z"
         id="path5308" /></clipPath><clipPath
       clipPathUnits="userSpaceOnUse"
       id="clipPath5322"><path
         d="M 0,0 L 331,0 L 331,343 L 0,343 L 0,0 z M 212.503,24.583 L 212.503,28.362 L 202.991,28.362 L 210.55,26.474 L 202.991,24.583 L 212.503,24.583 z M 175.653,65.211 L 171.874,65.211 L 171.874,55.7 L 173.764,63.259 L 175.653,55.7 L 175.653,65.211 z"
         clip-rule="evenodd"
         id="path5324" /></clipPath><clipPath
       clipPathUnits="userSpaceOnUse"
       id="clipPath5332"><path
         d="M 0,0 L 331,0 L 331,343 L 0,343 L 0,0 z"
         id="path5334" /></clipPath><clipPath
       clipPathUnits="userSpaceOnUse"
       id="clipPath5348"><path
         d="M 0,0 L 331,0 L 331,343 L 0,343 L 0,0 z M 135.971,24.583 L 135.971,28.362 L 126.458,28.362 L 134.018,26.474 L 126.458,24.583 L 135.971,24.583 z M 99.12,65.211 L 95.342,65.211 L 95.342,55.7 L 97.231,63.259 L 99.12,55.7 L 99.12,65.211 z"
         clip-rule="evenodd"
         id="path5350" /></clipPath><clipPath
       clipPathUnits="userSpaceOnUse"
       id="clipPath5358"><path
         d="M 0,0 L 331,0 L 331,343 L 0,343 L 0,0 z"
         id="path5360" /></clipPath></defs><sodipodi:namedview
     inkscape:window-height="722"
     inkscape:window-width="789"
     inkscape:pageshadow="2"
     inkscape:pageopacity="0.0"
     guidetolerance="10.0"
     gridtolerance="10.0"
     objecttolerance="10.0"
     borderopacity="1.0"
     bordercolor="#666666"
     pagecolor="#ffffff"
     id="base"
     showgrid="false"
     inkscape:zoom="1.1521866"
     inkscape:cx="206.875"
     inkscape:cy="214.375"
     inkscape:window-x="0"
     inkscape:window-y="25"
     inkscape:current-layer="g5188" /><g
     id="g5188"
     inkscape:groupmode="layer"
     inkscape:label="fig-2-16"
     transform="matrix(1.25,0,0,-1.25,-0.4483163,426.4341)"><g
       clip-path="none"
       id="g5192"><g
         id="g5198"><g
           clip-path="url(#clipPath5202)"
           id="g5200"><path
             id="path5206"
             style="fill:none;stroke:#000000;stroke-width:0.472;stroke-linecap:butt;stroke-linejoin:miter;stroke-miterlimit:10;stroke-dasharray:none;stroke-opacity:1"
             d="M 23.493,100.165 C 25.393,100.324 27.297,100.404 29.202,100.404 C 66.902,100.404 97.465,69.842 97.465,32.143 C 97.465,30.237 97.385,28.332 97.225,26.434" /><path
             id="path5208"
             style="fill:none;stroke:#000000;stroke-width:0.472;stroke-linecap:butt;stroke-linejoin:miter;stroke-miterlimit:10;stroke-dasharray:none;stroke-opacity:1"
             d="M 23.533,100.171 L 23.533,326.936 L 323.995,326.936 L 323.995,26.474 L 97.231,26.474" /><path
             id="path5210"
             style="fill:none;stroke:#000000;stroke-width:0.472;stroke-linecap:butt;stroke-linejoin:miter;stroke-miterlimit:10;stroke-dasharray:none;stroke-opacity:1"
             d="M 323.995,134.187 L 131.245,134.187 L 131.245,326.936" /><path
             id="path5212"
             style="fill:none;stroke:#000000;stroke-width:0.472;stroke-linecap:butt;stroke-linejoin:miter;stroke-miterlimit:10;stroke-dasharray:none;stroke-opacity:1"
             d="M 77.389,80.329 L 131.245,134.187" /></g></g><g
         id="g5214"><g
           clip-path="url(#clipPath5218)"
           id="g5216"><path
             id="path5222"
             style="fill:none;stroke:#000000;stroke-width:0.472;stroke-linecap:butt;stroke-linejoin:miter;stroke-miterlimit:10;stroke-dasharray:none;stroke-opacity:1"
             d="M 23.533,64.267 L 23.533,26.474 L 61.326,26.474" /></g></g><g
         id="g5224"><g
           clip-path="url(#clipPath5228)"
           id="g5226"><path
             id="path5232"
             style="fill:#000000;fill-opacity:1;fill-rule:evenodd;stroke:none"
             d="M 25.422,55.7 L 23.533,63.259 L 21.643,55.7 L 25.422,55.7 z" /><path
             id="path5234"
             style="fill:none;stroke:#000000;stroke-width:0.472;stroke-linecap:butt;stroke-linejoin:miter;stroke-miterlimit:10;stroke-dasharray:none;stroke-opacity:1"
             d="M 25.422,55.7 L 23.533,63.259 L 21.643,55.7 L 25.422,55.7 z" /><path
             id="path5236"
             style="fill:#000000;fill-opacity:1;fill-rule:evenodd;stroke:none"
             d="M 52.76,24.583 L 60.319,26.474 L 52.76,28.362 L 52.76,24.583 z" /><path
             id="path5238"
             style="fill:none;stroke:#000000;stroke-width:0.472;stroke-linecap:butt;stroke-linejoin:miter;stroke-miterlimit:10;stroke-dasharray:none;stroke-opacity:1"
             d="M 52.76,24.583 L 60.319,26.474 L 52.76,28.362 L 52.76,24.583 z" /></g></g><g
         id="g5240"><g
           clip-path="url(#clipPath5244)"
           id="g5242"><path
             id="path5248"
             style="fill:none;stroke:#000000;stroke-width:0.472;stroke-linecap:butt;stroke-linejoin:miter;stroke-miterlimit:10;stroke-dasharray:none;stroke-opacity:1"
             d="M 51.879,105.84 L 77.389,80.329 L 102.9,105.84" /></g></g><g
         id="g5250"><g
           clip-path="url(#clipPath5254)"
           id="g5252"><path
             id="path5258"
             style="fill:#000000;fill-opacity:1;fill-rule:evenodd;stroke:none"
             d="M 59.248,101.179 L 52.571,105.147 L 56.539,98.471 L 59.248,101.179 z" /><path
             id="path5260"
             style="fill:none;stroke:#000000;stroke-width:0.472;stroke-linecap:butt;stroke-linejoin:miter;stroke-miterlimit:10;stroke-dasharray:none;stroke-opacity:1"
             d="M 59.248,101.179 L 52.571,105.147 L 56.539,98.471 L 59.248,101.179 z" /><path
             id="path5262"
             style="fill:#000000;fill-opacity:1;fill-rule:evenodd;stroke:none"
             d="M 98.176,98.471 L 102.207,105.147 L 95.467,101.179 L 98.176,98.471 z" /><path
             id="path5264"
             style="fill:none;stroke:#000000;stroke-width:0.472;stroke-linecap:butt;stroke-linejoin:miter;stroke-miterlimit:10;stroke-dasharray:none;stroke-opacity:1"
             d="M 98.176,98.471 L 102.207,105.147 L 95.467,101.179 L 98.176,98.471 z" /></g></g><g
         id="g5266"><g
           clip-path="url(#clipPath5270)"
           id="g5268"><path
             id="path5274"
             style="fill:none;stroke:#000000;stroke-width:0.472;stroke-linecap:butt;stroke-linejoin:miter;stroke-miterlimit:10;stroke-dasharray:none;stroke-opacity:1"
             d="M 23.533,214.498 L 23.533,176.704 L 61.326,176.704" /></g></g><g
         id="g5276"><g
           clip-path="url(#clipPath5280)"
           id="g5278"><path
             id="path5284"
             style="fill:#000000;fill-opacity:1;fill-rule:evenodd;stroke:none"
             d="M 25.422,205.932 L 23.533,213.49 L 21.643,205.932 L 25.422,205.932 z" /><path
             id="path5286"
             style="fill:none;stroke:#000000;stroke-width:0.472;stroke-linecap:butt;stroke-linejoin:miter;stroke-miterlimit:10;stroke-dasharray:none;stroke-opacity:1"
             d="M 25.422,205.932 L 23.533,213.49 L 21.643,205.932 L 25.422,205.932 z" /><path
             id="path5288"
             style="fill:#000000;fill-opacity:1;fill-rule:evenodd;stroke:none"
             d="M 52.76,174.814 L 60.319,176.704 L 52.76,178.593 L 52.76,174.814 z" /><path
             id="path5290"
             style="fill:none;stroke:#000000;stroke-width:0.472;stroke-linecap:butt;stroke-linejoin:miter;stroke-miterlimit:10;stroke-dasharray:none;stroke-opacity:1"
             d="M 52.76,174.814 L 60.319,176.704 L 52.76,178.593 L 52.76,174.814 z" /></g></g><g
         id="g5292"><g
           clip-path="url(#clipPath5296)"
           id="g5294"><path
             id="path5300"
             style="fill:none;stroke:#000000;stroke-width:0.472;stroke-linecap:butt;stroke-linejoin:miter;stroke-miterlimit:10;stroke-dasharray:none;stroke-opacity:1"
             d="M 131.245,171.979 L 131.245,134.187 L 169.039,134.187" /></g></g><g
         id="g5302"><g
           clip-path="url(#clipPath5306)"
           id="g5304"><path
             id="path5310"
             style="fill:#000000;fill-opacity:1;fill-rule:evenodd;stroke:none"
             d="M 133.135,163.413 L 131.245,170.972 L 129.356,163.413 L 133.135,163.413 z" /><path
             id="path5312"
             style="fill:none;stroke:#000000;stroke-width:0.472;stroke-linecap:butt;stroke-linejoin:miter;stroke-miterlimit:10;stroke-dasharray:none;stroke-opacity:1"
             d="M 133.135,163.413 L 131.245,170.972 L 129.356,163.413 L 133.135,163.413 z" /><path
             id="path5314"
             style="fill:#000000;fill-opacity:1;fill-rule:evenodd;stroke:none"
             d="M 160.473,132.296 L 168.031,134.187 L 160.473,136.075 L 160.473,132.296 z" /><path
             id="path5316"
             style="fill:none;stroke:#000000;stroke-width:0.472;stroke-linecap:butt;stroke-linejoin:miter;stroke-miterlimit:10;stroke-dasharray:none;stroke-opacity:1"
             d="M 160.473,132.296 L 168.031,134.187 L 160.473,136.075 L 160.473,132.296 z" /></g></g><g
         id="g5318"><g
           clip-path="url(#clipPath5322)"
           id="g5320"><path
             id="path5326"
             style="fill:none;stroke:#000000;stroke-width:0.472;stroke-linecap:butt;stroke-linejoin:miter;stroke-miterlimit:10;stroke-dasharray:none;stroke-opacity:1"
             d="M 173.764,64.267 L 173.764,26.474 L 211.559,26.474" /></g></g><g
         id="g5328"><g
           clip-path="url(#clipPath5332)"
           id="g5330"><path
             id="path5336"
             style="fill:#000000;fill-opacity:1;fill-rule:evenodd;stroke:none"
             d="M 175.653,55.7 L 173.764,63.259 L 171.874,55.7 L 175.653,55.7 z" /><path
             id="path5338"
             style="fill:none;stroke:#000000;stroke-width:0.472;stroke-linecap:butt;stroke-linejoin:miter;stroke-miterlimit:10;stroke-dasharray:none;stroke-opacity:1"
             d="M 175.653,55.7 L 173.764,63.259 L 171.874,55.7 L 175.653,55.7 z" /><path
             id="path5340"
             style="fill:#000000;fill-opacity:1;fill-rule:evenodd;stroke:none"
             d="M 202.991,24.583 L 210.55,26.474 L 202.991,28.362 L 202.991,24.583 z" /><path
             id="path5342"
             style="fill:none;stroke:#000000;stroke-width:0.472;stroke-linecap:butt;stroke-linejoin:miter;stroke-miterlimit:10;stroke-dasharray:none;stroke-opacity:1"
             d="M 202.991,24.583 L 210.55,26.474 L 202.991,28.362 L 202.991,24.583 z" /></g></g><g
         id="g5344"><g
           clip-path="url(#clipPath5348)"
           id="g5346"><path
             id="path5352"
             style="fill:none;stroke:#000000;stroke-width:0.472;stroke-linecap:butt;stroke-linejoin:miter;stroke-miterlimit:10;stroke-dasharray:none;stroke-opacity:1"
             d="M 97.231,64.267 L 97.231,26.474 L 135.025,26.474" /></g></g><g
         id="g5354"><g
           clip-path="url(#clipPath5358)"
           id="g5356"><path
             id="path5362"
             style="fill:#000000;fill-opacity:1;fill-rule:evenodd;stroke:none"
             d="M 99.12,55.7 L 97.231,63.259 L 95.342,55.7 L 99.12,55.7 z" /><path
             id="path5364"
             style="fill:none;stroke:#000000;stroke-width:0.472;stroke-linecap:butt;stroke-linejoin:miter;stroke-miterlimit:10;stroke-dasharray:none;stroke-opacity:1"
             d="M 99.12,55.7 L 97.231,63.259 L 95.342,55.7 L 99.12,55.7 z" /><path
             id="path5366"
             style="fill:#000000;fill-opacity:1;fill-rule:evenodd;stroke:none"
             d="M 126.458,24.583 L 134.018,26.474 L 126.458,28.362 L 126.458,24.583 z" /><path
             id="path5368"
             style="fill:none;stroke:#000000;stroke-width:0.472;stroke-linecap:butt;stroke-linejoin:miter;stroke-miterlimit:10;stroke-dasharray:none;stroke-opacity:1"
             d="M 126.458,24.583 L 134.018,26.474 L 126.458,28.362 L 126.458,24.583 z" /><path
             id="path5370"
             style="fill:none;stroke:#000000;stroke-width:0.472;stroke-linecap:butt;stroke-linejoin:miter;stroke-miterlimit:10;stroke-dasharray:none;stroke-opacity:1"
             d="M 47.154,100.171 L 51.879,95.446" /><path
             id="path5372"
             style="fill:none;stroke:#000000;stroke-width:0.472;stroke-linecap:butt;stroke-linejoin:miter;stroke-miterlimit:10;stroke-dasharray:none;stroke-opacity:1"
             d="M 51.879,100.171 L 47.154,95.446" /><path
             id="path5374"
             style="fill:none;stroke:#000000;stroke-width:0.472;stroke-linecap:butt;stroke-linejoin:miter;stroke-miterlimit:10;stroke-dasharray:none;stroke-opacity:1"
             d="M 89.672,59.542 L 94.396,54.818" /><path
             id="path5376"
             style="fill:none;stroke:#000000;stroke-width:0.472;stroke-linecap:butt;stroke-linejoin:miter;stroke-miterlimit:10;stroke-dasharray:none;stroke-opacity:1"
             d="M 94.396,59.542 L 89.672,54.818" /><path
             id="path5378"
             style="fill:none;stroke:#000000;stroke-width:0.472;stroke-linecap:butt;stroke-linejoin:miter;stroke-miterlimit:10;stroke-dasharray:none;stroke-opacity:1"
             d="M 161.481,88.833 L 166.205,84.109" /><path
             id="path5380"
             style="fill:none;stroke:#000000;stroke-width:0.472;stroke-linecap:butt;stroke-linejoin:miter;stroke-miterlimit:10;stroke-dasharray:none;stroke-opacity:1"
             d="M 166.205,88.833 L 161.481,84.109" /><path
             id="path5382"
             style="fill:none;stroke:#000000;stroke-width:0.472;stroke-linecap:butt;stroke-linejoin:miter;stroke-miterlimit:10;stroke-dasharray:none;stroke-opacity:1"
             d="M 74.555,171.979 L 79.279,167.255" /><path
             id="path5384"
             style="fill:none;stroke:#000000;stroke-width:0.472;stroke-linecap:butt;stroke-linejoin:miter;stroke-miterlimit:10;stroke-dasharray:none;stroke-opacity:1"
             d="M 79.279,171.979 L 74.555,167.255" /><path
             id="path5386"
             style="fill:none;stroke:#000000;stroke-width:0.472;stroke-linecap:butt;stroke-linejoin:miter;stroke-miterlimit:10;stroke-dasharray:none;stroke-opacity:1"
             d="M 173.766,26.533 C 173.856,28.626 173.902,30.722 173.902,32.816 C 173.902,112.359 109.42,176.842 29.876,176.842 C 27.781,176.842 25.686,176.796 23.594,176.705" /><path
             id="path5388"
             style="fill:none;stroke:#000000;stroke-width:0.472;stroke-linecap:butt;stroke-linejoin:miter;stroke-miterlimit:10;stroke-dasharray:none;stroke-opacity:1"
             d="M 62.271,243.788 L 62.271,243.788 C 58.619,243.788 55.657,240.827 55.657,237.174 L 55.657,231.505 C 55.657,227.853 58.619,224.892 62.271,224.892 L 63.217,224.892 C 66.869,224.892 69.83,227.853 69.83,231.505 L 69.83,237.174 C 69.83,240.827 66.869,243.788 63.217,243.788 L 62.271,243.788 z" /><path
             id="path5390"
             style="fill:none;stroke:#000000;stroke-width:0.472;stroke-linecap:butt;stroke-linejoin:miter;stroke-miterlimit:10;stroke-dasharray:none;stroke-opacity:1"
             d="M 222.896,243.788 L 222.896,243.788 C 219.243,243.788 216.282,240.827 216.282,237.174 L 216.282,231.505 C 216.282,227.853 219.243,224.892 222.896,224.892 L 223.84,224.892 C 227.493,224.892 230.454,227.853 230.454,231.505 L 230.454,237.174 C 230.454,240.827 227.493,243.788 223.84,243.788 L 222.896,243.788 z" /><path
             id="path5392"
             style="fill:none;stroke:#000000;stroke-width:0.472;stroke-linecap:butt;stroke-linejoin:miter;stroke-miterlimit:10;stroke-dasharray:none;stroke-opacity:1"
             d="M 128.411,83.164 L 128.41,83.164 C 124.758,83.164 121.797,80.202 121.797,76.55 L 121.797,70.88 C 121.797,67.229 124.758,64.267 128.411,64.267 L 129.356,64.267 C 133.008,64.267 135.971,67.229 135.971,70.88 L 135.971,76.55 C 135.971,80.202 133.008,83.164 129.356,83.164 L 128.411,83.164 z" /><path
             id="path5394"
             style="fill:none;stroke:#000000;stroke-width:0.472;stroke-linecap:butt;stroke-linejoin:miter;stroke-miterlimit:10;stroke-dasharray:none;stroke-opacity:1"
             d="M 62.271,149.304 L 62.271,149.304 C 58.619,149.304 55.657,146.342 55.657,142.689 L 55.657,137.021 C 55.657,133.368 58.619,130.406 62.271,130.406 L 63.217,130.406 C 66.869,130.406 69.83,133.368 69.83,137.021 L 69.83,142.689 C 69.83,146.342 66.869,149.304 63.217,149.304 L 62.271,149.304 z" /><path
             id="path5396"
             style="fill:none;stroke:#000000;stroke-width:0.472;stroke-linecap:butt;stroke-linejoin:miter;stroke-miterlimit:10;stroke-dasharray:none;stroke-opacity:1"
             d="M 239.903,96.392 L 239.903,96.392 C 236.251,96.392 233.289,93.431 233.289,89.778 L 233.289,84.108 C 233.289,80.456 236.251,77.494 239.903,77.494 L 240.849,77.494 C 244.501,77.494 247.462,80.456 247.462,84.109 L 247.462,89.777 C 247.462,93.431 244.501,96.392 240.849,96.392 L 239.903,96.392 z" /></g></g><text
         id="text5398"
         transform="matrix(1,0,0,-1,48.1953,14.1748)"><tspan
           id="tspan5400"
           y="0"
           x="0"
           style="font-size:11.95510006px;font-variant:normal;font-weight:normal;font-stretch:normal;writing-mode:lr-tb;fill:#000000;fill-opacity:1;fill-rule:nonzero;stroke:none;font-family:cmmi 12;-inkscape-font-specification:cmmi12">x</tspan></text>
<text
         id="text5402"
         transform="matrix(1,0,0,-1,28.3501,51.0303)"><tspan
           id="tspan5404"
           y="0"
           x="0"
           style="font-size:11.95510006px;font-variant:normal;font-weight:normal;font-stretch:normal;writing-mode:lr-tb;fill:#000000;fill-opacity:1;fill-rule:nonzero;stroke:none;font-family:cmmi 12;-inkscape-font-specification:cmmi12">y</tspan></text>
<text
         id="text5406"
         transform="matrix(1,0,0,-1,102.0347,51.0303)"><tspan
           id="tspan5408"
           y="0"
           x="0"
           style="font-size:11.95510006px;font-variant:normal;font-weight:normal;font-stretch:normal;writing-mode:lr-tb;fill:#000000;fill-opacity:1;fill-rule:nonzero;stroke:none;font-family:cmmi 12;-inkscape-font-specification:cmmi12">x</tspan></text>
<text
         id="text5410"
         transform="matrix(1,0,0,-1,108.7021,49.2393)"><tspan
           id="tspan5412"
           y="0"
           x="0"
           style="font-size:7.97009993px;font-variant:normal;font-weight:normal;font-stretch:normal;writing-mode:lr-tb;fill:#000000;fill-opacity:1;fill-rule:nonzero;stroke:none;font-family:cmr 8;-inkscape-font-specification:cmr8">2</tspan></text>
<text
         id="text5414"
         transform="matrix(1,0,0,-1,119.0615,17.0098)"><tspan
           id="tspan5416"
           y="0"
           x="0"
           style="font-size:11.95510006px;font-variant:normal;font-weight:normal;font-stretch:normal;writing-mode:lr-tb;fill:#000000;fill-opacity:1;fill-rule:nonzero;stroke:none;font-family:cmmi 12;-inkscape-font-specification:cmmi12">x</tspan></text>
<text
         id="text5418"
         transform="matrix(1,0,0,-1,125.7124,15.2187)"><tspan
           id="tspan5420"
           y="0"
           x="0"
           style="font-size:7.97009993px;font-variant:normal;font-weight:normal;font-stretch:normal;writing-mode:lr-tb;fill:#000000;fill-opacity:1;fill-rule:nonzero;stroke:none;font-family:cmr 8;-inkscape-font-specification:cmr8">1</tspan></text>
<text
         id="text5422"
         transform="matrix(1,0,0,-1,195.6064,17.0098)"><tspan
           id="tspan5424"
           y="0"
           x="0"
           style="font-size:11.95510006px;font-variant:normal;font-weight:normal;font-stretch:normal;writing-mode:lr-tb;fill:#000000;fill-opacity:1;fill-rule:nonzero;stroke:none;font-family:cmmi 12;-inkscape-font-specification:cmmi12">x</tspan></text>
<text
         id="text5426"
         transform="matrix(1,0,0,-1,202.2578,15.2187)"><tspan
           id="tspan5428"
           y="0"
           x="0"
           style="font-size:7.97009993px;font-variant:normal;font-weight:normal;font-stretch:normal;writing-mode:lr-tb;fill:#000000;fill-opacity:1;fill-rule:nonzero;stroke:none;font-family:cmr 8;-inkscape-font-specification:cmr8">1</tspan></text>
<text
         id="text5430"
         transform="matrix(1,0,0,-1,178.5967,51.0303)"><tspan
           id="tspan5432"
           y="0"
           x="0"
           style="font-size:11.95510006px;font-variant:normal;font-weight:normal;font-stretch:normal;writing-mode:lr-tb;fill:#000000;fill-opacity:1;fill-rule:nonzero;stroke:none;font-family:cmmi 12;-inkscape-font-specification:cmmi12">x</tspan></text>
<text
         id="text5434"
         transform="matrix(1,0,0,-1,185.2471,49.2393)"><tspan
           id="tspan5436"
           y="0"
           x="0"
           style="font-size:7.97009993px;font-variant:normal;font-weight:normal;font-stretch:normal;writing-mode:lr-tb;fill:#000000;fill-opacity:1;fill-rule:nonzero;stroke:none;font-family:cmr 8;-inkscape-font-specification:cmr8">2</tspan></text>
<text
         id="text5438"
         transform="matrix(1,0,0,-1,136.0713,158.751)"><tspan
           id="tspan5440"
           y="0"
           x="0"
           style="font-size:11.95510006px;font-variant:normal;font-weight:normal;font-stretch:normal;writing-mode:lr-tb;fill:#000000;fill-opacity:1;fill-rule:nonzero;stroke:none;font-family:cmmi 12;-inkscape-font-specification:cmmi12">x</tspan></text>
<text
         id="text5442"
         transform="matrix(1,0,0,-1,142.7222,156.96)"><tspan
           id="tspan5444"
           y="0"
           x="0"
           style="font-size:7.97009993px;font-variant:normal;font-weight:normal;font-stretch:normal;writing-mode:lr-tb;fill:#000000;fill-opacity:1;fill-rule:nonzero;stroke:none;font-family:cmr 8;-inkscape-font-specification:cmr8">2</tspan></text>
<text
         id="text5446"
         transform="matrix(1,0,0,-1,153.0811,124.7402)"><tspan
           id="tspan5448"
           y="0"
           x="0"
           style="font-size:11.95510006px;font-variant:normal;font-weight:normal;font-stretch:normal;writing-mode:lr-tb;fill:#000000;fill-opacity:1;fill-rule:nonzero;stroke:none;font-family:cmmi 12;-inkscape-font-specification:cmmi12">x</tspan></text>
<text
         id="text5450"
         transform="matrix(1,0,0,-1,159.7324,122.9492)"><tspan
           id="tspan5452"
           y="0"
           x="0"
           style="font-size:7.97009993px;font-variant:normal;font-weight:normal;font-stretch:normal;writing-mode:lr-tb;fill:#000000;fill-opacity:1;fill-rule:nonzero;stroke:none;font-family:cmr 8;-inkscape-font-specification:cmr8">1</tspan></text>
<text
         id="text5454"
         transform="matrix(1,0,0,-1,45.3604,164.4209)"><tspan
           id="tspan5456"
           y="0"
           x="0"
           style="font-size:11.95510006px;font-variant:normal;font-weight:normal;font-stretch:normal;writing-mode:lr-tb;fill:#000000;fill-opacity:1;fill-rule:nonzero;stroke:none;font-family:cmmi 12;-inkscape-font-specification:cmmi12">x</tspan></text>
<text
         id="text5458"
         transform="matrix(1,0,0,-1,52.0112,162.6299)"><tspan
           id="tspan5460"
           y="0"
           x="0"
           style="font-size:7.97009993px;font-variant:normal;font-weight:normal;font-stretch:normal;writing-mode:lr-tb;fill:#000000;fill-opacity:1;fill-rule:nonzero;stroke:none;font-family:cmr 8;-inkscape-font-specification:cmr8">1</tspan></text>
<text
         id="text5462"
         transform="matrix(1,0,0,-1,28.3501,201.2764)"><tspan
           id="tspan5464"
           y="0"
           x="0"
           style="font-size:11.95510006px;font-variant:normal;font-weight:normal;font-stretch:normal;writing-mode:lr-tb;fill:#000000;fill-opacity:1;fill-rule:nonzero;stroke:none;font-family:cmmi 12;-inkscape-font-specification:cmmi12">x</tspan></text>
<text
         id="text5466"
         transform="matrix(1,0,0,-1,35.0015,199.4854)"><tspan
           id="tspan5468"
           y="0"
           x="0"
           style="font-size:7.97009993px;font-variant:normal;font-weight:normal;font-stretch:normal;writing-mode:lr-tb;fill:#000000;fill-opacity:1;fill-rule:nonzero;stroke:none;font-family:cmr 8;-inkscape-font-specification:cmr8">2</tspan></text>
<text
         id="text5470"
         transform="matrix(1,0,0,-1,59.5356,102.0605)"><tspan
           id="tspan5472"
           y="0"
           x="0"
           style="font-size:11.95510006px;font-variant:normal;font-weight:normal;font-stretch:normal;writing-mode:lr-tb;fill:#000000;fill-opacity:1;fill-rule:nonzero;stroke:none;font-family:cmmi 12;-inkscape-font-specification:cmmi12">x</tspan></text>
<text
         id="text5474"
         transform="matrix(1,0,0,-1,66.1865,100.2695)"><tspan
           id="tspan5476"
           y="0"
           x="0"
           style="font-size:7.97009993px;font-variant:normal;font-weight:normal;font-stretch:normal;writing-mode:lr-tb;fill:#000000;fill-opacity:1;fill-rule:nonzero;stroke:none;font-family:cmr 8;-inkscape-font-specification:cmr8">2</tspan></text>
<text
         id="text5478"
         transform="matrix(1,0,0,-1,96.3813,90.7207)"><tspan
           id="tspan5480"
           y="0"
           x="0"
           style="font-size:11.95510006px;font-variant:normal;font-weight:normal;font-stretch:normal;writing-mode:lr-tb;fill:#000000;fill-opacity:1;fill-rule:nonzero;stroke:none;font-family:cmmi 12;-inkscape-font-specification:cmmi12">x</tspan></text>
<text
         id="text5482"
         transform="matrix(1,0,0,-1,103.0322,88.9297)"><tspan
           id="tspan5484"
           y="0"
           x="0"
           style="font-size:7.97009993px;font-variant:normal;font-weight:normal;font-stretch:normal;writing-mode:lr-tb;fill:#000000;fill-opacity:1;fill-rule:nonzero;stroke:none;font-family:cmr 8;-inkscape-font-specification:cmr8">1</tspan></text>
<text
         id="text5486"
         transform="matrix(1,0,0,-1,0,138.9062)"><tspan
           id="tspan5488"
           sodipodi:role="line"
           y="0"
           x="0 3.2517872 8.4522552 12.026831"
           style="font-size:11.95510006px;font-variant:normal;font-weight:normal;font-stretch:normal;writing-mode:lr-tb;fill:#221814;fill-opacity:1;fill-rule:nonzero;stroke:none;font-family:cmr 12;-inkscape-font-specification:cmr12">left</tspan></text>
<text
         id="text5490"
         transform="matrix(1,0,0,-1,0,260.8115)"><tspan
           id="tspan5492"
           sodipodi:role="line"
           y="0"
           x="0 3.2517872 8.4522552 12.026831"
           style="font-size:11.95510006px;font-variant:normal;font-weight:normal;font-stretch:normal;writing-mode:lr-tb;fill:#221814;fill-opacity:1;fill-rule:nonzero;stroke:none;font-family:cmr 12;-inkscape-font-specification:cmr12">left</tspan></text>
<text
         id="text5494"
         transform="matrix(1,0,0,-1,66.1504,333.5674)"><tspan
           id="tspan5496"
           sodipodi:role="line"
           y="0"
           x="0 6.5035744"
           style="font-size:11.95510006px;font-variant:normal;font-weight:normal;font-stretch:normal;writing-mode:lr-tb;fill:#221814;fill-opacity:1;fill-rule:nonzero;stroke:none;font-family:cmr 12;-inkscape-font-specification:cmr12">up</tspan></text>
<text
         id="text5498"
         transform="matrix(1,0,0,-1,125.6763,332.6221)"><tspan
           id="tspan5500"
           y="0"
           x="0"
           style="font-size:11.95510006px;font-variant:normal;font-weight:normal;font-stretch:normal;writing-mode:lr-tb;fill:#221814;fill-opacity:1;fill-rule:nonzero;stroke:none;font-family:cmr 12;-inkscape-font-specification:cmr12">7</tspan></text>
<text
         id="text5502"
         transform="matrix(1,0,0,-1,218.2861,334.5122)"><tspan
           id="tspan5504"
           sodipodi:role="line"
           y="0"
           x="0 6.5035744"
           style="font-size:11.95510006px;font-variant:normal;font-weight:normal;font-stretch:normal;writing-mode:lr-tb;fill:#221814;fill-opacity:1;fill-rule:nonzero;stroke:none;font-family:cmr 12;-inkscape-font-specification:cmr12">up</tspan></text>
<text
         id="text5506"
         transform="matrix(1,0,0,-1,329.7871,235.2959)"><tspan
           id="tspan5508"
           sodipodi:role="line"
           y="0"
           x="0 4.554893 7.8066802"
           style="font-size:11.95510006px;font-variant:normal;font-weight:normal;font-stretch:normal;writing-mode:lr-tb;fill:#221814;fill-opacity:1;fill-rule:nonzero;stroke:none;font-family:cmr 12;-inkscape-font-specification:cmr12">rig</tspan></text>
<text
         id="text5510"
         transform="matrix(1,0,0,-1,343.4434,235.2959)"><tspan
           id="tspan5512"
           y="0"
           x="0"
           style="font-size:11.95510006px;font-variant:normal;font-weight:normal;font-stretch:normal;writing-mode:lr-tb;fill:#221814;fill-opacity:1;fill-rule:nonzero;stroke:none;font-family:cmr 12;-inkscape-font-specification:cmr12">h</tspan></text>
<text
         id="text5514"
         transform="matrix(1,0,0,-1,349.6357,235.2959)"><tspan
           id="tspan5516"
           y="0"
           x="0"
           style="font-size:11.95510006px;font-variant:normal;font-weight:normal;font-stretch:normal;writing-mode:lr-tb;fill:#221814;fill-opacity:1;fill-rule:nonzero;stroke:none;font-family:cmr 12;-inkscape-font-specification:cmr12">t</tspan></text>
<text
         id="text5518"
         transform="matrix(1,0,0,-1,328.8428,129.4561)"><tspan
           id="tspan5520"
           y="0"
           x="0"
           style="font-size:11.95510006px;font-variant:normal;font-weight:normal;font-stretch:normal;writing-mode:lr-tb;fill:#221814;fill-opacity:1;fill-rule:nonzero;stroke:none;font-family:cmr 12;-inkscape-font-specification:cmr12">3</tspan></text>
<text
         id="text5522"
         transform="matrix(1,0,0,-1,231.5156,13.2305)"><tspan
           id="tspan5524"
           y="0"
           x="0"
           style="font-size:11.95510006px;font-variant:normal;font-weight:normal;font-stretch:normal;writing-mode:lr-tb;fill:#221814;fill-opacity:1;fill-rule:nonzero;stroke:none;font-family:cmr 12;-inkscape-font-specification:cmr12">d</tspan></text>
<text
         id="text5526"
         transform="matrix(1,0,0,-1,238.0195,13.2305)"><tspan
           id="tspan5528"
           y="0"
           x="0"
           style="font-size:11.95510006px;font-variant:normal;font-weight:normal;font-stretch:normal;writing-mode:lr-tb;fill:#221814;fill-opacity:1;fill-rule:nonzero;stroke:none;font-family:cmr 12;-inkscape-font-specification:cmr12">o</tspan></text>
<text
         id="text5530"
         transform="matrix(1,0,0,-1,243.5605,13.2305)"><tspan
           id="tspan5532"
           sodipodi:role="line"
           y="0"
           x="0 8.4522552"
           style="font-size:11.95510006px;font-variant:normal;font-weight:normal;font-stretch:normal;writing-mode:lr-tb;fill:#221814;fill-opacity:1;fill-rule:nonzero;stroke:none;font-family:cmr 12;-inkscape-font-specification:cmr12">wn</tspan></text>
<text
         id="text5534"
         transform="matrix(1,0,0,-1,51.0303,59.5352)"><tspan
           id="tspan5536"
           sodipodi:role="line"
           y="0"
           x="0 6.5035744 12.349618 15.601405"
           style="font-size:11.95510006px;font-variant:normal;font-weight:normal;font-stretch:normal;writing-mode:lr-tb;fill:#221814;fill-opacity:1;fill-rule:nonzero;stroke:none;font-family:cmr 12;-inkscape-font-specification:cmr12">hole</tspan></text>
<text
         id="text5538"
         transform="matrix(1,0,0,-1,59.5352,136.0713)"><tspan
           id="tspan5540"
           y="0"
           x="0"
           style="font-size:11.95510006px;font-variant:normal;font-weight:normal;font-stretch:normal;writing-mode:lr-tb;fill:#221814;fill-opacity:1;fill-rule:nonzero;stroke:none;font-family:cmr 12;-inkscape-font-specification:cmr12">0</tspan></text>
<text
         id="text5542"
         transform="matrix(1,0,0,-1,121.896,0)"><tspan
           id="tspan5544"
           y="0"
           x="0"
           style="font-size:11.95510006px;font-variant:normal;font-weight:normal;font-stretch:normal;writing-mode:lr-tb;fill:#221814;fill-opacity:1;fill-rule:nonzero;stroke:none;font-family:cmr 12;-inkscape-font-specification:cmr12">d</tspan></text>
<text
         id="text5546"
         transform="matrix(1,0,0,-1,128.3994,0)"><tspan
           id="tspan5548"
           y="0"
           x="0"
           style="font-size:11.95510006px;font-variant:normal;font-weight:normal;font-stretch:normal;writing-mode:lr-tb;fill:#221814;fill-opacity:1;fill-rule:nonzero;stroke:none;font-family:cmr 12;-inkscape-font-specification:cmr12">o</tspan></text>
<text
         id="text5550"
         transform="matrix(1,0,0,-1,133.9414,0)"><tspan
           id="tspan5552"
           sodipodi:role="line"
           y="0"
           x="0 8.4522552"
           style="font-size:11.95510006px;font-variant:normal;font-weight:normal;font-stretch:normal;writing-mode:lr-tb;fill:#221814;fill-opacity:1;fill-rule:nonzero;stroke:none;font-family:cmr 12;-inkscape-font-specification:cmr12">wn</tspan></text>
<text
         id="text5554"
         transform="matrix(1,0,0,-1,327.8975,85.9951)"><tspan
           id="tspan5556"
           sodipodi:role="line"
           y="0"
           x="0 4.554893 7.8066802"
           style="font-size:11.95510006px;font-variant:normal;font-weight:normal;font-stretch:normal;writing-mode:lr-tb;fill:#221814;fill-opacity:1;fill-rule:nonzero;stroke:none;font-family:cmr 12;-inkscape-font-specification:cmr12">rig</tspan></text>
<text
         id="text5558"
         transform="matrix(1,0,0,-1,341.5537,85.9951)"><tspan
           id="tspan5560"
           y="0"
           x="0"
           style="font-size:11.95510006px;font-variant:normal;font-weight:normal;font-stretch:normal;writing-mode:lr-tb;fill:#221814;fill-opacity:1;fill-rule:nonzero;stroke:none;font-family:cmr 12;-inkscape-font-specification:cmr12">h</tspan></text>
<text
         id="text5562"
         transform="matrix(1,0,0,-1,347.7461,85.9951)"><tspan
           id="tspan5564"
           y="0"
           x="0"
           style="font-size:11.95510006px;font-variant:normal;font-weight:normal;font-stretch:normal;writing-mode:lr-tb;fill:#221814;fill-opacity:1;fill-rule:nonzero;stroke:none;font-family:cmr 12;-inkscape-font-specification:cmr12">t</tspan></text>
<text
         id="text5566"
         transform="matrix(1,0,0,-1,328.8428,328.8418)"><tspan
           id="tspan5568"
           y="0"
           x="0"
           style="font-size:11.95510006px;font-variant:normal;font-weight:normal;font-stretch:normal;writing-mode:lr-tb;fill:#221814;fill-opacity:1;fill-rule:nonzero;stroke:none;font-family:cmr 12;-inkscape-font-specification:cmr12">6</tspan></text>
<text
         id="text5570"
         transform="matrix(1,0,0,-1,7.5605,171.9814)"><tspan
           id="tspan5572"
           y="0"
           x="0"
           style="font-size:11.95510006px;font-variant:normal;font-weight:normal;font-stretch:normal;writing-mode:lr-tb;fill:#221814;fill-opacity:1;fill-rule:nonzero;stroke:none;font-family:cmr 12;-inkscape-font-specification:cmr12">9</tspan></text>
<text
         id="text5574"
         transform="matrix(1,0,0,-1,11.3398,328.8418)"><tspan
           id="tspan5576"
           y="0"
           x="0"
           style="font-size:11.95510006px;font-variant:normal;font-weight:normal;font-stretch:normal;writing-mode:lr-tb;fill:#221814;fill-opacity:1;fill-rule:nonzero;stroke:none;font-family:cmr 12;-inkscape-font-specification:cmr12">8</tspan></text>
<text
         id="text5578"
         transform="matrix(1,0,0,-1,119.061,130.4014)"><tspan
           id="tspan5580"
           y="0"
           x="0"
           style="font-size:11.95510006px;font-variant:normal;font-weight:normal;font-stretch:normal;writing-mode:lr-tb;fill:#221814;fill-opacity:1;fill-rule:nonzero;stroke:none;font-family:cmr 12;-inkscape-font-specification:cmr12">4</tspan></text>
<text
         id="text5582"
         transform="matrix(1,0,0,-1,2.835,96.3896)"><tspan
           id="tspan5584"
           sodipodi:role="line"
           y="0"
           x="0 5.8460441"
           style="font-size:11.95510006px;font-variant:normal;font-weight:normal;font-stretch:normal;writing-mode:lr-tb;fill:#221814;fill-opacity:1;fill-rule:nonzero;stroke:none;font-family:cmr 12;-inkscape-font-specification:cmr12">10</tspan></text>
<text
         id="text5586"
         transform="matrix(1,0,0,-1,170.0913,11.3398)"><tspan
           id="tspan5588"
           y="0"
           x="0"
           style="font-size:11.95510006px;font-variant:normal;font-weight:normal;font-stretch:normal;writing-mode:lr-tb;fill:#221814;fill-opacity:1;fill-rule:nonzero;stroke:none;font-family:cmr 12;-inkscape-font-specification:cmr12">1</tspan></text>
<text
         id="text5590"
         transform="matrix(1,0,0,-1,93.5459,11.3398)"><tspan
           id="tspan5592"
           y="0"
           x="0"
           style="font-size:11.95510006px;font-variant:normal;font-weight:normal;font-stretch:normal;writing-mode:lr-tb;fill:#221814;fill-opacity:1;fill-rule:nonzero;stroke:none;font-family:cmr 12;-inkscape-font-specification:cmr12">0</tspan></text>
<text
         id="text5594"
         transform="matrix(1,0,0,-1,323.1709,11.3398)"><tspan
           id="tspan5596"
           y="0"
           x="0"
           style="font-size:11.95510006px;font-variant:normal;font-weight:normal;font-stretch:normal;writing-mode:lr-tb;fill:#221814;fill-opacity:1;fill-rule:nonzero;stroke:none;font-family:cmr 12;-inkscape-font-specification:cmr12">2</tspan></text>
<text
         id="text5598"
         transform="matrix(1,0,0,-1,68.0396,70.875)"><tspan
           id="tspan5600"
           y="0"
           x="0"
           style="font-size:11.95510006px;font-variant:normal;font-weight:normal;font-stretch:normal;writing-mode:lr-tb;fill:#221814;fill-opacity:1;fill-rule:nonzero;stroke:none;font-family:cmr 12;-inkscape-font-specification:cmr12">5</tspan></text>
<text
         id="text5602"
         transform="matrix(1,0,0,-1,236.8711,83.79)"><tspan
           id="tspan5604"
           y="0"
           x="0"
           style="font-size:11.95510006px;font-variant:normal;font-weight:normal;font-stretch:normal;writing-mode:lr-tb;fill:#221814;fill-opacity:1;fill-rule:nonzero;stroke:none;font-family:cmr 12;-inkscape-font-specification:cmr12">2</tspan></text>
<text
         id="text5606"
         transform="matrix(1,0,0,-1,125.3608,70.2451)"><tspan
           id="tspan5608"
           y="0"
           x="0"
           style="font-size:11.95510006px;font-variant:normal;font-weight:normal;font-stretch:normal;writing-mode:lr-tb;fill:#221814;fill-opacity:1;fill-rule:nonzero;stroke:none;font-family:cmr 12;-inkscape-font-specification:cmr12">1</tspan></text>
<text
         id="text5610"
         transform="matrix(1,0,0,-1,220.1797,231.2012)"><tspan
           id="tspan5612"
           y="0"
           x="0"
           style="font-size:11.95510006px;font-variant:normal;font-weight:normal;font-stretch:normal;writing-mode:lr-tb;fill:#221814;fill-opacity:1;fill-rule:nonzero;stroke:none;font-family:cmr 12;-inkscape-font-specification:cmr12">3</tspan></text>
<text
         id="text5614"
         transform="matrix(1,0,0,-1,59.5352,231.2012)"><tspan
           id="tspan5616"
           y="0"
           x="0"
           style="font-size:11.95510006px;font-variant:normal;font-weight:normal;font-stretch:normal;writing-mode:lr-tb;fill:#221814;fill-opacity:1;fill-rule:nonzero;stroke:none;font-family:cmr 12;-inkscape-font-specification:cmr12">4</tspan></text>
</g></g></svg>