<?xml version="1.0" encoding="UTF-8" standalone="no"?>
<!-- Created with Inkscape (http://www.inkscape.org/) -->
<svg
   xmlns:dc="http://purl.org/dc/elements/1.1/"
   xmlns:cc="http://creativecommons.org/ns#"
   xmlns:rdf="http://www.w3.org/1999/02/22-rdf-syntax-ns#"
   xmlns:svg="http://www.w3.org/2000/svg"
   xmlns="http://www.w3.org/2000/svg"
   xmlns:sodipodi="http://sodipodi.sourceforge.net/DTD/sodipodi-0.dtd"
   xmlns:inkscape="http://www.inkscape.org/namespaces/inkscape"
   id="svg4303"
   sodipodi:version="0.32"
   inkscape:version="0.46"
   width="515.25732"
   height="334.20615"
   xml:space="preserve"
   sodipodi:docname="fig-2-15.svg"
   version="1.0"
   inkscape:output_extension="org.inkscape.output.svg.inkscape"><metadata
     id="metadata4308"><rdf:RDF><cc:Work
         rdf:about=""><dc:format>image/svg+xml</dc:format><dc:type
           rdf:resource="http://purl.org/dc/dcmitype/StillImage" /></cc:Work></rdf:RDF></metadata><defs
     id="defs4306"><inkscape:perspective
       sodipodi:type="inkscape:persp3d"
       inkscape:vp_x="0 : 526.18109 : 1"
       inkscape:vp_y="0 : 1000 : 0"
       inkscape:vp_z="744.09448 : 526.18109 : 1"
       inkscape:persp3d-origin="372.04724 : 350.78739 : 1"
       id="perspective4310" /><clipPath
       clipPathUnits="userSpaceOnUse"
       id="clipPath4326"><path
         d="M 0,0 L 294,0 L 294,267 L 0,267 L 0,0 z"
         id="path4328" /></clipPath><clipPath
       clipPathUnits="userSpaceOnUse"
       id="clipPath4336"><path
         d="M 0,0 L 294,0 L 294,267 L 0,267 L 0,0 z M 291.579,112.851 L 291.579,116.063 L 283.202,116.063 L 289.627,114.425 L 283.202,112.851 L 291.579,112.851 z"
         clip-rule="evenodd"
         id="path4338" /></clipPath><clipPath
       clipPathUnits="userSpaceOnUse"
       id="clipPath4346"><path
         d="M 0,0 L 294,0 L 294,267 L 0,267 L 0,0 z"
         id="path4348" /></clipPath><clipPath
       clipPathUnits="userSpaceOnUse"
       id="clipPath4358"><path
         d="M 0,0 L 294,0 L 294,267 L 0,267 L 0,0 z M 291.579,82.804 L 291.579,86.017 L 283.202,86.017 L 289.627,84.379 L 283.202,82.804 L 291.579,82.804 z"
         clip-rule="evenodd"
         id="path4360" /></clipPath><clipPath
       clipPathUnits="userSpaceOnUse"
       id="clipPath4368"><path
         d="M 0,0 L 294,0 L 294,267 L 0,267 L 0,0 z"
         id="path4370" /></clipPath><clipPath
       clipPathUnits="userSpaceOnUse"
       id="clipPath4380"><path
         d="M 0,0 L 294,0 L 294,267 L 0,267 L 0,0 z M 291.579,22.774 L 291.579,25.986 L 283.202,25.986 L 289.627,24.349 L 283.202,22.774 L 291.579,22.774 z"
         clip-rule="evenodd"
         id="path4382" /></clipPath><clipPath
       clipPathUnits="userSpaceOnUse"
       id="clipPath4390"><path
         d="M 0,0 L 294,0 L 294,267 L 0,267 L 0,0 z"
         id="path4392" /></clipPath><clipPath
       clipPathUnits="userSpaceOnUse"
       id="clipPath4402"><path
         d="M 0,0 L 294,0 L 294,267 L 0,267 L 0,0 z M 291.579,52.82 L 291.579,56.032 L 283.202,56.032 L 289.627,54.396 L 283.202,52.82 L 291.579,52.82 z"
         clip-rule="evenodd"
         id="path4404" /></clipPath><clipPath
       clipPathUnits="userSpaceOnUse"
       id="clipPath4412"><path
         d="M 0,0 L 294,0 L 294,267 L 0,267 L 0,0 z"
         id="path4414" /></clipPath><clipPath
       clipPathUnits="userSpaceOnUse"
       id="clipPath4424"><path
         d="M 0,0 L 294,0 L 294,267 L 0,267 L 0,0 z M 291.579,262.828 L 291.579,266.041 L 283.202,266.041 L 289.627,264.404 L 283.202,262.828 L 291.579,262.828 z"
         clip-rule="evenodd"
         id="path4426" /></clipPath><clipPath
       clipPathUnits="userSpaceOnUse"
       id="clipPath4434"><path
         d="M 0,0 L 294,0 L 294,267 L 0,267 L 0,0 z"
         id="path4436" /></clipPath><clipPath
       clipPathUnits="userSpaceOnUse"
       id="clipPath4446"><path
         d="M 0,0 L 294,0 L 294,267 L 0,267 L 0,0 z M 291.579,234.043 L 291.579,237.256 L 283.202,237.256 L 289.627,235.617 L 283.202,234.043 L 291.579,234.043 z"
         clip-rule="evenodd"
         id="path4448" /></clipPath><clipPath
       clipPathUnits="userSpaceOnUse"
       id="clipPath4456"><path
         d="M 0,0 L 294,0 L 294,267 L 0,267 L 0,0 z"
         id="path4458" /></clipPath><clipPath
       clipPathUnits="userSpaceOnUse"
       id="clipPath4468"><path
         d="M 0,0 L 294,0 L 294,267 L 0,267 L 0,0 z M 291.579,205.193 L 291.579,208.406 L 283.202,208.406 L 289.627,206.769 L 283.202,205.193 L 291.579,205.193 z"
         clip-rule="evenodd"
         id="path4470" /></clipPath><clipPath
       clipPathUnits="userSpaceOnUse"
       id="clipPath4478"><path
         d="M 0,0 L 294,0 L 294,267 L 0,267 L 0,0 z"
         id="path4480" /></clipPath><clipPath
       clipPathUnits="userSpaceOnUse"
       id="clipPath4490"><path
         d="M 0,0 L 294,0 L 294,267 L 0,267 L 0,0 z M 291.579,142.771 L 291.579,145.982 L 283.202,145.982 L 289.627,144.345 L 283.202,142.771 L 291.579,142.771 z"
         clip-rule="evenodd"
         id="path4492" /></clipPath><clipPath
       clipPathUnits="userSpaceOnUse"
       id="clipPath4500"><path
         d="M 0,0 L 294,0 L 294,267 L 0,267 L 0,0 z"
         id="path4502" /></clipPath><clipPath
       clipPathUnits="userSpaceOnUse"
       id="clipPath4512"><path
         d="M 0,0 L 294,0 L 294,267 L 0,267 L 0,0 z M 291.579,174.014 L 291.579,177.226 L 283.202,177.226 L 289.627,175.588 L 283.202,174.014 L 291.579,174.014 z"
         clip-rule="evenodd"
         id="path4514" /></clipPath><clipPath
       clipPathUnits="userSpaceOnUse"
       id="clipPath4522"><path
         d="M 0,0 L 294,0 L 294,267 L 0,267 L 0,0 z"
         id="path4524" /></clipPath><clipPath
       clipPathUnits="userSpaceOnUse"
       id="clipPath4538"><path
         d="M 0,0 L 294,0 L 294,267 L 0,267 L 0,0 z M 166.796,142.771 L 166.796,145.982 L 158.418,145.982 L 164.843,144.345 L 158.418,142.771 L 166.796,142.771 z M 148.214,164.502 L 145.002,164.502 L 145.002,156.188 L 146.639,162.549 L 148.214,156.188 L 148.214,164.502 z"
         clip-rule="evenodd"
         id="path4540" /></clipPath><clipPath
       clipPathUnits="userSpaceOnUse"
       id="clipPath4548"><path
         d="M 0,0 L 294,0 L 294,267 L 0,267 L 0,0 z"
         id="path4550" /></clipPath><clipPath
       clipPathUnits="userSpaceOnUse"
       id="clipPath4564"><path
         d="M 0,0 L 294,0 L 294,267 L 0,267 L 0,0 z M 122.389,122.487 L 124.656,120.22 L 130.514,126.078 L 124.908,122.677 L 128.309,128.346 L 122.389,122.487 z M 148.402,143.903 L 146.137,146.172 L 140.277,140.313 L 145.945,143.651 L 142.482,138.046 L 148.402,143.903 z"
         clip-rule="evenodd"
         id="path4566" /></clipPath><clipPath
       clipPathUnits="userSpaceOnUse"
       id="clipPath4574"><path
         d="M 0,0 L 294,0 L 294,267 L 0,267 L 0,0 z"
         id="path4576" /></clipPath><clipPath
       clipPathUnits="userSpaceOnUse"
       id="clipPath4592"><path
         d="M 0,0 L 294,0 L 294,267 L 0,267 L 0,0 z M 267.58,10.807 L 267.58,14.019 L 259.202,14.019 L 265.627,12.381 L 259.202,10.807 L 267.58,10.807 z M 25.698,14.019 L 25.698,10.807 L 34.014,10.807 L 27.65,12.381 L 34.014,14.019 L 25.698,14.019 z"
         clip-rule="evenodd"
         id="path4594" /></clipPath><clipPath
       clipPathUnits="userSpaceOnUse"
       id="clipPath4602"><path
         d="M 0,0 L 294,0 L 294,267 L 0,267 L 0,0 z"
         id="path4604" /></clipPath><clipPath
       clipPathUnits="userSpaceOnUse"
       id="clipPath4618"><path
         d="M 0,0 L 294,0 L 294,267 L 0,267 L 0,0 z M 1.637,116.063 L 1.637,112.851 L 9.951,112.851 L 3.589,114.425 L 9.951,116.063 L 1.637,116.063 z"
         clip-rule="evenodd"
         id="path4620" /></clipPath><clipPath
       clipPathUnits="userSpaceOnUse"
       id="clipPath4628"><path
         d="M 0,0 L 294,0 L 294,267 L 0,267 L 0,0 z"
         id="path4630" /></clipPath><clipPath
       clipPathUnits="userSpaceOnUse"
       id="clipPath4640"><path
         d="M 0,0 L 294,0 L 294,267 L 0,267 L 0,0 z M 1.637,86.017 L 1.637,82.804 L 9.951,82.804 L 3.589,84.379 L 9.951,86.017 L 1.637,86.017 z"
         clip-rule="evenodd"
         id="path4642" /></clipPath><clipPath
       clipPathUnits="userSpaceOnUse"
       id="clipPath4650"><path
         d="M 0,0 L 294,0 L 294,267 L 0,267 L 0,0 z"
         id="path4652" /></clipPath><clipPath
       clipPathUnits="userSpaceOnUse"
       id="clipPath4662"><path
         d="M 0,0 L 294,0 L 294,267 L 0,267 L 0,0 z M 1.637,56.032 L 1.637,52.82 L 9.951,52.82 L 3.589,54.396 L 9.951,56.032 L 1.637,56.032 z"
         clip-rule="evenodd"
         id="path4664" /></clipPath><clipPath
       clipPathUnits="userSpaceOnUse"
       id="clipPath4672"><path
         d="M 0,0 L 294,0 L 294,267 L 0,267 L 0,0 z"
         id="path4674" /></clipPath><clipPath
       clipPathUnits="userSpaceOnUse"
       id="clipPath4684"><path
         d="M 0,0 L 294,0 L 294,267 L 0,267 L 0,0 z M 1.637,266.041 L 1.637,262.828 L 9.951,262.828 L 3.589,264.404 L 9.951,266.041 L 1.637,266.041 z"
         clip-rule="evenodd"
         id="path4686" /></clipPath><clipPath
       clipPathUnits="userSpaceOnUse"
       id="clipPath4694"><path
         d="M 0,0 L 294,0 L 294,267 L 0,267 L 0,0 z"
         id="path4696" /></clipPath><clipPath
       clipPathUnits="userSpaceOnUse"
       id="clipPath4706"><path
         d="M 0,0 L 294,0 L 294,267 L 0,267 L 0,0 z M 1.637,237.256 L 1.637,234.043 L 9.951,234.043 L 3.589,235.617 L 9.951,237.256 L 1.637,237.256 z"
         clip-rule="evenodd"
         id="path4708" /></clipPath><clipPath
       clipPathUnits="userSpaceOnUse"
       id="clipPath4716"><path
         d="M 0,0 L 294,0 L 294,267 L 0,267 L 0,0 z"
         id="path4718" /></clipPath><clipPath
       clipPathUnits="userSpaceOnUse"
       id="clipPath4728"><path
         d="M 0,0 L 294,0 L 294,267 L 0,267 L 0,0 z M 1.637,208.406 L 1.637,205.193 L 9.951,205.193 L 3.589,206.769 L 9.951,208.406 L 1.637,208.406 z"
         clip-rule="evenodd"
         id="path4730" /></clipPath><clipPath
       clipPathUnits="userSpaceOnUse"
       id="clipPath4738"><path
         d="M 0,0 L 294,0 L 294,267 L 0,267 L 0,0 z"
         id="path4740" /></clipPath><clipPath
       clipPathUnits="userSpaceOnUse"
       id="clipPath4750"><path
         d="M 0,0 L 294,0 L 294,267 L 0,267 L 0,0 z M 1.637,145.982 L 1.637,142.771 L 9.951,142.771 L 3.589,144.345 L 9.951,145.982 L 1.637,145.982 z"
         clip-rule="evenodd"
         id="path4752" /></clipPath><clipPath
       clipPathUnits="userSpaceOnUse"
       id="clipPath4760"><path
         d="M 0,0 L 294,0 L 294,267 L 0,267 L 0,0 z"
         id="path4762" /></clipPath><clipPath
       clipPathUnits="userSpaceOnUse"
       id="clipPath4772"><path
         d="M 0,0 L 294,0 L 294,267 L 0,267 L 0,0 z M 1.637,177.226 L 1.637,174.014 L 9.951,174.014 L 3.589,175.588 L 9.951,177.226 L 1.637,177.226 z"
         clip-rule="evenodd"
         id="path4774" /></clipPath><clipPath
       clipPathUnits="userSpaceOnUse"
       id="clipPath4782"><path
         d="M 0,0 L 294,0 L 294,267 L 0,267 L 0,0 z"
         id="path4784" /></clipPath><clipPath
       clipPathUnits="userSpaceOnUse"
       id="clipPath4794"><path
         d="M 0,0 L 294,0 L 294,267 L 0,267 L 0,0 z M 1.637,25.986 L 1.637,22.774 L 9.951,22.774 L 3.589,24.349 L 9.951,25.986 L 1.637,25.986 z"
         clip-rule="evenodd"
         id="path4796" /></clipPath><clipPath
       clipPathUnits="userSpaceOnUse"
       id="clipPath4804"><path
         d="M 0,0 L 294,0 L 294,267 L 0,267 L 0,0 z"
         id="path4806" /></clipPath></defs><sodipodi:namedview
     inkscape:window-height="722"
     inkscape:window-width="789"
     inkscape:pageshadow="2"
     inkscape:pageopacity="0.0"
     guidetolerance="10.0"
     gridtolerance="10.0"
     objecttolerance="10.0"
     borderopacity="1.0"
     bordercolor="#666666"
     pagecolor="#ffffff"
     id="base"
     showgrid="false"
     inkscape:zoom="1.046624"
     inkscape:cx="201.09414"
     inkscape:cy="194.29988"
     inkscape:window-x="0"
     inkscape:window-y="25"
     inkscape:current-layer="g4312" /><g
     id="g4312"
     inkscape:groupmode="layer"
     inkscape:label="fig-2-15"
     transform="matrix(1.25,0,0,-1.25,75.078546,332.84625)"><g
       clip-path="none"
       id="g4316"><g
         id="g4322"><g
           clip-path="url(#clipPath4326)"
           id="g4324"><path
             id="path4330"
             style="fill:#808080;fill-opacity:1;fill-rule:evenodd;stroke:none"
             d="M 146.639,144.345 L 266.635,144.345 L 266.635,264.405 L 146.639,264.405 L 146.639,144.345 z" /></g></g><g
         id="g4332"><g
           clip-path="url(#clipPath4336)"
           id="g4334"><path
             id="path4340"
             style="fill:none;stroke:#000000;stroke-width:0.472;stroke-linecap:butt;stroke-linejoin:miter;stroke-miterlimit:10;stroke-dasharray:none;stroke-opacity:1"
             d="M 266.635,114.425 L 290.634,114.425" /></g></g><g
         id="g4342"><g
           clip-path="url(#clipPath4346)"
           id="g4344"><path
             id="path4350"
             style="fill:#000000;fill-opacity:1;fill-rule:evenodd;stroke:none"
             d="M 283.202,112.851 L 289.627,114.425 L 283.202,116.063 L 283.202,112.851 z" /><path
             id="path4352"
             style="fill:none;stroke:#000000;stroke-width:0.472;stroke-linecap:butt;stroke-linejoin:miter;stroke-miterlimit:10;stroke-dasharray:none;stroke-opacity:1"
             d="M 283.202,112.851 L 289.627,114.425 L 283.202,116.063 L 283.202,112.851 z" /></g></g><g
         id="g4354"><g
           clip-path="url(#clipPath4358)"
           id="g4356"><path
             id="path4362"
             style="fill:none;stroke:#000000;stroke-width:0.472;stroke-linecap:butt;stroke-linejoin:miter;stroke-miterlimit:10;stroke-dasharray:none;stroke-opacity:1"
             d="M 266.635,84.379 L 290.634,84.379" /></g></g><g
         id="g4364"><g
           clip-path="url(#clipPath4368)"
           id="g4366"><path
             id="path4372"
             style="fill:#000000;fill-opacity:1;fill-rule:evenodd;stroke:none"
             d="M 283.202,82.804 L 289.627,84.379 L 283.202,86.017 L 283.202,82.804 z" /><path
             id="path4374"
             style="fill:none;stroke:#000000;stroke-width:0.472;stroke-linecap:butt;stroke-linejoin:miter;stroke-miterlimit:10;stroke-dasharray:none;stroke-opacity:1"
             d="M 283.202,82.804 L 289.627,84.379 L 283.202,86.017 L 283.202,82.804 z" /></g></g><g
         id="g4376"><g
           clip-path="url(#clipPath4380)"
           id="g4378"><path
             id="path4384"
             style="fill:none;stroke:#000000;stroke-width:0.472;stroke-linecap:butt;stroke-linejoin:miter;stroke-miterlimit:10;stroke-dasharray:none;stroke-opacity:1"
             d="M 266.635,24.349 L 290.634,24.349" /></g></g><g
         id="g4386"><g
           clip-path="url(#clipPath4390)"
           id="g4388"><path
             id="path4394"
             style="fill:#000000;fill-opacity:1;fill-rule:evenodd;stroke:none"
             d="M 283.202,22.774 L 289.627,24.349 L 283.202,25.986 L 283.202,22.774 z" /><path
             id="path4396"
             style="fill:none;stroke:#000000;stroke-width:0.472;stroke-linecap:butt;stroke-linejoin:miter;stroke-miterlimit:10;stroke-dasharray:none;stroke-opacity:1"
             d="M 283.202,22.774 L 289.627,24.349 L 283.202,25.986 L 283.202,22.774 z" /></g></g><g
         id="g4398"><g
           clip-path="url(#clipPath4402)"
           id="g4400"><path
             id="path4406"
             style="fill:none;stroke:#000000;stroke-width:0.472;stroke-linecap:butt;stroke-linejoin:miter;stroke-miterlimit:10;stroke-dasharray:none;stroke-opacity:1"
             d="M 266.635,54.396 L 290.634,54.396" /></g></g><g
         id="g4408"><g
           clip-path="url(#clipPath4412)"
           id="g4410"><path
             id="path4416"
             style="fill:#000000;fill-opacity:1;fill-rule:evenodd;stroke:none"
             d="M 283.202,52.82 L 289.627,54.396 L 283.202,56.032 L 283.202,52.82 z" /><path
             id="path4418"
             style="fill:none;stroke:#000000;stroke-width:0.472;stroke-linecap:butt;stroke-linejoin:miter;stroke-miterlimit:10;stroke-dasharray:none;stroke-opacity:1"
             d="M 283.202,52.82 L 289.627,54.396 L 283.202,56.032 L 283.202,52.82 z" /></g></g><g
         id="g4420"><g
           clip-path="url(#clipPath4424)"
           id="g4422"><path
             id="path4428"
             style="fill:none;stroke:#000000;stroke-width:0.472;stroke-linecap:butt;stroke-linejoin:miter;stroke-miterlimit:10;stroke-dasharray:none;stroke-opacity:1"
             d="M 266.635,264.404 L 290.634,264.404" /></g></g><g
         id="g4430"><g
           clip-path="url(#clipPath4434)"
           id="g4432"><path
             id="path4438"
             style="fill:#000000;fill-opacity:1;fill-rule:evenodd;stroke:none"
             d="M 283.202,262.828 L 289.627,264.404 L 283.202,266.041 L 283.202,262.828 z" /><path
             id="path4440"
             style="fill:none;stroke:#000000;stroke-width:0.472;stroke-linecap:butt;stroke-linejoin:miter;stroke-miterlimit:10;stroke-dasharray:none;stroke-opacity:1"
             d="M 283.202,262.828 L 289.627,264.404 L 283.202,266.041 L 283.202,262.828 z" /></g></g><g
         id="g4442"><g
           clip-path="url(#clipPath4446)"
           id="g4444"><path
             id="path4450"
             style="fill:none;stroke:#000000;stroke-width:0.472;stroke-linecap:butt;stroke-linejoin:miter;stroke-miterlimit:10;stroke-dasharray:none;stroke-opacity:1"
             d="M 266.635,235.617 L 290.634,235.617" /></g></g><g
         id="g4452"><g
           clip-path="url(#clipPath4456)"
           id="g4454"><path
             id="path4460"
             style="fill:#000000;fill-opacity:1;fill-rule:evenodd;stroke:none"
             d="M 283.202,234.043 L 289.627,235.617 L 283.202,237.256 L 283.202,234.043 z" /><path
             id="path4462"
             style="fill:none;stroke:#000000;stroke-width:0.472;stroke-linecap:butt;stroke-linejoin:miter;stroke-miterlimit:10;stroke-dasharray:none;stroke-opacity:1"
             d="M 283.202,234.043 L 289.627,235.617 L 283.202,237.256 L 283.202,234.043 z" /></g></g><g
         id="g4464"><g
           clip-path="url(#clipPath4468)"
           id="g4466"><path
             id="path4472"
             style="fill:none;stroke:#000000;stroke-width:0.472;stroke-linecap:butt;stroke-linejoin:miter;stroke-miterlimit:10;stroke-dasharray:none;stroke-opacity:1"
             d="M 266.635,206.769 L 290.634,206.769" /></g></g><g
         id="g4474"><g
           clip-path="url(#clipPath4478)"
           id="g4476"><path
             id="path4482"
             style="fill:#000000;fill-opacity:1;fill-rule:evenodd;stroke:none"
             d="M 283.202,205.193 L 289.627,206.769 L 283.202,208.406 L 283.202,205.193 z" /><path
             id="path4484"
             style="fill:none;stroke:#000000;stroke-width:0.472;stroke-linecap:butt;stroke-linejoin:miter;stroke-miterlimit:10;stroke-dasharray:none;stroke-opacity:1"
             d="M 283.202,205.193 L 289.627,206.769 L 283.202,208.406 L 283.202,205.193 z" /></g></g><g
         id="g4486"><g
           clip-path="url(#clipPath4490)"
           id="g4488"><path
             id="path4494"
             style="fill:none;stroke:#000000;stroke-width:0.472;stroke-linecap:butt;stroke-linejoin:miter;stroke-miterlimit:10;stroke-dasharray:none;stroke-opacity:1"
             d="M 266.635,144.345 L 290.634,144.345" /></g></g><g
         id="g4496"><g
           clip-path="url(#clipPath4500)"
           id="g4498"><path
             id="path4504"
             style="fill:#000000;fill-opacity:1;fill-rule:evenodd;stroke:none"
             d="M 283.202,142.771 L 289.627,144.345 L 283.202,145.982 L 283.202,142.771 z" /><path
             id="path4506"
             style="fill:none;stroke:#000000;stroke-width:0.472;stroke-linecap:butt;stroke-linejoin:miter;stroke-miterlimit:10;stroke-dasharray:none;stroke-opacity:1"
             d="M 283.202,142.771 L 289.627,144.345 L 283.202,145.982 L 283.202,142.771 z" /></g></g><g
         id="g4508"><g
           clip-path="url(#clipPath4512)"
           id="g4510"><path
             id="path4516"
             style="fill:none;stroke:#000000;stroke-width:0.472;stroke-linecap:butt;stroke-linejoin:miter;stroke-miterlimit:10;stroke-dasharray:none;stroke-opacity:1"
             d="M 266.635,175.588 L 290.634,175.588" /></g></g><g
         id="g4518"><g
           clip-path="url(#clipPath4522)"
           id="g4520"><path
             id="path4526"
             style="fill:#000000;fill-opacity:1;fill-rule:evenodd;stroke:none"
             d="M 283.202,174.014 L 289.627,175.588 L 283.202,177.226 L 283.202,174.014 z" /><path
             id="path4528"
             style="fill:none;stroke:#000000;stroke-width:0.472;stroke-linecap:butt;stroke-linejoin:miter;stroke-miterlimit:10;stroke-dasharray:none;stroke-opacity:1"
             d="M 283.202,174.014 L 289.627,175.588 L 283.202,177.226 L 283.202,174.014 z" /><path
             id="path4530"
             style="fill:none;stroke:#000000;stroke-width:0.472;stroke-linecap:butt;stroke-linejoin:miter;stroke-miterlimit:10;stroke-dasharray:2.835, 2.835;stroke-dashoffset:0;stroke-opacity:1"
             d="M 146.639,264.404 L 146.639,24.349" /><path
             id="path4532"
             style="fill:none;stroke:#000000;stroke-width:0.472;stroke-linecap:butt;stroke-linejoin:miter;stroke-miterlimit:10;stroke-dasharray:2.835, 2.835;stroke-dashoffset:0;stroke-opacity:1"
             d="M 26.643,144.345 L 266.635,144.345" /></g></g><g
         id="g4534"><g
           clip-path="url(#clipPath4538)"
           id="g4536"><path
             id="path4542"
             style="fill:none;stroke:#000000;stroke-width:0.472;stroke-linecap:butt;stroke-linejoin:miter;stroke-miterlimit:10;stroke-dasharray:none;stroke-opacity:1"
             d="M 146.639,163.558 L 146.639,144.345 L 165.851,144.345" /></g></g><g
         id="g4544"><g
           clip-path="url(#clipPath4548)"
           id="g4546"><path
             id="path4552"
             style="fill:#000000;fill-opacity:1;fill-rule:evenodd;stroke:none"
             d="M 148.214,156.188 L 146.639,162.549 L 145.002,156.188 L 148.214,156.188 z" /><path
             id="path4554"
             style="fill:none;stroke:#000000;stroke-width:0.472;stroke-linecap:butt;stroke-linejoin:miter;stroke-miterlimit:10;stroke-dasharray:none;stroke-opacity:1"
             d="M 148.214,156.188 L 146.639,162.549 L 145.002,156.188 L 148.214,156.188 z" /><path
             id="path4556"
             style="fill:#000000;fill-opacity:1;fill-rule:evenodd;stroke:none"
             d="M 158.418,142.771 L 164.843,144.345 L 158.418,145.982 L 158.418,142.771 z" /><path
             id="path4558"
             style="fill:none;stroke:#000000;stroke-width:0.472;stroke-linecap:butt;stroke-linejoin:miter;stroke-miterlimit:10;stroke-dasharray:none;stroke-opacity:1"
             d="M 158.418,142.771 L 164.843,144.345 L 158.418,145.982 L 158.418,142.771 z" /></g></g><g
         id="g4560"><g
           clip-path="url(#clipPath4564)"
           id="g4562"><path
             id="path4568"
             style="fill:none;stroke:#000000;stroke-width:0.472;stroke-linecap:butt;stroke-linejoin:miter;stroke-miterlimit:10;stroke-dasharray:none;stroke-opacity:1"
             d="M 146.639,144.345 L 124.215,121.983" /></g></g><g
         id="g4570"><g
           clip-path="url(#clipPath4574)"
           id="g4572"><path
             id="path4578"
             style="fill:#000000;fill-opacity:1;fill-rule:evenodd;stroke:none"
             d="M 142.482,138.046 L 145.945,143.651 L 140.277,140.313 L 142.482,138.046 z" /><path
             id="path4580"
             style="fill:none;stroke:#000000;stroke-width:0.472;stroke-linecap:butt;stroke-linejoin:miter;stroke-miterlimit:10;stroke-dasharray:none;stroke-opacity:1"
             d="M 142.482,138.046 L 145.945,143.651 L 140.277,140.313 L 142.482,138.046 z" /><path
             id="path4582"
             style="fill:#000000;fill-opacity:1;fill-rule:evenodd;stroke:none"
             d="M 128.309,128.346 L 124.908,122.677 L 130.514,126.078 L 128.309,128.346 z" /><path
             id="path4584"
             style="fill:none;stroke:#000000;stroke-width:0.472;stroke-linecap:butt;stroke-linejoin:miter;stroke-miterlimit:10;stroke-dasharray:none;stroke-opacity:1"
             d="M 128.309,128.346 L 124.908,122.677 L 130.514,126.078 L 128.309,128.346 z" /><path
             id="path4586"
             style="fill:none;stroke:#000000;stroke-width:0.472;stroke-linecap:butt;stroke-linejoin:miter;stroke-miterlimit:10;stroke-dasharray:none;stroke-opacity:1"
             d="M 124.215,121.983 L 110.609,108.378" /></g></g><g
         id="g4588"><g
           clip-path="url(#clipPath4592)"
           id="g4590"><path
             id="path4596"
             style="fill:none;stroke:#000000;stroke-width:0.472;stroke-linecap:butt;stroke-linejoin:miter;stroke-miterlimit:10;stroke-dasharray:none;stroke-opacity:1"
             d="M 26.643,12.381 L 266.635,12.381" /></g></g><g
         id="g4598"><g
           clip-path="url(#clipPath4602)"
           id="g4600"><path
             id="path4606"
             style="fill:#000000;fill-opacity:1;fill-rule:evenodd;stroke:none"
             d="M 34.014,14.019 L 27.65,12.381 L 34.014,10.807 L 34.014,14.019 z" /><path
             id="path4608"
             style="fill:none;stroke:#000000;stroke-width:0.472;stroke-linecap:butt;stroke-linejoin:miter;stroke-miterlimit:10;stroke-dasharray:none;stroke-opacity:1"
             d="M 34.014,14.019 L 27.65,12.381 L 34.014,10.807 L 34.014,14.019 z" /><path
             id="path4610"
             style="fill:#000000;fill-opacity:1;fill-rule:evenodd;stroke:none"
             d="M 259.202,10.807 L 265.627,12.381 L 259.202,14.019 L 259.202,10.807 z" /><path
             id="path4612"
             style="fill:none;stroke:#000000;stroke-width:0.472;stroke-linecap:butt;stroke-linejoin:miter;stroke-miterlimit:10;stroke-dasharray:none;stroke-opacity:1"
             d="M 259.202,10.807 L 265.627,12.381 L 259.202,14.019 L 259.202,10.807 z" /></g></g><g
         id="g4614"><g
           clip-path="url(#clipPath4618)"
           id="g4616"><path
             id="path4622"
             style="fill:none;stroke:#000000;stroke-width:0.472;stroke-linecap:butt;stroke-linejoin:miter;stroke-miterlimit:10;stroke-dasharray:none;stroke-opacity:1"
             d="M 26.643,114.425 L 2.581,114.425" /></g></g><g
         id="g4624"><g
           clip-path="url(#clipPath4628)"
           id="g4626"><path
             id="path4632"
             style="fill:#000000;fill-opacity:1;fill-rule:evenodd;stroke:none"
             d="M 9.951,116.063 L 3.589,114.425 L 9.951,112.851 L 9.951,116.063 z" /><path
             id="path4634"
             style="fill:none;stroke:#000000;stroke-width:0.472;stroke-linecap:butt;stroke-linejoin:miter;stroke-miterlimit:10;stroke-dasharray:none;stroke-opacity:1"
             d="M 9.951,116.063 L 3.589,114.425 L 9.951,112.851 L 9.951,116.063 z" /></g></g><g
         id="g4636"><g
           clip-path="url(#clipPath4640)"
           id="g4638"><path
             id="path4644"
             style="fill:none;stroke:#000000;stroke-width:0.472;stroke-linecap:butt;stroke-linejoin:miter;stroke-miterlimit:10;stroke-dasharray:none;stroke-opacity:1"
             d="M 26.643,84.379 L 2.581,84.379" /></g></g><g
         id="g4646"><g
           clip-path="url(#clipPath4650)"
           id="g4648"><path
             id="path4654"
             style="fill:#000000;fill-opacity:1;fill-rule:evenodd;stroke:none"
             d="M 9.951,86.017 L 3.589,84.379 L 9.951,82.804 L 9.951,86.017 z" /><path
             id="path4656"
             style="fill:none;stroke:#000000;stroke-width:0.472;stroke-linecap:butt;stroke-linejoin:miter;stroke-miterlimit:10;stroke-dasharray:none;stroke-opacity:1"
             d="M 9.951,86.017 L 3.589,84.379 L 9.951,82.804 L 9.951,86.017 z" /></g></g><g
         id="g4658"><g
           clip-path="url(#clipPath4662)"
           id="g4660"><path
             id="path4666"
             style="fill:none;stroke:#000000;stroke-width:0.472;stroke-linecap:butt;stroke-linejoin:miter;stroke-miterlimit:10;stroke-dasharray:none;stroke-opacity:1"
             d="M 26.643,54.396 L 2.581,54.396" /></g></g><g
         id="g4668"><g
           clip-path="url(#clipPath4672)"
           id="g4670"><path
             id="path4676"
             style="fill:#000000;fill-opacity:1;fill-rule:evenodd;stroke:none"
             d="M 9.951,56.032 L 3.589,54.396 L 9.951,52.82 L 9.951,56.032 z" /><path
             id="path4678"
             style="fill:none;stroke:#000000;stroke-width:0.472;stroke-linecap:butt;stroke-linejoin:miter;stroke-miterlimit:10;stroke-dasharray:none;stroke-opacity:1"
             d="M 9.951,56.032 L 3.589,54.396 L 9.951,52.82 L 9.951,56.032 z" /></g></g><g
         id="g4680"><g
           clip-path="url(#clipPath4684)"
           id="g4682"><path
             id="path4688"
             style="fill:none;stroke:#000000;stroke-width:0.472;stroke-linecap:butt;stroke-linejoin:miter;stroke-miterlimit:10;stroke-dasharray:none;stroke-opacity:1"
             d="M 26.643,264.404 L 2.581,264.404" /></g></g><g
         id="g4690"><g
           clip-path="url(#clipPath4694)"
           id="g4692"><path
             id="path4698"
             style="fill:#000000;fill-opacity:1;fill-rule:evenodd;stroke:none"
             d="M 9.951,266.041 L 3.589,264.404 L 9.951,262.828 L 9.951,266.041 z" /><path
             id="path4700"
             style="fill:none;stroke:#000000;stroke-width:0.472;stroke-linecap:butt;stroke-linejoin:miter;stroke-miterlimit:10;stroke-dasharray:none;stroke-opacity:1"
             d="M 9.951,266.041 L 3.589,264.404 L 9.951,262.828 L 9.951,266.041 z" /></g></g><g
         id="g4702"><g
           clip-path="url(#clipPath4706)"
           id="g4704"><path
             id="path4710"
             style="fill:none;stroke:#000000;stroke-width:0.472;stroke-linecap:butt;stroke-linejoin:miter;stroke-miterlimit:10;stroke-dasharray:none;stroke-opacity:1"
             d="M 26.643,235.617 L 2.581,235.617" /></g></g><g
         id="g4712"><g
           clip-path="url(#clipPath4716)"
           id="g4714"><path
             id="path4720"
             style="fill:#000000;fill-opacity:1;fill-rule:evenodd;stroke:none"
             d="M 9.951,237.256 L 3.589,235.617 L 9.951,234.043 L 9.951,237.256 z" /><path
             id="path4722"
             style="fill:none;stroke:#000000;stroke-width:0.472;stroke-linecap:butt;stroke-linejoin:miter;stroke-miterlimit:10;stroke-dasharray:none;stroke-opacity:1"
             d="M 9.951,237.256 L 3.589,235.617 L 9.951,234.043 L 9.951,237.256 z" /></g></g><g
         id="g4724"><g
           clip-path="url(#clipPath4728)"
           id="g4726"><path
             id="path4732"
             style="fill:none;stroke:#000000;stroke-width:0.472;stroke-linecap:butt;stroke-linejoin:miter;stroke-miterlimit:10;stroke-dasharray:none;stroke-opacity:1"
             d="M 26.643,206.769 L 2.581,206.769" /></g></g><g
         id="g4734"><g
           clip-path="url(#clipPath4738)"
           id="g4736"><path
             id="path4742"
             style="fill:#000000;fill-opacity:1;fill-rule:evenodd;stroke:none"
             d="M 9.951,208.406 L 3.589,206.769 L 9.951,205.193 L 9.951,208.406 z" /><path
             id="path4744"
             style="fill:none;stroke:#000000;stroke-width:0.472;stroke-linecap:butt;stroke-linejoin:miter;stroke-miterlimit:10;stroke-dasharray:none;stroke-opacity:1"
             d="M 9.951,208.406 L 3.589,206.769 L 9.951,205.193 L 9.951,208.406 z" /></g></g><g
         id="g4746"><g
           clip-path="url(#clipPath4750)"
           id="g4748"><path
             id="path4754"
             style="fill:none;stroke:#000000;stroke-width:0.472;stroke-linecap:butt;stroke-linejoin:miter;stroke-miterlimit:10;stroke-dasharray:none;stroke-opacity:1"
             d="M 26.643,144.345 L 2.581,144.345" /></g></g><g
         id="g4756"><g
           clip-path="url(#clipPath4760)"
           id="g4758"><path
             id="path4764"
             style="fill:#000000;fill-opacity:1;fill-rule:evenodd;stroke:none"
             d="M 9.951,145.982 L 3.589,144.345 L 9.951,142.771 L 9.951,145.982 z" /><path
             id="path4766"
             style="fill:none;stroke:#000000;stroke-width:0.472;stroke-linecap:butt;stroke-linejoin:miter;stroke-miterlimit:10;stroke-dasharray:none;stroke-opacity:1"
             d="M 9.951,145.982 L 3.589,144.345 L 9.951,142.771 L 9.951,145.982 z" /></g></g><g
         id="g4768"><g
           clip-path="url(#clipPath4772)"
           id="g4770"><path
             id="path4776"
             style="fill:none;stroke:#000000;stroke-width:0.472;stroke-linecap:butt;stroke-linejoin:miter;stroke-miterlimit:10;stroke-dasharray:none;stroke-opacity:1"
             d="M 26.643,175.588 L 2.581,175.588" /></g></g><g
         id="g4778"><g
           clip-path="url(#clipPath4782)"
           id="g4780"><path
             id="path4786"
             style="fill:#000000;fill-opacity:1;fill-rule:evenodd;stroke:none"
             d="M 9.951,177.226 L 3.589,175.588 L 9.951,174.014 L 9.951,177.226 z" /><path
             id="path4788"
             style="fill:none;stroke:#000000;stroke-width:0.472;stroke-linecap:butt;stroke-linejoin:miter;stroke-miterlimit:10;stroke-dasharray:none;stroke-opacity:1"
             d="M 9.951,177.226 L 3.589,175.588 L 9.951,174.014 L 9.951,177.226 z" /></g></g><g
         id="g4790"><g
           clip-path="url(#clipPath4794)"
           id="g4792"><path
             id="path4798"
             style="fill:none;stroke:#000000;stroke-width:0.472;stroke-linecap:butt;stroke-linejoin:miter;stroke-miterlimit:10;stroke-dasharray:none;stroke-opacity:1"
             d="M 26.643,24.349 L 2.581,24.349" /></g></g><g
         id="g4800"><g
           clip-path="url(#clipPath4804)"
           id="g4802"><path
             id="path4808"
             style="fill:#000000;fill-opacity:1;fill-rule:evenodd;stroke:none"
             d="M 9.951,25.986 L 3.589,24.349 L 9.951,22.774 L 9.951,25.986 z" /><path
             id="path4810"
             style="fill:none;stroke:#000000;stroke-width:0.472;stroke-linecap:butt;stroke-linejoin:miter;stroke-miterlimit:10;stroke-dasharray:none;stroke-opacity:1"
             d="M 9.951,25.986 L 3.589,24.349 L 9.951,22.774 L 9.951,25.986 z" /><path
             id="path4812"
             style="fill:none;stroke:#000000;stroke-width:0.472;stroke-linecap:butt;stroke-linejoin:miter;stroke-miterlimit:10;stroke-dasharray:none;stroke-opacity:1"
             d="M 26.643,24.349 L 266.635,24.349 L 266.635,264.404 L 26.643,264.404 L 26.643,24.349 z" /><path
             id="path4814"
             style="fill:none;stroke:#000000;stroke-width:0.472;stroke-linecap:butt;stroke-linejoin:miter;stroke-miterlimit:10;stroke-dasharray:none;stroke-opacity:1"
             d="M 178.638,144.345 C 178.638,126.673 164.313,112.346 146.639,112.346 C 128.967,112.346 114.641,126.673 114.641,144.345 C 114.641,162.017 128.967,176.344 146.639,176.344 C 164.313,176.344 178.638,162.017 178.638,144.345 z" /></g></g><text
         id="text4816"
         transform="matrix(1,0,0,-1,156.043,134.4326)"><tspan
           id="tspan4818"
           y="0"
           x="0"
           style="font-size:9.96259975px;font-variant:normal;font-weight:normal;font-stretch:normal;writing-mode:lr-tb;fill:#000000;fill-opacity:1;fill-rule:nonzero;stroke:none;font-family:cmmi 10;-inkscape-font-specification:cmmi10">x</tspan></text>
<text
         id="text4820"
         transform="matrix(1,0,0,-1,38.4219,134.4326)"><tspan
           id="tspan4822"
           sodipodi:role="line"
           y="0"
           x="0 3.9252644 9.1855173 17.484364 25.783209 30.206604 34.082054"
           style="font-size:9.96259975px;font-variant:normal;font-weight:normal;font-stretch:normal;writing-mode:lr-tb;fill:#000000;fill-opacity:1;fill-rule:nonzero;stroke:none;font-family:cmr 10;-inkscape-font-specification:cmr10">symmetr</tspan></text>
<text
         id="text4824"
         transform="matrix(1,0,0,-1,76.418,134.4326)"><tspan
           id="tspan4826"
           y="0"
           x="0"
           style="font-size:9.96259975px;font-variant:normal;font-weight:normal;font-stretch:normal;writing-mode:lr-tb;fill:#000000;fill-opacity:1;fill-rule:nonzero;stroke:none;font-family:cmr 10;-inkscape-font-specification:cmr10">y</tspan></text>
<text
         id="text4828"
         transform="matrix(1,0,0,-1,85.0034,134.4326)"><tspan
           id="tspan4830"
           sodipodi:role="line"
           y="0"
           x="0 5.5392056 8.2988462 13.280146 18.819351"
           style="font-size:9.96259975px;font-variant:normal;font-weight:normal;font-stretch:normal;writing-mode:lr-tb;fill:#000000;fill-opacity:1;fill-rule:nonzero;stroke:none;font-family:cmr 10;-inkscape-font-specification:cmr10">plane</tspan></text>
<text
         id="text4832"
         transform="matrix(1,0,0,-1,134.4341,0)"><tspan
           id="tspan4834"
           sodipodi:role="line"
           y="0"
           x="0 5.8460441"
           style="font-size:11.95510006px;font-variant:normal;font-weight:normal;font-stretch:normal;writing-mode:lr-tb;fill:#000000;fill-opacity:1;fill-rule:nonzero;stroke:none;font-family:cmr 12;-inkscape-font-specification:cmr12">4.</tspan></text>
<text
         id="text4836"
         transform="matrix(1,0,0,-1,143.5381,0)"><tspan
           id="tspan4838"
           y="0"
           x="0"
           style="font-size:11.95510006px;font-variant:normal;font-weight:normal;font-stretch:normal;writing-mode:lr-tb;fill:#000000;fill-opacity:1;fill-rule:nonzero;stroke:none;font-family:cmr 12;-inkscape-font-specification:cmr12">0</tspan></text>
<text
         id="text4840"
         transform="matrix(1,0,0,-1,153.2881,0)"><tspan
           id="tspan4842"
           y="0"
           x="0"
           style="font-size:11.95510006px;font-variant:normal;font-weight:normal;font-stretch:normal;writing-mode:lr-tb;fill:#000000;fill-opacity:1;fill-rule:nonzero;stroke:none;font-family:cmr 12;-inkscape-font-specification:cmr12">m</tspan></text>
<text
         id="text4844"
         transform="matrix(1,0,0,-1,136.0718,155.916)"><tspan
           id="tspan4846"
           y="0"
           x="0"
           style="font-size:11.95510006px;font-variant:normal;font-weight:normal;font-stretch:normal;writing-mode:lr-tb;fill:#000000;fill-opacity:1;fill-rule:nonzero;stroke:none;font-family:cmmi 12;-inkscape-font-specification:cmmi12">y</tspan></text>
<text
         id="text4848"
         transform="matrix(1,0,0,-1,292.8701,141.6152)"><tspan
           id="tspan4850"
           y="0"
           x="0"
           style="font-size:11.95510006px;font-variant:normal;font-weight:normal;font-stretch:normal;writing-mode:lr-tb;fill:#221814;fill-opacity:1;fill-rule:nonzero;stroke:none;font-family:cmmi 12;-inkscape-font-specification:cmmi12">σ</tspan></text>
<text
         id="text4852"
         transform="matrix(1,0,0,-1,303.2754,141.6152)"><tspan
           id="tspan4854"
           y="0"
           x="0"
           style="font-size:11.95510006px;font-variant:normal;font-weight:normal;font-stretch:normal;writing-mode:lr-tb;fill:#000000;fill-opacity:1;fill-rule:nonzero;stroke:none;font-family:cmr 12;-inkscape-font-specification:cmr12">=</tspan></text>
<text
         id="text4856"
         transform="matrix(1,0,0,-1,316.2773,141.6152)"><tspan
           id="tspan4858"
           y="0"
           x="0"
           style="font-size:11.95510006px;font-variant:normal;font-weight:normal;font-stretch:normal;writing-mode:lr-tb;fill:#000000;fill-opacity:1;fill-rule:nonzero;stroke:none;font-family:cmr 12;-inkscape-font-specification:cmr12">1</tspan></text>
<text
         id="text4860"
         transform="matrix(1,0,0,-1,322.1299,141.6152)"><tspan
           id="tspan4862"
           y="0"
           x="0"
           style="font-size:11.95510006px;font-variant:normal;font-weight:normal;font-stretch:normal;writing-mode:lr-tb;fill:#000000;fill-opacity:1;fill-rule:nonzero;stroke:none;font-family:cmr 12;-inkscape-font-specification:cmr12">0</tspan></text>
<text
         id="text4864"
         transform="matrix(1,0,0,-1,331.8799,141.6152)"><tspan
           id="tspan4866"
           y="0"
           x="0"
           style="font-size:11.95510006px;font-variant:normal;font-weight:normal;font-stretch:normal;writing-mode:lr-tb;fill:#000000;fill-opacity:1;fill-rule:nonzero;stroke:none;font-family:cmr 12;-inkscape-font-specification:cmr12">k</tspan></text>
<text
         id="text4868"
         transform="matrix(1,0,0,-1,338.0576,141.6152)"><tspan
           id="tspan4870"
           y="0"
           x="0"
           style="font-size:11.95510006px;font-variant:normal;font-weight:normal;font-stretch:normal;writing-mode:lr-tb;fill:#000000;fill-opacity:1;fill-rule:nonzero;stroke:none;font-family:cmr 12;-inkscape-font-specification:cmr12">P</tspan></text>
<text
         id="text4872"
         transform="matrix(1,0,0,-1,345.6992,141.6152)"><tspan
           id="tspan4874"
           y="0"
           x="0"
           style="font-size:11.95510006px;font-variant:normal;font-weight:normal;font-stretch:normal;writing-mode:lr-tb;fill:#000000;fill-opacity:1;fill-rule:nonzero;stroke:none;font-family:cmr 12;-inkscape-font-specification:cmr12">a</tspan></text>
<text
         id="text4876"
         transform="matrix(1,0,0,-1,-58.688,141.7402)"><tspan
           id="tspan4878"
           y="0"
           x="0"
           style="font-size:11.95510006px;font-variant:normal;font-weight:normal;font-stretch:normal;writing-mode:lr-tb;fill:#221814;fill-opacity:1;fill-rule:nonzero;stroke:none;font-family:cmmi 12;-inkscape-font-specification:cmmi12">σ</tspan></text>
<text
         id="text4880"
         transform="matrix(1,0,0,-1,-48.2822,141.7402)"><tspan
           id="tspan4882"
           y="0"
           x="0"
           style="font-size:11.95510006px;font-variant:normal;font-weight:normal;font-stretch:normal;writing-mode:lr-tb;fill:#000000;fill-opacity:1;fill-rule:nonzero;stroke:none;font-family:cmr 12;-inkscape-font-specification:cmr12">=</tspan></text>
<text
         id="text4884"
         transform="matrix(1,0,0,-1,-35.2803,141.7402)"><tspan
           id="tspan4886"
           y="0"
           x="0"
           style="font-size:11.95510006px;font-variant:normal;font-weight:normal;font-stretch:normal;writing-mode:lr-tb;fill:#000000;fill-opacity:1;fill-rule:nonzero;stroke:none;font-family:cmr 12;-inkscape-font-specification:cmr12">1</tspan></text>
<text
         id="text4888"
         transform="matrix(1,0,0,-1,-29.4277,141.7402)"><tspan
           id="tspan4890"
           y="0"
           x="0"
           style="font-size:11.95510006px;font-variant:normal;font-weight:normal;font-stretch:normal;writing-mode:lr-tb;fill:#000000;fill-opacity:1;fill-rule:nonzero;stroke:none;font-family:cmr 12;-inkscape-font-specification:cmr12">0</tspan></text>
<text
         id="text4892"
         transform="matrix(1,0,0,-1,-19.6777,141.7402)"><tspan
           id="tspan4894"
           y="0"
           x="0"
           style="font-size:11.95510006px;font-variant:normal;font-weight:normal;font-stretch:normal;writing-mode:lr-tb;fill:#000000;fill-opacity:1;fill-rule:nonzero;stroke:none;font-family:cmr 12;-inkscape-font-specification:cmr12">k</tspan></text>
<text
         id="text4896"
         transform="matrix(1,0,0,-1,-13.5,141.7402)"><tspan
           id="tspan4898"
           y="0"
           x="0"
           style="font-size:11.95510006px;font-variant:normal;font-weight:normal;font-stretch:normal;writing-mode:lr-tb;fill:#000000;fill-opacity:1;fill-rule:nonzero;stroke:none;font-family:cmr 12;-inkscape-font-specification:cmr12">P</tspan></text>
<text
         id="text4900"
         transform="matrix(1,0,0,-1,-5.8579,141.7402)"><tspan
           id="tspan4902"
           y="0"
           x="0"
           style="font-size:11.95510006px;font-variant:normal;font-weight:normal;font-stretch:normal;writing-mode:lr-tb;fill:#000000;fill-opacity:1;fill-rule:nonzero;stroke:none;font-family:cmr 12;-inkscape-font-specification:cmr12">a</tspan></text>
<text
         id="text4904"
         transform="matrix(1,0,0,-1,90.7119,96.3809)"><tspan
           id="tspan4906"
           y="0"
           x="0"
           style="font-size:11.95510006px;font-variant:normal;font-weight:normal;font-stretch:normal;writing-mode:lr-tb;fill:#000000;fill-opacity:1;fill-rule:nonzero;stroke:none;font-family:cmmi 12;-inkscape-font-specification:cmmi12">R</tspan></text>
<text
         id="text4908"
         transform="matrix(1,0,0,-1,103.0415,96.3809)"><tspan
           id="tspan4910"
           y="0"
           x="0"
           style="font-size:11.95510006px;font-variant:normal;font-weight:normal;font-stretch:normal;writing-mode:lr-tb;fill:#000000;fill-opacity:1;fill-rule:nonzero;stroke:none;font-family:cmr 12;-inkscape-font-specification:cmr12">=</tspan></text>
<text
         id="text4912"
         transform="matrix(1,0,0,-1,116.0435,96.3809)"><tspan
           id="tspan4914"
           sodipodi:role="line"
           y="0"
           x="0 5.8460441"
           style="font-size:11.95510006px;font-variant:normal;font-weight:normal;font-stretch:normal;writing-mode:lr-tb;fill:#000000;fill-opacity:1;fill-rule:nonzero;stroke:none;font-family:cmr 12;-inkscape-font-specification:cmr12">0.</tspan></text>
<text
         id="text4916"
         transform="matrix(1,0,0,-1,125.1475,96.3809)"><tspan
           id="tspan4918"
           y="0"
           x="0"
           style="font-size:11.95510006px;font-variant:normal;font-weight:normal;font-stretch:normal;writing-mode:lr-tb;fill:#000000;fill-opacity:1;fill-rule:nonzero;stroke:none;font-family:cmr 12;-inkscape-font-specification:cmr12">5</tspan></text>
<text
         id="text4920"
         transform="matrix(1,0,0,-1,134.9092,96.3809)"><tspan
           id="tspan4922"
           y="0"
           x="0"
           style="font-size:11.95510006px;font-variant:normal;font-weight:normal;font-stretch:normal;writing-mode:lr-tb;fill:#000000;fill-opacity:1;fill-rule:nonzero;stroke:none;font-family:cmr 12;-inkscape-font-specification:cmr12">m</tspan></text>
<text
         id="text4924"
         transform="matrix(0,1,1,0,157.1592,28.3447)"><tspan
           id="tspan4926"
           sodipodi:role="line"
           y="0"
           x="0 3.9252644 9.1855173 17.484364 25.783209 30.206604 34.082054"
           style="font-size:9.96259975px;font-variant:normal;font-weight:normal;font-stretch:normal;writing-mode:lr-tb;fill:#000000;fill-opacity:1;fill-rule:nonzero;stroke:none;font-family:cmr 10;-inkscape-font-specification:cmr10">symmetr</tspan></text>
<text
         id="text4928"
         transform="matrix(0,1,1,0,157.1592,66.3408)"><tspan
           id="tspan4930"
           y="0"
           x="0"
           style="font-size:9.96259975px;font-variant:normal;font-weight:normal;font-stretch:normal;writing-mode:lr-tb;fill:#000000;fill-opacity:1;fill-rule:nonzero;stroke:none;font-family:cmr 10;-inkscape-font-specification:cmr10">y</tspan></text>
<text
         id="text4932"
         transform="matrix(0,1,1,0,157.1592,74.9268)"><tspan
           id="tspan4934"
           sodipodi:role="line"
           y="0"
           x="0 5.529243 8.2988462 13.280146 18.809389"
           style="font-size:9.96259975px;font-variant:normal;font-weight:normal;font-stretch:normal;writing-mode:lr-tb;fill:#000000;fill-opacity:1;fill-rule:nonzero;stroke:none;font-family:cmr 10;-inkscape-font-specification:cmr10">plane</tspan></text>
</g></g></svg>