<?xml version="1.0" encoding="UTF-8" standalone="no"?>
<!-- Created with Inkscape (http://www.inkscape.org/) -->
<svg
   xmlns:dc="http://purl.org/dc/elements/1.1/"
   xmlns:cc="http://creativecommons.org/ns#"
   xmlns:rdf="http://www.w3.org/1999/02/22-rdf-syntax-ns#"
   xmlns:svg="http://www.w3.org/2000/svg"
   xmlns="http://www.w3.org/2000/svg"
   xmlns:sodipodi="http://sodipodi.sourceforge.net/DTD/sodipodi-0.dtd"
   xmlns:inkscape="http://www.inkscape.org/namespaces/inkscape"
   id="svg16857"
   sodipodi:version="0.32"
   inkscape:version="0.46"
   width="233.22464"
   height="191.37973"
   xml:space="preserve"
   sodipodi:docname="fig-A-2-a.svg"
   version="1.0"
   inkscape:output_extension="org.inkscape.output.svg.inkscape"><metadata
     id="metadata16862"><rdf:RDF><cc:Work
         rdf:about=""><dc:format>image/svg+xml</dc:format><dc:type
           rdf:resource="http://purl.org/dc/dcmitype/StillImage" /></cc:Work></rdf:RDF></metadata><defs
     id="defs16860"><inkscape:perspective
       sodipodi:type="inkscape:persp3d"
       inkscape:vp_x="0 : 526.18109 : 1"
       inkscape:vp_y="0 : 1000 : 0"
       inkscape:vp_z="744.09448 : 526.18109 : 1"
       inkscape:persp3d-origin="372.04724 : 350.78739 : 1"
       id="perspective16864" /><clipPath
       clipPathUnits="userSpaceOnUse"
       id="clipPath16880"><path
         d="M 37.898,80.939 L 109.454,80.939 L 109.454,140.907 L 37.898,140.907 L 37.898,80.939 z"
         id="path16882" /></clipPath><clipPath
       clipPathUnits="userSpaceOnUse"
       id="clipPath16928"><path
         d="M 0,0 L 204,0 L 204,155 L 0,155 L 0,0 z"
         id="path16930" /></clipPath><clipPath
       clipPathUnits="userSpaceOnUse"
       id="clipPath16940"><path
         d="M 0,0 L 204,0 L 204,155 L 0,155 L 0,0 z M 19.695,67.714 L 19.695,71.493 L 10.183,71.493 L 17.742,69.604 L 10.183,67.714 L 19.695,67.714 z"
         clip-rule="evenodd"
         id="path16942" /></clipPath><clipPath
       clipPathUnits="userSpaceOnUse"
       id="clipPath16950"><path
         d="M 0,0 L 204,0 L 204,155 L 0,155 L 0,0 z"
         id="path16952" /></clipPath><clipPath
       clipPathUnits="userSpaceOnUse"
       id="clipPath16962"><path
         d="M 0,0 L 204,0 L 204,155 L 0,155 L 0,0 z M 108.511,91.335 L 108.511,87.557 L 118.022,87.557 L 110.463,89.445 L 118.022,91.335 L 108.511,91.335 z"
         clip-rule="evenodd"
         id="path16964" /></clipPath><clipPath
       clipPathUnits="userSpaceOnUse"
       id="clipPath16972"><path
         d="M 0,0 L 204,0 L 204,155 L 0,155 L 0,0 z"
         id="path16974" /></clipPath></defs><sodipodi:namedview
     inkscape:window-height="722"
     inkscape:window-width="789"
     inkscape:pageshadow="2"
     inkscape:pageopacity="0.0"
     guidetolerance="10.0"
     gridtolerance="10.0"
     objecttolerance="10.0"
     borderopacity="1.0"
     bordercolor="#666666"
     pagecolor="#ffffff"
     id="base"
     showgrid="false"
     inkscape:zoom="2.5496774"
     inkscape:cx="127.5"
     inkscape:cy="96.875"
     inkscape:window-x="0"
     inkscape:window-y="25"
     inkscape:current-layer="g16866" /><g
     id="g16866"
     inkscape:groupmode="layer"
     inkscape:label="fig-A-2-a"
     transform="matrix(1.25,0,0,-1.25,12.34263,193.05223)"><g
       clip-path="none"
       id="g16870"><g
         id="g16876"><g
           clip-path="url(#clipPath16880)"
           id="g16878"><path
             id="path16884"
             style="fill:#221814;fill-opacity:1;fill-rule:evenodd;stroke:none"
             d="M 53.936,106.818 L 93.616,106.818 L 93.616,103.453 L 53.936,103.453 L 53.936,106.818 z" /><path
             id="path16886"
             style="fill:none;stroke:#221814;stroke-width:0.142;stroke-linecap:butt;stroke-linejoin:bevel;stroke-miterlimit:2.61299992;stroke-dasharray:none;stroke-opacity:1"
             d="M 53.936,106.818 L 93.614,106.818 L 93.614,103.453 L 53.936,103.453 L 53.936,106.818 z" /><path
             id="path16888"
             style="fill:#221814;fill-opacity:1;fill-rule:evenodd;stroke:none"
             d="M 51.488,106.407 L 96.092,106.407 L 96.092,140.734 L 51.488,140.734 L 51.488,106.407 z" /><path
             id="path16890"
             style="fill:none;stroke:#221814;stroke-width:0.142;stroke-linecap:butt;stroke-linejoin:bevel;stroke-miterlimit:2.61299992;stroke-dasharray:none;stroke-opacity:1"
             d="M 51.488,106.407 L 96.091,106.407 L 96.091,140.734 L 51.488,140.734 L 51.488,106.407 z" /><path
             id="path16892"
             style="fill:#221814;fill-opacity:1;fill-rule:evenodd;stroke:none"
             d="M 48.87,104.291 L 98.484,104.291 L 98.484,91.025 L 48.87,91.025 L 48.87,104.291 z" /><path
             id="path16894"
             style="fill:none;stroke:#221814;stroke-width:0.142;stroke-linecap:butt;stroke-linejoin:bevel;stroke-miterlimit:2.61299992;stroke-dasharray:none;stroke-opacity:1"
             d="M 48.869,104.291 L 98.483,104.291 L 98.483,91.025 L 48.869,91.025 L 48.869,104.291 z" /><path
             id="path16896"
             style="fill:#ffffff;fill-opacity:1;fill-rule:evenodd;stroke:none"
             d="M 81.147,102.189 L 96.149,102.189 L 96.149,95.017 L 81.147,95.017 L 81.147,102.189 z" /><path
             id="path16898"
             style="fill:none;stroke:#221814;stroke-width:0.142;stroke-linecap:butt;stroke-linejoin:bevel;stroke-miterlimit:2.61299992;stroke-dasharray:none;stroke-opacity:1"
             d="M 81.147,102.189 L 96.148,102.189 L 96.148,95.016 L 81.147,95.016 L 81.147,102.189 z" /><path
             id="path16900"
             style="fill:#221814;fill-opacity:1;fill-rule:evenodd;stroke:none"
             d="M 81.147,98.809 L 96.149,98.809 L 96.149,97.971 L 81.147,97.971 L 81.147,98.809 z" /><path
             id="path16902"
             style="fill:none;stroke:#221814;stroke-width:0.142;stroke-linecap:butt;stroke-linejoin:bevel;stroke-miterlimit:2.61299992;stroke-dasharray:none;stroke-opacity:1"
             d="M 81.147,98.809 L 96.148,98.809 L 96.148,97.971 L 81.147,97.971 L 81.147,98.809 z" /><path
             id="path16904"
             style="fill:#221814;fill-opacity:1;fill-rule:evenodd;stroke:none"
             d="M 86.927,100.286 L 90.954,100.286 L 90.954,96.494 L 86.927,96.494 L 86.927,100.286 z" /><path
             id="path16906"
             style="fill:none;stroke:#221814;stroke-width:0.142;stroke-linecap:butt;stroke-linejoin:bevel;stroke-miterlimit:2.61299992;stroke-dasharray:none;stroke-opacity:1"
             d="M 86.926,100.285 L 90.954,100.285 L 90.954,96.494 L 86.926,96.494 L 86.926,100.285 z" /><path
             id="path16908"
             style="fill:#ffffff;fill-opacity:1;fill-rule:evenodd;stroke:none"
             d="M 48.841,93.128 L 38.167,82.447 L 38.096,82.121 L 38.096,81.737 L 38.224,81.368 L 38.722,81.112 L 108.631,81.112 L 109.143,81.184 L 109.257,81.666 L 109.143,82.234 L 108.802,82.717 L 98.483,93.128 L 48.841,93.128 z" /><path
             id="path16910"
             style="fill:none;stroke:#221814;stroke-width:0.142;stroke-linecap:butt;stroke-linejoin:bevel;stroke-miterlimit:2.61299992;stroke-dasharray:none;stroke-opacity:1"
             d="M 48.84,93.127 L 38.166,82.447 L 38.095,82.121 L 38.095,81.737 L 38.223,81.367 L 38.722,81.111 L 108.63,81.111 L 109.143,81.183 L 109.256,81.666 L 109.143,82.234 L 108.8,82.717 L 98.483,93.127 L 48.84,93.127 z" /><path
             id="path16912"
             style="fill:#221814;fill-opacity:1;fill-rule:evenodd;stroke:none"
             d="M 85.589,91.864 L 50.079,91.864 L 46.536,87.859 L 49.411,87.844 L 47.176,84.904 L 86.442,84.904 L 85.375,87.447 L 87.694,87.447 L 86.087,90.898 L 85.589,91.864 z" /><path
             id="path16914"
             style="fill:none;stroke:#221814;stroke-width:0.142;stroke-linecap:butt;stroke-linejoin:bevel;stroke-miterlimit:2.61299992;stroke-dasharray:none;stroke-opacity:1"
             d="M 85.589,91.863 L 50.079,91.863 L 46.535,87.859 L 49.41,87.844 L 47.175,84.904 L 86.442,84.904 L 85.374,87.446 L 87.694,87.446 L 86.086,90.897 L 85.589,91.863 z" /><path
             id="path16916"
             style="fill:#221814;fill-opacity:1;fill-rule:evenodd;stroke:none"
             d="M 88.534,91.864 L 92.548,85.316 L 102.696,85.316 L 96.903,91.835 L 88.534,91.864 z" /><path
             id="path16918"
             style="fill:none;stroke:#221814;stroke-width:0.142;stroke-linecap:butt;stroke-linejoin:bevel;stroke-miterlimit:2.61299992;stroke-dasharray:none;stroke-opacity:1"
             d="M 88.534,91.863 L 92.548,85.316 L 102.695,85.316 L 96.903,91.836 L 88.534,91.863 z" /><path
             id="path16920"
             style="fill:#ffffff;fill-opacity:1;fill-rule:evenodd;stroke:none"
             d="M 54.947,111.42 L 54.947,135.75 L 55.032,136.161 L 55.246,136.588 L 55.488,136.93 L 55.772,137.227 L 56.199,137.469 L 56.655,137.667 L 57.224,137.752 L 90.385,137.752 L 90.741,137.738 L 91.253,137.624 L 91.623,137.469 L 91.993,137.255 L 92.235,137.042 L 92.505,136.715 L 92.704,136.219 L 92.762,135.693 L 92.762,111.266 L 92.62,110.811 L 92.378,110.398 L 92.022,110.057 L 91.481,109.73 L 91.096,109.617 L 90.526,109.532 L 57.039,109.532 L 56.327,109.702 L 55.758,110.029 L 55.402,110.355 L 55.146,110.725 L 55.061,110.966 L 54.989,111.307 L 54.947,111.42 z" /><path
             id="path16922"
             style="fill:none;stroke:#221814;stroke-width:0.142;stroke-linecap:butt;stroke-linejoin:bevel;stroke-miterlimit:2.61299992;stroke-dasharray:none;stroke-opacity:1"
             d="M 54.946,111.42 L 54.946,135.75 L 55.032,136.161 L 55.245,136.588 L 55.487,136.929 L 55.771,137.227 L 56.199,137.468 L 56.654,137.667 L 57.223,137.752 L 90.384,137.752 L 90.741,137.738 L 91.252,137.624 L 91.622,137.468 L 91.993,137.256 L 92.234,137.041 L 92.505,136.715 L 92.704,136.219 L 92.761,135.693 L 92.761,111.264 L 92.618,110.81 L 92.378,110.398 L 92.021,110.057 L 91.48,109.73 L 91.097,109.617 L 90.526,109.531 L 57.038,109.531 L 56.327,109.702 L 55.757,110.029 L 55.402,110.355 L 55.146,110.725 L 55.06,110.966 L 54.988,111.307 L 54.946,111.42 z" /></g></g><g
         id="g16924"><g
           clip-path="url(#clipPath16928)"
           id="g16926"><path
             id="path16932"
             style="fill:none;stroke:#000000;stroke-width:0.472;stroke-linecap:butt;stroke-linejoin:miter;stroke-miterlimit:10;stroke-dasharray:none;stroke-opacity:1"
             d="M 18.75,61.1 L 129.297,61.1" /><path
             id="path16934"
             style="fill:none;stroke:#000000;stroke-width:0.472;stroke-linecap:butt;stroke-linejoin:miter;stroke-miterlimit:10;stroke-dasharray:none;stroke-opacity:1"
             d="M 18.75,1.574 L 129.297,1.574 L 129.297,78.107 L 18.75,78.107 L 18.75,1.574 z" /></g></g><g
         id="g16936"><g
           clip-path="url(#clipPath16940)"
           id="g16938"><path
             id="path16944"
             style="fill:none;stroke:#000000;stroke-width:0.472;stroke-linecap:butt;stroke-linejoin:miter;stroke-miterlimit:10;stroke-dasharray:none;stroke-opacity:1"
             d="M 38.591,89.445 L 1.742,89.445 L 1.742,69.604 L 18.75,69.604" /></g></g><g
         id="g16946"><g
           clip-path="url(#clipPath16950)"
           id="g16948"><path
             id="path16954"
             style="fill:#000000;fill-opacity:1;fill-rule:evenodd;stroke:none"
             d="M 10.183,67.714 L 17.742,69.604 L 10.183,71.493 L 10.183,67.714 z" /><path
             id="path16956"
             style="fill:none;stroke:#000000;stroke-width:0.472;stroke-linecap:butt;stroke-linejoin:miter;stroke-miterlimit:10;stroke-dasharray:none;stroke-opacity:1"
             d="M 10.183,67.714 L 17.742,69.604 L 10.183,71.493 L 10.183,67.714 z" /></g></g><g
         id="g16958"><g
           clip-path="url(#clipPath16962)"
           id="g16960"><path
             id="path16966"
             style="fill:none;stroke:#000000;stroke-width:0.472;stroke-linecap:butt;stroke-linejoin:miter;stroke-miterlimit:10;stroke-dasharray:none;stroke-opacity:1"
             d="M 109.454,89.445 L 146.304,89.445 L 146.304,69.604 L 129.297,69.604" /></g></g><g
         id="g16968"><g
           clip-path="url(#clipPath16972)"
           id="g16970"><path
             id="path16976"
             style="fill:#000000;fill-opacity:1;fill-rule:evenodd;stroke:none"
             d="M 118.022,91.335 L 110.463,89.445 L 118.022,87.557 L 118.022,91.335 z" /><path
             id="path16978"
             style="fill:none;stroke:#000000;stroke-width:0.472;stroke-linecap:butt;stroke-linejoin:miter;stroke-miterlimit:10;stroke-dasharray:none;stroke-opacity:1"
             d="M 118.022,91.335 L 110.463,89.445 L 118.022,87.557 L 118.022,91.335 z" /></g></g><text
         id="text16980"
         transform="matrix(1,0,0,-1,27.1807,65.9609)"><tspan
           id="tspan16982"
           sodipodi:role="line"
           y="0"
           x="0 10.149879 13.329936 20.813829"
           style="font-size:11.95510006px;font-variant:normal;font-weight:normal;font-stretch:normal;writing-mode:lr-tb;fill:#000000;fill-opacity:1;fill-rule:nonzero;stroke:none;font-family:cmss 12;-inkscape-font-specification:cmss12">MICO</tspan></text>
<text
         id="text16984"
         transform="matrix(1,0,0,-1,60.5342,65.9609)"><tspan
           id="tspan16986"
           sodipodi:role="line"
           y="0"
           x="0 6.5035744 12.349618"
           style="font-size:11.95510006px;font-variant:normal;font-weight:normal;font-stretch:normal;writing-mode:lr-tb;fill:#000000;fill-opacity:1;fill-rule:nonzero;stroke:none;font-family:cmr 12;-inkscape-font-specification:cmr12">nam</tspan></text>
<text
         id="text16988"
         transform="matrix(1,0,0,-1,82.6455,65.9609)"><tspan
           id="tspan16990"
           y="0"
           x="0"
           style="font-size:11.95510006px;font-variant:normal;font-weight:normal;font-stretch:normal;writing-mode:lr-tb;fill:#000000;fill-opacity:1;fill-rule:nonzero;stroke:none;font-family:cmr 12;-inkscape-font-specification:cmr12">e</tspan></text>
<text
         id="text16992"
         transform="matrix(1,0,0,-1,91.7451,65.9609)"><tspan
           id="tspan16994"
           sodipodi:role="line"
           y="0"
           x="0 4.6146684 9.8151369"
           style="font-size:11.95510006px;font-variant:normal;font-weight:normal;font-stretch:normal;writing-mode:lr-tb;fill:#000000;fill-opacity:1;fill-rule:nonzero;stroke:none;font-family:cmr 12;-inkscape-font-specification:cmr12">ser</tspan></text>
<text
         id="text16996"
         transform="matrix(1,0,0,-1,106.1172,65.9609)"><tspan
           id="tspan16998"
           y="0"
           x="0"
           style="font-size:11.95510006px;font-variant:normal;font-weight:normal;font-stretch:normal;writing-mode:lr-tb;fill:#000000;fill-opacity:1;fill-rule:nonzero;stroke:none;font-family:cmr 12;-inkscape-font-specification:cmr12">v</tspan></text>
<text
         id="text17000"
         transform="matrix(1,0,0,-1,111.9722,65.9609)"><tspan
           id="tspan17002"
           sodipodi:role="line"
           y="0"
           x="0 5.2004685"
           style="font-size:11.95510006px;font-variant:normal;font-weight:normal;font-stretch:normal;writing-mode:lr-tb;fill:#000000;fill-opacity:1;fill-rule:nonzero;stroke:none;font-family:cmr 12;-inkscape-font-specification:cmr12">er</tspan></text>
<text
         id="text17004"
         transform="matrix(1,0,0,-1,-8.8101,94.311)"><tspan
           id="tspan17006"
           sodipodi:role="line"
           y="0"
           x="0 6.5035744 11.058468 16.90451 21.459404"
           style="font-size:11.95510006px;font-variant:normal;font-weight:normal;font-stretch:normal;writing-mode:lr-tb;fill:#000000;fill-opacity:1;fill-rule:nonzero;stroke:none;font-family:cmr 12;-inkscape-font-specification:cmr12">Start</tspan></text>
<text
         id="text17008"
         transform="matrix(1,0,0,-1,21.1055,94.311)"><tspan
           id="tspan17010"
           sodipodi:role="line"
           y="0"
           x="0 6.0014601 10.484623"
           style="font-size:11.95510006px;font-variant:normal;font-weight:normal;font-stretch:normal;writing-mode:lr-tb;fill:#000000;fill-opacity:1;fill-rule:nonzero;stroke:none;font-family:cmss 12;-inkscape-font-specification:cmss12">nsd</tspan></text>
<text
         id="text17012"
         transform="matrix(1,0,0,-1,108.4771,94.311)"><tspan
           id="tspan17014"
           sodipodi:role="line"
           y="0"
           x="0 4.2201505"
           style="font-size:11.95510006px;font-variant:normal;font-weight:normal;font-stretch:normal;writing-mode:lr-tb;fill:#000000;fill-opacity:1;fill-rule:nonzero;stroke:none;font-family:cmr 12;-inkscape-font-specification:cmr12">IO</tspan></text>
<text
         id="text17016"
         transform="matrix(1,0,0,-1,121.8042,94.311)"><tspan
           id="tspan17018"
           y="0"
           x="0"
           style="font-size:11.95510006px;font-variant:normal;font-weight:normal;font-stretch:normal;writing-mode:lr-tb;fill:#000000;fill-opacity:1;fill-rule:nonzero;stroke:none;font-family:cmr 12;-inkscape-font-specification:cmr12">R</tspan></text>
<text
         id="text17020"
         transform="matrix(1,0,0,-1,134.3164,94.311)"><tspan
           id="tspan17022"
           sodipodi:role="line"
           y="0"
           x="0 3.2517872"
           style="font-size:11.95510006px;font-variant:normal;font-weight:normal;font-stretch:normal;writing-mode:lr-tb;fill:#000000;fill-opacity:1;fill-rule:nonzero;stroke:none;font-family:cmr 12;-inkscape-font-specification:cmr12">in</tspan></text>
<text
         id="text17024"
         transform="matrix(1,0,0,-1,147.9775,94.311)"><tspan
           id="tspan17026"
           sodipodi:role="line"
           y="0"
           x="0 6.0014601 10.484623 13.73641 17.717459 22.917927"
           style="font-size:11.95510006px;font-variant:normal;font-weight:normal;font-stretch:normal;writing-mode:lr-tb;fill:#000000;fill-opacity:1;fill-rule:nonzero;stroke:none;font-family:cmssi 12;-inkscape-font-specification:cmssi12">ns.ref</tspan></text>
<text
         id="text17028"
         transform="matrix(1,0,0,-1,40.4385,145.332)"><tspan
           id="tspan17030"
           sodipodi:role="line"
           y="0"
           x="0 6.5035744 12.349618"
           style="font-size:11.95510006px;font-variant:normal;font-weight:normal;font-stretch:normal;writing-mode:lr-tb;fill:#000000;fill-opacity:1;fill-rule:nonzero;stroke:none;font-family:cmr 12;-inkscape-font-specification:cmr12">hos</tspan></text>
<text
         id="text17032"
         transform="matrix(1,0,0,-1,57.4116,145.332)"><tspan
           id="tspan17034"
           y="0"
           x="0"
           style="font-size:11.95510006px;font-variant:normal;font-weight:normal;font-stretch:normal;writing-mode:lr-tb;fill:#000000;fill-opacity:1;fill-rule:nonzero;stroke:none;font-family:cmr 12;-inkscape-font-specification:cmr12">t</tspan></text>
<text
         id="text17036"
         transform="matrix(1,0,0,-1,65.873,145.332)"><tspan
           id="tspan17038"
           sodipodi:role="line"
           y="0"
           x="0 9.7553616"
           style="font-size:11.95510006px;font-variant:normal;font-weight:normal;font-stretch:normal;writing-mode:lr-tb;fill:#000000;fill-opacity:1;fill-rule:nonzero;stroke:none;font-family:cmr 12;-inkscape-font-specification:cmr12">ma</tspan></text>
<text
         id="text17040"
         transform="matrix(1,0,0,-1,81.481,145.332)"><tspan
           id="tspan17042"
           y="0"
           x="0"
           style="font-size:11.95510006px;font-variant:normal;font-weight:normal;font-stretch:normal;writing-mode:lr-tb;fill:#000000;fill-opacity:1;fill-rule:nonzero;stroke:none;font-family:cmr 12;-inkscape-font-specification:cmr12">c</tspan></text>
<text
         id="text17044"
         transform="matrix(1,0,0,-1,86.3608,145.332)"><tspan
           id="tspan17046"
           sodipodi:role="line"
           y="0"
           x="0 6.5035744 9.7553616 16.258936"
           style="font-size:11.95510006px;font-variant:normal;font-weight:normal;font-stretch:normal;writing-mode:lr-tb;fill:#000000;fill-opacity:1;fill-rule:nonzero;stroke:none;font-family:cmr 12;-inkscape-font-specification:cmr12">hine</tspan></text>
</g></g></svg>