<?xml version="1.0" encoding="UTF-8" standalone="no"?>
<!-- Created with Inkscape (http://www.inkscape.org/) -->

<svg
   xmlns:dc="http://purl.org/dc/elements/1.1/"
   xmlns:cc="http://creativecommons.org/ns#"
   xmlns:rdf="http://www.w3.org/1999/02/22-rdf-syntax-ns#"
   xmlns:svg="http://www.w3.org/2000/svg"
   xmlns="http://www.w3.org/2000/svg"
   xmlns:sodipodi="http://sodipodi.sourceforge.net/DTD/sodipodi-0.dtd"
   xmlns:inkscape="http://www.inkscape.org/namespaces/inkscape"
   id="svg9539"
   sodipodi:version="0.32"
   inkscape:version="0.48.2 r9819"
   width="250.04648"
   height="222.80267"
   xml:space="preserve"
   sodipodi:docname="fig-5-1.svg"
   version="1.0"
   inkscape:output_extension="org.inkscape.output.svg.inkscape"><metadata
     id="metadata9544"><rdf:RDF><cc:Work
         rdf:about=""><dc:format>image/svg+xml</dc:format><dc:type
           rdf:resource="http://purl.org/dc/dcmitype/StillImage" /></cc:Work></rdf:RDF></metadata><defs
     id="defs9542"><inkscape:perspective
   sodipodi:type="inkscape:persp3d"
   inkscape:vp_x="0 : 526.18109 : 1"
   inkscape:vp_y="0 : 1000 : 0"
   inkscape:vp_z="744.09448 : 526.18109 : 1"
   inkscape:persp3d-origin="372.04724 : 350.78739 : 1"
   id="perspective9546" /><clipPath
   clipPathUnits="userSpaceOnUse"
   id="clipPath9562"><path
     d="M 0,0 L 199.999,0 L 199.999,177 L 0,177 L 0,0 z"
     id="path9564" /></clipPath><clipPath
   clipPathUnits="userSpaceOnUse"
   id="clipPath9596"><path
     d="M 0,0 L 199.999,0 L 199.999,177 L 0,177 L 0,0 z M 6.981,38.1 L 9.186,35.014 L 17.752,41.187 L 10.508,38.288 L 15.547,44.272 L 6.981,38.1 z"
     clip-rule="evenodd"
     id="path9598" /></clipPath><clipPath
   clipPathUnits="userSpaceOnUse"
   id="clipPath9606"><path
     d="M 0,0 L 199.999,0 L 199.999,177 L 0,177 L 0,0 z"
     id="path9608" /></clipPath>






</defs><sodipodi:namedview
     inkscape:window-height="920"
     inkscape:window-width="1680"
     inkscape:pageshadow="2"
     inkscape:pageopacity="0.0"
     guidetolerance="10.0"
     gridtolerance="10.0"
     objecttolerance="10.0"
     borderopacity="1.0"
     bordercolor="#666666"
     pagecolor="#ffffff"
     id="base"
     showgrid="false"
     inkscape:zoom="3.1507701"
     inkscape:cx="125.02324"
     inkscape:cy="111.40134"
     inkscape:window-x="0"
     inkscape:window-y="0"
     inkscape:current-layer="g9548"
     inkscape:window-maximized="0" /><g
     id="g9548"
     inkscape:groupmode="layer"
     inkscape:label="fig-5-1"
     transform="matrix(1.25,0,0,-1.25,1.2714794,221.44278)"><g
   id="g9558"><g
     id="g9560"
     clip-path="url(#clipPath9562)"><path
       d="M 136.425,130.633 L 198.784,175.984"
       style="fill:none;stroke:#000000;stroke-width:0.472;stroke-linecap:butt;stroke-linejoin:miter;stroke-miterlimit:10;stroke-dasharray:3.779, 3.779;stroke-dashoffset:0;stroke-opacity:1"
       id="path9566" /><path
       d="M 28.713,153.309 L 34.381,39.927 L 130.755,11.581 L 150.599,122.129 L 93.906,161.813"
       style="fill:#999999;fill-opacity:1;fill-rule:evenodd;stroke:none"
       id="path9568" /><path
       d="M 28.713,153.309 L 34.381,39.927 L 130.755,11.581 L 150.599,122.129 L 93.906,161.813 L 28.713,153.309 z"
       style="fill:none;stroke:#000000;stroke-width:0.472;stroke-linecap:butt;stroke-linejoin:miter;stroke-miterlimit:10;stroke-dasharray:none;stroke-opacity:1"
       id="path9570" /><path
       d="M 31.547,153.309 C 31.547,151.744 30.278,150.474 28.713,150.474 C 27.147,150.474 25.878,151.744 25.878,153.309 C 25.878,154.873 27.147,156.143 28.713,156.143 C 30.278,156.143 31.547,154.873 31.547,153.309"
       style="fill:#000000;fill-opacity:1;fill-rule:evenodd;stroke:none"
       id="path9572" /><path
       d="M 31.547,153.309 C 31.547,151.744 30.278,150.474 28.713,150.474 C 27.147,150.474 25.878,151.744 25.878,153.309 C 25.878,154.873 27.147,156.143 28.713,156.143 C 30.278,156.143 31.547,154.873 31.547,153.309 z"
       style="fill:none;stroke:#000000;stroke-width:0.472;stroke-linecap:butt;stroke-linejoin:miter;stroke-miterlimit:10;stroke-dasharray:none;stroke-opacity:1"
       id="path9574" /><path
       d="M 96.742,161.812 C 96.742,160.246 95.472,158.978 93.906,158.978 C 92.342,158.978 91.072,160.246 91.072,161.812 C 91.072,163.377 92.342,164.646 93.906,164.646 C 95.472,164.646 96.742,163.377 96.742,161.812"
       style="fill:#000000;fill-opacity:1;fill-rule:evenodd;stroke:none"
       id="path9576" /><path
       d="M 96.742,161.812 C 96.742,160.246 95.472,158.978 93.906,158.978 C 92.342,158.978 91.072,160.246 91.072,161.812 C 91.072,163.377 92.342,164.646 93.906,164.646 C 95.472,164.646 96.742,163.377 96.742,161.812 z"
       style="fill:none;stroke:#000000;stroke-width:0.472;stroke-linecap:butt;stroke-linejoin:miter;stroke-miterlimit:10;stroke-dasharray:none;stroke-opacity:1"
       id="path9578" /><path
       d="M 37.216,39.927 C 37.216,38.361 35.947,37.092 34.381,37.092 C 32.816,37.092 31.547,38.361 31.547,39.927 C 31.547,41.491 32.816,42.761 34.381,42.761 C 35.947,42.761 37.216,41.491 37.216,39.927"
       style="fill:#000000;fill-opacity:1;fill-rule:evenodd;stroke:none"
       id="path9580" /><path
       d="M 37.216,39.927 C 37.216,38.361 35.947,37.092 34.381,37.092 C 32.816,37.092 31.547,38.361 31.547,39.927 C 31.547,41.491 32.816,42.761 34.381,42.761 C 35.947,42.761 37.216,41.491 37.216,39.927 z"
       style="fill:none;stroke:#000000;stroke-width:0.472;stroke-linecap:butt;stroke-linejoin:miter;stroke-miterlimit:10;stroke-dasharray:none;stroke-opacity:1"
       id="path9582" /><path
       d="M 133.591,11.581 C 133.591,10.016 132.321,8.747 130.755,8.747 C 129.19,8.747 127.921,10.016 127.921,11.581 C 127.921,13.146 129.19,14.415 130.755,14.415 C 132.321,14.415 133.591,13.146 133.591,11.581"
       style="fill:#000000;fill-opacity:1;fill-rule:evenodd;stroke:none"
       id="path9584" /><path
       d="M 133.591,11.581 C 133.591,10.016 132.321,8.747 130.755,8.747 C 129.19,8.747 127.921,10.016 127.921,11.581 C 127.921,13.146 129.19,14.415 130.755,14.415 C 132.321,14.415 133.591,13.146 133.591,11.581 z"
       style="fill:none;stroke:#000000;stroke-width:0.472;stroke-linecap:butt;stroke-linejoin:miter;stroke-miterlimit:10;stroke-dasharray:none;stroke-opacity:1"
       id="path9586" /><path
       d="M 153.433,122.129 C 153.433,120.563 152.163,119.293 150.599,119.293 C 149.032,119.293 147.765,120.563 147.765,122.129 C 147.765,123.693 149.032,124.963 150.599,124.963 C 152.163,124.963 153.433,123.693 153.433,122.129"
       style="fill:#000000;fill-opacity:1;fill-rule:evenodd;stroke:none"
       id="path9588" /><path
       d="M 153.433,122.129 C 153.433,120.563 152.163,119.293 150.599,119.293 C 149.032,119.293 147.765,120.563 147.765,122.129 C 147.765,123.693 149.032,124.963 150.599,124.963 C 152.163,124.963 153.433,123.693 153.433,122.129 z"
       style="fill:none;stroke:#000000;stroke-width:0.472;stroke-linecap:butt;stroke-linejoin:miter;stroke-miterlimit:10;stroke-dasharray:none;stroke-opacity:1"
       id="path9590" /></g></g><g
   id="g9592"
   transform="matrix(0.9286008,0,0,0.9286008,6.3169722,6.7128807)"><g
     id="g9594"
     clip-path="url(#clipPath9596)"><path
       d="M 8.87,37.092 L 88.238,93.783"
       style="fill:none;stroke:#000000;stroke-width:0.5082916;stroke-linecap:butt;stroke-linejoin:miter;stroke-miterlimit:10;stroke-dasharray:none;stroke-opacity:1"
       id="path9600" /></g></g><g
   id="g9602"><g
     id="g9604"
     clip-path="url(#clipPath9606)"><path
       d="M 15.547,44.272 L 10.508,38.288 L 17.752,41.187 L 15.547,44.272 z"
       style="fill:#000000;fill-opacity:1;fill-rule:evenodd;stroke:none"
       id="path9610" /><path
       d="M 15.547,44.272 L 10.508,38.288 L 17.752,41.187 L 15.547,44.272 z"
       style="fill:none;stroke:#000000;stroke-width:0.94499999;stroke-linecap:butt;stroke-linejoin:miter;stroke-miterlimit:10;stroke-dasharray:none;stroke-opacity:1"
       id="path9612" /></g></g><text
   transform="scale(1,-1)"
   id="text9614"
   x="25.5142"
   y="-28.3496"
   style="-inkscape-font-specification:LMRoman12;font-family:LMRoman12;font-weight:normal;font-style:normal;font-stretch:normal;font-variant:normal;font-size:11.95510025px;text-anchor:start;text-align:start;writing-mode:lr;line-height:125%"
   sodipodi:linespacing="125%"><tspan
     style="font-size:11.95510025px;font-variant:normal;font-weight:normal;font-stretch:normal;writing-mode:lr;fill:#000000;fill-opacity:1;fill-rule:nonzero;stroke:none;font-family:LMRoman12;-inkscape-font-specification:LMRoman12;font-style:normal;text-anchor:start;text-align:start;line-height:125%"
     x="25.5142"
     y="-28.3496"
     id="tspan9616">4</tspan></text>

<text
   transform="scale(1,-1)"
   id="text9618"
   x="19.8442"
   y="-155.9155"
   style="-inkscape-font-specification:LMRoman12;font-family:LMRoman12;font-weight:normal;font-style:normal;font-stretch:normal;font-variant:normal;font-size:11.95510025px;text-anchor:start;text-align:start;writing-mode:lr;line-height:125%"
   sodipodi:linespacing="125%"><tspan
     style="font-size:11.95510025px;font-variant:normal;font-weight:normal;font-stretch:normal;writing-mode:lr;fill:#000000;fill-opacity:1;fill-rule:nonzero;stroke:none;font-family:LMRoman12;-inkscape-font-specification:LMRoman12;font-style:normal;text-anchor:start;text-align:start;line-height:125%"
     x="19.8442"
     y="-155.9155"
     id="tspan9620">3</tspan></text>

<text
   transform="scale(1,-1)"
   id="text9622"
   x="130.40041"
   style="-inkscape-font-specification:LMRoman12;font-family:LMRoman12;font-weight:normal;font-style:normal;font-stretch:normal;font-variant:normal;font-size:11.95510025px;text-anchor:start;text-align:start;writing-mode:lr;line-height:125%"
   sodipodi:linespacing="125%"><tspan
     style="font-size:11.95510025px;font-variant:normal;font-weight:normal;font-stretch:normal;writing-mode:lr;fill:#000000;fill-opacity:1;fill-rule:nonzero;stroke:none;font-family:LMRoman12;-inkscape-font-specification:LMRoman12;font-style:normal;text-anchor:start;text-align:start;line-height:125%"
     x="130.40041"
     y="0"
     id="tspan9624">0</tspan></text>

<text
   transform="scale(1,-1)"
   id="text9626"
   x="93.553703"
   y="-167.2554"
   style="-inkscape-font-specification:LMRoman12;font-family:LMRoman12;font-weight:normal;font-style:normal;font-stretch:normal;font-variant:normal;font-size:11.95510025px;text-anchor:start;text-align:start;writing-mode:lr;line-height:125%"
   sodipodi:linespacing="125%"><tspan
     style="font-size:11.95510025px;font-variant:normal;font-weight:normal;font-stretch:normal;writing-mode:lr;fill:#000000;fill-opacity:1;fill-rule:nonzero;stroke:none;font-family:LMRoman12;-inkscape-font-specification:LMRoman12;font-style:normal;text-anchor:start;text-align:start;line-height:125%"
     x="93.553703"
     y="-167.2554"
     id="tspan9628">2</tspan></text>

<text
   transform="scale(1,-1)"
   id="text9630"
   x="155.91499"
   y="-121.8955"
   style="-inkscape-font-specification:LMRoman12;font-family:LMRoman12;font-weight:normal;font-style:normal;font-stretch:normal;font-variant:normal;font-size:11.95510025px;text-anchor:start;text-align:start;writing-mode:lr;line-height:125%"
   sodipodi:linespacing="125%"><tspan
     style="font-size:11.95510025px;font-variant:normal;font-weight:normal;font-stretch:normal;writing-mode:lr;fill:#000000;fill-opacity:1;fill-rule:nonzero;stroke:none;font-family:LMRoman12;-inkscape-font-specification:LMRoman12;font-style:normal;text-anchor:start;text-align:start;line-height:125%"
     x="155.91499"
     y="-121.8955"
     id="tspan9632">1</tspan></text>

<text
   transform="scale(1,-1)"
   id="text9634"
   x="-0.001"
   y="-48.194302"
   style="-inkscape-font-specification:LMMathItalic10 Bold Italic;font-family:LMMathItalic10;font-weight:bold;font-style:italic;font-stretch:normal;font-variant:normal;font-size:11.95510025px;text-anchor:start;text-align:start;writing-mode:lr;line-height:125%"
   sodipodi:linespacing="125%"><tspan
     style="font-size:11.95510025px;font-variant:normal;font-weight:bold;font-stretch:normal;writing-mode:lr;fill:#000000;fill-opacity:1;fill-rule:nonzero;stroke:none;font-family:LMMathItalic10;-inkscape-font-specification:LMMathItalic10 Bold Italic;font-style:italic;text-anchor:start;text-align:start;line-height:125%"
     x="-0.001"
     y="-48.194302"
     id="tspan9636">S</tspan></text>

<text
   transform="scale(1,-1)"
   id="text9638"
   x="7.4686999"
   y="-46.403301"
   style="-inkscape-font-specification:LMMathItalic8 Italic;font-family:LMMathItalic8;font-weight:normal;font-style:italic;font-stretch:normal;font-variant:normal;font-size:7.97009964px;text-anchor:start;text-align:start;writing-mode:lr;line-height:125%"
   sodipodi:linespacing="125%"><tspan
     style="font-size:7.97009964px;font-variant:normal;font-weight:normal;font-stretch:normal;writing-mode:lr;fill:#000000;fill-opacity:1;fill-rule:nonzero;stroke:none;font-family:LMMathItalic8;-inkscape-font-specification:LMMathItalic8 Italic;font-style:italic;text-anchor:start;text-align:start;line-height:125%"
     x="7.4686999"
     y="-46.403301"
     id="tspan9640">f</tspan></text>

</g></svg>