<?xml version="1.0" encoding="UTF-8" standalone="no"?>
<!-- Created with Inkscape (http://www.inkscape.org/) -->
<svg
   xmlns:dc="http://purl.org/dc/elements/1.1/"
   xmlns:cc="http://creativecommons.org/ns#"
   xmlns:rdf="http://www.w3.org/1999/02/22-rdf-syntax-ns#"
   xmlns:svg="http://www.w3.org/2000/svg"
   xmlns="http://www.w3.org/2000/svg"
   xmlns:sodipodi="http://sodipodi.sourceforge.net/DTD/sodipodi-0.dtd"
   xmlns:inkscape="http://www.inkscape.org/namespaces/inkscape"
   id="svg2872"
   sodipodi:version="0.32"
   inkscape:version="0.46"
   width="298.27499"
   height="237.11754"
   xml:space="preserve"
   sodipodi:docname="fig-2-1.svg"
   version="1.0"
   inkscape:output_extension="org.inkscape.output.svg.inkscape"><metadata
     id="metadata2877"><rdf:RDF><cc:Work
         rdf:about=""><dc:format>image/svg+xml</dc:format><dc:type
           rdf:resource="http://purl.org/dc/dcmitype/StillImage" /></cc:Work></rdf:RDF></metadata><defs
     id="defs2875"><inkscape:perspective
   sodipodi:type="inkscape:persp3d"
   inkscape:vp_x="0 : 526.18109 : 1"
   inkscape:vp_y="0 : 1000 : 0"
   inkscape:vp_z="744.09448 : 526.18109 : 1"
   inkscape:persp3d-origin="372.04724 : 350.78739 : 1"
   id="perspective2879" /><clipPath
   clipPathUnits="userSpaceOnUse"
   id="clipPath2895"><path
     d="M 0,0 L 238.999,0 L 238.999,195 L 0,195 L 0,0 z"
     id="path2897" /></clipPath><clipPath
   clipPathUnits="userSpaceOnUse"
   id="clipPath2909"><path
     d="M 0,0 L 238.999,0 L 238.999,195 L 0,195 L 0,0 z M 120.515,10.346 L 120.515,14.125 L 111.002,14.125 L 118.562,12.235 L 111.002,10.346 L 120.515,10.346 z M 78.94,55.698 L 75.161,55.698 L 75.161,46.188 L 77.05,53.745 L 78.94,46.188 L 78.94,55.698 z"
     clip-rule="evenodd"
     id="path2911" /></clipPath><clipPath
   clipPathUnits="userSpaceOnUse"
   id="clipPath2919"><path
     d="M 0,0 L 238.999,0 L 238.999,195 L 0,195 L 0,0 z"
     id="path2921" /></clipPath><clipPath
   clipPathUnits="userSpaceOnUse"
   id="clipPath2937"><path
     d="M 0,0 L 238.999,0 L 238.999,195 L 0,195 L 0,0 z M 167.757,171.916 L 167.757,175.694 L 158.243,175.694 L 165.804,173.805 L 158.243,171.916 L 167.757,171.916 z"
     clip-rule="evenodd"
     id="path2939" /></clipPath><clipPath
   clipPathUnits="userSpaceOnUse"
   id="clipPath2947"><path
     d="M 0,0 L 238.999,0 L 238.999,195 L 0,195 L 0,0 z"
     id="path2949" /></clipPath><clipPath
   clipPathUnits="userSpaceOnUse"
   id="clipPath2959"><path
     d="M 0,0 L 238.999,0 L 238.999,195 L 0,195 L 0,0 z M 52.484,11.291 L 56.264,11.291 L 56.264,20.801 L 54.374,13.243 L 52.484,20.801 L 52.484,11.291 z M 56.264,163.411 L 52.484,163.411 L 52.484,153.899 L 54.374,161.459 L 56.264,153.899 L 56.264,163.411 z"
     clip-rule="evenodd"
     id="path2961" /></clipPath><clipPath
   clipPathUnits="userSpaceOnUse"
   id="clipPath2969"><path
     d="M 0,0 L 238.999,0 L 238.999,195 L 0,195 L 0,0 z"
     id="path2971" /></clipPath>























</defs><sodipodi:namedview
     inkscape:window-height="1125"
     inkscape:window-width="1600"
     inkscape:pageshadow="2"
     inkscape:pageopacity="0.0"
     guidetolerance="10.0"
     gridtolerance="10.0"
     objecttolerance="10.0"
     borderopacity="1.0"
     bordercolor="#666666"
     pagecolor="#ffffff"
     id="base"
     showgrid="false"
     inkscape:zoom="2.0266667"
     inkscape:cx="72.86812"
     inkscape:cy="106.7847"
     inkscape:window-x="0"
     inkscape:window-y="25"
     inkscape:current-layer="g2881"
     inkscape:snap-global="false" /><g
     id="g2881"
     inkscape:groupmode="layer"
     inkscape:label="fig-2-1"
     transform="matrix(1.25,0,0,-1.25,0,238.23879)"><g
       id="g2891"><g
         id="g2893"
         clip-path="url(#clipPath2895)"><path
           d="M 65.712,12.235 L 77.05,12.235 L 77.05,162.466 L 65.712,162.466 L 65.712,12.235 z"
           style="fill:#808080;fill-opacity:1;fill-rule:evenodd;stroke:none"
           id="path2899" /><path
           d="M 65.712,0.897 L 238.618,0.897 L 238.618,12.235 L 65.712,12.235 L 65.712,0.897 z"
           style="fill:#808080;fill-opacity:1;fill-rule:evenodd;stroke:none"
           id="path2901" /><path
           d="M 227.282,12.235 L 238.62,12.235 L 238.62,162.466 L 227.282,162.466 L 227.282,12.235 z"
           style="fill:#808080;fill-opacity:1;fill-rule:evenodd;stroke:none"
           id="path2903" /></g></g><path
       d="M 77.05,47.673408 L 77.05,12.235 L 112.56242,12.235"
       style="fill:none;stroke:#000000;stroke-width:1.88999999;stroke-linecap:butt;stroke-linejoin:miter;stroke-miterlimit:10;stroke-dasharray:none;stroke-opacity:1"
       id="path2913"
       sodipodi:nodetypes="ccc" /><g
       id="g2915"><g
         id="g2917"
         clip-path="url(#clipPath2919)"><path
           d="M 78.94,46.188 L 77.05,53.745 L 75.161,46.188 L 78.94,46.188 z"
           style="fill:#000000;fill-opacity:1;fill-rule:evenodd;stroke:none"
           id="path2923" /><path
           d="M 78.94,46.188 L 77.05,53.745 L 75.161,46.188 L 78.94,46.188 z"
           style="fill:none;stroke:#000000;stroke-width:0.472;stroke-linecap:butt;stroke-linejoin:miter;stroke-miterlimit:10;stroke-dasharray:none;stroke-opacity:1"
           id="path2925" /><path
           d="M 111.002,10.346 L 118.562,12.235 L 111.002,14.125 L 111.002,10.346 z"
           style="fill:#000000;fill-opacity:1;fill-rule:evenodd;stroke:none"
           id="path2927" /><path
           d="M 111.002,10.346 L 118.562,12.235 L 111.002,14.125 L 111.002,10.346 z"
           style="fill:none;stroke:#000000;stroke-width:0.472;stroke-linecap:butt;stroke-linejoin:miter;stroke-miterlimit:10;stroke-dasharray:none;stroke-opacity:1"
           id="path2929" /><path
           d="M 77.05,12.235 L 227.28,12.235 L 227.28,162.467 L 77.05,162.467 L 77.05,12.235 z"
           style="fill:none;stroke:#000000;stroke-width:0.472;stroke-linecap:butt;stroke-linejoin:miter;stroke-miterlimit:10;stroke-dasharray:none;stroke-opacity:1"
           id="path2931" /></g></g><g
       id="g2933"><g
         id="g2935"
         clip-path="url(#clipPath2937)"><path
           d="M 129.017,173.805 L 160.10147,173.805"
           style="fill:none;stroke:#000000;stroke-width:0.472;stroke-linecap:butt;stroke-linejoin:miter;stroke-miterlimit:10;stroke-dasharray:none;stroke-opacity:1"
           id="path2941"
           sodipodi:nodetypes="cc" /></g></g><g
       id="g2943"><g
         id="g2945"
         clip-path="url(#clipPath2947)"><path
           d="M 158.243,171.916 L 165.804,173.805 L 158.243,175.694 L 158.243,171.916 z"
           style="fill:#000000;fill-opacity:1;fill-rule:evenodd;stroke:none"
           id="path2951" /><path
           d="M 158.243,171.916 L 165.804,173.805 L 158.243,175.694 L 158.243,171.916 z"
           style="fill:none;stroke:#000000;stroke-width:0.472;stroke-linecap:butt;stroke-linejoin:miter;stroke-miterlimit:10;stroke-dasharray:none;stroke-opacity:1"
           id="path2953" /></g></g><g
       id="g2955"><g
         id="g2957"
         clip-path="url(#clipPath2959)"><path
           d="M 54.374,156.15121 L 54.374,19.340263"
           style="fill:none;stroke:#000000;stroke-width:0.472;stroke-linecap:butt;stroke-linejoin:miter;stroke-miterlimit:10;stroke-dasharray:none;stroke-opacity:1"
           id="path2963"
           sodipodi:nodetypes="cc" /></g></g><g
       id="g2965"><g
         id="g2967"
         clip-path="url(#clipPath2969)"><path
           d="M 56.264,153.899 L 54.374,161.459 L 52.484,153.899 L 56.264,153.899 z"
           style="fill:#000000;fill-opacity:1;fill-rule:evenodd;stroke:none"
           id="path2973" /><path
           d="M 56.264,153.899 L 54.374,161.459 L 52.484,153.899 L 56.264,153.899 z"
           style="fill:none;stroke:#000000;stroke-width:0.472;stroke-linecap:butt;stroke-linejoin:miter;stroke-miterlimit:10;stroke-dasharray:none;stroke-opacity:1"
           id="path2975" /><path
           d="M 52.484,20.801 L 54.374,13.243 L 56.264,20.801 L 52.484,20.801 z"
           style="fill:#000000;fill-opacity:1;fill-rule:evenodd;stroke:none"
           id="path2977" /><path
           d="M 52.484,20.801 L 54.374,13.243 L 56.264,20.801 L 52.484,20.801 z"
           style="fill:none;stroke:#000000;stroke-width:0.472;stroke-linecap:butt;stroke-linejoin:miter;stroke-miterlimit:10;stroke-dasharray:none;stroke-opacity:1"
           id="path2979" /></g></g><text
       transform="scale(1,-1)"
       id="text2981"
       x="107.7207"
       y="-17.0723"><tspan
         style="font-size:11.95510006px;font-variant:normal;font-weight:normal;font-stretch:normal;writing-mode:lr-tb;fill:#221814;fill-opacity:1;fill-rule:nonzero;stroke:none;font-family:cmmi 12;-inkscape-font-specification:cmmi12"
         x="107.7207"
         y="-17.0723"
         id="tspan2983">x</tspan></text>
<text
       transform="scale(1,-1)"
       id="text2985"
       x="116.2256"
       y="-181.49319"><tspan
         style="font-size:11.95510006px;font-variant:normal;font-weight:normal;font-stretch:normal;writing-mode:lr-tb;fill:#221814;fill-opacity:1;fill-rule:nonzero;stroke:none;font-family:cmmi 12;-inkscape-font-specification:cmmi12"
         x="116.2256"
         y="-181.49319"
         id="tspan2987">U</tspan></text>
<text
       transform="scale(1,-1)"
       id="text2989"
       x="124.1724"
       y="-179.7021"><tspan
         style="font-size:7.97009993px;font-variant:normal;font-weight:normal;font-stretch:normal;writing-mode:lr-tb;fill:#221814;fill-opacity:1;fill-rule:nonzero;stroke:none;font-family:cmmi 8;-inkscape-font-specification:cmmi8"
         x="124.1724"
         y="-179.7021"
         id="tspan2991">x</tspan></text>
<text
       transform="scale(1,-1)"
       id="text2993"
       x="132.7588"
       y="-181.49319"><tspan
         style="font-size:11.95510006px;font-variant:normal;font-weight:normal;font-stretch:normal;writing-mode:lr-tb;fill:#221814;fill-opacity:1;fill-rule:nonzero;stroke:none;font-family:cmr 12;-inkscape-font-specification:cmr12"
         x="132.7588"
         y="-181.49319"
         id="tspan2995">=</tspan></text>
<text
       transform="scale(1,-1)"
       id="text2997"
       x="145.77251"
       y="-181.49319"><tspan
         style="font-size:11.95510006px;font-variant:normal;font-weight:normal;font-stretch:normal;writing-mode:lr-tb;fill:#221814;fill-opacity:1;fill-rule:nonzero;stroke:none;font-family:cmr 12;-inkscape-font-specification:cmr12"
         x="145.77251"
         y="-181.49319"
         id="tspan2999">1</tspan></text>
<text
       transform="scale(1,-1)"
       id="text3001"
       x="155.52251"
       y="-181.49319"><tspan
         style="font-size:11.95510006px;font-variant:normal;font-weight:normal;font-stretch:normal;writing-mode:lr-tb;fill:#221814;fill-opacity:1;fill-rule:nonzero;stroke:none;font-family:cmr 12;-inkscape-font-specification:cmr12"
         x="155.52251 165.27786 171.1239"
         y="-181.49319"
         sodipodi:role="line"
         id="tspan3003">m/s</tspan></text>
<text
       transform="scale(1,-1)"
       id="text3005"
       x="-0.00050000002"
       y="-82.277802"><tspan
         style="font-size:11.95510006px;font-variant:normal;font-weight:normal;font-stretch:normal;writing-mode:lr-tb;fill:#221814;fill-opacity:1;fill-rule:nonzero;stroke:none;font-family:cmmi 12;-inkscape-font-specification:cmmi12"
         x="-0.00050000002"
         y="-82.277802"
         id="tspan3007">d</tspan></text>
<text
       transform="scale(1,-1)"
       id="text3009"
       x="9.4042997"
       y="-82.277802"><tspan
         style="font-size:11.95510006px;font-variant:normal;font-weight:normal;font-stretch:normal;writing-mode:lr-tb;fill:#221814;fill-opacity:1;fill-rule:nonzero;stroke:none;font-family:cmr 12;-inkscape-font-specification:cmr12"
         x="9.4042997"
         y="-82.277802"
         id="tspan3011">=</tspan></text>
<text
       transform="scale(1,-1)"
       id="text3013"
       x="22.4063"
       y="-82.277802"><tspan
         style="font-size:11.95510006px;font-variant:normal;font-weight:normal;font-stretch:normal;writing-mode:lr-tb;fill:#221814;fill-opacity:1;fill-rule:nonzero;stroke:none;font-family:cmr 12;-inkscape-font-specification:cmr12"
         x="22.4063 28.252344"
         y="-82.277802"
         sodipodi:role="line"
         id="tspan3015">0.</tspan></text>
<text
       transform="scale(1,-1)"
       id="text3017"
       x="31.5103"
       y="-82.277802"><tspan
         style="font-size:11.95510006px;font-variant:normal;font-weight:normal;font-stretch:normal;writing-mode:lr-tb;fill:#221814;fill-opacity:1;fill-rule:nonzero;stroke:none;font-family:cmr 12;-inkscape-font-specification:cmr12"
         x="31.5103"
         y="-82.277802"
         id="tspan3019">1</tspan></text>
<text
       transform="scale(1,-1)"
       id="text3021"
       x="41.2603"
       y="-82.277802"><tspan
         style="font-size:11.95510006px;font-variant:normal;font-weight:normal;font-stretch:normal;writing-mode:lr-tb;fill:#221814;fill-opacity:1;fill-rule:nonzero;stroke:none;font-family:cmr 12;-inkscape-font-specification:cmr12"
         x="41.2603"
         y="-82.277802"
         id="tspan3023">m</tspan></text>
<text
       transform="scale(1,-1)"
       id="text3025"
       x="80.945297"
       y="-42.587898"><tspan
         style="font-size:11.95510006px;font-variant:normal;font-weight:normal;font-stretch:normal;writing-mode:lr-tb;fill:#221814;fill-opacity:1;fill-rule:nonzero;stroke:none;font-family:cmmi 12;-inkscape-font-specification:cmmi12"
         x="80.945297"
         y="-42.587898"
         id="tspan3027">y</tspan></text>
</g></svg>