<?xml version="1.0" encoding="UTF-8" standalone="no"?>
<!-- Created with Inkscape (http://www.inkscape.org/) -->
<svg
   xmlns:dc="http://purl.org/dc/elements/1.1/"
   xmlns:cc="http://creativecommons.org/ns#"
   xmlns:rdf="http://www.w3.org/1999/02/22-rdf-syntax-ns#"
   xmlns:svg="http://www.w3.org/2000/svg"
   xmlns="http://www.w3.org/2000/svg"
   xmlns:sodipodi="http://sodipodi.sourceforge.net/DTD/sodipodi-0.dtd"
   xmlns:inkscape="http://www.inkscape.org/namespaces/inkscape"
   id="svg17429"
   sodipodi:version="0.32"
   inkscape:version="0.46"
   width="298.63251"
   height="205.39862"
   xml:space="preserve"
   sodipodi:docname="fig-A-3-a.svg"
   version="1.0"
   inkscape:output_extension="org.inkscape.output.svg.inkscape"><metadata
     id="metadata17434"><rdf:RDF><cc:Work
         rdf:about=""><dc:format>image/svg+xml</dc:format><dc:type
           rdf:resource="http://purl.org/dc/dcmitype/StillImage" /></cc:Work></rdf:RDF></metadata><defs
     id="defs17432"><inkscape:perspective
       sodipodi:type="inkscape:persp3d"
       inkscape:vp_x="0 : 526.18109 : 1"
       inkscape:vp_y="0 : 1000 : 0"
       inkscape:vp_z="744.09448 : 526.18109 : 1"
       inkscape:persp3d-origin="372.04724 : 350.78739 : 1"
       id="perspective17436" /><clipPath
       clipPathUnits="userSpaceOnUse"
       id="clipPath17452"><path
         d="M 1.501,14.243 L 73.058,14.243 L 73.058,74.209 L 1.501,74.209 L 1.501,14.243 z"
         id="path17454" /></clipPath><clipPath
       clipPathUnits="userSpaceOnUse"
       id="clipPath17500"><path
         d="M 0,0 L 242,0 L 242,162 L 0,162 L 0,0 z"
         id="path17502" /></clipPath><clipPath
       clipPathUnits="userSpaceOnUse"
       id="clipPath17510"><path
         d="M 0,0 L 242,0 L 242,162 L 0,162 L 0,0 z M 51.264,88.887 L 53.594,85.926 L 61.09,91.784 L 54.035,88.571 L 58.759,94.745 L 51.264,88.887 z"
         clip-rule="evenodd"
         id="path17512" /></clipPath><clipPath
       clipPathUnits="userSpaceOnUse"
       id="clipPath17520"><path
         d="M 0,0 L 242,0 L 242,162 L 0,162 L 0,0 z"
         id="path17522" /></clipPath><clipPath
       clipPathUnits="userSpaceOnUse"
       id="clipPath17532"><path
         d="M 148.898,87.94 L 220.455,87.94 L 220.455,147.907 L 148.898,147.907 L 148.898,87.94 z"
         id="path17534" /></clipPath><clipPath
       clipPathUnits="userSpaceOnUse"
       id="clipPath17580"><path
         d="M 0,0 L 242,0 L 242,162 L 0,162 L 0,0 z M 130.693,43.534 L 130.693,47.313 L 121.181,47.313 L 128.74,45.423 L 121.181,43.534 L 130.693,43.534 z"
         clip-rule="evenodd"
         id="path17582" /></clipPath><clipPath
       clipPathUnits="userSpaceOnUse"
       id="clipPath17590"><path
         d="M 0,0 L 242,0 L 242,162 L 0,162 L 0,0 z"
         id="path17592" /></clipPath></defs><sodipodi:namedview
     inkscape:window-height="722"
     inkscape:window-width="789"
     inkscape:pageshadow="2"
     inkscape:pageopacity="0.0"
     guidetolerance="10.0"
     gridtolerance="10.0"
     objecttolerance="10.0"
     borderopacity="1.0"
     bordercolor="#666666"
     pagecolor="#ffffff"
     id="base"
     showgrid="false"
     inkscape:zoom="2.2743802"
     inkscape:cx="151.25"
     inkscape:cy="101.25"
     inkscape:window-x="0"
     inkscape:window-y="25"
     inkscape:current-layer="g17438" /><g
     id="g17438"
     inkscape:groupmode="layer"
     inkscape:label="fig-A-3-a"
     transform="matrix(1.25,0,0,-1.25,-2.03375,202.73861)"><g
       clip-path="none"
       id="g17442"><g
         id="g17448"><g
           clip-path="url(#clipPath17452)"
           id="g17450"><path
             id="path17456"
             style="fill:#221814;fill-opacity:1;fill-rule:evenodd;stroke:none"
             d="M 17.539,40.121 L 57.219,40.121 L 57.219,36.755 L 17.539,36.755 L 17.539,40.121 z" /><path
             id="path17458"
             style="fill:none;stroke:#221814;stroke-width:0.142;stroke-linecap:butt;stroke-linejoin:bevel;stroke-miterlimit:2.61299992;stroke-dasharray:none;stroke-opacity:1"
             d="M 17.538,40.121 L 57.217,40.121 L 57.217,36.755 L 17.538,36.755 L 17.538,40.121 z" /><path
             id="path17460"
             style="fill:#221814;fill-opacity:1;fill-rule:evenodd;stroke:none"
             d="M 15.091,39.709 L 59.695,39.709 L 59.695,74.037 L 15.091,74.037 L 15.091,39.709 z" /><path
             id="path17462"
             style="fill:none;stroke:#221814;stroke-width:0.142;stroke-linecap:butt;stroke-linejoin:bevel;stroke-miterlimit:2.61299992;stroke-dasharray:none;stroke-opacity:1"
             d="M 15.091,39.709 L 59.694,39.709 L 59.694,74.037 L 15.091,74.037 L 15.091,39.709 z" /><path
             id="path17464"
             style="fill:#221814;fill-opacity:1;fill-rule:evenodd;stroke:none"
             d="M 12.473,37.593 L 62.086,37.593 L 62.086,24.328 L 12.473,24.328 L 12.473,37.593 z" /><path
             id="path17466"
             style="fill:none;stroke:#221814;stroke-width:0.142;stroke-linecap:butt;stroke-linejoin:bevel;stroke-miterlimit:2.61299992;stroke-dasharray:none;stroke-opacity:1"
             d="M 12.472,37.593 L 62.085,37.593 L 62.085,24.327 L 12.472,24.327 L 12.472,37.593 z" /><path
             id="path17468"
             style="fill:#ffffff;fill-opacity:1;fill-rule:evenodd;stroke:none"
             d="M 44.751,35.491 L 59.752,35.491 L 59.752,28.319 L 44.751,28.319 L 44.751,35.491 z" /><path
             id="path17470"
             style="fill:none;stroke:#221814;stroke-width:0.142;stroke-linecap:butt;stroke-linejoin:bevel;stroke-miterlimit:2.61299992;stroke-dasharray:none;stroke-opacity:1"
             d="M 44.75,35.491 L 59.751,35.491 L 59.751,28.319 L 44.75,28.319 L 44.75,35.491 z" /><path
             id="path17472"
             style="fill:#221814;fill-opacity:1;fill-rule:evenodd;stroke:none"
             d="M 44.751,32.11 L 59.752,32.11 L 59.752,31.272 L 44.751,31.272 L 44.751,32.11 z" /><path
             id="path17474"
             style="fill:none;stroke:#221814;stroke-width:0.142;stroke-linecap:butt;stroke-linejoin:bevel;stroke-miterlimit:2.61299992;stroke-dasharray:none;stroke-opacity:1"
             d="M 44.75,32.11 L 59.751,32.11 L 59.751,31.272 L 44.75,31.272 L 44.75,32.11 z" /><path
             id="path17476"
             style="fill:#221814;fill-opacity:1;fill-rule:evenodd;stroke:none"
             d="M 50.53,33.588 L 54.557,33.588 L 54.557,29.796 L 50.53,29.796 L 50.53,33.588 z" /><path
             id="path17478"
             style="fill:none;stroke:#221814;stroke-width:0.142;stroke-linecap:butt;stroke-linejoin:bevel;stroke-miterlimit:2.61299992;stroke-dasharray:none;stroke-opacity:1"
             d="M 50.528,33.588 L 54.557,33.588 L 54.557,29.796 L 50.528,29.796 L 50.528,33.588 z" /><path
             id="path17480"
             style="fill:#ffffff;fill-opacity:1;fill-rule:evenodd;stroke:none"
             d="M 12.444,26.43 L 1.77,15.75 L 1.699,15.423 L 1.699,15.039 L 1.827,14.67 L 2.325,14.415 L 72.234,14.415 L 72.746,14.485 L 72.86,14.968 L 72.746,15.537 L 72.405,16.021 L 62.086,26.43 L 12.444,26.43 z" /><path
             id="path17482"
             style="fill:none;stroke:#221814;stroke-width:0.142;stroke-linecap:butt;stroke-linejoin:bevel;stroke-miterlimit:2.61299992;stroke-dasharray:none;stroke-opacity:1"
             d="M 12.443,26.43 L 1.769,15.75 L 1.698,15.423 L 1.698,15.04 L 1.826,14.67 L 2.324,14.414 L 72.233,14.414 L 72.746,14.485 L 72.858,14.969 L 72.746,15.537 L 72.403,16.02 L 62.085,26.43 L 12.443,26.43 z" /><path
             id="path17484"
             style="fill:#221814;fill-opacity:1;fill-rule:evenodd;stroke:none"
             d="M 49.192,25.166 L 13.682,25.166 L 10.139,21.161 L 13.014,21.147 L 10.779,18.207 L 50.046,18.207 L 48.978,20.749 L 51.298,20.749 L 49.69,24.2 L 49.192,25.166 z" /><path
             id="path17486"
             style="fill:none;stroke:#221814;stroke-width:0.142;stroke-linecap:butt;stroke-linejoin:bevel;stroke-miterlimit:2.61299992;stroke-dasharray:none;stroke-opacity:1"
             d="M 49.191,25.166 L 13.681,25.166 L 10.138,21.161 L 13.013,21.146 L 10.778,18.206 L 50.045,18.206 L 48.978,20.749 L 51.297,20.749 L 49.688,24.2 L 49.191,25.166 z" /><path
             id="path17488"
             style="fill:#221814;fill-opacity:1;fill-rule:evenodd;stroke:none"
             d="M 52.138,25.166 L 56.151,18.618 L 66.299,18.618 L 60.507,25.138 L 52.138,25.166 z" /><path
             id="path17490"
             style="fill:none;stroke:#221814;stroke-width:0.142;stroke-linecap:butt;stroke-linejoin:bevel;stroke-miterlimit:2.61299992;stroke-dasharray:none;stroke-opacity:1"
             d="M 52.137,25.166 L 56.15,18.618 L 66.298,18.618 L 60.506,25.137 L 52.137,25.166 z" /><path
             id="path17492"
             style="fill:#ffffff;fill-opacity:1;fill-rule:evenodd;stroke:none"
             d="M 18.55,44.724 L 18.55,69.052 L 18.635,69.464 L 18.849,69.89 L 19.09,70.231 L 19.375,70.528 L 19.802,70.771 L 20.258,70.969 L 20.827,71.054 L 53.988,71.054 L 54.344,71.04 L 54.856,70.927 L 55.226,70.771 L 55.596,70.558 L 55.838,70.344 L 56.108,70.019 L 56.308,69.521 L 56.365,68.995 L 56.365,44.567 L 56.223,44.112 L 55.981,43.7 L 55.625,43.358 L 55.084,43.033 L 54.699,42.919 L 54.13,42.834 L 20.642,42.834 L 19.93,43.004 L 19.361,43.331 L 19.005,43.658 L 18.749,44.026 L 18.664,44.269 L 18.592,44.608 L 18.55,44.724 z" /><path
             id="path17494"
             style="fill:none;stroke:#221814;stroke-width:0.142;stroke-linecap:butt;stroke-linejoin:bevel;stroke-miterlimit:2.61299992;stroke-dasharray:none;stroke-opacity:1"
             d="M 18.549,44.723 L 18.549,69.052 L 18.634,69.464 L 18.848,69.89 L 19.09,70.231 L 19.374,70.528 L 19.802,70.771 L 20.257,70.97 L 20.826,71.054 L 53.987,71.054 L 54.343,71.04 L 54.855,70.927 L 55.225,70.771 L 55.596,70.558 L 55.837,70.344 L 56.107,70.017 L 56.308,69.521 L 56.363,68.995 L 56.363,44.566 L 56.221,44.112 L 55.98,43.7 L 55.624,43.358 L 55.083,43.032 L 54.699,42.919 L 54.129,42.833 L 20.641,42.833 L 19.93,43.005 L 19.36,43.331 L 19.005,43.657 L 18.749,44.026 L 18.662,44.269 L 18.591,44.609 L 18.549,44.723 z" /></g></g><g
         id="g17496"><g
           clip-path="url(#clipPath17500)"
           id="g17498"><path
             id="path17504"
             style="fill:none;stroke:#000000;stroke-width:0.472;stroke-linecap:butt;stroke-linejoin:miter;stroke-miterlimit:10;stroke-dasharray:none;stroke-opacity:1"
             d="M 129.748,8.574 L 240.297,8.574 L 240.297,85.107 L 129.748,85.107 L 129.748,8.574 z" /></g></g><g
         id="g17506"><g
           clip-path="url(#clipPath17510)"
           id="g17508"><path
             id="path17514"
             style="fill:none;stroke:#000000;stroke-width:0.472;stroke-linecap:butt;stroke-linejoin:miter;stroke-miterlimit:10;stroke-dasharray:none;stroke-opacity:1"
             d="M 143.891,121.95 C 110.736,121.082 78.83,109.122 53.275,87.981" /></g></g><g
         id="g17516"><g
           clip-path="url(#clipPath17520)"
           id="g17518"><path
             id="path17524"
             style="fill:#000000;fill-opacity:1;fill-rule:evenodd;stroke:none"
             d="M 58.759,94.745 L 54.035,88.571 L 61.09,91.784 L 58.759,94.745 z" /><path
             id="path17526"
             style="fill:none;stroke:#000000;stroke-width:0.472;stroke-linecap:butt;stroke-linejoin:miter;stroke-miterlimit:10;stroke-dasharray:none;stroke-opacity:1"
             d="M 58.759,94.745 L 54.035,88.571 L 61.09,91.784 L 58.759,94.745 z" /></g></g><g
         id="g17528"><g
           clip-path="url(#clipPath17532)"
           id="g17530"><path
             id="path17536"
             style="fill:#221814;fill-opacity:1;fill-rule:evenodd;stroke:none"
             d="M 164.936,113.819 L 204.616,113.819 L 204.616,110.453 L 164.936,110.453 L 164.936,113.819 z" /><path
             id="path17538"
             style="fill:none;stroke:#221814;stroke-width:0.142;stroke-linecap:butt;stroke-linejoin:bevel;stroke-miterlimit:2.61299992;stroke-dasharray:none;stroke-opacity:1"
             d="M 164.936,113.819 L 204.613,113.819 L 204.613,110.452 L 164.936,110.452 L 164.936,113.819 z" /><path
             id="path17540"
             style="fill:#221814;fill-opacity:1;fill-rule:evenodd;stroke:none"
             d="M 162.488,113.407 L 207.092,113.407 L 207.092,147.735 L 162.488,147.735 L 162.488,113.407 z" /><path
             id="path17542"
             style="fill:none;stroke:#221814;stroke-width:0.142;stroke-linecap:butt;stroke-linejoin:bevel;stroke-miterlimit:2.61299992;stroke-dasharray:none;stroke-opacity:1"
             d="M 162.486,113.407 L 207.09,113.407 L 207.09,147.735 L 162.486,147.735 L 162.486,113.407 z" /><path
             id="path17544"
             style="fill:#221814;fill-opacity:1;fill-rule:evenodd;stroke:none"
             d="M 159.869,111.291 L 209.482,111.291 L 209.482,98.026 L 159.869,98.026 L 159.869,111.291 z" /><path
             id="path17546"
             style="fill:none;stroke:#221814;stroke-width:0.142;stroke-linecap:butt;stroke-linejoin:bevel;stroke-miterlimit:2.61299992;stroke-dasharray:none;stroke-opacity:1"
             d="M 159.869,111.291 L 209.482,111.291 L 209.482,98.026 L 159.869,98.026 L 159.869,111.291 z" /><path
             id="path17548"
             style="fill:#ffffff;fill-opacity:1;fill-rule:evenodd;stroke:none"
             d="M 192.148,109.188 L 207.148,109.188 L 207.148,102.016 L 192.148,102.016 L 192.148,109.188 z" /><path
             id="path17550"
             style="fill:none;stroke:#221814;stroke-width:0.142;stroke-linecap:butt;stroke-linejoin:bevel;stroke-miterlimit:2.61299992;stroke-dasharray:none;stroke-opacity:1"
             d="M 192.146,109.188 L 207.148,109.188 L 207.148,102.017 L 192.146,102.017 L 192.146,109.188 z" /><path
             id="path17552"
             style="fill:#221814;fill-opacity:1;fill-rule:evenodd;stroke:none"
             d="M 192.148,105.81 L 207.148,105.81 L 207.148,104.971 L 192.148,104.971 L 192.148,105.81 z" /><path
             id="path17554"
             style="fill:none;stroke:#221814;stroke-width:0.142;stroke-linecap:butt;stroke-linejoin:bevel;stroke-miterlimit:2.61299992;stroke-dasharray:none;stroke-opacity:1"
             d="M 192.146,105.809 L 207.148,105.809 L 207.148,104.971 L 192.146,104.971 L 192.146,105.809 z" /><path
             id="path17556"
             style="fill:#221814;fill-opacity:1;fill-rule:evenodd;stroke:none"
             d="M 197.926,107.286 L 201.955,107.286 L 201.955,103.494 L 197.926,103.494 L 197.926,107.286 z" /><path
             id="path17558"
             style="fill:none;stroke:#221814;stroke-width:0.142;stroke-linecap:butt;stroke-linejoin:bevel;stroke-miterlimit:2.61299992;stroke-dasharray:none;stroke-opacity:1"
             d="M 197.926,107.286 L 201.953,107.286 L 201.953,103.494 L 197.926,103.494 L 197.926,107.286 z" /><path
             id="path17560"
             style="fill:#ffffff;fill-opacity:1;fill-rule:evenodd;stroke:none"
             d="M 159.84,100.128 L 149.166,89.448 L 149.096,89.121 L 149.096,88.737 L 149.223,88.368 L 149.721,88.112 L 219.631,88.112 L 220.143,88.185 L 220.258,88.666 L 220.143,89.235 L 219.801,89.718 L 209.482,100.128 L 159.84,100.128 z" /><path
             id="path17562"
             style="fill:none;stroke:#221814;stroke-width:0.142;stroke-linecap:butt;stroke-linejoin:bevel;stroke-miterlimit:2.61299992;stroke-dasharray:none;stroke-opacity:1"
             d="M 159.84,100.128 L 149.166,89.448 L 149.094,89.121 L 149.094,88.737 L 149.223,88.368 L 149.721,88.112 L 219.629,88.112 L 220.143,88.183 L 220.256,88.667 L 220.143,89.235 L 219.799,89.718 L 209.482,100.128 L 159.84,100.128 z" /><path
             id="path17564"
             style="fill:#221814;fill-opacity:1;fill-rule:evenodd;stroke:none"
             d="M 196.588,98.864 L 161.08,98.864 L 157.535,94.858 L 160.41,94.845 L 158.176,91.905 L 197.441,91.905 L 196.375,94.446 L 198.695,94.446 L 197.086,97.897 L 196.588,98.864 z" /><path
             id="path17566"
             style="fill:none;stroke:#221814;stroke-width:0.142;stroke-linecap:butt;stroke-linejoin:bevel;stroke-miterlimit:2.61299992;stroke-dasharray:none;stroke-opacity:1"
             d="M 196.586,98.864 L 161.078,98.864 L 157.533,94.859 L 160.408,94.845 L 158.174,91.904 L 197.441,91.904 L 196.373,94.446 L 198.693,94.446 L 197.086,97.897 L 196.586,98.864 z" /><path
             id="path17568"
             style="fill:#221814;fill-opacity:1;fill-rule:evenodd;stroke:none"
             d="M 199.535,98.864 L 203.549,92.315 L 213.695,92.315 L 207.902,98.836 L 199.535,98.864 z" /><path
             id="path17570"
             style="fill:none;stroke:#221814;stroke-width:0.142;stroke-linecap:butt;stroke-linejoin:bevel;stroke-miterlimit:2.61299992;stroke-dasharray:none;stroke-opacity:1"
             d="M 199.533,98.864 L 203.547,92.315 L 213.695,92.315 L 207.902,98.835 L 199.533,98.864 z" /><path
             id="path17572"
             style="fill:#ffffff;fill-opacity:1;fill-rule:evenodd;stroke:none"
             d="M 165.945,118.421 L 165.945,142.75 L 166.031,143.162 L 166.246,143.588 L 166.486,143.929 L 166.771,144.228 L 167.199,144.468 L 167.654,144.667 L 168.223,144.752 L 201.385,144.752 L 201.74,144.737 L 202.254,144.625 L 202.623,144.468 L 202.994,144.256 L 203.234,144.042 L 203.506,143.716 L 203.705,143.219 L 203.762,142.692 L 203.762,118.265 L 203.619,117.81 L 203.377,117.397 L 203.021,117.058 L 202.48,116.731 L 202.096,116.617 L 201.527,116.532 L 168.039,116.532 L 167.328,116.702 L 166.758,117.028 L 166.402,117.356 L 166.146,117.726 L 166.061,117.966 L 165.988,118.308 L 165.945,118.421 z" /><path
             id="path17574"
             style="fill:none;stroke:#221814;stroke-width:0.142;stroke-linecap:butt;stroke-linejoin:bevel;stroke-miterlimit:2.61299992;stroke-dasharray:none;stroke-opacity:1"
             d="M 165.945,118.421 L 165.945,142.75 L 166.031,143.161 L 166.244,143.587 L 166.486,143.929 L 166.771,144.227 L 167.197,144.468 L 167.654,144.667 L 168.223,144.752 L 201.383,144.752 L 201.738,144.737 L 202.252,144.624 L 202.621,144.468 L 202.992,144.255 L 203.234,144.042 L 203.504,143.715 L 203.703,143.219 L 203.76,142.693 L 203.76,118.265 L 203.617,117.81 L 203.375,117.398 L 203.02,117.057 L 202.479,116.73 L 202.094,116.617 L 201.525,116.531 L 168.037,116.531 L 167.326,116.702 L 166.756,117.028 L 166.4,117.355 L 166.145,117.726 L 166.059,117.966 L 165.988,118.308 L 165.945,118.421 z" /></g></g><g
         id="g17576"><g
           clip-path="url(#clipPath17580)"
           id="g17578"><path
             id="path17584"
             style="fill:none;stroke:#000000;stroke-width:0.472;stroke-linecap:butt;stroke-linejoin:miter;stroke-miterlimit:10;stroke-dasharray:none;stroke-opacity:1"
             d="M 129.748,45.423 L 73.058,45.423" /></g></g><g
         id="g17586"><g
           clip-path="url(#clipPath17590)"
           id="g17588"><path
             id="path17594"
             style="fill:#000000;fill-opacity:1;fill-rule:evenodd;stroke:none"
             d="M 121.181,43.534 L 128.74,45.423 L 121.181,47.313 L 121.181,43.534 z" /><path
             id="path17596"
             style="fill:none;stroke:#000000;stroke-width:0.472;stroke-linecap:butt;stroke-linejoin:miter;stroke-miterlimit:10;stroke-dasharray:none;stroke-opacity:1"
             d="M 121.181,43.534 L 128.74,45.423 L 121.181,47.313 L 121.181,43.534 z" /><path
             id="path17598"
             style="fill:none;stroke:#000000;stroke-width:0.472;stroke-linecap:butt;stroke-linejoin:miter;stroke-miterlimit:10;stroke-dasharray:none;stroke-opacity:1"
             d="M 129.748,68.101 L 240.297,68.101" /><path
             id="path17600"
             style="fill:none;stroke:#000000;stroke-width:0.472;stroke-linecap:butt;stroke-linejoin:miter;stroke-miterlimit:10;stroke-dasharray:3.779, 3.779;stroke-dashoffset:0;stroke-opacity:1"
             d="M 129.748,51.093 L 240.297,51.093" /></g></g><text
         id="text17602"
         transform="matrix(1,0,0,-1,29.4209,116.2261)"><tspan
           id="tspan17604"
           sodipodi:role="line"
           y="0"
           x="0 8.4522552"
           style="font-size:11.95510006px;font-variant:normal;font-weight:normal;font-stretch:normal;writing-mode:lr-tb;fill:#000000;fill-opacity:1;fill-rule:nonzero;stroke:none;font-family:cmr 12;-inkscape-font-specification:cmr12">Co</tspan></text>
<text
         id="text17606"
         transform="matrix(1,0,0,-1,43.7275,116.2261)"><tspan
           id="tspan17608"
           y="0"
           x="0"
           style="font-size:11.95510006px;font-variant:normal;font-weight:normal;font-stretch:normal;writing-mode:lr-tb;fill:#000000;fill-opacity:1;fill-rule:nonzero;stroke:none;font-family:cmr 12;-inkscape-font-specification:cmr12">p</tspan></text>
<text
         id="text17610"
         transform="matrix(1,0,0,-1,49.9204,116.2261)"><tspan
           id="tspan17612"
           y="0"
           x="0"
           style="font-size:11.95510006px;font-variant:normal;font-weight:normal;font-stretch:normal;writing-mode:lr-tb;fill:#000000;fill-opacity:1;fill-rule:nonzero;stroke:none;font-family:cmr 12;-inkscape-font-specification:cmr12">y</tspan></text>
<text
         id="text17614"
         transform="matrix(1,0,0,-1,59.9937,116.2261)"><tspan
           id="tspan17616"
           sodipodi:role="line"
           y="0"
           x="0 6.0014601 10.484623 13.73641 17.717459 22.917927"
           style="font-size:11.95510006px;font-variant:normal;font-weight:normal;font-stretch:normal;writing-mode:lr-tb;fill:#000000;fill-opacity:1;fill-rule:nonzero;stroke:none;font-family:cmssi 12;-inkscape-font-specification:cmssi12">ns.ref</tspan></text>
<text
         id="text17618"
         transform="matrix(1,0,0,-1,9.9536,0)"><tspan
           id="tspan17620"
           sodipodi:role="line"
           y="0"
           x="0 6.5035744 11.058468 16.90451 21.459404"
           style="font-size:11.95510006px;font-variant:normal;font-weight:normal;font-stretch:normal;writing-mode:lr-tb;fill:#000000;fill-opacity:1;fill-rule:nonzero;stroke:none;font-family:cmr 12;-inkscape-font-specification:cmr12">Start</tspan></text>
<text
         id="text17622"
         transform="matrix(1,0,0,-1,39.8691,0)"><tspan
           id="tspan17624"
           y="0"
           x="0"
           style="font-size:11.95510006px;font-variant:normal;font-weight:normal;font-stretch:normal;writing-mode:lr-tb;fill:#000000;fill-opacity:1;fill-rule:nonzero;stroke:none;font-family:cmss 12;-inkscape-font-specification:cmss12">F</tspan></text>
<text
         id="text17626"
         transform="matrix(1,0,0,-1,46.1948,0)"><tspan
           id="tspan17628"
           sodipodi:role="line"
           y="0"
           x="0 5.8460441 11.452986 20.706234"
           style="font-size:11.95510006px;font-variant:normal;font-weight:normal;font-stretch:normal;writing-mode:lr-tb;fill:#000000;fill-opacity:1;fill-rule:nonzero;stroke:none;font-family:cmss 12;-inkscape-font-specification:cmss12">oamX</tspan></text>
<text
         id="text17630"
         transform="matrix(1,0,0,-1,77.9844,34.0205)"><tspan
           id="tspan17632"
           sodipodi:role="line"
           y="0"
           x="0 5.2004685 11.046513 17.550087 24.053661 29.254129 34.454597"
           style="font-size:11.95510006px;font-variant:normal;font-weight:normal;font-stretch:normal;writing-mode:lr-tb;fill:#000000;fill-opacity:1;fill-rule:nonzero;stroke:none;font-family:cmr 12;-inkscape-font-specification:cmr12">connect</tspan></text>
<text
         id="text17634"
         transform="matrix(1,0,0,-1,131.8496,56.6909)"><tspan
           id="tspan17636"
           y="0"
           x="0"
           style="font-size:11.95510006px;font-variant:normal;font-weight:normal;font-stretch:normal;writing-mode:lr-tb;fill:#000000;fill-opacity:1;fill-rule:nonzero;stroke:none;font-family:cmss 12;-inkscape-font-specification:cmss12">F</tspan></text>
<text
         id="text17638"
         transform="matrix(1,0,0,-1,138.1748,56.6909)"><tspan
           id="tspan17640"
           sodipodi:role="line"
           y="0"
           x="0 5.8460441 11.452986 20.706234 28.441183 36.64238 42.500381 46.983543 51.215649 58.986462"
           style="font-size:11.95510006px;font-variant:normal;font-weight:normal;font-stretch:normal;writing-mode:lr-tb;fill:#000000;fill-opacity:1;fill-rule:nonzero;stroke:none;font-family:cmss 12;-inkscape-font-specification:cmss12">oamXHostBr</tspan></text>
<text
         id="text17642"
         transform="matrix(1,0,0,-1,201.1426,56.6909)"><tspan
           id="tspan17644"
           y="0"
           x="0"
           style="font-size:11.95510006px;font-variant:normal;font-weight:normal;font-stretch:normal;writing-mode:lr-tb;fill:#000000;fill-opacity:1;fill-rule:nonzero;stroke:none;font-family:cmss 12;-inkscape-font-specification:cmss12">o</tspan></text>
<text
         id="text17646"
         transform="matrix(1,0,0,-1,206.6836,56.6909)"><tspan
           id="tspan17648"
           sodipodi:role="line"
           y="0"
           x="0 7.9620967 12.445259 17.645727"
           style="font-size:11.95510006px;font-variant:normal;font-weight:normal;font-stretch:normal;writing-mode:lr-tb;fill:#000000;fill-opacity:1;fill-rule:nonzero;stroke:none;font-family:cmss 12;-inkscape-font-specification:cmss12">wser</tspan></text>
<text
         id="text17650"
         transform="matrix(1,0,0,-1,138.4375,73.7012)"><tspan
           id="tspan17652"
           sodipodi:role="line"
           y="0"
           x="0 10.149879 13.329936 20.801874"
           style="font-size:11.95510006px;font-variant:normal;font-weight:normal;font-stretch:normal;writing-mode:lr-tb;fill:#000000;fill-opacity:1;fill-rule:nonzero;stroke:none;font-family:cmss 12;-inkscape-font-specification:cmss12">MICO</tspan></text>
<text
         id="text17654"
         transform="matrix(1,0,0,-1,171.791,73.7012)"><tspan
           id="tspan17656"
           sodipodi:role="line"
           y="0"
           x="0 6.5035744 12.361573"
           style="font-size:11.95510006px;font-variant:normal;font-weight:normal;font-stretch:normal;writing-mode:lr-tb;fill:#000000;fill-opacity:1;fill-rule:nonzero;stroke:none;font-family:cmr 12;-inkscape-font-specification:cmr12">nam</tspan></text>
<text
         id="text17658"
         transform="matrix(1,0,0,-1,193.9023,73.7012)"><tspan
           id="tspan17660"
           y="0"
           x="0"
           style="font-size:11.95510006px;font-variant:normal;font-weight:normal;font-stretch:normal;writing-mode:lr-tb;fill:#000000;fill-opacity:1;fill-rule:nonzero;stroke:none;font-family:cmr 12;-inkscape-font-specification:cmr12">e</tspan></text>
<text
         id="text17662"
         transform="matrix(1,0,0,-1,202.9902,73.7012)"><tspan
           id="tspan17664"
           sodipodi:role="line"
           y="0"
           x="0 4.6146684 9.8151369"
           style="font-size:11.95510006px;font-variant:normal;font-weight:normal;font-stretch:normal;writing-mode:lr-tb;fill:#000000;fill-opacity:1;fill-rule:nonzero;stroke:none;font-family:cmr 12;-inkscape-font-specification:cmr12">ser</tspan></text>
<text
         id="text17666"
         transform="matrix(1,0,0,-1,217.3623,73.7012)"><tspan
           id="tspan17668"
           y="0"
           x="0"
           style="font-size:11.95510006px;font-variant:normal;font-weight:normal;font-stretch:normal;writing-mode:lr-tb;fill:#000000;fill-opacity:1;fill-rule:nonzero;stroke:none;font-family:cmr 12;-inkscape-font-specification:cmr12">v</tspan></text>
<text
         id="text17670"
         transform="matrix(1,0,0,-1,223.2168,73.7012)"><tspan
           id="tspan17672"
           sodipodi:role="line"
           y="0"
           x="0 5.2004685"
           style="font-size:11.95510006px;font-variant:normal;font-weight:normal;font-stretch:normal;writing-mode:lr-tb;fill:#000000;fill-opacity:1;fill-rule:nonzero;stroke:none;font-family:cmr 12;-inkscape-font-specification:cmr12">er</tspan></text>
<text
         id="text17674"
         transform="matrix(1,0,0,-1,151.6943,153.0811)"><tspan
           id="tspan17676"
           sodipodi:role="line"
           y="0"
           x="0 6.5035744 12.361573"
           style="font-size:11.95510006px;font-variant:normal;font-weight:normal;font-stretch:normal;writing-mode:lr-tb;fill:#000000;fill-opacity:1;fill-rule:nonzero;stroke:none;font-family:cmr 12;-inkscape-font-specification:cmr12">hos</tspan></text>
<text
         id="text17678"
         transform="matrix(1,0,0,-1,168.668,153.0811)"><tspan
           id="tspan17680"
           y="0"
           x="0"
           style="font-size:11.95510006px;font-variant:normal;font-weight:normal;font-stretch:normal;writing-mode:lr-tb;fill:#000000;fill-opacity:1;fill-rule:nonzero;stroke:none;font-family:cmr 12;-inkscape-font-specification:cmr12">t</tspan></text>
<text
         id="text17682"
         transform="matrix(1,0,0,-1,177.1172,153.0811)"><tspan
           id="tspan17684"
           sodipodi:role="line"
           y="0"
           x="0 9.7553616"
           style="font-size:11.95510006px;font-variant:normal;font-weight:normal;font-stretch:normal;writing-mode:lr-tb;fill:#000000;fill-opacity:1;fill-rule:nonzero;stroke:none;font-family:cmr 12;-inkscape-font-specification:cmr12">ma</tspan></text>
<text
         id="text17686"
         transform="matrix(1,0,0,-1,192.7246,153.0811)"><tspan
           id="tspan17688"
           y="0"
           x="0"
           style="font-size:11.95510006px;font-variant:normal;font-weight:normal;font-stretch:normal;writing-mode:lr-tb;fill:#000000;fill-opacity:1;fill-rule:nonzero;stroke:none;font-family:cmr 12;-inkscape-font-specification:cmr12">c</tspan></text>
<text
         id="text17690"
         transform="matrix(1,0,0,-1,197.6045,153.0811)"><tspan
           id="tspan17692"
           sodipodi:role="line"
           y="0"
           x="0 6.5035744 9.7553616 16.258936"
           style="font-size:11.95510006px;font-variant:normal;font-weight:normal;font-stretch:normal;writing-mode:lr-tb;fill:#000000;fill-opacity:1;fill-rule:nonzero;stroke:none;font-family:cmr 12;-inkscape-font-specification:cmr12">hine</tspan></text>
</g></g></svg>