<?xml version="1.0" encoding="UTF-8" standalone="no"?>
<!-- Created with Inkscape (http://www.inkscape.org/) -->
<svg
   xmlns:dc="http://purl.org/dc/elements/1.1/"
   xmlns:cc="http://creativecommons.org/ns#"
   xmlns:rdf="http://www.w3.org/1999/02/22-rdf-syntax-ns#"
   xmlns:svg="http://www.w3.org/2000/svg"
   xmlns="http://www.w3.org/2000/svg"
   xmlns:sodipodi="http://sodipodi.sourceforge.net/DTD/sodipodi-0.dtd"
   xmlns:inkscape="http://www.inkscape.org/namespaces/inkscape"
   id="svg6808"
   sodipodi:version="0.32"
   inkscape:version="0.46"
   width="431.86249"
   height="339.2467"
   xml:space="preserve"
   sodipodi:docname="fig-2-20.svg"
   version="1.0"
   inkscape:output_extension="org.inkscape.output.svg.inkscape"><metadata
     id="metadata6813"><rdf:RDF><cc:Work
         rdf:about=""><dc:format>image/svg+xml</dc:format><dc:type
           rdf:resource="http://purl.org/dc/dcmitype/StillImage" /></cc:Work></rdf:RDF></metadata><defs
     id="defs6811"><inkscape:perspective
   sodipodi:type="inkscape:persp3d"
   inkscape:vp_x="0 : 526.18109 : 1"
   inkscape:vp_y="0 : 1000 : 0"
   inkscape:vp_z="744.09448 : 526.18109 : 1"
   inkscape:persp3d-origin="372.04724 : 350.78739 : 1"
   id="perspective6815" /><clipPath
   clipPathUnits="userSpaceOnUse"
   id="clipPath6831"><path
     d="M 39.375,2.056 L 302.375,2.056 L 302.375,273.056 L 39.375,273.056 L 39.375,2.056 z"
     id="path6833" /></clipPath><clipPath
   clipPathUnits="userSpaceOnUse"
   id="clipPath6845"><path
     d="M 39.375,2.056 L 302.375,2.056 L 302.375,273.056 L 39.375,273.056 L 39.375,2.056 z M 185.857,14.427 L 178.174,14.427 L 178.174,11.529 L 185.857,11.529 L 180.125,12.979 L 185.857,14.427 z"
     clip-rule="evenodd"
     id="path6847" /></clipPath><clipPath
   clipPathUnits="userSpaceOnUse"
   id="clipPath6855"><path
     d="M 39.375,2.056 L 302.375,2.056 L 302.375,273.056 L 39.375,273.056 L 39.375,2.056 z"
     id="path6857" /></clipPath><clipPath
   clipPathUnits="userSpaceOnUse"
   id="clipPath6867"><path
     d="M 39.375,2.056 L 302.375,2.056 L 302.375,273.056 L 39.375,273.056 L 39.375,2.056 z M 186.361,54.552 L 186.361,46.804 L 189.26,46.804 L 189.26,54.552 L 187.811,48.757 L 186.361,54.552 z"
     clip-rule="evenodd"
     id="path6869" /></clipPath><clipPath
   clipPathUnits="userSpaceOnUse"
   id="clipPath6877"><path
     d="M 39.375,2.056 L 302.375,2.056 L 302.375,273.056 L 39.375,273.056 L 39.375,2.056 z"
     id="path6879" /></clipPath><clipPath
   clipPathUnits="userSpaceOnUse"
   id="clipPath6889"><path
     d="M 39.375,2.056 L 302.375,2.056 L 302.375,273.056 L 39.375,273.056 L 39.375,2.056 z M 189.26,23.624 L 189.26,31.308 L 186.361,31.308 L 186.361,23.624 L 187.811,29.355 L 189.26,23.624 z"
     clip-rule="evenodd"
     id="path6891" /></clipPath><clipPath
   clipPathUnits="userSpaceOnUse"
   id="clipPath6899"><path
     d="M 39.375,2.056 L 302.375,2.056 L 302.375,273.056 L 39.375,273.056 L 39.375,2.056 z"
     id="path6901" /></clipPath><clipPath
   clipPathUnits="userSpaceOnUse"
   id="clipPath6911"><path
     d="M 39.375,2.056 L 302.375,2.056 L 302.375,273.056 L 39.375,273.056 L 39.375,2.056 z M 272.281,254.923 L 280.027,254.923 L 280.027,257.821 L 272.281,257.821 L 278.074,256.372 L 272.281,254.923 z M 68.507,257.821 L 60.822,257.821 L 60.822,254.923 L 68.507,254.923 L 62.775,256.372 L 68.507,257.821 z"
     clip-rule="evenodd"
     id="path6913" /></clipPath><clipPath
   clipPathUnits="userSpaceOnUse"
   id="clipPath6921"><path
     d="M 39.375,2.056 L 302.375,2.056 L 302.375,273.056 L 39.375,273.056 L 39.375,2.056 z"
     id="path6923" /></clipPath><clipPath
   clipPathUnits="userSpaceOnUse"
   id="clipPath6937"><path
     d="M 39.375,2.056 L 302.375,2.056 L 302.375,273.056 L 39.375,273.056 L 39.375,2.056 z M 294.957,37.167 L 294.957,29.419 L 297.916,29.419 L 297.916,37.167 L 296.469,31.372 L 294.957,37.167 z M 297.916,240.938 L 297.916,248.624 L 294.957,248.624 L 294.957,240.938 L 296.469,246.671 L 297.916,240.938 z"
     clip-rule="evenodd"
     id="path6939" /></clipPath><clipPath
   clipPathUnits="userSpaceOnUse"
   id="clipPath6947"><path
     d="M 39.375,2.056 L 302.375,2.056 L 302.375,273.056 L 39.375,273.056 L 39.375,2.056 z"
     id="path6949" /></clipPath><clipPath
   clipPathUnits="userSpaceOnUse"
   id="clipPath6967"><path
     d="M 39.375,2.056 L 302.375,2.056 L 302.375,273.056 L 39.375,273.056 L 39.375,2.056 z M 111.844,11.529 L 119.592,11.529 L 119.592,14.49 L 111.844,14.49 L 117.639,12.979 L 111.844,11.529 z M 68.507,14.49 L 60.822,14.49 L 60.822,11.529 L 68.507,11.529 L 62.775,12.979 L 68.507,14.49 z"
     clip-rule="evenodd"
     id="path6969" /></clipPath><clipPath
   clipPathUnits="userSpaceOnUse"
   id="clipPath6977"><path
     d="M 39.375,2.056 L 302.375,2.056 L 302.375,273.056 L 39.375,273.056 L 39.375,2.056 z"
     id="path6979" /></clipPath><clipPath
   clipPathUnits="userSpaceOnUse"
   id="clipPath6993"><path
     d="M 39.375,2.056 L 302.375,2.056 L 302.375,273.056 L 39.375,273.056 L 39.375,2.056 z M 163.623,11.529 L 171.37,11.529 L 171.37,14.49 L 163.623,14.49 L 169.417,12.979 L 163.623,11.529 z M 125.387,14.49 L 117.703,14.49 L 117.703,11.529 L 125.387,11.529 L 119.656,12.979 L 125.387,14.49 z"
     clip-rule="evenodd"
     id="path6995" /></clipPath><clipPath
   clipPathUnits="userSpaceOnUse"
   id="clipPath7003"><path
     d="M 39.375,2.056 L 302.375,2.056 L 302.375,273.056 L 39.375,273.056 L 39.375,2.056 z"
     id="path7005" /></clipPath><clipPath
   clipPathUnits="userSpaceOnUse"
   id="clipPath7019"><path
     d="M 39.375,2.056 L 302.375,2.056 L 302.375,273.056 L 39.375,273.056 L 39.375,2.056 z M 42.871,37.167 L 42.871,29.419 L 45.831,29.419 L 45.831,37.167 L 44.382,31.372 L 42.871,37.167 z M 45.831,130.014 L 45.831,137.699 L 42.871,137.699 L 42.871,130.014 L 44.382,135.746 L 45.831,130.014 z"
     clip-rule="evenodd"
     id="path7021" /></clipPath><clipPath
   clipPathUnits="userSpaceOnUse"
   id="clipPath7029"><path
     d="M 39.375,2.056 L 302.375,2.056 L 302.375,273.056 L 39.375,273.056 L 39.375,2.056 z"
     id="path7031" /></clipPath>
























</defs><sodipodi:namedview
     inkscape:window-height="1125"
     inkscape:window-width="1600"
     inkscape:pageshadow="2"
     inkscape:pageopacity="0.0"
     guidetolerance="10.0"
     gridtolerance="10.0"
     objecttolerance="10.0"
     borderopacity="1.0"
     bordercolor="#666666"
     pagecolor="#ffffff"
     id="base"
     showgrid="false"
     inkscape:zoom="16.37458"
     inkscape:cx="110.75737"
     inkscape:cy="298.3447"
     inkscape:window-x="0"
     inkscape:window-y="25"
     inkscape:current-layer="g6817" /><g
     id="g6817"
     inkscape:groupmode="layer"
     inkscape:label="fig-2-20"
     transform="matrix(1.25,0,0,-1.25,4.4981064,340.66671)"><g
       id="g6827"><g
         id="g6829"
         clip-path="url(#clipPath6831)"><path
           d="M 52.13,20.726 L 288.783,20.726 L 288.783,247.679 L 52.13,247.679 L 52.13,20.726 z"
           style="fill:#808080;fill-opacity:1;fill-rule:evenodd;stroke:none"
           id="path6835" /><path
           d="M 61.767,247.679 L 279.082,247.679 L 279.082,30.364 L 179.117,30.364 L 179.117,47.749 L 170.424,47.749 L 170.424,30.364 L 61.767,30.364 L 61.767,247.679 z"
           style="fill:#ffffff;fill-opacity:1;fill-rule:evenodd;stroke:none"
           id="path6837" /><path
           d="M 61.767,247.679 L 279.082,247.679 L 279.082,30.364 L 179.117,30.364 L 179.117,47.749 L 170.424,47.749 L 170.424,30.364 L 61.767,30.364 L 61.767,247.679 z"
           style="fill:none;stroke:#000000;stroke-width:0.472;stroke-linecap:butt;stroke-linejoin:miter;stroke-miterlimit:10;stroke-dasharray:none;stroke-opacity:1"
           id="path6839" /></g></g><g
       id="g6841"
       transform="matrix(0.6215757,0,0,1,72.805811,0)"><g
         id="g6843"
         clip-path="url(#clipPath6845)"><path
           d="M 192.156,12.979 L 179.117,12.979"
           style="fill:none;stroke:#000000;stroke-width:0.59868032;stroke-linecap:butt;stroke-linejoin:miter;stroke-miterlimit:10;stroke-dasharray:none;stroke-opacity:1"
           id="path6849" /></g></g><g
       id="g6851"><g
         id="g6853"
         clip-path="url(#clipPath6855)"><path
           d="M 185.857,14.427 L 180.125,12.979 L 185.857,11.529 L 185.857,14.427 z"
           style="fill:#000000;fill-opacity:1;fill-rule:evenodd;stroke:none"
           id="path6859" /><path
           d="M 185.857,14.427 L 180.125,12.979 L 185.857,11.529 L 185.857,14.427 z"
           style="fill:none;stroke:#000000;stroke-width:0.472;stroke-linecap:butt;stroke-linejoin:miter;stroke-miterlimit:10;stroke-dasharray:none;stroke-opacity:1"
           id="path6861" /></g></g><g
       id="g6863"
       transform="matrix(1,0,0,0.7059373,0,19.222877)"><g
         id="g6865"
         clip-path="url(#clipPath6867)"><path
           d="M 187.811,47.749 L 187.811,65.134"
           style="fill:none;stroke:#000000;stroke-width:0.5617705;stroke-linecap:butt;stroke-linejoin:miter;stroke-miterlimit:10;stroke-dasharray:none;stroke-opacity:1"
           id="path6871" /></g></g><g
       id="g6873"><g
         id="g6875"
         clip-path="url(#clipPath6877)"><path
           d="M 186.361,54.552 L 187.811,48.757 L 189.26,54.552 L 186.361,54.552 z"
           style="fill:#000000;fill-opacity:1;fill-rule:evenodd;stroke:none"
           id="path6881" /><path
           d="M 186.361,54.552 L 187.811,48.757 L 189.26,54.552 L 186.361,54.552 z"
           style="fill:none;stroke:#000000;stroke-width:0.472;stroke-linecap:butt;stroke-linejoin:miter;stroke-miterlimit:10;stroke-dasharray:none;stroke-opacity:1"
           id="path6883" /></g></g><g
       id="g6885"
       transform="matrix(1,0,0,0.5908926,0,6.9912358)"><g
         id="g6887"
         clip-path="url(#clipPath6889)"><path
           d="M 187.811,30.364 L 187.811,17.325"
           style="fill:none;stroke:#000000;stroke-width:0.61402732;stroke-linecap:butt;stroke-linejoin:miter;stroke-miterlimit:10;stroke-dasharray:none;stroke-opacity:1"
           id="path6893" /></g></g><g
       id="g6895"><g
         id="g6897"
         clip-path="url(#clipPath6899)"><path
           d="M 189.26,23.624 L 187.811,29.355 L 186.361,23.624 L 189.26,23.624 z"
           style="fill:#000000;fill-opacity:1;fill-rule:evenodd;stroke:none"
           id="path6903" /><path
           d="M 189.26,23.624 L 187.811,29.355 L 186.361,23.624 L 189.26,23.624 z"
           style="fill:none;stroke:#000000;stroke-width:0.472;stroke-linecap:butt;stroke-linejoin:miter;stroke-miterlimit:10;stroke-dasharray:none;stroke-opacity:1"
           id="path6905" /></g></g><g
       id="g6907"
       transform="matrix(0.9477326,0,0,1,8.7366539,0)"><g
         id="g6909"
         clip-path="url(#clipPath6911)"><path
           d="M 61.767,256.372 L 279.082,256.372"
           style="fill:none;stroke:#000000;stroke-width:0.48484072;stroke-linecap:butt;stroke-linejoin:miter;stroke-miterlimit:10;stroke-dasharray:none;stroke-opacity:1"
           id="path6915" /></g></g><g
       id="g6917"><g
         id="g6919"
         clip-path="url(#clipPath6921)"><path
           d="M 68.507,257.821 L 62.775,256.372 L 68.507,254.923 L 68.507,257.821 z"
           style="fill:#000000;fill-opacity:1;fill-rule:evenodd;stroke:none"
           id="path6925" /><path
           d="M 68.507,257.821 L 62.775,256.372 L 68.507,254.923 L 68.507,257.821 z"
           style="fill:none;stroke:#000000;stroke-width:0.472;stroke-linecap:butt;stroke-linejoin:miter;stroke-miterlimit:10;stroke-dasharray:none;stroke-opacity:1"
           id="path6927" /><path
           d="M 272.281,254.923 L 278.074,256.372 L 272.281,257.821 L 272.281,254.923 z"
           style="fill:#000000;fill-opacity:1;fill-rule:evenodd;stroke:none"
           id="path6929" /><path
           d="M 272.281,254.923 L 278.074,256.372 L 272.281,257.821 L 272.281,254.923 z"
           style="fill:none;stroke:#000000;stroke-width:0.472;stroke-linecap:butt;stroke-linejoin:miter;stroke-miterlimit:10;stroke-dasharray:none;stroke-opacity:1"
           id="path6931" /></g></g><g
       id="g6933"
       transform="matrix(1,0,0,0.9492786,0,7.8845481)"><g
         id="g6935"
         clip-path="url(#clipPath6937)"><path
           d="M 296.469,247.679 L 296.469,30.364"
           style="fill:none;stroke:#000000;stroke-width:0.48444575;stroke-linecap:butt;stroke-linejoin:miter;stroke-miterlimit:10;stroke-dasharray:none;stroke-opacity:1"
           id="path6941" /></g></g><path
       d="M 297.916,240.938 L 296.469,246.671 L 294.957,240.938 L 297.916,240.938 z"
       style="fill:#000000;fill-opacity:1;fill-rule:evenodd;stroke:none"
       id="path6951" /><path
       d="M 297.916,240.938 L 296.469,246.671 L 294.957,240.938 L 297.916,240.938 z"
       style="fill:none;stroke:#000000;stroke-width:0.472;stroke-linecap:butt;stroke-linejoin:miter;stroke-miterlimit:10;stroke-dasharray:none;stroke-opacity:1"
       id="path6953" /><path
       d="M 294.957,37.167 L 296.469,31.372 L 297.916,37.167 L 294.957,37.167 z"
       style="fill:#000000;fill-opacity:1;fill-rule:evenodd;stroke:none"
       id="path6955" /><path
       d="M 294.957,37.167 L 296.469,31.372 L 297.916,37.167 L 294.957,37.167 z"
       style="fill:none;stroke:#000000;stroke-width:0.472;stroke-linecap:butt;stroke-linejoin:miter;stroke-miterlimit:10;stroke-dasharray:none;stroke-opacity:1"
       id="path6957" /><path
       d="M 61.767,30.364 L 116.883,30.364 L 116.883,136.186 L 61.767,136.186 L 61.767,30.364 z"
       style="fill:#ff0000;fill-opacity:1;fill-rule:evenodd;stroke:none"
       id="path6959" /><path
       d="M 61.767,30.364 L 116.883,30.364 L 116.883,136.187 L 61.767,136.187 L 61.767,30.364 z"
       style="fill:none;stroke:#000000;stroke-width:0.472;stroke-linecap:butt;stroke-linejoin:miter;stroke-miterlimit:10;stroke-dasharray:none;stroke-opacity:1"
       id="path6961" /><g
       id="g6963"
       transform="matrix(0.7688206,0,0,1,20.439559,0)"><g
         id="g6965"
         clip-path="url(#clipPath6967)"><path
           d="M 61.767,12.979 L 118.648,12.979"
           style="fill:none;stroke:#000000;stroke-width:0.53830636;stroke-linecap:butt;stroke-linejoin:miter;stroke-miterlimit:10;stroke-dasharray:none;stroke-opacity:1"
           id="path6971" /></g></g><g
       id="g6973"><g
         id="g6975"
         clip-path="url(#clipPath6977)"><path
           d="M 68.507,14.49 L 62.775,12.979 L 68.507,11.529 L 68.507,14.49 z"
           style="fill:#000000;fill-opacity:1;fill-rule:evenodd;stroke:none"
           id="path6981" /><path
           d="M 68.507,14.49 L 62.775,12.979 L 68.507,11.529 L 68.507,14.49 z"
           style="fill:none;stroke:#000000;stroke-width:0.472;stroke-linecap:butt;stroke-linejoin:miter;stroke-miterlimit:10;stroke-dasharray:none;stroke-opacity:1"
           id="path6983" /><path
           d="M 111.844,11.529 L 117.639,12.979 L 111.844,14.49 L 111.844,11.529 z"
           style="fill:#000000;fill-opacity:1;fill-rule:evenodd;stroke:none"
           id="path6985" /><path
           d="M 111.844,11.529 L 117.639,12.979 L 111.844,14.49 L 111.844,11.529 z"
           style="fill:none;stroke:#000000;stroke-width:0.472;stroke-linecap:butt;stroke-linejoin:miter;stroke-miterlimit:10;stroke-dasharray:none;stroke-opacity:1"
           id="path6987" /></g></g><g
       id="g6989"
       transform="matrix(0.7938118,0,0,1,29.939802,0)"><g
         id="g6991"
         clip-path="url(#clipPath6993)"><path
           d="M 118.648,12.979 L 170.424,12.979"
           style="fill:none;stroke:#000000;stroke-width:0.52976495;stroke-linecap:butt;stroke-linejoin:miter;stroke-miterlimit:10;stroke-dasharray:none;stroke-opacity:1"
           id="path6997" /></g></g><g
       id="g6999"><g
         id="g7001"
         clip-path="url(#clipPath7003)"><path
           d="M 125.387,14.49 L 119.656,12.979 L 125.387,11.529 L 125.387,14.49 z"
           style="fill:#000000;fill-opacity:1;fill-rule:evenodd;stroke:none"
           id="path7007" /><path
           d="M 125.387,14.49 L 119.656,12.979 L 125.387,11.529 L 125.387,14.49 z"
           style="fill:none;stroke:#000000;stroke-width:0.472;stroke-linecap:butt;stroke-linejoin:miter;stroke-miterlimit:10;stroke-dasharray:none;stroke-opacity:1"
           id="path7009" /><path
           d="M 163.623,11.529 L 169.417,12.979 L 163.623,14.49 L 163.623,11.529 z"
           style="fill:#000000;fill-opacity:1;fill-rule:evenodd;stroke:none"
           id="path7011" /><path
           d="M 163.623,11.529 L 169.417,12.979 L 163.623,14.49 L 163.623,11.529 z"
           style="fill:none;stroke:#000000;stroke-width:0.472;stroke-linecap:butt;stroke-linejoin:miter;stroke-miterlimit:10;stroke-dasharray:none;stroke-opacity:1"
           id="path7013" /></g></g><g
       id="g7015"
       transform="matrix(1,0,0,0.8810488,0,10.077629)"><g
         id="g7017"
         clip-path="url(#clipPath7019)"><path
           d="M 44.382,136.754 L 44.382,30.364"
           style="fill:none;stroke:#000000;stroke-width:0.50285411;stroke-linecap:butt;stroke-linejoin:miter;stroke-miterlimit:10;stroke-dasharray:none;stroke-opacity:1"
           id="path7023" /></g></g><g
       id="g7025"><g
         id="g7027"
         clip-path="url(#clipPath7029)"><path
           d="M 45.831,130.014 L 44.382,135.746 L 42.871,130.014 L 45.831,130.014 z"
           style="fill:#000000;fill-opacity:1;fill-rule:evenodd;stroke:none"
           id="path7033" /><path
           d="M 45.831,130.014 L 44.382,135.746 L 42.871,130.014 L 45.831,130.014 z"
           style="fill:none;stroke:#000000;stroke-width:0.472;stroke-linecap:butt;stroke-linejoin:miter;stroke-miterlimit:10;stroke-dasharray:none;stroke-opacity:1"
           id="path7035" /><path
           d="M 42.871,37.167 L 44.382,31.372 L 45.831,37.167 L 42.871,37.167 z"
           style="fill:#000000;fill-opacity:1;fill-rule:evenodd;stroke:none"
           id="path7037" /><path
           d="M 42.871,37.167 L 44.382,31.372 L 45.831,37.167 L 42.871,37.167 z"
           style="fill:none;stroke:#000000;stroke-width:0.472;stroke-linecap:butt;stroke-linejoin:miter;stroke-miterlimit:10;stroke-dasharray:none;stroke-opacity:1"
           id="path7039" /></g></g><text
       transform="scale(1,-1)"
       id="text7041"
       x="155.2231"
       y="-262.99319"><tspan
         style="font-size:11.95510006px;font-variant:normal;font-weight:normal;font-stretch:normal;writing-mode:lr-tb;fill:#000000;fill-opacity:1;fill-rule:nonzero;stroke:none;font-family:cmr 12;-inkscape-font-specification:cmr12"
         x="155.2231 161.06914 164.32094 170.17892"
         y="-262.99319"
         sodipodi:role="line"
         id="tspan7043">0.58</tspan></text>
<text
       transform="scale(1,-1)"
       id="text7045"
       x="176.0327"
       y="-262.99319"><tspan
         style="font-size:11.95510006px;font-variant:normal;font-weight:normal;font-stretch:normal;writing-mode:lr-tb;fill:#000000;fill-opacity:1;fill-rule:nonzero;stroke:none;font-family:cmr 12;-inkscape-font-specification:cmr12"
         x="176.0327"
         y="-262.99319"
         id="tspan7047">4</tspan></text>
<text
       transform="scale(1,-1)"
       id="text7049"
       x="185.7944"
       y="-262.99319"><tspan
         style="font-size:11.95510006px;font-variant:normal;font-weight:normal;font-stretch:normal;writing-mode:lr-tb;fill:#000000;fill-opacity:1;fill-rule:nonzero;stroke:none;font-family:cmr 12;-inkscape-font-specification:cmr12"
         x="185.7944"
         y="-262.99319"
         id="tspan7051">m</tspan></text>
<text
       transform="scale(1,-1)"
       id="text7053"
       x="183.44679"
       y="-36.958"><tspan
         style="font-size:11.95510006px;font-variant:normal;font-weight:normal;font-stretch:normal;writing-mode:lr-tb;fill:#000000;fill-opacity:1;fill-rule:nonzero;stroke:none;font-family:cmr 12;-inkscape-font-specification:cmr12"
         x="183.44679 189.29285 192.54463 198.39067"
         y="-36.958"
         sodipodi:role="line"
         id="tspan7055">0.04</tspan></text>
<text
       transform="scale(1,-1)"
       id="text7057"
       x="204.2563"
       y="-36.958"><tspan
         style="font-size:11.95510006px;font-variant:normal;font-weight:normal;font-stretch:normal;writing-mode:lr-tb;fill:#000000;fill-opacity:1;fill-rule:nonzero;stroke:none;font-family:cmr 12;-inkscape-font-specification:cmr12"
         x="204.2563"
         y="-36.958"
         id="tspan7059">8</tspan></text>
<text
       transform="scale(1,-1)"
       id="text7061"
       x="214.0181"
       y="-36.958"><tspan
         style="font-size:11.95510006px;font-variant:normal;font-weight:normal;font-stretch:normal;writing-mode:lr-tb;fill:#000000;fill-opacity:1;fill-rule:nonzero;stroke:none;font-family:cmr 12;-inkscape-font-specification:cmr12"
         x="214.0181"
         y="-36.958"
         id="tspan7063">m</tspan></text>
<text
       transform="scale(1,-1)"
       id="text7065"
       x="193.40089"
       y="-8.6709003"><tspan
         style="font-size:11.95510006px;font-variant:normal;font-weight:normal;font-stretch:normal;writing-mode:lr-tb;fill:#000000;fill-opacity:1;fill-rule:nonzero;stroke:none;font-family:cmr 12;-inkscape-font-specification:cmr12"
         x="193.40089 199.24695 202.49873 208.34477"
         y="-8.6709003"
         sodipodi:role="line"
         id="tspan7067">0.02</tspan></text>
<text
       transform="scale(1,-1)"
       id="text7069"
       x="214.2104"
       y="-8.6709003"><tspan
         style="font-size:11.95510006px;font-variant:normal;font-weight:normal;font-stretch:normal;writing-mode:lr-tb;fill:#000000;fill-opacity:1;fill-rule:nonzero;stroke:none;font-family:cmr 12;-inkscape-font-specification:cmr12"
         x="214.2104"
         y="-8.6709003"
         id="tspan7071">4</tspan></text>
<text
       transform="scale(1,-1)"
       id="text7073"
       x="223.9722"
       y="-8.6709003"><tspan
         style="font-size:11.95510006px;font-variant:normal;font-weight:normal;font-stretch:normal;writing-mode:lr-tb;fill:#000000;fill-opacity:1;fill-rule:nonzero;stroke:none;font-family:cmr 12;-inkscape-font-specification:cmr12"
         x="223.9722"
         y="-8.6709003"
         id="tspan7075">m</tspan></text>
<text
       transform="scale(1,-1)"
       id="text7077"
       x="301.12259"
       y="-133.4111"><tspan
         style="font-size:11.95510006px;font-variant:normal;font-weight:normal;font-stretch:normal;writing-mode:lr-tb;fill:#000000;fill-opacity:1;fill-rule:nonzero;stroke:none;font-family:cmr 12;-inkscape-font-specification:cmr12"
         x="301.12259 306.96866 310.22043 316.06647"
         y="-133.4111"
         sodipodi:role="line"
         id="tspan7079">0.58</tspan></text>
<text
       transform="scale(1,-1)"
       id="text7081"
       x="321.9321"
       y="-133.4111"><tspan
         style="font-size:11.95510006px;font-variant:normal;font-weight:normal;font-stretch:normal;writing-mode:lr-tb;fill:#000000;fill-opacity:1;fill-rule:nonzero;stroke:none;font-family:cmr 12;-inkscape-font-specification:cmr12"
         x="321.9321"
         y="-133.4111"
         id="tspan7083">4</tspan></text>
<text
       transform="scale(1,-1)"
       id="text7085"
       x="331.69379"
       y="-133.4111"><tspan
         style="font-size:11.95510006px;font-variant:normal;font-weight:normal;font-stretch:normal;writing-mode:lr-tb;fill:#000000;fill-opacity:1;fill-rule:nonzero;stroke:none;font-family:cmr 12;-inkscape-font-specification:cmr12"
         x="331.69379"
         y="-133.4111"
         id="tspan7087">m</tspan></text>
<text
       transform="scale(1,-1)"
       id="text7089"
       y="-82.380898"><tspan
         style="font-size:11.95510006px;font-variant:normal;font-weight:normal;font-stretch:normal;writing-mode:lr-tb;fill:#000000;fill-opacity:1;fill-rule:nonzero;stroke:none;font-family:cmr 12;-inkscape-font-specification:cmr12"
         x="0 5.8460441 9.0978308 14.955831"
         y="-82.380898"
         sodipodi:role="line"
         id="tspan7091">0.29</tspan></text>
<text
       transform="scale(1,-1)"
       id="text7093"
       x="20.809601"
       y="-82.380898"><tspan
         style="font-size:11.95510006px;font-variant:normal;font-weight:normal;font-stretch:normal;writing-mode:lr-tb;fill:#000000;fill-opacity:1;fill-rule:nonzero;stroke:none;font-family:cmr 12;-inkscape-font-specification:cmr12"
         x="20.809601"
         y="-82.380898"
         id="tspan7095">2</tspan></text>
<text
       transform="scale(1,-1)"
       id="text7097"
       x="30.571301"
       y="-82.380898"><tspan
         style="font-size:11.95510006px;font-variant:normal;font-weight:normal;font-stretch:normal;writing-mode:lr-tb;fill:#000000;fill-opacity:1;fill-rule:nonzero;stroke:none;font-family:cmr 12;-inkscape-font-specification:cmr12"
         x="30.571301"
         y="-82.380898"
         id="tspan7099">m</tspan></text>
<text
       transform="scale(1,-1)"
       id="text7101"
       x="122.1211"
       y="-3.0009999"><tspan
         style="font-size:11.95510006px;font-variant:normal;font-weight:normal;font-stretch:normal;writing-mode:lr-tb;fill:#000000;fill-opacity:1;fill-rule:nonzero;stroke:none;font-family:cmr 12;-inkscape-font-specification:cmr12"
         x="122.1211 127.96715 131.21893 137.07693 142.92297"
         y="-3.0009999"
         sodipodi:role="line"
         id="tspan7103">0.145</tspan></text>
<text
       transform="scale(1,-1)"
       id="text7105"
       x="148.7832"
       y="-3.0009999"><tspan
         style="font-size:11.95510006px;font-variant:normal;font-weight:normal;font-stretch:normal;writing-mode:lr-tb;fill:#000000;fill-opacity:1;fill-rule:nonzero;stroke:none;font-family:cmr 12;-inkscape-font-specification:cmr12"
         x="148.7832"
         y="-3.0009999"
         id="tspan7107">9</tspan></text>
<text
       transform="scale(1,-1)"
       id="text7109"
       x="158.54491"
       y="-3.0009999"><tspan
         style="font-size:11.95510006px;font-variant:normal;font-weight:normal;font-stretch:normal;writing-mode:lr-tb;fill:#000000;fill-opacity:1;fill-rule:nonzero;stroke:none;font-family:cmr 12;-inkscape-font-specification:cmr12"
         x="158.54491"
         y="-3.0009999"
         id="tspan7111">m</tspan></text>
<text
       transform="scale(1,-1)"
       id="text7113"
       x="68.255898"
       y="-3.0009999"><tspan
         style="font-size:11.95510006px;font-variant:normal;font-weight:normal;font-stretch:normal;writing-mode:lr-tb;fill:#000000;fill-opacity:1;fill-rule:nonzero;stroke:none;font-family:cmr 12;-inkscape-font-specification:cmr12"
         x="68.255898 74.101944 77.353729 83.211731 89.057777"
         y="-3.0009999"
         sodipodi:role="line"
         id="tspan7115">0.146</tspan></text>
<text
       transform="scale(1,-1)"
       id="text7117"
       x="94.917999"
       y="-3.0009999"><tspan
         style="font-size:11.95510006px;font-variant:normal;font-weight:normal;font-stretch:normal;writing-mode:lr-tb;fill:#000000;fill-opacity:1;fill-rule:nonzero;stroke:none;font-family:cmr 12;-inkscape-font-specification:cmr12"
         x="94.917999"
         y="-3.0009999"
         id="tspan7119">1</tspan></text>
<text
       transform="scale(1,-1)"
       id="text7121"
       x="104.6919"
       y="-3.0009999"><tspan
         style="font-size:11.95510006px;font-variant:normal;font-weight:normal;font-stretch:normal;writing-mode:lr-tb;fill:#000000;fill-opacity:1;fill-rule:nonzero;stroke:none;font-family:cmr 12;-inkscape-font-specification:cmr12"
         x="104.6919"
         y="-3.0009999"
         id="tspan7123">m</tspan></text>
<text
       xml:space="preserve"
       style="font-size:12px;font-style:normal;font-variant:normal;font-weight:normal;font-stretch:normal;text-align:start;line-height:125%;writing-mode:lr-tb;text-anchor:start;fill:#000000;fill-opacity:1;stroke:none;stroke-width:1px;stroke-linecap:butt;stroke-linejoin:miter;stroke-opacity:1;font-family:'IPA明朝';-inkscape-font-specification:'IPA明朝'"
       x="76.995468"
       y="-145.41492"
       id="text6612"
       sodipodi:linespacing="125%"
       transform="scale(1,-1)"><tspan
         sodipodi:role="line"
         id="tspan6614"
         x="76.995468"
         y="-145.41492">水柱</tspan></text>
</g></svg>