<?xml version="1.0" encoding="UTF-8" standalone="no"?>
<!-- Created with Inkscape (http://www.inkscape.org/) -->

<svg
   xmlns:dc="http://purl.org/dc/elements/1.1/"
   xmlns:cc="http://creativecommons.org/ns#"
   xmlns:rdf="http://www.w3.org/1999/02/22-rdf-syntax-ns#"
   xmlns:svg="http://www.w3.org/2000/svg"
   xmlns="http://www.w3.org/2000/svg"
   xmlns:sodipodi="http://sodipodi.sourceforge.net/DTD/sodipodi-0.dtd"
   xmlns:inkscape="http://www.inkscape.org/namespaces/inkscape"
   id="svg2"
   version="1.1"
   inkscape:version="0.48.1 r9760"
   width="353.80838"
   height="152.65782"
   xml:space="preserve"
   sodipodi:docname="fig-2-4-b.svg"><metadata
     id="metadata8"><rdf:RDF><cc:Work
         rdf:about=""><dc:format>image/svg+xml</dc:format><dc:type
           rdf:resource="http://purl.org/dc/dcmitype/StillImage" /><dc:title /></cc:Work></rdf:RDF></metadata><defs
     id="defs6"><clipPath
       clipPathUnits="userSpaceOnUse"
       id="clipPath30"><path
         d="m 1723.51,5301.95 2490,0 0,1179.8 -2490,0 0,-1179.8 z"
         id="path32"
         inkscape:connector-curvature="0" /></clipPath><clipPath
       clipPathUnits="userSpaceOnUse"
       id="clipPath256"><path
         d="m 1723.51,3916.75 2490,0 0,1179.81 -2490,0 0,-1179.81 z"
         id="path258"
         inkscape:connector-curvature="0" /></clipPath><clipPath
       clipPathUnits="userSpaceOnUse"
       id="clipPath500"><path
         d="m 1723.51,2511.25 2490,0 0,1199.96 -2490,0 0,-1199.96 z"
         id="path502"
         inkscape:connector-curvature="0" /></clipPath></defs><sodipodi:namedview
     pagecolor="#ffffff"
     bordercolor="#666666"
     borderopacity="1"
     objecttolerance="10"
     gridtolerance="10"
     guidetolerance="10"
     inkscape:pageopacity="0"
     inkscape:pageshadow="2"
     inkscape:window-width="1680"
     inkscape:window-height="920"
     id="namedview4"
     showgrid="false"
     inkscape:zoom="4.3780761"
     inkscape:cx="176.90419"
     inkscape:cy="77.030295"
     inkscape:window-x="0"
     inkscape:window-y="0"
     inkscape:window-maximized="1"
     inkscape:current-layer="g10"
     fit-margin-top="0"
     fit-margin-left="0"
     fit-margin-right="0"
     fit-margin-bottom="0"
     inkscape:snap-bbox="true"
     inkscape:snap-bbox-midpoints="true"
     inkscape:snap-bbox-edge-midpoints="true"
     inkscape:bbox-nodes="true"
     inkscape:bbox-paths="true" /><g
     id="g10"
     inkscape:groupmode="layer"
     inkscape:label="fig-2-4-b"
     transform="matrix(1.25,0,0,-1.25,-215.78479,640.96189)"><path
       inkscape:connector-curvature="0"
       id="path260"
       style="fill:#231f20;fill-opacity:1;fill-rule:evenodd;stroke:none"
       d="m 174.949,452.325 c 1.216,0 2.21,-0.995 2.21,-2.213 0,-1.215 -0.994,-2.21 -2.21,-2.21 -1.218,0 -2.213,0.995 -2.213,2.21 0,1.218 0.995,2.213 2.213,2.213" /><path
       d="m 174.94799,452.32445 c 1.2161,0 2.21118,-0.99491 2.21118,-2.21181 0,-1.2159 -0.99508,-2.21082 -2.21118,-2.21082 -1.21709,0 -2.21217,0.99492 -2.21217,2.21082 0,1.2169 0.99508,2.21181 2.21217,2.21181 z"
       style="fill:none;stroke:#231f20;stroke-width:0.21598168;stroke-linecap:butt;stroke-linejoin:miter;stroke-miterlimit:2.61310005;stroke-opacity:1;stroke-dasharray:none"
       id="path264"
       inkscape:connector-curvature="0" /><path
       inkscape:connector-curvature="0"
       id="path266"
       style="fill:#918f90;fill-opacity:1;fill-rule:evenodd;stroke:none"
       d="m 174.949,419.147 c 1.216,0 2.21,-0.99 2.21,-2.208 0,-1.217 -0.994,-2.214 -2.21,-2.214 -1.218,0 -2.213,0.997 -2.213,2.214 0,1.218 0.995,2.208 2.213,2.208" /><path
       d="m 174.94799,419.14721 c 1.2161,0 2.21118,-0.98992 2.21118,-2.20882 0,-1.2159 -0.99508,-2.21381 -2.21118,-2.21381 -1.21709,0 -2.21217,0.99791 -2.21217,2.21381 0,1.2189 0.99508,2.20882 2.21217,2.20882 z"
       style="fill:none;stroke:#231f20;stroke-width:0.21598168;stroke-linecap:butt;stroke-linejoin:miter;stroke-miterlimit:2.61310005;stroke-opacity:1;stroke-dasharray:none"
       id="path270"
       inkscape:connector-curvature="0" /><path
       inkscape:connector-curvature="0"
       id="path272"
       style="fill:#ffffff;fill-opacity:1;fill-rule:evenodd;stroke:none"
       d="m 174.949,406.193 c 1.216,0 2.21,-0.998 2.21,-2.214 0,-1.217 -0.994,-2.209 -2.21,-2.209 -1.218,0 -2.213,0.992 -2.213,2.209 0,1.216 0.995,2.214 2.213,2.214" /><path
       d="m 174.94799,406.19228 c 1.2161,0 2.21118,-0.99791 2.21118,-2.21381 0,-1.2169 -0.99508,-2.20882 -2.21118,-2.20882 -1.21709,0 -2.21217,0.99192 -2.21217,2.20882 0,1.2159 0.99508,2.21381 2.21217,2.21381 z"
       style="fill:none;stroke:#231f20;stroke-width:0.21598168;stroke-linecap:butt;stroke-linejoin:miter;stroke-miterlimit:2.61310005;stroke-opacity:1;stroke-dasharray:none"
       id="path276"
       inkscape:connector-curvature="0" /><path
       d="m 276.50912,478.2983 118.89151,20.73528 11.05788,-88.23368 -78.7993,-18.65945 -51.15009,86.15785 z"
       style="fill:none;stroke:#231f20;stroke-width:0.74998587;stroke-linecap:butt;stroke-linejoin:miter;stroke-miterlimit:2.61310005;stroke-opacity:1;stroke-dasharray:none"
       id="path280"
       inkscape:connector-curvature="0" /><path
       d="m 320.40263,486.01566 36.46092,-87.07977"
       style="fill:none;stroke:#231f20;stroke-width:0.49998724;stroke-linecap:butt;stroke-linejoin:miter;stroke-miterlimit:2.61310005;stroke-opacity:1;stroke-dasharray:none"
       id="path284"
       inkscape:connector-curvature="0" /><path
       d="M 381.57452,404.8104 366.71333,493.965"
       style="fill:none;stroke:#231f20;stroke-width:0.49998724;stroke-linecap:butt;stroke-linejoin:miter;stroke-miterlimit:2.61310005;stroke-opacity:1;stroke-dasharray:none"
       id="path288"
       inkscape:connector-curvature="0" /><path
       d="m 294.48156,447.66084 104.54836,20.73328"
       style="fill:none;stroke:#231f20;stroke-width:0.49998724;stroke-linecap:butt;stroke-linejoin:miter;stroke-miterlimit:2.61310005;stroke-opacity:1;stroke-dasharray:none"
       id="path292"
       inkscape:connector-curvature="0" /><path
       d="m 311.06988,420.01514 92.28039,15.20473"
       style="fill:none;stroke:#231f20;stroke-width:0.49998724;stroke-linecap:butt;stroke-linejoin:miter;stroke-miterlimit:2.61310005;stroke-opacity:1;stroke-dasharray:none"
       id="path296"
       inkscape:connector-curvature="0" /><path
       inkscape:connector-curvature="0"
       id="path298"
       style="fill:#231f20;fill-opacity:1;fill-rule:evenodd;stroke:none"
       d="m 390.218,434.93 c 1.06,0 1.921,-0.862 1.921,-1.918 0,-1.061 -0.861,-1.922 -1.921,-1.922 -1.058,0 -1.922,0.861 -1.922,1.922 0,1.056 0.864,1.918 1.922,1.918" /><path
       d="m 390.21721,434.9299 c 1.05909,0 1.92116,-0.86193 1.92116,-1.91784 0,-1.06091 -0.86207,-1.92284 -1.92116,-1.92284 -1.05808,0 -1.92215,0.86193 -1.92215,1.92284 0,1.05591 0.86407,1.91784 1.92215,1.91784 z"
       style="fill:none;stroke:#231f20;stroke-width:0.21598168;stroke-linecap:butt;stroke-linejoin:miter;stroke-miterlimit:2.61310005;stroke-opacity:1;stroke-dasharray:none"
       id="path302"
       inkscape:connector-curvature="0" /><path
       inkscape:connector-curvature="0"
       id="path304"
       style="fill:#231f20;fill-opacity:1;fill-rule:evenodd;stroke:none"
       d="m 386.493,467.945 c 1.058,0 1.921,-0.861 1.921,-1.921 0,-1.056 -0.863,-1.919 -1.921,-1.919 -1.058,0 -1.92,0.863 -1.92,1.919 0,1.06 0.862,1.921 1.92,1.921" /><path
       d="m 386.49192,467.94516 c 1.05808,0 1.92115,-0.86093 1.92115,-1.92084 0,-1.05692 -0.86307,-1.91984 -1.92115,-1.91984 -1.05809,0 -1.92016,0.86292 -1.92016,1.91984 0,1.05991 0.86207,1.92084 1.92016,1.92084 z"
       style="fill:none;stroke:#231f20;stroke-width:0.21598168;stroke-linecap:butt;stroke-linejoin:miter;stroke-miterlimit:2.61310005;stroke-opacity:1;stroke-dasharray:none"
       id="path308"
       inkscape:connector-curvature="0" /><path
       inkscape:connector-curvature="0"
       id="path310"
       style="fill:#231f20;fill-opacity:1;fill-rule:evenodd;stroke:none"
       d="m 379.411,419.858 c 1.057,0 1.919,-0.864 1.919,-1.922 0,-1.057 -0.862,-1.921 -1.919,-1.921 -1.059,0 -1.922,0.864 -1.922,1.921 0,1.058 0.863,1.922 1.922,1.922" /><path
       d="m 379.41035,419.85715 c 1.05708,0 1.91915,-0.86293 1.91915,-1.92084 0,-1.05691 -0.86207,-1.92084 -1.91915,-1.92084 -1.05908,0 -1.92215,0.86393 -1.92215,1.92084 0,1.05791 0.86307,1.92084 1.92215,1.92084 z"
       style="fill:none;stroke:#231f20;stroke-width:0.21598168;stroke-linecap:butt;stroke-linejoin:miter;stroke-miterlimit:2.61310005;stroke-opacity:1;stroke-dasharray:none"
       id="path314"
       inkscape:connector-curvature="0" /><path
       inkscape:connector-curvature="0"
       id="path316"
       style="fill:#231f20;fill-opacity:1;fill-rule:evenodd;stroke:none"
       d="m 351.018,414.671 c 1.057,0 1.919,-0.863 1.919,-1.921 0,-1.057 -0.862,-1.921 -1.919,-1.921 -1.057,0 -1.922,0.864 -1.922,1.921 0,1.058 0.865,1.921 1.922,1.921" /><path
       d="m 351.01708,414.67058 c 1.05708,0 1.91915,-0.86293 1.91915,-1.92084 0,-1.05691 -0.86207,-1.92184 -1.91915,-1.92184 -1.05709,0 -1.92215,0.86493 -1.92215,1.92184 0,1.05791 0.86506,1.92084 1.92215,1.92084 z"
       style="fill:none;stroke:#231f20;stroke-width:0.21598168;stroke-linecap:butt;stroke-linejoin:miter;stroke-miterlimit:2.61310005;stroke-opacity:1;stroke-dasharray:none"
       id="path320"
       inkscape:connector-curvature="0" /><path
       inkscape:connector-curvature="0"
       id="path322"
       style="fill:#231f20;fill-opacity:1;fill-rule:evenodd;stroke:none"
       d="m 328.929,424.652 c 1.057,0 1.919,-0.862 1.919,-1.92 0,-1.058 -0.862,-1.921 -1.919,-1.921 -1.058,0 -1.922,0.863 -1.922,1.921 0,1.058 0.864,1.92 1.922,1.92" /><path
       d="m 328.92731,424.65175 c 1.05809,0 1.92016,-0.86193 1.92016,-1.91984 0,-1.05791 -0.86207,-1.92084 -1.92016,-1.92084 -1.05708,0 -1.92115,0.86293 -1.92115,1.92084 0,1.05791 0.86407,1.91984 1.92115,1.91984 z"
       style="fill:none;stroke:#231f20;stroke-width:0.21598168;stroke-linecap:butt;stroke-linejoin:miter;stroke-miterlimit:2.61310005;stroke-opacity:1;stroke-dasharray:none"
       id="path326"
       inkscape:connector-curvature="0" /><path
       inkscape:connector-curvature="0"
       id="path328"
       style="fill:#231f20;fill-opacity:1;fill-rule:evenodd;stroke:none"
       d="m 339.79,442.426 c 1.057,0 1.92,-0.862 1.92,-1.921 0,-1.057 -0.863,-1.92 -1.92,-1.92 -1.058,0 -1.921,0.863 -1.921,1.92 0,1.059 0.863,1.921 1.921,1.921" /><path
       d="m 339.78918,442.42628 c 1.05709,0 1.92015,-0.86293 1.92015,-1.92084 0,-1.05792 -0.86306,-1.92085 -1.92015,-1.92085 -1.05808,0 -1.92115,0.86293 -1.92115,1.92085 0,1.05791 0.86307,1.92084 1.92115,1.92084 z"
       style="fill:none;stroke:#231f20;stroke-width:0.21598168;stroke-linecap:butt;stroke-linejoin:miter;stroke-miterlimit:2.61310005;stroke-opacity:1;stroke-dasharray:none"
       id="path332"
       inkscape:connector-curvature="0" /><path
       inkscape:connector-curvature="0"
       id="path334"
       style="fill:#231f20;fill-opacity:1;fill-rule:evenodd;stroke:none"
       d="m 374.521,448.602 c 1.058,0 1.92,-0.863 1.92,-1.921 0,-1.058 -0.862,-1.92 -1.92,-1.92 -1.057,0 -1.921,0.862 -1.921,1.92 0,1.058 0.864,1.921 1.921,1.921" /><path
       d="m 374.51996,448.60176 c 1.05708,0 1.92015,-0.86293 1.92015,-1.92084 0,-1.05791 -0.86307,-1.92084 -1.92015,-1.92084 -1.05709,0 -1.92115,0.86293 -1.92115,1.92084 0,1.05791 0.86406,1.92084 1.92115,1.92084 z"
       style="fill:none;stroke:#231f20;stroke-width:0.21598168;stroke-linecap:butt;stroke-linejoin:miter;stroke-miterlimit:2.61310005;stroke-opacity:1;stroke-dasharray:none"
       id="path338"
       inkscape:connector-curvature="0" /><path
       inkscape:connector-curvature="0"
       id="path340"
       style="fill:#231f20;fill-opacity:1;fill-rule:evenodd;stroke:none"
       d="m 314.111,453.747 c 1.059,0 1.919,-0.865 1.919,-1.922 0,-1.058 -0.86,-1.92 -1.919,-1.92 -1.058,0 -1.92,0.862 -1.92,1.92 0,1.057 0.862,1.922 1.92,1.922" /><path
       d="m 314.11013,453.74634 c 1.05908,0 1.91915,-0.86393 1.91915,-1.92084 0,-1.05892 -0.86007,-1.91985 -1.91915,-1.91985 -1.05809,0 -1.92016,0.86093 -1.92016,1.91985 0,1.05691 0.86207,1.92084 1.92016,1.92084 z"
       style="fill:none;stroke:#231f20;stroke-width:0.21598168;stroke-linecap:butt;stroke-linejoin:miter;stroke-miterlimit:2.61310005;stroke-opacity:1;stroke-dasharray:none"
       id="path344"
       inkscape:connector-curvature="0" /><path
       inkscape:connector-curvature="0"
       id="path346"
       style="fill:#231f20;fill-opacity:1;fill-rule:evenodd;stroke:none"
       d="m 326.302,473.457 c 1.057,0 1.921,-0.864 1.921,-1.921 0,-1.057 -0.864,-1.92 -1.921,-1.92 -1.06,0 -1.922,0.863 -1.922,1.92 0,1.057 0.862,1.921 1.922,1.921" /><path
       d="m 326.3011,473.4577 c 1.05709,0 1.92116,-0.86493 1.92116,-1.92184 0,-1.05691 -0.86407,-1.91984 -1.92116,-1.91984 -1.06008,0 -1.92215,0.86293 -1.92215,1.91984 0,1.05691 0.86207,1.92184 1.92215,1.92184 z"
       style="fill:none;stroke:#231f20;stroke-width:0.21598168;stroke-linecap:butt;stroke-linejoin:miter;stroke-miterlimit:2.61310005;stroke-opacity:1;stroke-dasharray:none"
       id="path350"
       inkscape:connector-curvature="0" /><path
       inkscape:connector-curvature="0"
       id="path352"
       style="fill:#ffffff;fill-opacity:1;fill-rule:evenodd;stroke:none"
       d="m 341.83,397.361 c 1.056,0 1.92,-0.862 1.92,-1.921 0,-1.057 -0.864,-1.919 -1.92,-1.919 -1.059,0 -1.922,0.862 -1.922,1.919 0,1.059 0.863,1.921 1.922,1.921" /><path
       d="m 341.82934,397.36002 c 1.05609,0 1.91916,-0.86093 1.91916,-1.91984 0,-1.05692 -0.86307,-1.91984 -1.91916,-1.91984 -1.05908,0 -1.92215,0.86292 -1.92215,1.91984 0,1.05891 0.86307,1.91984 1.92215,1.91984 z"
       style="fill:none;stroke:#231f20;stroke-width:0.21598168;stroke-linecap:butt;stroke-linejoin:miter;stroke-miterlimit:2.61310005;stroke-opacity:1;stroke-dasharray:none"
       id="path356"
       inkscape:connector-curvature="0" /><path
       inkscape:connector-curvature="0"
       id="path358"
       style="fill:#ffffff;fill-opacity:1;fill-rule:evenodd;stroke:none"
       d="m 368.207,404.044 c 1.055,0 1.918,-0.862 1.918,-1.922 0,-1.057 -0.863,-1.921 -1.918,-1.921 -1.059,0 -1.922,0.864 -1.922,1.921 0,1.06 0.863,1.922 1.922,1.922" /><path
       d="m 368.20545,404.04346 c 1.05609,0 1.91816,-0.86193 1.91816,-1.92184 0,-1.05691 -0.86207,-1.92084 -1.91816,-1.92084 -1.05808,0 -1.92115,0.86393 -1.92115,1.92084 0,1.05991 0.86307,1.92184 1.92115,1.92184 z"
       style="fill:none;stroke:#231f20;stroke-width:0.21598168;stroke-linecap:butt;stroke-linejoin:miter;stroke-miterlimit:2.61310005;stroke-opacity:1;stroke-dasharray:none"
       id="path362"
       inkscape:connector-curvature="0" /><path
       inkscape:connector-curvature="0"
       id="path364"
       style="fill:#a7a5a6;fill-opacity:1;fill-rule:evenodd;stroke:none"
       d="m 404.949,423.508 c 1.056,0 1.919,-0.865 1.919,-1.922 0,-1.056 -0.863,-1.92 -1.919,-1.92 -1.058,0 -1.921,0.864 -1.921,1.92 0,1.057 0.863,1.922 1.921,1.922" /><path
       d="m 404.94839,423.50785 c 1.05609,0 1.91816,-0.86493 1.91816,-1.92184 0,-1.05592 -0.86207,-1.91985 -1.91816,-1.91985 -1.05908,0 -1.92215,0.86393 -1.92215,1.91985 0,1.05691 0.86307,1.92184 1.92215,1.92184 z"
       style="fill:none;stroke:#231f20;stroke-width:0.21598168;stroke-linecap:butt;stroke-linejoin:miter;stroke-miterlimit:2.61310005;stroke-opacity:1;stroke-dasharray:none"
       id="path368"
       inkscape:connector-curvature="0" /><path
       inkscape:connector-curvature="0"
       id="path370"
       style="fill:#a7a5a6;fill-opacity:1;fill-rule:evenodd;stroke:none"
       d="m 401.612,452.989 c 1.056,0 1.919,-0.862 1.919,-1.92 0,-1.058 -0.863,-1.921 -1.919,-1.921 -1.06,0 -1.922,0.863 -1.922,1.921 0,1.058 0.862,1.92 1.922,1.92" /><path
       d="m 401.61113,452.9884 c 1.05608,0 1.91915,-0.86193 1.91915,-1.91984 0,-1.05791 -0.86307,-1.91984 -1.91915,-1.91984 -1.06109,0 -1.92216,0.86193 -1.92216,1.91984 0,1.05791 0.86107,1.91984 1.92216,1.91984 z"
       style="fill:none;stroke:#231f20;stroke-width:0.21598168;stroke-linecap:butt;stroke-linejoin:miter;stroke-miterlimit:2.61310005;stroke-opacity:1;stroke-dasharray:none"
       id="path374"
       inkscape:connector-curvature="0" /><path
       inkscape:connector-curvature="0"
       id="path376"
       style="fill:#a7a5a6;fill-opacity:1;fill-rule:evenodd;stroke:none"
       d="m 397.239,485.579 c 1.057,0 1.92,-0.863 1.92,-1.919 0,-1.06 -0.863,-1.921 -1.92,-1.921 -1.059,0 -1.923,0.861 -1.923,1.921 0,1.056 0.864,1.919 1.923,1.919" /><path
       d="m 397.23778,485.57869 c 1.05708,0 1.92015,-0.86292 1.92015,-1.91884 0,-1.05991 -0.86307,-1.92184 -1.92015,-1.92184 -1.05809,0 -1.92316,0.86193 -1.92316,1.92184 0,1.05592 0.86507,1.91884 1.92316,1.91884 z"
       style="fill:none;stroke:#231f20;stroke-width:0.21598168;stroke-linecap:butt;stroke-linejoin:miter;stroke-miterlimit:2.61310005;stroke-opacity:1;stroke-dasharray:none"
       id="path380"
       inkscape:connector-curvature="0" /><path
       inkscape:connector-curvature="0"
       id="path382"
       style="fill:#a7a5a6;fill-opacity:1;fill-rule:evenodd;stroke:none"
       d="m 380.427,498.479 c 1.059,0 1.92,-0.861 1.92,-1.92 0,-1.058 -0.861,-1.918 -1.92,-1.918 -1.059,0 -1.922,0.86 -1.922,1.918 0,1.059 0.863,1.92 1.922,1.92" /><path
       d="m 380.42543,498.47862 c 1.05909,0 1.92116,-0.86093 1.92116,-1.91984 0,-1.05791 -0.86207,-1.91884 -1.92116,-1.91884 -1.05808,0 -1.92115,0.86093 -1.92115,1.91884 0,1.05891 0.86307,1.91984 1.92115,1.91984 z"
       style="fill:none;stroke:#231f20;stroke-width:0.21598168;stroke-linecap:butt;stroke-linejoin:miter;stroke-miterlimit:2.61310005;stroke-opacity:1;stroke-dasharray:none"
       id="path386"
       inkscape:connector-curvature="0" /><path
       inkscape:connector-curvature="0"
       id="path388"
       style="fill:#a7a5a6;fill-opacity:1;fill-rule:evenodd;stroke:none"
       d="m 344.267,491.689 c 1.058,0 1.921,-0.861 1.921,-1.92 0,-1.057 -0.863,-1.921 -1.921,-1.921 -1.058,0 -1.921,0.864 -1.921,1.921 0,1.059 0.863,1.92 1.921,1.92" /><path
       d="m 344.26654,491.68919 c 1.05808,0 1.92115,-0.86193 1.92115,-1.91984 0,-1.05792 -0.86307,-1.92084 -1.92115,-1.92084 -1.05809,0 -1.92115,0.86292 -1.92115,1.92084 0,1.05791 0.86306,1.91984 1.92115,1.91984 z"
       style="fill:none;stroke:#231f20;stroke-width:0.21598168;stroke-linecap:butt;stroke-linejoin:miter;stroke-miterlimit:2.61310005;stroke-opacity:1;stroke-dasharray:none"
       id="path392"
       inkscape:connector-curvature="0" /><path
       inkscape:connector-curvature="0"
       id="path394"
       style="fill:#a7a5a6;fill-opacity:1;fill-rule:evenodd;stroke:none"
       d="m 300.852,484.207 c 1.059,0 1.92,-0.861 1.92,-1.92 0,-1.058 -0.861,-1.921 -1.92,-1.921 -1.057,0 -1.92,0.863 -1.92,1.921 0,1.059 0.863,1.92 1.92,1.92" /><path
       d="m 300.85107,484.20681 c 1.05908,0 1.92015,-0.86093 1.92015,-1.91984 0,-1.05792 -0.86107,-1.92084 -1.92015,-1.92084 -1.05709,0 -1.92016,0.86292 -1.92016,1.92084 0,1.05891 0.86307,1.91984 1.92016,1.91984 z"
       style="fill:none;stroke:#231f20;stroke-width:0.21598168;stroke-linecap:butt;stroke-linejoin:miter;stroke-miterlimit:2.61310005;stroke-opacity:1;stroke-dasharray:none"
       id="path398"
       inkscape:connector-curvature="0" /><path
       inkscape:connector-curvature="0"
       id="path400"
       style="fill:#a7a5a6;fill-opacity:1;fill-rule:evenodd;stroke:none"
       d="m 285.077,465.327 c 1.059,0 1.922,-0.863 1.922,-1.92 0,-1.059 -0.863,-1.921 -1.922,-1.921 -1.057,0 -1.92,0.862 -1.92,1.921 0,1.057 0.863,1.92 1.92,1.92" /><path
       d="m 285.0758,465.32637 c 1.05909,0 1.92216,-0.86292 1.92216,-1.91984 0,-1.05891 -0.86307,-1.92084 -1.92216,-1.92084 -1.05708,0 -1.91915,0.86193 -1.91915,1.92084 0,1.05692 0.86207,1.91984 1.91915,1.91984 z"
       style="fill:none;stroke:#231f20;stroke-width:0.21598168;stroke-linecap:butt;stroke-linejoin:miter;stroke-miterlimit:2.61310005;stroke-opacity:1;stroke-dasharray:none"
       id="path404"
       inkscape:connector-curvature="0" /><path
       inkscape:connector-curvature="0"
       id="path406"
       style="fill:#a7a5a6;fill-opacity:1;fill-rule:evenodd;stroke:none"
       d="m 303.507,435.737 c 1.059,0 1.922,-0.864 1.922,-1.921 0,-1.058 -0.863,-1.92 -1.922,-1.92 -1.058,0 -1.921,0.862 -1.921,1.92 0,1.057 0.863,1.921 1.921,1.921" /><path
       d="m 303.50628,435.73683 c 1.05908,0 1.92115,-0.86393 1.92115,-1.92084 0,-1.05791 -0.86207,-1.91984 -1.92115,-1.91984 -1.05809,0 -1.92116,0.86193 -1.92116,1.91984 0,1.05691 0.86307,1.92084 1.92116,1.92084 z"
       style="fill:none;stroke:#231f20;stroke-width:0.21598168;stroke-linecap:butt;stroke-linejoin:miter;stroke-miterlimit:2.61310005;stroke-opacity:1;stroke-dasharray:none"
       id="path410"
       inkscape:connector-curvature="0" /><path
       inkscape:connector-curvature="0"
       id="path412"
       style="fill:#a7a5a6;fill-opacity:1;fill-rule:evenodd;stroke:none"
       d="m 319.52,408.565 c 1.058,0 1.921,-0.863 1.921,-1.92 0,-1.058 -0.863,-1.922 -1.921,-1.922 -1.058,0 -1.921,0.864 -1.921,1.922 0,1.057 0.863,1.92 1.921,1.92" /><path
       d="m 319.51956,408.56509 c 1.05708,0 1.92015,-0.86293 1.92015,-1.92084 0,-1.05792 -0.86307,-1.92084 -1.92015,-1.92084 -1.05809,0 -1.92115,0.86292 -1.92115,1.92084 0,1.05791 0.86306,1.92084 1.92115,1.92084 z"
       style="fill:none;stroke:#231f20;stroke-width:0.21598168;stroke-linecap:butt;stroke-linejoin:miter;stroke-miterlimit:2.61310005;stroke-opacity:1;stroke-dasharray:none"
       id="path416"
       inkscape:connector-curvature="0" /><path
       inkscape:connector-curvature="0"
       id="path418"
       style="fill:#ffffff;fill-opacity:1;fill-rule:evenodd;stroke:none"
       d="m 394.238,410.035 c 1.058,0 1.92,-0.864 1.92,-1.921 0,-1.058 -0.862,-1.922 -1.92,-1.922 -1.06,0 -1.922,0.864 -1.922,1.922 0,1.057 0.862,1.921 1.922,1.921" /><path
       d="m 394.23754,410.03496 c 1.05708,0 1.91915,-0.86392 1.91915,-1.92084 0,-1.05891 -0.86207,-1.92184 -1.91915,-1.92184 -1.06009,0 -1.92316,0.86293 -1.92316,1.92184 0,1.05692 0.86307,1.92084 1.92316,1.92084 z"
       style="fill:none;stroke:#231f20;stroke-width:0.21598168;stroke-linecap:butt;stroke-linejoin:miter;stroke-miterlimit:2.61310005;stroke-opacity:1;stroke-dasharray:none"
       id="path422"
       inkscape:connector-curvature="0" /><path
       inkscape:connector-curvature="0"
       id="path424"
       style="fill:#231f20;fill-opacity:1;fill-rule:evenodd;stroke:none"
       d="m 369.686,479.391 c 1.059,0 1.922,-0.863 1.922,-1.921 0,-1.058 -0.863,-1.92 -1.922,-1.92 -1.058,0 -1.92,0.862 -1.92,1.92 0,1.058 0.862,1.921 1.92,1.921" /><path
       d="m 369.68557,479.39021 c 1.05809,0 1.92116,-0.86193 1.92116,-1.92084 0,-1.05792 -0.86307,-1.91984 -1.92116,-1.91984 -1.05908,0 -1.92015,0.86192 -1.92015,1.91984 0,1.05891 0.86107,1.92084 1.92015,1.92084 z"
       style="fill:none;stroke:#231f20;stroke-width:0.21598168;stroke-linecap:butt;stroke-linejoin:miter;stroke-miterlimit:2.61310005;stroke-opacity:1;stroke-dasharray:none"
       id="path428"
       inkscape:connector-curvature="0" /><path
       inkscape:connector-curvature="0"
       id="path430"
       style="fill:#231f20;fill-opacity:1;fill-rule:evenodd;stroke:none"
       d="m 352.343,461.333 c 1.056,0 1.919,-0.862 1.919,-1.919 0,-1.058 -0.863,-1.921 -1.919,-1.921 -1.06,0 -1.922,0.863 -1.922,1.921 0,1.057 0.862,1.919 1.922,1.919" /><path
       d="m 352.34119,461.33271 c 1.05708,0 1.92015,-0.86093 1.92015,-1.91884 0,-1.05792 -0.86307,-1.92085 -1.92015,-1.92085 -1.05909,0 -1.92016,0.86293 -1.92016,1.92085 0,1.05791 0.86107,1.91884 1.92016,1.91884 z"
       style="fill:none;stroke:#231f20;stroke-width:0.21598168;stroke-linecap:butt;stroke-linejoin:miter;stroke-miterlimit:2.61310005;stroke-opacity:1;stroke-dasharray:none"
       id="path434"
       inkscape:connector-curvature="0" /><path
       inkscape:connector-curvature="0"
       id="path436"
       style="fill:#231f20;fill-opacity:1;fill-rule:evenodd;stroke:none"
       d="m 360.973,430.259 c 1.056,0 1.92,-0.861 1.92,-1.919 0,-1.058 -0.864,-1.921 -1.92,-1.921 -1.059,0 -1.921,0.863 -1.921,1.921 0,1.058 0.862,1.919 1.921,1.919" /><path
       d="m 360.97188,430.25929 c 1.05608,0 1.92015,-0.86193 1.92015,-1.91885 0,-1.05891 -0.86407,-1.92184 -1.92015,-1.92184 -1.05909,0 -1.92116,0.86293 -1.92116,1.92184 0,1.05692 0.86207,1.91885 1.92116,1.91885 z"
       style="fill:none;stroke:#231f20;stroke-width:0.21598168;stroke-linecap:butt;stroke-linejoin:miter;stroke-miterlimit:2.61310005;stroke-opacity:1;stroke-dasharray:none"
       id="path440"
       inkscape:connector-curvature="0" /><path
       d="m 324.61797,486.53561 -2.07417,13.81686"
       style="fill:none;stroke:#231f20;stroke-width:0.49998724;stroke-linecap:butt;stroke-linejoin:miter;stroke-miterlimit:2.61310005;stroke-opacity:1;stroke-dasharray:none"
       id="path448"
       inkscape:connector-curvature="0" /><path
       d="m 401.3191,409.50001 c 3.62929,-9.6732 19.00352,-9.6732 19.00352,0.51896"
       style="fill:none;stroke:#231f20;stroke-width:0.49998724;stroke-linecap:butt;stroke-linejoin:miter;stroke-miterlimit:2.61310005;stroke-opacity:1;stroke-dasharray:none"
       id="path456"
       inkscape:connector-curvature="0" /><path
       style="fill:none;stroke:#231f20;stroke-width:0.49998721;stroke-linecap:butt;stroke-linejoin:miter;stroke-miterlimit:2.61310005;stroke-opacity:1;stroke-dasharray:none"
       d="m 281.99455,468.93108 c -19.9406,-2.4218 -23.96192,16.77061 -11.66094,29.06858 6.28694,6.28685 21.41601,8.31762 30.19368,8.54758"
       id="path200"
       inkscape:connector-curvature="0" /><path
       style="fill:none;stroke:#231f20;stroke-width:0.49998721;stroke-linecap:butt;stroke-linejoin:miter;stroke-miterlimit:2.61310005;stroke-opacity:1;stroke-dasharray:none"
       d="m 347.59999,507.57392 19.07133,0.89888 c 5.45844,0.25797 24.42095,1.1139 29.20534,-1.48288 4.09733,-2.22582 5.63645,-3.15274 7.17257,-8.15932 1.1961,-3.89268 -2.73322,-10.56913 -6.3195,-10.56913"
       id="path6254"
       inkscape:connector-curvature="0" /><text
       xml:space="preserve"
       style="font-size:12px;font-style:normal;font-variant:normal;font-weight:300;font-stretch:normal;text-align:start;line-height:125%;letter-spacing:0px;word-spacing:0px;writing-mode:lr-tb;text-anchor:start;fill:#000000;fill-opacity:1;stroke:none;font-family:Hiragino Mincho Pro;-inkscape-font-specification:Hiragino Mincho Pro Light"
       x="301.53467"
       y="-503.13351"
       id="text4712"
       sodipodi:linespacing="125%"
       transform="scale(1,-1)"><tspan
         sodipodi:role="line"
         id="tspan4714"
         x="301.53467"
         y="-503.13351">パッチ<tspan
   style="font-style:normal;font-variant:normal;font-weight:normal;font-stretch:normal;font-family:cmr12;-inkscape-font-specification:cmr12"
   id="tspan4716"> 1</tspan></tspan></text>
<text
       sodipodi:linespacing="125%"
       id="text4718"
       y="-412.42258"
       x="410.19992"
       style="font-size:12px;font-style:normal;font-variant:normal;font-weight:300;font-stretch:normal;text-align:start;line-height:125%;letter-spacing:0px;word-spacing:0px;writing-mode:lr-tb;text-anchor:start;fill:#000000;fill-opacity:1;stroke:none;font-family:Hiragino Mincho Pro;-inkscape-font-specification:Hiragino Mincho Pro Light"
       xml:space="preserve"
       transform="scale(1,-1)"><tspan
         y="-412.42258"
         x="410.19992"
         id="tspan4720"
         sodipodi:role="line">パッチ<tspan
   id="tspan4722"
   style="font-style:normal;font-variant:normal;font-weight:normal;font-stretch:normal;font-family:cmr12;-inkscape-font-specification:cmr12"> 2</tspan></tspan></text>
<text
       sodipodi:linespacing="125%"
       id="text5990"
       y="-412.4227"
       x="183.07367"
       style="font-size:12px;font-style:normal;font-variant:normal;font-weight:300;font-stretch:normal;text-align:start;line-height:125%;letter-spacing:0px;word-spacing:0px;writing-mode:lr-tb;text-anchor:start;fill:#000000;fill-opacity:1;stroke:none;font-family:Hiragino Mincho Pro;-inkscape-font-specification:Hiragino Mincho Pro Light"
       xml:space="preserve"
       transform="scale(1,-1)"><tspan
         y="-412.4227"
         x="183.07367"
         id="tspan5992"
         sodipodi:role="line">パッチ<tspan
   id="tspan5994"
   style="font-style:normal;font-variant:normal;font-weight:normal;font-stretch:normal;font-family:cmr12;-inkscape-font-specification:cmr12"> 1</tspan></tspan></text>
<text
       xml:space="preserve"
       style="font-size:12px;font-style:normal;font-variant:normal;font-weight:300;font-stretch:normal;text-align:start;line-height:125%;letter-spacing:0px;word-spacing:0px;writing-mode:lr-tb;text-anchor:start;fill:#000000;fill-opacity:1;stroke:none;font-family:Hiragino Mincho Pro;-inkscape-font-specification:Hiragino Mincho Pro Light"
       x="183.07367"
       y="-401.08249"
       id="text5996"
       sodipodi:linespacing="125%"
       transform="scale(1,-1)"><tspan
         sodipodi:role="line"
         id="tspan5998"
         x="183.07367"
         y="-401.08249">パッチ<tspan
   style="font-style:normal;font-variant:normal;font-weight:normal;font-stretch:normal;font-family:cmr12;-inkscape-font-specification:cmr12"
   id="tspan6000"> 2</tspan></tspan></text>
<text
       xml:space="preserve"
       style="font-size:12px;font-style:normal;font-variant:normal;font-weight:300;font-stretch:normal;text-align:start;line-height:125%;letter-spacing:0px;word-spacing:0px;writing-mode:lr-tb;text-anchor:start;fill:#000000;fill-opacity:1;stroke:none;font-family:Hiragino Mincho Pro;-inkscape-font-specification:Hiragino Mincho Pro Light"
       x="182.01962"
       y="-446.74966"
       id="text6002"
       sodipodi:linespacing="125%"
       transform="scale(1,-1)"><tspan
         sodipodi:role="line"
         x="182.01962"
         y="-446.74966"
         id="tspan6012">内部の場</tspan></text>
<text
       sodipodi:linespacing="125%"
       id="text6015"
       y="-425.78214"
       x="183.15735"
       style="font-size:12px;font-style:normal;font-variant:normal;font-weight:300;font-stretch:normal;text-align:start;line-height:125%;letter-spacing:0px;word-spacing:0px;writing-mode:lr-tb;text-anchor:start;fill:#000000;fill-opacity:1;stroke:none;font-family:Hiragino Mincho Pro;-inkscape-font-specification:Hiragino Mincho Pro Light"
       xml:space="preserve"
       transform="scale(1,-1)"><tspan
         id="tspan6019"
         y="-425.78214"
         x="183.15735"
         sodipodi:role="line">境界の場</tspan></text>
</g></svg>