<?xml version="1.0" encoding="UTF-8" standalone="no"?>
<!-- Created with Inkscape (http://www.inkscape.org/) -->

<svg
   xmlns:dc="http://purl.org/dc/elements/1.1/"
   xmlns:cc="http://creativecommons.org/ns#"
   xmlns:rdf="http://www.w3.org/1999/02/22-rdf-syntax-ns#"
   xmlns:svg="http://www.w3.org/2000/svg"
   xmlns="http://www.w3.org/2000/svg"
   xmlns:sodipodi="http://sodipodi.sourceforge.net/DTD/sodipodi-0.dtd"
   xmlns:inkscape="http://www.inkscape.org/namespaces/inkscape"
   id="svg8508"
   version="1.1"
   inkscape:version="0.48.2 r9819"
   width="456.78488"
   height="214.44278"
   xml:space="preserve"
   sodipodi:docname="fig-3-9.svg"><metadata
     id="metadata8514"><rdf:RDF><cc:Work
         rdf:about=""><dc:format>image/svg+xml</dc:format><dc:type
           rdf:resource="http://purl.org/dc/dcmitype/StillImage" /><dc:title /></cc:Work></rdf:RDF></metadata><defs
     id="defs8512"><clipPath
       clipPathUnits="userSpaceOnUse"
       id="clipPath8590"><path
         d="m 1113.3,5456.88 0,-1670 3480,0 0,1670 -3480,0 z"
         id="path8592"
         inkscape:connector-curvature="0" /></clipPath><clipPath
       clipPathUnits="userSpaceOnUse"
       id="clipPath8600"><path
         d="m 1113.3,5456.88 0,-1670 3480,0 0,1670 -3480,0 z m 635.99,-427.65 37.8,0 0.63,94.49 -18.9,-75.59 -18.9,75.59 -0.63,-94.49 z"
         clip-rule="evenodd"
         id="path8602"
         inkscape:connector-curvature="0" /></clipPath><clipPath
       clipPathUnits="userSpaceOnUse"
       id="clipPath8610"><path
         d="m 1113.3,5456.88 0,-1670 3480,0 0,1670 -3480,0 z"
         id="path8612"
         inkscape:connector-curvature="0" /></clipPath><clipPath
       clipPathUnits="userSpaceOnUse"
       id="clipPath8622"><path
         d="m 1113.3,5456.88 0,-1670 3480,0 0,1670 -3480,0 z m 976.14,-181.99 0,37.8 -95.12,-0.63 75.59,-18.9 -75.59,-18.9 95.12,0.63 z"
         clip-rule="evenodd"
         id="path8624"
         inkscape:connector-curvature="0" /></clipPath><clipPath
       clipPathUnits="userSpaceOnUse"
       id="clipPath8632"><path
         d="m 1113.3,5456.88 0,-1670 3480,0 0,1670 -3480,0 z"
         id="path8634"
         inkscape:connector-curvature="0" /></clipPath><clipPath
       clipPathUnits="userSpaceOnUse"
       id="clipPath8644"><path
         d="m 1113.3,5456.88 0,-1670 3480,0 0,1670 -3480,0 z m 579.3,-994.56 37.8,0 0.63,95.12 -18.9,-75.59 -18.9,75.59 -0.63,-95.12 z m 37.8,840.92 -37.8,0 0.63,-95.75 18.9,75.59 18.9,-75.59 -0.63,95.75 z"
         clip-rule="evenodd"
         id="path8646"
         inkscape:connector-curvature="0" /></clipPath><clipPath
       clipPathUnits="userSpaceOnUse"
       id="clipPath8654"><path
         d="m 1113.3,5456.88 0,-1670 3480,0 0,1670 -3480,0 z"
         id="path8656"
         inkscape:connector-curvature="0" /></clipPath><clipPath
       clipPathUnits="userSpaceOnUse"
       id="clipPath8670"><path
         d="m 1113.3,5456.88 0,-1670 3480,0 0,1670 -3480,0 z m 1117.87,-1060.7 0,37.8 -95.12,0 75.59,-18.9 -75.59,-18.9 95.12,0 z m -472.43,37.8 0,-37.8 95.75,0 -75.59,18.9 75.59,18.9 -95.75,0 z"
         clip-rule="evenodd"
         id="path8672"
         inkscape:connector-curvature="0" /></clipPath><clipPath
       clipPathUnits="userSpaceOnUse"
       id="clipPath8680"><path
         d="m 1113.3,5456.88 0,-1670 3480,0 0,1670 -3480,0 z"
         id="path8682"
         inkscape:connector-curvature="0" /></clipPath><clipPath
       clipPathUnits="userSpaceOnUse"
       id="clipPath8696"><path
         d="m 1113.3,5456.88 0,-1670 3480,0 0,1670 -3480,0 z m 3470.54,-1060.7 0,37.8 -95.11,0 75.59,-18.9 -75.59,-18.9 95.11,0 z m -2286.54,37.8 0,-37.8 95.12,0 -75.59,18.9 75.59,18.9 -95.12,0 z"
         clip-rule="evenodd"
         id="path8698"
         inkscape:connector-curvature="0" /></clipPath><clipPath
       clipPathUnits="userSpaceOnUse"
       id="clipPath8706"><path
         d="m 1113.3,5456.88 0,-1670 3480,0 0,1670 -3480,0 z"
         id="path8708"
         inkscape:connector-curvature="0" /></clipPath><clipPath
       clipPathUnits="userSpaceOnUse"
       id="clipPath8722"><path
         d="m 1113.3,5456.88 0,-1670 3480,0 0,1670 -3480,0 z m 1259.59,-994.56 37.8,0 0,95.12 -18.9,-75.59 -18.9,75.59 0,-95.12 z"
         clip-rule="evenodd"
         id="path8724"
         inkscape:connector-curvature="0" /></clipPath><clipPath
       clipPathUnits="userSpaceOnUse"
       id="clipPath8732"><path
         d="m 1113.3,5456.88 0,-1670 3480,0 0,1670 -3480,0 z"
         id="path8734"
         inkscape:connector-curvature="0" /></clipPath><clipPath
       clipPathUnits="userSpaceOnUse"
       id="clipPath8744"><path
         d="m 1113.3,5456.88 0,-1670 3480,0 0,1670 -3480,0 z m 1259.59,-1363.05 37.8,0 0,95.12 -18.9,-75.59 -18.9,75.59 0,-95.12 z"
         clip-rule="evenodd"
         id="path8746"
         inkscape:connector-curvature="0" /></clipPath><clipPath
       clipPathUnits="userSpaceOnUse"
       id="clipPath8754"><path
         d="m 1113.3,5456.88 0,-1670 3480,0 0,1670 -3480,0 z"
         id="path8756"
         inkscape:connector-curvature="0" /></clipPath><clipPath
       clipPathUnits="userSpaceOnUse"
       id="clipPath8766"><path
         d="m 1113.3,5456.88 0,-1670 3480,0 0,1670 -3480,0 z m 1117.87,-1429.19 0,37.79 -95.12,0 75.59,-18.89 -75.59,-18.9 95.12,0 z"
         clip-rule="evenodd"
         id="path8768"
         inkscape:connector-curvature="0" /></clipPath><clipPath
       clipPathUnits="userSpaceOnUse"
       id="clipPath8776"><path
         d="m 1113.3,5456.88 0,-1670 3480,0 0,1670 -3480,0 z"
         id="path8778"
         inkscape:connector-curvature="0" /></clipPath><clipPath
       clipPathUnits="userSpaceOnUse"
       id="clipPath8788"><path
         d="m 1113.3,5456.88 0,-1670 3480,0 0,1670 -3480,0 z m 1184,-1391.4 0,-37.79 95.12,0 -75.59,18.9 75.59,18.89 -95.12,0 z"
         clip-rule="evenodd"
         id="path8790"
         inkscape:connector-curvature="0" /></clipPath><clipPath
       clipPathUnits="userSpaceOnUse"
       id="clipPath8798"><path
         d="m 1113.3,5456.88 0,-1670 3480,0 0,1670 -3480,0 z"
         id="path8800"
         inkscape:connector-curvature="0" /></clipPath></defs><sodipodi:namedview
     pagecolor="#ffffff"
     bordercolor="#666666"
     borderopacity="1"
     objecttolerance="10"
     gridtolerance="10"
     guidetolerance="10"
     inkscape:pageopacity="0"
     inkscape:pageshadow="2"
     inkscape:window-width="1680"
     inkscape:window-height="933"
     id="namedview8510"
     showgrid="false"
     inkscape:zoom="3.3342228"
     inkscape:cx="228.39244"
     inkscape:cy="107.22139"
     inkscape:window-x="0"
     inkscape:window-y="0"
     inkscape:window-maximized="0"
     inkscape:current-layer="g8516"
     fit-margin-top="0"
     fit-margin-left="0"
     fit-margin-right="0"
     fit-margin-bottom="0" /><g
     id="g8516"
     inkscape:groupmode="layer"
     inkscape:label="ProgrammersGuide"
     transform="matrix(1.25,0,0,-1.25,-152.6102,674.84525)"><path
   inkscape:connector-curvature="0"
   id="path8594"
   style="fill:none;stroke:#000000;stroke-width:0.94484997;stroke-linecap:butt;stroke-linejoin:miter;stroke-miterlimit:10;stroke-opacity:1;stroke-dasharray:none"
   d="m 222.172,447.177 -45.353,0 0,82.202 280.62,0 0,-82.202 -226.764,0 0,-36.849 -8.503,0 0,36.849 z" /><path
   inkscape:connector-curvature="0"
   id="path8604"
   style="fill:none;stroke:#000000;stroke-width:0.94484997;stroke-linecap:butt;stroke-linejoin:miter;stroke-miterlimit:10;stroke-opacity:1;stroke-dasharray:none"
   d="m 176.819,529.379 0,-25.511" /><path
   inkscape:connector-curvature="0"
   id="path8614"
   style="fill:#000000;fill-opacity:1;fill-rule:evenodd;stroke:none"
   d="m 174.992,512.372 1.89,-7.559 1.89,7.559 -3.78,0" /><path
   inkscape:connector-curvature="0"
   id="path8616"
   style="fill:none;stroke:#000000;stroke-width:0.47242498;stroke-linecap:butt;stroke-linejoin:miter;stroke-miterlimit:10;stroke-opacity:1;stroke-dasharray:none"
   d="m 174.992,512.372 1.89,-7.559 1.89,7.559 -3.78,0 z" /><path
   inkscape:connector-curvature="0"
   id="path8626"
   style="fill:none;stroke:#000000;stroke-width:0.94484997;stroke-linecap:butt;stroke-linejoin:miter;stroke-miterlimit:10;stroke-opacity:1;stroke-dasharray:none"
   d="m 176.819,529.379 31.18,0" /><path
   inkscape:connector-curvature="0"
   id="path8636"
   style="fill:#000000;fill-opacity:1;fill-rule:evenodd;stroke:none"
   d="m 199.432,527.426 7.559,1.89 -7.559,1.89 0,-3.78" /><path
   inkscape:connector-curvature="0"
   id="path8638"
   style="fill:none;stroke:#000000;stroke-width:0.47242498;stroke-linecap:butt;stroke-linejoin:miter;stroke-miterlimit:10;stroke-opacity:1;stroke-dasharray:none"
   d="m 199.432,527.426 7.559,1.89 -7.559,1.89 0,-3.78 z" /><path
   inkscape:connector-curvature="0"
   id="path8648"
   style="fill:none;stroke:#000000;stroke-width:0.47242498;stroke-linecap:butt;stroke-linejoin:miter;stroke-miterlimit:10;stroke-opacity:1;stroke-dasharray:none"
   d="m 171.15,529.379 0,-82.202" /><path
   inkscape:connector-curvature="0"
   id="path8658"
   style="fill:#000000;fill-opacity:1;fill-rule:evenodd;stroke:none"
   d="m 173.103,520.749 -1.89,7.559 -1.89,-7.559 3.78,0" /><path
   inkscape:connector-curvature="0"
   id="path8660"
   style="fill:none;stroke:#000000;stroke-width:0.47242498;stroke-linecap:butt;stroke-linejoin:miter;stroke-miterlimit:10;stroke-opacity:1;stroke-dasharray:none"
   d="m 173.103,520.749 -1.89,7.559 -1.89,-7.559 3.78,0 z" /><path
   inkscape:connector-curvature="0"
   id="path8662"
   style="fill:#000000;fill-opacity:1;fill-rule:evenodd;stroke:none"
   d="m 169.323,455.744 1.89,-7.559 1.89,7.559 -3.78,0" /><path
   inkscape:connector-curvature="0"
   id="path8664"
   style="fill:none;stroke:#000000;stroke-width:0.47242498;stroke-linecap:butt;stroke-linejoin:miter;stroke-miterlimit:10;stroke-opacity:1;stroke-dasharray:none"
   d="m 169.323,455.744 1.89,-7.559 1.89,7.559 -3.78,0 z" /><path
   inkscape:connector-curvature="0"
   id="path8674"
   style="fill:none;stroke:#000000;stroke-width:0.47242498;stroke-linecap:butt;stroke-linejoin:miter;stroke-miterlimit:10;stroke-opacity:1;stroke-dasharray:none"
   d="m 176.819,441.508 45.353,0" /><path
   inkscape:connector-curvature="0"
   id="path8684"
   style="fill:#000000;fill-opacity:1;fill-rule:evenodd;stroke:none"
   d="m 185.449,443.398 -7.559,-1.89 7.559,-1.89 0,3.78" /><path
   inkscape:connector-curvature="0"
   id="path8686"
   style="fill:none;stroke:#000000;stroke-width:0.47242498;stroke-linecap:butt;stroke-linejoin:miter;stroke-miterlimit:10;stroke-opacity:1;stroke-dasharray:none"
   d="m 185.449,443.398 -7.559,-1.89 7.559,-1.89 0,3.78 z" /><path
   inkscape:connector-curvature="0"
   id="path8688"
   style="fill:#000000;fill-opacity:1;fill-rule:evenodd;stroke:none"
   d="m 213.605,439.618 7.559,1.89 -7.559,1.89 0,-3.78" /><path
   inkscape:connector-curvature="0"
   id="path8690"
   style="fill:none;stroke:#000000;stroke-width:0.47242498;stroke-linecap:butt;stroke-linejoin:miter;stroke-miterlimit:10;stroke-opacity:1;stroke-dasharray:none"
   d="m 213.605,439.618 7.559,1.89 -7.559,1.89 0,-3.78 z" /><path
   inkscape:connector-curvature="0"
   id="path8700"
   style="fill:none;stroke:#000000;stroke-width:0.47242498;stroke-linecap:butt;stroke-linejoin:miter;stroke-miterlimit:10;stroke-opacity:1;stroke-dasharray:none"
   d="m 230.675,441.508 226.764,0" /><path
   inkscape:connector-curvature="0"
   id="path8710"
   style="fill:#000000;fill-opacity:1;fill-rule:evenodd;stroke:none"
   d="m 239.242,443.398 -7.559,-1.89 7.559,-1.89 0,3.78" /><path
   inkscape:connector-curvature="0"
   id="path8712"
   style="fill:none;stroke:#000000;stroke-width:0.47242498;stroke-linecap:butt;stroke-linejoin:miter;stroke-miterlimit:10;stroke-opacity:1;stroke-dasharray:none"
   d="m 239.242,443.398 -7.559,-1.89 7.559,-1.89 0,3.78 z" /><path
   inkscape:connector-curvature="0"
   id="path8714"
   style="fill:#000000;fill-opacity:1;fill-rule:evenodd;stroke:none"
   d="m 448.873,439.618 7.559,1.89 -7.559,1.89 0,-3.78" /><path
   inkscape:connector-curvature="0"
   id="path8716"
   style="fill:none;stroke:#000000;stroke-width:0.47242498;stroke-linecap:butt;stroke-linejoin:miter;stroke-miterlimit:10;stroke-opacity:1;stroke-dasharray:none"
   d="m 448.873,439.618 7.559,1.89 -7.559,1.89 0,-3.78 z" /><path
   inkscape:connector-curvature="0"
   id="path8726"
   style="fill:none;stroke:#000000;stroke-width:0.47242498;stroke-linecap:butt;stroke-linejoin:miter;stroke-miterlimit:10;stroke-opacity:1;stroke-dasharray:none"
   d="m 239.179,447.177 0,25.511" /><path
   inkscape:connector-curvature="0"
   id="path8736"
   style="fill:#000000;fill-opacity:1;fill-rule:evenodd;stroke:none"
   d="m 237.289,455.744 1.89,-7.559 1.89,7.559 -3.78,0" /><path
   inkscape:connector-curvature="0"
   id="path8738"
   style="fill:none;stroke:#000000;stroke-width:0.47242498;stroke-linecap:butt;stroke-linejoin:miter;stroke-miterlimit:10;stroke-opacity:1;stroke-dasharray:none"
   d="m 237.289,455.744 1.89,-7.559 1.89,7.559 -3.78,0 z" /><path
   inkscape:connector-curvature="0"
   id="path8748"
   style="fill:none;stroke:#000000;stroke-width:0.47242498;stroke-linecap:butt;stroke-linejoin:miter;stroke-miterlimit:10;stroke-opacity:1;stroke-dasharray:none"
   d="m 239.179,410.328 0,14.173" /><path
   inkscape:connector-curvature="0"
   id="path8758"
   style="fill:#000000;fill-opacity:1;fill-rule:evenodd;stroke:none"
   d="m 237.289,418.895 1.89,-7.559 1.89,7.559 -3.78,0" /><path
   inkscape:connector-curvature="0"
   id="path8760"
   style="fill:none;stroke:#000000;stroke-width:0.47242498;stroke-linecap:butt;stroke-linejoin:miter;stroke-miterlimit:10;stroke-opacity:1;stroke-dasharray:none"
   d="m 237.289,418.895 1.89,-7.559 1.89,7.559 -3.78,0 z" /><path
   inkscape:connector-curvature="0"
   id="path8770"
   style="fill:none;stroke:#000000;stroke-width:0.47242498;stroke-linecap:butt;stroke-linejoin:miter;stroke-miterlimit:10;stroke-opacity:1;stroke-dasharray:none"
   d="m 222.172,404.659 -19.842,0" /><path
   inkscape:connector-curvature="0"
   id="path8780"
   style="fill:#000000;fill-opacity:1;fill-rule:evenodd;stroke:none"
   d="m 213.605,402.769 7.559,1.89 -7.559,1.889 0,-3.779" /><path
   inkscape:connector-curvature="0"
   id="path8782"
   style="fill:none;stroke:#000000;stroke-width:0.47242498;stroke-linecap:butt;stroke-linejoin:miter;stroke-miterlimit:10;stroke-opacity:1;stroke-dasharray:none"
   d="m 213.605,402.769 7.559,1.89 -7.559,1.889 0,-3.779 z" /><path
   inkscape:connector-curvature="0"
   id="path8792"
   style="fill:none;stroke:#000000;stroke-width:0.47242498;stroke-linecap:butt;stroke-linejoin:miter;stroke-miterlimit:10;stroke-opacity:1;stroke-dasharray:none"
   d="m 230.675,404.659 19.842,0" /><path
   inkscape:connector-curvature="0"
   id="path8802"
   style="fill:#000000;fill-opacity:1;fill-rule:evenodd;stroke:none"
   d="m 239.242,406.548 -7.559,-1.889 7.559,-1.89 0,3.779" /><path
   inkscape:connector-curvature="0"
   id="path8804"
   style="fill:none;stroke:#000000;stroke-width:0.47242498;stroke-linecap:butt;stroke-linejoin:miter;stroke-miterlimit:10;stroke-opacity:1;stroke-dasharray:none"
   d="m 239.242,406.548 -7.559,-1.889 7.559,-1.89 0,3.779 z" /><path
   inkscape:connector-curvature="0"
   id="path8806"
   style="fill:none;stroke:#000000;stroke-width:0.47242498;stroke-linecap:butt;stroke-linejoin:miter;stroke-miterlimit:10;stroke-opacity:1;stroke-dasharray:none"
   d="m 210.834,418.832 17.007,-8.504" /><text
   transform="scale(1,-1)"
   id="text8810"
   x="179.36099"
   y="-506.254"
   style="font-size:11.95510006px;font-style:italic;font-variant:normal;font-weight:normal;font-stretch:normal;text-align:start;line-height:125%;writing-mode:lr-tb;text-anchor:start;font-family:LMMathItalic12;-inkscape-font-specification:LMMathItalic12 Italic"
   sodipodi:linespacing="125%"><tspan
     style="font-size:11.95510006px;font-style:italic;font-variant:normal;font-weight:normal;font-stretch:normal;text-align:start;line-height:125%;writing-mode:lr-tb;text-anchor:start;fill:#000000;fill-opacity:1;fill-rule:nonzero;stroke:none;font-family:LMMathItalic12;-inkscape-font-specification:LMMathItalic12 Italic"
     x="179.36099"
     y="-506.254"
     id="tspan8812">x</tspan><tspan
     style="font-size:11.95510006px;font-style:italic;font-variant:normal;font-weight:normal;font-stretch:normal;text-align:start;line-height:125%;writing-mode:lr-tb;text-anchor:start;fill:#000000;fill-opacity:1;fill-rule:nonzero;stroke:none;font-family:LMMathItalic12;-inkscape-font-specification:LMMathItalic12 Italic"
     x="190.7012"
     y="-534.604"
     id="tspan8814">y</tspan></text>






<text
   transform="scale(1,-1)"
   id="text8820"
   x="152.94611"
   y="-415.543"
   style="font-size:11.95510006px;font-style:italic;font-variant:normal;font-weight:normal;font-stretch:normal;text-align:start;line-height:125%;writing-mode:lr-tb;text-anchor:start;font-family:LMMathItalic12;-inkscape-font-specification:LMMathItalic12 Italic"
   sodipodi:linespacing="125%"><tspan
     style="font-size:11.95510006px;font-style:italic;font-variant:normal;font-weight:normal;font-stretch:normal;text-align:start;line-height:125%;writing-mode:lr-tb;text-anchor:start;fill:#000000;fill-opacity:1;fill-rule:nonzero;stroke:none;font-family:LMMathItalic12;-inkscape-font-specification:LMMathItalic12 Italic"
     x="152.94611"
     y="-415.543"
     id="tspan8822">p</tspan></text>





<text
   transform="scale(1,-1)"
   id="text8824"
   x="162.14415"
   y="-415.543"
   style="font-size:11.95510006px;font-style:normal;font-variant:normal;font-weight:normal;font-stretch:normal;text-align:start;line-height:125%;writing-mode:lr-tb;text-anchor:start;font-family:LMRoman12;-inkscape-font-specification:LMRoman12"
   sodipodi:linespacing="125%"><tspan
     style="font-size:11.95510006px;font-style:normal;font-variant:normal;font-weight:normal;font-stretch:normal;text-align:start;line-height:125%;writing-mode:lr-tb;text-anchor:start;fill:#000000;fill-opacity:1;fill-rule:nonzero;stroke:none;font-family:LMRoman12;-inkscape-font-specification:LMRoman12"
     x="162.14415 174.57301 184.32883 190.83578 196.68576"
     y="-415.543"
     sodipodi:role="line"
     id="tspan8826">=0bar</tspan><tspan
     style="font-size:11.95510006px;font-style:normal;font-variant:normal;font-weight:normal;font-stretch:normal;text-align:start;line-height:125%;writing-mode:lr-tb;text-anchor:start;fill:#000000;fill-opacity:1;fill-rule:nonzero;stroke:none;font-family:LMRoman12;-inkscape-font-specification:LMRoman12"
     x="329.60715 335.45712 341.3071"
     y="-429.71799"
     sodipodi:role="line"
     id="tspan8828">240</tspan><tspan
     style="font-size:11.95510006px;font-style:normal;font-variant:normal;font-weight:normal;font-stretch:normal;text-align:start;line-height:125%;writing-mode:lr-tb;text-anchor:start;fill:#000000;fill-opacity:1;fill-rule:nonzero;stroke:none;font-family:LMRoman12;-inkscape-font-specification:LMRoman12"
     x="238.89626 244.74623"
     y="-426.88324"
     sodipodi:role="line"
     id="tspan8830">50</tspan><tspan
     style="font-size:11.95510006px;font-style:normal;font-variant:normal;font-weight:normal;font-stretch:normal;text-align:start;line-height:125%;writing-mode:lr-tb;text-anchor:start;fill:#000000;fill-opacity:1;fill-rule:nonzero;stroke:none;font-family:LMRoman12;-inkscape-font-specification:LMRoman12"
     x="219.05135 224.90132"
     y="-392.86292"
     sodipodi:role="line"
     id="tspan8832">10</tspan><tspan
     style="font-size:11.95510006px;font-style:normal;font-variant:normal;font-weight:normal;font-stretch:normal;text-align:start;line-height:125%;writing-mode:lr-tb;text-anchor:start;fill:#000000;fill-opacity:1;fill-rule:nonzero;stroke:none;font-family:LMRoman12;-inkscape-font-specification:LMRoman12"
     x="193.53615 199.38612"
     y="-429.71802"
     sodipodi:role="line"
     id="tspan8834">50</tspan><tspan
     style="font-size:11.95510006px;font-style:normal;font-variant:normal;font-weight:normal;font-stretch:normal;text-align:start;line-height:125%;writing-mode:lr-tb;text-anchor:start;fill:#000000;fill-opacity:1;fill-rule:nonzero;stroke:none;font-family:LMRoman12;-inkscape-font-specification:LMRoman12"
     x="150.46236 156.31233 162.16229"
     y="-483.57434"
     sodipodi:role="line"
     id="tspan8836">100</tspan><tspan
     style="font-size:11.95510006px;font-style:normal;font-variant:normal;font-weight:normal;font-stretch:normal;text-align:start;line-height:125%;writing-mode:lr-tb;text-anchor:start;fill:#000000;fill-opacity:1;fill-rule:nonzero;stroke:none;font-family:LMRoman12;-inkscape-font-specification:LMRoman12"
     x="162.14415"
     sodipodi:role="line"
     id="tspan8838"
     y="0" /></text>




















<text
   style="font-size:12px"
   id="text4385-9-7"
   x="120.59377"
   y="-415.543"
   transform="scale(1,-1)"><tspan
     style="font-size:11.95510006px;font-variant:normal;font-weight:normal;writing-mode:lr-tb;fill:#000000;fill-opacity:1;fill-rule:nonzero;stroke:none;font-family:cmr12;-inkscape-font-specification:cmr12"
     x="120.59377"
     sodipodi:role="line"
     id="tspan4387-2-2"
     y="-415.543"><tspan
       style="font-style:normal;font-variant:normal;font-weight:normal;font-stretch:normal;font-family:IPAMincho;-inkscape-font-specification:IPAMincho"
       id="tspan4104-2">出口</tspan><tspan
       style="font-style:normal;font-variant:normal;font-weight:normal;font-stretch:normal;font-family:LMRoman12;-inkscape-font-specification:LMRoman12"
       id="tspan5125">:</tspan></tspan></text>










<text
   transform="scale(1,-1)"
   id="text3477"
   x="250.87747"
   y="-388.05548"><tspan
     style="font-size:11.95510006px;font-variant:normal;font-weight:normal;writing-mode:lr-tb;fill:#000000;fill-opacity:1;fill-rule:nonzero;stroke:none;font-family:cmr12;-inkscape-font-specification:cmr12"
     x="250.87747"
     y="-388.05548"
     sodipodi:role="line"
     id="tspan3499"><tspan
       style="font-style:normal;font-variant:normal;font-weight:normal;font-stretch:normal;font-family:IPAMincho;-inkscape-font-specification:IPAMincho"
       id="tspan3121">注意：図は</tspan><tspan
       style="font-style:normal;font-variant:normal;font-weight:normal;font-stretch:normal;font-family:LMMathItalic12;-inkscape-font-specification:LMMathItalic12 Bold Italic"
       id="tspan3501"> x </tspan><tspan
       style="font-style:normal;font-variant:normal;font-weight:normal;font-stretch:normal;font-family:IPAMincho;-inkscape-font-specification:IPAMincho"
       id="tspan3123">軸が水平となる通常の向きから</tspan></tspan><tspan
     style="font-size:11.95510006px;font-variant:normal;font-weight:normal;writing-mode:lr-tb;fill:#000000;fill-opacity:1;fill-rule:nonzero;stroke:none;font-family:cmr12;-inkscape-font-specification:cmr12"
     x="250.87747"
     y="-369.30267"
     sodipodi:role="line"
     id="tspan3262"><tspan
       style="font-style:normal;font-variant:normal;font-weight:normal;font-stretch:normal;font-family:LMRoman12;-inkscape-font-specification:LMRoman12"
       id="tspan3264"
       dx="36.154602">−</tspan><tspan
       style="font-family:LMRoman12;-inkscape-font-specification:LMRoman12"
       id="tspan5129">90</tspan><tspan
       style="font-family:LMRoman12;-inkscape-font-specification:LMRoman12"
       id="tspan3117">° </tspan><tspan
       style="font-style:normal;font-variant:normal;font-weight:normal;font-stretch:normal;font-family:IPAMincho;-inkscape-font-specification:IPAMincho"
       id="tspan3119">回転させたものです． </tspan></tspan></text>

<g
   id="g3179"
   transform="translate(-89.78892,-50.09559)"><text
   transform="scale(1,-1)"
   y="-454.28992"
   x="342.95071"
   id="text4405-9"
   style="font-size:12px"><tspan
     y="-454.28992"
     id="tspan3100"
     sodipodi:role="line"
     x="342.95071"
     style="font-size:11.95510006px;font-variant:normal;font-weight:normal;writing-mode:lr-tb;fill:#000000;fill-opacity:1;fill-rule:nonzero;stroke:none;font-family:cmr12;-inkscape-font-specification:cmr12"><tspan
       id="tspan3104"
       style="font-style:normal;font-variant:normal;font-weight:normal;font-stretch:normal;font-family:IPAMincho;-inkscape-font-specification:IPAMincho">寸法は</tspan><tspan
       style="font-style:normal;font-variant:normal;font-weight:normal;font-stretch:normal;font-family:LMRoman12;-inkscape-font-specification:LMRoman12"
       id="tspan5127"> mm</tspan></tspan></text>




<path
   d="m 342.85992,452.62459 59.58093,0"
   style="fill:none;stroke:#000000;stroke-width:0.48599997;stroke-linecap:butt;stroke-linejoin:miter;stroke-miterlimit:10;stroke-opacity:1;stroke-dasharray:none"
   id="path4409-1"
   inkscape:connector-curvature="0" /></g></g></svg>