<?xml version="1.0" encoding="UTF-8" standalone="no"?>
<!-- Created with Inkscape (http://www.inkscape.org/) -->

<svg
   xmlns:dc="http://purl.org/dc/elements/1.1/"
   xmlns:cc="http://creativecommons.org/ns#"
   xmlns:rdf="http://www.w3.org/1999/02/22-rdf-syntax-ns#"
   xmlns:svg="http://www.w3.org/2000/svg"
   xmlns="http://www.w3.org/2000/svg"
   xmlns:sodipodi="http://sodipodi.sourceforge.net/DTD/sodipodi-0.dtd"
   xmlns:inkscape="http://www.inkscape.org/namespaces/inkscape"
   id="svg4077"
   version="1.1"
   inkscape:version="0.48.1 r9760"
   width="553.05603"
   height="184.19241"
   xml:space="preserve"
   sodipodi:docname="fig-3-4.svg"><metadata
     id="metadata4083"><rdf:RDF><cc:Work
         rdf:about=""><dc:format>image/svg+xml</dc:format><dc:type
           rdf:resource="http://purl.org/dc/dcmitype/StillImage" /><dc:title /></cc:Work></rdf:RDF></metadata><defs
     id="defs4081"><clipPath
       clipPathUnits="userSpaceOnUse"
       id="clipPath4161"><path
         d="m 708.66,6368.49 0,-1490 4320,0 0,1490 -4320,0 z m 3167.23,-1139.11 0,37.79 -95.11,0 75.59,-18.9 -75.59,-18.89 95.11,0 z m -2626.68,37.79 0,-37.79 95.12,0 -75.59,18.89 75.59,18.9 -95.12,0 z"
         clip-rule="evenodd"
         id="path4163"
         inkscape:connector-curvature="0" /></clipPath><clipPath
       clipPathUnits="userSpaceOnUse"
       id="clipPath4171"><path
         d="m 708.66,6368.49 0,-1490 4320,0 0,1490 -4320,0 z"
         id="path4173"
         inkscape:connector-curvature="0" /></clipPath><clipPath
       clipPathUnits="userSpaceOnUse"
       id="clipPath4187"><path
         d="m 708.66,6368.49 0,-1490 4320,0 0,1490 -4320,0 z m 275.992,-1139.11 0,37.79 -94.484,0 75.59,-18.9 -75.59,-18.89 94.484,0 z"
         clip-rule="evenodd"
         id="path4189"
         inkscape:connector-curvature="0" /></clipPath><clipPath
       clipPathUnits="userSpaceOnUse"
       id="clipPath4197"><path
         d="m 708.66,6368.49 0,-1490 4320,0 0,1490 -4320,0 z"
         id="path4199"
         inkscape:connector-curvature="0" /></clipPath><clipPath
       clipPathUnits="userSpaceOnUse"
       id="clipPath4209"><path
         d="m 708.66,6368.49 0,-1490 4320,0 0,1490 -4320,0 z m 4216.02,-1139.11 0,37.79 -95.12,0 75.59,-18.9 -75.59,-18.89 95.12,0 z m -1067.68,37.79 0,-37.79 95.11,0 -75.59,18.89 75.59,18.9 -95.11,0 z"
         clip-rule="evenodd"
         id="path4211"
         inkscape:connector-curvature="0" /></clipPath><clipPath
       clipPathUnits="userSpaceOnUse"
       id="clipPath4219"><path
         d="m 708.66,6368.49 0,-1490 4320,0 0,1490 -4320,0 z"
         id="path4221"
         inkscape:connector-curvature="0" /></clipPath><clipPath
       clipPathUnits="userSpaceOnUse"
       id="clipPath4241"><path
         d="m 708.66,6368.49 0,-1490 4320,0 0,1490 -4320,0 z m 4272.71,-392.69 37.79,0 0,94.49 -18.89,-75.59 -18.9,75.59 0,-94.49 z"
         clip-rule="evenodd"
         id="path4243"
         inkscape:connector-curvature="0" /></clipPath><clipPath
       clipPathUnits="userSpaceOnUse"
       id="clipPath4251"><path
         d="m 708.66,6368.49 0,-1490 4320,0 0,1490 -4320,0 z"
         id="path4253"
         inkscape:connector-curvature="0" /></clipPath><clipPath
       clipPathUnits="userSpaceOnUse"
       id="clipPath4263"><path
         d="m 708.66,6368.49 0,-1490 4320,0 0,1490 -4320,0 z m 4310.5,-798.97 -37.79,0 0,-95.11 18.9,75.58 18.89,-75.58 0,95.11 z"
         clip-rule="evenodd"
         id="path4265"
         inkscape:connector-curvature="0" /></clipPath><clipPath
       clipPathUnits="userSpaceOnUse"
       id="clipPath4273"><path
         d="m 708.66,6368.49 0,-1490 4320,0 0,1490 -4320,0 z"
         id="path4275"
         inkscape:connector-curvature="0" /></clipPath><clipPath
       clipPathUnits="userSpaceOnUse"
       id="clipPath4285"><path
         d="m 708.66,6368.49 0,-1490 4320,0 0,1490 -4320,0 z m 219.301,-931.25 37.797,0 0.629,95.12 -18.899,-75.59 -18.894,75.59 -0.633,-95.12 z m 37.797,642.5 -37.797,0 0.633,-95.74 18.894,75.58 18.899,-75.58 -0.629,95.74 z"
         clip-rule="evenodd"
         id="path4287"
         inkscape:connector-curvature="0" /></clipPath><clipPath
       clipPathUnits="userSpaceOnUse"
       id="clipPath4295"><path
         d="m 708.66,6368.49 0,-1490 4320,0 0,1490 -4320,0 z"
         id="path4297"
         inkscape:connector-curvature="0" /></clipPath><clipPath
       clipPathUnits="userSpaceOnUse"
       id="clipPath4311"><path
         d="m 708.66,6368.49 0,-1490 4320,0 0,1490 -4320,0 z m 871.25,-628.9 0,37.8 -95.12,0 75.59,-18.9 -75.59,-18.9 95.12,0 z"
         clip-rule="evenodd"
         id="path4313"
         inkscape:connector-curvature="0" /></clipPath><clipPath
       clipPathUnits="userSpaceOnUse"
       id="clipPath4321"><path
         d="m 708.66,6368.49 0,-1490 4320,0 0,1490 -4320,0 z"
         id="path4323"
         inkscape:connector-curvature="0" /></clipPath><clipPath
       clipPathUnits="userSpaceOnUse"
       id="clipPath4335"><path
         d="m 708.66,6368.49 0,-1490 4320,0 0,1490 -4320,0 z m 568.9,-345.44 -37.8,0 0,-95.75 18.9,75.59 18.9,-75.59 0,95.75 z"
         clip-rule="evenodd"
         id="path4337"
         inkscape:connector-curvature="0" /></clipPath><clipPath
       clipPathUnits="userSpaceOnUse"
       id="clipPath4345"><path
         d="m 708.66,6368.49 0,-1490 4320,0 0,1490 -4320,0 z"
         id="path4347"
         inkscape:connector-curvature="0" /></clipPath></defs><sodipodi:namedview
     pagecolor="#ffffff"
     bordercolor="#666666"
     borderopacity="1"
     objecttolerance="10"
     gridtolerance="10"
     guidetolerance="10"
     inkscape:pageopacity="0"
     inkscape:pageshadow="2"
     inkscape:window-width="1680"
     inkscape:window-height="933"
     id="namedview4079"
     showgrid="false"
     inkscape:zoom="1"
     inkscape:cx="380.27447"
     inkscape:cy="48.743042"
     inkscape:window-x="0"
     inkscape:window-y="0"
     inkscape:window-maximized="0"
     inkscape:current-layer="g4085"
     fit-margin-top="0"
     fit-margin-left="0"
     fit-margin-right="0"
     fit-margin-bottom="0"
     inkscape:snap-bbox="true"
     inkscape:bbox-paths="true"
     inkscape:bbox-nodes="true"
     inkscape:snap-bbox-edge-midpoints="true"
     inkscape:object-paths="true"
     inkscape:snap-intersection-paths="true"
     inkscape:object-nodes="true"
     inkscape:snap-smooth-nodes="true"
     inkscape:snap-midpoints="true"
     inkscape:snap-bbox-midpoints="true" /><g
     id="g4085"
     inkscape:groupmode="layer"
     inkscape:label="ProgrammersGuide"
     transform="matrix(1.25,0,0,-1.25,-89.716484,791.61866)"><path
   inkscape:connector-curvature="0"
   id="path4165"
   style="fill:none;stroke:#000000;stroke-width:0.47242498;stroke-linecap:butt;stroke-linejoin:miter;stroke-miterlimit:10;stroke-opacity:1;stroke-dasharray:none"
   d="m 125.866,524.827 260.779,0" /><path
   inkscape:connector-curvature="0"
   id="path4175"
   style="fill:#000000;fill-opacity:1;fill-rule:evenodd;stroke:none"
   d="m 134.433,526.717 -7.559,-1.89 7.559,-1.889 0,3.779" /><path
   inkscape:connector-curvature="0"
   id="path4177"
   style="fill:none;stroke:#000000;stroke-width:0.47242498;stroke-linecap:butt;stroke-linejoin:miter;stroke-miterlimit:10;stroke-opacity:1;stroke-dasharray:none"
   d="m 134.433,526.717 -7.559,-1.89 7.559,-1.889 0,3.779 z" /><path
   inkscape:connector-curvature="0"
   id="path4179"
   style="fill:#000000;fill-opacity:1;fill-rule:evenodd;stroke:none"
   d="m 378.078,522.938 7.559,1.889 -7.559,1.89 0,-3.779" /><path
   inkscape:connector-curvature="0"
   id="path4181"
   style="fill:none;stroke:#000000;stroke-width:0.47242498;stroke-linecap:butt;stroke-linejoin:miter;stroke-miterlimit:10;stroke-opacity:1;stroke-dasharray:none"
   d="m 378.078,522.938 7.559,1.889 -7.559,1.89 0,-3.779 z" /><path
   inkscape:connector-curvature="0"
   id="path4191"
   style="fill:none;stroke:#000000;stroke-width:0.47242498;stroke-linecap:butt;stroke-linejoin:miter;stroke-miterlimit:10;stroke-opacity:1;stroke-dasharray:none"
   d="m 72.0094,524.827 25.5109,0" /><path
   inkscape:connector-curvature="0"
   id="path4201"
   style="fill:#000000;fill-opacity:1;fill-rule:evenodd;stroke:none"
   d="m 89.0168,522.938 7.559,1.889 -7.559,1.89 0,-3.779" /><path
   inkscape:connector-curvature="0"
   id="path4203"
   style="fill:none;stroke:#000000;stroke-width:0.47242498;stroke-linecap:butt;stroke-linejoin:miter;stroke-miterlimit:10;stroke-opacity:1;stroke-dasharray:none"
   d="m 89.0168,522.938 7.559,1.889 -7.559,1.89 0,-3.779 z" /><path
   inkscape:connector-curvature="0"
   id="path4213"
   style="fill:none;stroke:#000000;stroke-width:0.47242498;stroke-linecap:butt;stroke-linejoin:miter;stroke-miterlimit:10;stroke-opacity:1;stroke-dasharray:none"
   d="m 386.645,524.827 104.878,0" /><path
   inkscape:connector-curvature="0"
   id="path4223"
   style="fill:#000000;fill-opacity:1;fill-rule:evenodd;stroke:none"
   d="m 395.211,526.717 -7.559,-1.89 7.559,-1.889 0,3.779" /><path
   inkscape:connector-curvature="0"
   id="path4225"
   style="fill:none;stroke:#000000;stroke-width:0.47242498;stroke-linecap:butt;stroke-linejoin:miter;stroke-miterlimit:10;stroke-opacity:1;stroke-dasharray:none"
   d="m 395.211,526.717 -7.559,-1.89 7.559,-1.889 0,3.779 z" /><path
   inkscape:connector-curvature="0"
   id="path4227"
   style="fill:#000000;fill-opacity:1;fill-rule:evenodd;stroke:none"
   d="m 482.956,522.938 7.559,1.889 -7.559,1.89 0,-3.779" /><path
   inkscape:connector-curvature="0"
   id="path4229"
   style="fill:none;stroke:#000000;stroke-width:0.47242498;stroke-linecap:butt;stroke-linejoin:miter;stroke-miterlimit:10;stroke-opacity:1;stroke-dasharray:none"
   d="m 482.956,522.938 7.559,1.889 -7.559,1.89 0,-3.779 z" /><path
   inkscape:connector-curvature="0"
   id="path4231"
   style="fill:none;stroke:#000000;stroke-width:0.47242498;stroke-linecap:butt;stroke-linejoin:miter;stroke-miterlimit:10;stroke-opacity:1;stroke-dasharray:none"
   d="m 100.355,590.022 11.338,29.92" /><path
   inkscape:connector-curvature="0"
   id="path4233"
   style="fill:none;stroke:#000000;stroke-width:0.47242498;stroke-linecap:butt;stroke-linejoin:miter;stroke-miterlimit:10;stroke-opacity:1;stroke-dasharray:none"
   d="m 417.825,619.942 73.698,-35.589" /><path
   inkscape:connector-curvature="0"
   id="path4235"
   style="fill:none;stroke:#000000;stroke-width:0.94484997;stroke-linecap:butt;stroke-linejoin:miter;stroke-miterlimit:10;stroke-opacity:1;stroke-dasharray:none"
   d="m 125.866,575.849 -25.9519,0 0,31.999 285.4709,0 105.823,-11.086 0,-41.826 -105.823,-11.086 -259.519,0 0,31.999 z" /><path
   inkscape:connector-curvature="0"
   id="path4245"
   style="fill:none;stroke:#000000;stroke-width:0.47242498;stroke-linecap:butt;stroke-linejoin:miter;stroke-miterlimit:10;stroke-opacity:1;stroke-dasharray:none"
   d="m 500.027,615.533 0,-17.008" /><path
   inkscape:connector-curvature="0"
   id="path4255"
   style="fill:#000000;fill-opacity:1;fill-rule:evenodd;stroke:none"
   d="m 498.137,607.029 1.89,-7.559 1.889,7.559 -3.779,0" /><path
   inkscape:connector-curvature="0"
   id="path4257"
   style="fill:none;stroke:#000000;stroke-width:0.47242498;stroke-linecap:butt;stroke-linejoin:miter;stroke-miterlimit:10;stroke-opacity:1;stroke-dasharray:none"
   d="m 498.137,607.029 1.89,-7.559 1.889,7.559 -3.779,0 z" /><path
   inkscape:connector-curvature="0"
   id="path4267"
   style="fill:none;stroke:#000000;stroke-width:0.47242498;stroke-linecap:butt;stroke-linejoin:miter;stroke-miterlimit:10;stroke-opacity:1;stroke-dasharray:none"
   d="m 500.027,539 0,17.007" /><path
   inkscape:connector-curvature="0"
   id="path4277"
   style="fill:#000000;fill-opacity:1;fill-rule:evenodd;stroke:none"
   d="m 501.916,547.441 -1.889,7.558 -1.89,-7.558 3.779,0" /><path
   inkscape:connector-curvature="0"
   id="path4279"
   style="fill:none;stroke:#000000;stroke-width:0.47242498;stroke-linecap:butt;stroke-linejoin:miter;stroke-miterlimit:10;stroke-opacity:1;stroke-dasharray:none"
   d="m 501.916,547.441 -1.889,7.558 -1.89,-7.558 3.779,0 z" /><path
   inkscape:connector-curvature="0"
   id="path4289"
   style="fill:none;stroke:#000000;stroke-width:0.47242498;stroke-linecap:butt;stroke-linejoin:miter;stroke-miterlimit:10;stroke-opacity:1;stroke-dasharray:none"
   d="m 94.6859,607.029 0,-62.36" /><path
   inkscape:connector-curvature="0"
   id="path4299"
   style="fill:#000000;fill-opacity:1;fill-rule:evenodd;stroke:none"
   d="m 96.6387,598.4 -1.8899,7.558 -1.8894,-7.558 3.7793,0" /><path
   inkscape:connector-curvature="0"
   id="path4301"
   style="fill:none;stroke:#000000;stroke-width:0.47242498;stroke-linecap:butt;stroke-linejoin:miter;stroke-miterlimit:10;stroke-opacity:1;stroke-dasharray:none"
   d="m 96.6387,598.4 -1.8899,7.558 -1.8894,-7.558 3.7793,0 z" /><path
   inkscape:connector-curvature="0"
   id="path4303"
   style="fill:#000000;fill-opacity:1;fill-rule:evenodd;stroke:none"
   d="m 92.8594,553.236 1.8894,-7.559 1.8899,7.559 -3.7793,0" /><path
   inkscape:connector-curvature="0"
   id="path4305"
   style="fill:none;stroke:#000000;stroke-width:0.47242498;stroke-linecap:butt;stroke-linejoin:miter;stroke-miterlimit:10;stroke-opacity:1;stroke-dasharray:none"
   d="m 92.8594,553.236 1.8894,-7.559 1.8899,7.559 -3.7793,0 z" /><path
   inkscape:connector-curvature="0"
   id="path4315"
   style="fill:none;stroke:#000000;stroke-width:0.47242498;stroke-linecap:butt;stroke-linejoin:miter;stroke-miterlimit:10;stroke-opacity:1;stroke-dasharray:none"
   d="m 125.866,575.849 31.18,0" /><path
   inkscape:connector-curvature="0"
   id="path4325"
   style="fill:#000000;fill-opacity:1;fill-rule:evenodd;stroke:none"
   d="m 148.479,573.959 7.559,1.89 -7.559,1.89 0,-3.78" /><path
   inkscape:connector-curvature="0"
   id="path4327"
   style="fill:none;stroke:#000000;stroke-width:0.47242498;stroke-linecap:butt;stroke-linejoin:miter;stroke-miterlimit:10;stroke-opacity:1;stroke-dasharray:none"
   d="m 148.479,573.959 7.559,1.89 -7.559,1.89 0,-3.78 z" /><path
   inkscape:connector-curvature="0"
   id="path4329"
   style="fill:none;stroke:#000000;stroke-width:0.47242498;stroke-linecap:butt;stroke-linejoin:miter;stroke-miterlimit:10;stroke-opacity:1;stroke-dasharray:9.4485, 4.72425, 0.94485, 4.72425;stroke-dashoffset:0"
   d="m 159.88,575.849 331.643,0" /><path
   inkscape:connector-curvature="0"
   id="path4339"
   style="fill:none;stroke:#000000;stroke-width:0.47242498;stroke-linecap:butt;stroke-linejoin:miter;stroke-miterlimit:10;stroke-opacity:1;stroke-dasharray:none"
   d="m 125.866,575.849 0,25.511" /><path
   inkscape:connector-curvature="0"
   id="path4349"
   style="fill:#000000;fill-opacity:1;fill-rule:evenodd;stroke:none"
   d="m 127.756,592.73 -1.89,7.559 -1.89,-7.559 3.78,0" /><path
   inkscape:connector-curvature="0"
   id="path4351"
   style="fill:none;stroke:#000000;stroke-width:0.47242498;stroke-linecap:butt;stroke-linejoin:miter;stroke-miterlimit:10;stroke-opacity:1;stroke-dasharray:none"
   d="m 127.756,592.73 -1.89,7.559 -1.89,-7.559 3.78,0 z" />
<text
   transform="scale(1,-1)"
   id="text4361"
   x="132.15584"
   y="-623.91998"><tspan
     style="font-size:11.95510006px;font-variant:normal;font-weight:normal;writing-mode:lr-tb;fill:#000000;fill-opacity:1;fill-rule:nonzero;stroke:none;font-family:cmmi12;-inkscape-font-specification:cmmi12"
     x="132.15584"
     y="-623.91998"
     id="tspan4363">U</tspan></text>

<text
   transform="scale(1,-1)"
   id="text4365"
   x="140.1031"
   y="-622.12897"><tspan
     style="font-size:7.97010994px;font-variant:normal;font-weight:normal;writing-mode:lr-tb;fill:#000000;fill-opacity:1;fill-rule:nonzero;stroke:none;font-family:cmmi8;-inkscape-font-specification:cmmi8"
     x="140.1031"
     y="-622.12897"
     id="tspan4367">x</tspan></text>

<text
   transform="scale(1,-1)"
   id="text4369"
   x="148.69803"
   y="-623.91998"><tspan
     style="font-size:11.95510006px;font-variant:normal;font-weight:normal;writing-mode:lr-tb;fill:#000000;fill-opacity:1;fill-rule:nonzero;stroke:none;font-family:cmr12;-inkscape-font-specification:cmr12"
     x="148.69803 161.1179 166.96788"
     y="-623.91998"
     sodipodi:role="line"
     id="tspan4371">=10</tspan></text>

<text
   transform="scale(1,-1)"
   id="text4373"
   x="172.81793"
   y="-623.91998"><tspan
     style="font-size:11.95510006px;font-variant:normal;font-weight:normal;writing-mode:lr-tb;fill:#000000;fill-opacity:1;fill-rule:nonzero;stroke:none;font-family:cmmi12;-inkscape-font-specification:cmmi12"
     x="172.81793"
     y="-623.91998"
     id="tspan4375">:</tspan></text>

<text
   transform="scale(1,-1)"
   id="text4377"
   x="176.06676"
   y="-623.91998"><tspan
     style="font-size:11.95510006px;font-variant:normal;font-weight:normal;writing-mode:lr-tb;fill:#000000;fill-opacity:1;fill-rule:nonzero;stroke:none;font-family:cmr12;-inkscape-font-specification:cmr12"
     x="176.06676 185.83156"
     y="-623.91998"
     sodipodi:role="line"
     id="tspan4379">0m</tspan></text>

<text
   transform="scale(1,-1)"
   id="text4381"
   x="195.58746"
   y="-623.91998"><tspan
     style="font-size:11.95510006px;font-variant:normal;font-weight:normal;writing-mode:lr-tb;fill:#000000;fill-opacity:1;fill-rule:nonzero;stroke:none;font-family:cmmi12;-inkscape-font-specification:cmmi12"
     x="195.58746"
     y="-623.91998"
     id="tspan4383">=</tspan></text>


<text
   transform="scale(1,-1)"
   id="text4389"
   x="444.91446"
   y="-623.91998"><tspan
     style="font-size:11.95510006px;font-variant:normal;font-weight:normal;writing-mode:lr-tb;fill:#000000;fill-opacity:1;fill-rule:nonzero;stroke:none;font-family:cmmi12;-inkscape-font-specification:cmmi12"
     x="444.91446"
     y="-623.91998"
     id="tspan4391">p</tspan></text>

<text
   transform="scale(1,-1)"
   id="text4393"
   x="454.11252"
   y="-623.91998"><tspan
     style="font-size:11.95510006px;font-variant:normal;font-weight:normal;writing-mode:lr-tb;fill:#000000;fill-opacity:1;fill-rule:nonzero;stroke:none;font-family:cmr12;-inkscape-font-specification:cmr12"
     x="454.11252 466.54138 476.29721 483.93823"
     y="-623.91998"
     sodipodi:role="line"
     id="tspan4395">=0Pa</tspan><tspan
     style="font-size:11.95510006px;font-variant:normal;font-weight:normal;writing-mode:lr-tb;fill:#000000;fill-opacity:1;fill-rule:nonzero;stroke:none;font-family:cmr12;-inkscape-font-specification:cmr12"
     x="71.621513 77.471489 83.321465 86.570457 494.00952 499.8595 505.7095 508.95847"
     y="-572.89893"
     sodipodi:role="line"
     id="tspan4397">50.833.2</tspan></text>

<text
   transform="scale(1,-1)"
   id="text4399"
   x="129.26651"
   y="-589.90009"><tspan
     style="font-size:11.95510006px;font-variant:normal;font-weight:normal;writing-mode:lr-tb;fill:#000000;fill-opacity:1;fill-rule:nonzero;stroke:none;font-family:cmmi12;-inkscape-font-specification:cmmi12"
     x="129.26651"
     y="-589.90009"
     id="tspan4401">y</tspan><tspan
     style="font-size:11.95510006px;font-variant:normal;font-weight:normal;writing-mode:lr-tb;fill:#000000;fill-opacity:1;fill-rule:nonzero;stroke:none;font-family:cmmi12;-inkscape-font-specification:cmmi12"
     x="145.33131"
     y="-565.65399"
     id="tspan4403">x</tspan></text>


<g
   id="g3179"
   transform="translate(50.084115,33.55941)"><text
     transform="scale(1,-1)"
     y="-454.28992"
     x="342.95071"
     id="text4405-9"
     style="font-size:12px"><tspan
       y="-454.28992"
       id="tspan3100"
       sodipodi:role="line"
       x="342.95071"
       style="font-size:11.95510006px;font-variant:normal;font-weight:normal;writing-mode:lr-tb;fill:#000000;fill-opacity:1;fill-rule:nonzero;stroke:none;font-family:cmr12;-inkscape-font-specification:cmr12"><tspan
   id="tspan3104"
   style="font-style:normal;font-variant:normal;font-weight:normal;font-stretch:normal;font-family:IPAMincho;-inkscape-font-specification:IPAMincho">寸法は</tspan> mm</tspan></text>
<path
     d="m 342.85992,452.62459 59.58093,0"
     style="fill:none;stroke:#000000;stroke-width:0.48599997;stroke-linecap:butt;stroke-linejoin:miter;stroke-miterlimit:10;stroke-opacity:1;stroke-dasharray:none"
     id="path4409-1"
     inkscape:connector-curvature="0" /></g><text
   y="-623.91998"
   x="201.43745"
   id="text4069"
   transform="scale(1,-1)"><tspan
     y="-623.91998"
     id="tspan4071"
     sodipodi:role="line"
     x="201.43745"
     style="font-size:11.95510006px;font-variant:normal;font-weight:normal;writing-mode:lr-tb;fill:#000000;fill-opacity:1;fill-rule:nonzero;stroke:none;font-family:cmr12;-inkscape-font-specification:cmr12">s</tspan></text>
<text
   style="font-size:12px"
   id="text4385-9-7"
   x="412.5621"
   y="-623.43549"
   transform="scale(1,-1)"><tspan
     style="font-size:11.95510006px;font-variant:normal;font-weight:normal;writing-mode:lr-tb;fill:#000000;fill-opacity:1;fill-rule:nonzero;stroke:none;font-family:cmr12;-inkscape-font-specification:cmr12"
     x="412.5621"
     sodipodi:role="line"
     id="tspan4387-2-2"
     y="-623.43549"><tspan
   style="font-style:normal;font-variant:normal;font-weight:normal;font-stretch:normal;font-family:IPAMincho;-inkscape-font-specification:IPAMincho"
   id="tspan4104-2">出口</tspan>:</tspan></text>
<text
   style="font-size:12px"
   id="text4385-9-2-6"
   x="99.794525"
   y="-623.91998"
   transform="scale(1,-1)"><tspan
     style="font-size:11.95510006px;font-variant:normal;font-weight:normal;writing-mode:lr-tb;fill:#000000;fill-opacity:1;fill-rule:nonzero;stroke:none;font-family:cmr12;-inkscape-font-specification:cmr12"
     x="99.794525"
     sodipodi:role="line"
     id="tspan4387-2-7-4"
     y="-623.91998"><tspan
   style="font-style:normal;font-variant:normal;font-weight:normal;font-stretch:normal;font-family:IPAMincho;-inkscape-font-specification:IPAMincho"
   id="tspan4154-8">入口</tspan>:</tspan></text>
<text
   y="-510.52899"
   x="431.64899"
   id="text4234"
   transform="scale(1,-1)"><tspan
     id="tspan4236"
     sodipodi:role="line"
     y="-510.52899"
     x="431.64899 437.49899 443.349 446.59796 102.80699 108.65697 114.50694 117.75594 241.71228 247.56224 253.41222 259.26218 262.51117"
     style="font-size:11.95510006px;font-variant:normal;font-weight:normal;writing-mode:lr-tb;fill:#000000;fill-opacity:1;fill-rule:nonzero;stroke:none;font-family:cmr12;-inkscape-font-specification:cmr12">84.020.6206.0</tspan><tspan
     id="tspan4238"
     sodipodi:role="line"
     y="-inf"
     x="431.64899"
     style="font-size:11.95510006px;font-variant:normal;font-weight:normal;writing-mode:lr-tb;fill:#000000;fill-opacity:1;fill-rule:nonzero;stroke:none;font-family:cmr12;-inkscape-font-specification:cmr12" /></text>
</g></svg>