<?xml version="1.0" encoding="UTF-8" standalone="no"?>
<!-- Created with Inkscape (http://www.inkscape.org/) -->

<svg
   xmlns:dc="http://purl.org/dc/elements/1.1/"
   xmlns:cc="http://creativecommons.org/ns#"
   xmlns:rdf="http://www.w3.org/1999/02/22-rdf-syntax-ns#"
   xmlns:svg="http://www.w3.org/2000/svg"
   xmlns="http://www.w3.org/2000/svg"
   xmlns:sodipodi="http://sodipodi.sourceforge.net/DTD/sodipodi-0.dtd"
   xmlns:inkscape="http://www.inkscape.org/namespaces/inkscape"
   id="svg2"
   version="1.1"
   inkscape:version="0.48.2 r9819"
   width="353.45456"
   height="153.05768"
   xml:space="preserve"
   sodipodi:docname="fig-2-4-c.svg"><metadata
     id="metadata8"><rdf:RDF><cc:Work
         rdf:about=""><dc:format>image/svg+xml</dc:format><dc:type
           rdf:resource="http://purl.org/dc/dcmitype/StillImage" /><dc:title /></cc:Work></rdf:RDF></metadata><defs
     id="defs6"><clipPath
       clipPathUnits="userSpaceOnUse"
       id="clipPath30"><path
         d="m 1723.51,5301.95 2490,0 0,1179.8 -2490,0 0,-1179.8 z"
         id="path32"
         inkscape:connector-curvature="0" /></clipPath><clipPath
       clipPathUnits="userSpaceOnUse"
       id="clipPath256"><path
         d="m 1723.51,3916.75 2490,0 0,1179.81 -2490,0 0,-1179.81 z"
         id="path258"
         inkscape:connector-curvature="0" /></clipPath><clipPath
       clipPathUnits="userSpaceOnUse"
       id="clipPath500"><path
         d="m 1723.51,2511.25 2490,0 0,1199.96 -2490,0 0,-1199.96 z"
         id="path502"
         inkscape:connector-curvature="0" /></clipPath></defs><sodipodi:namedview
     pagecolor="#ffffff"
     bordercolor="#666666"
     borderopacity="1"
     objecttolerance="10"
     gridtolerance="10"
     guidetolerance="10"
     inkscape:pageopacity="0"
     inkscape:pageshadow="2"
     inkscape:window-width="1680"
     inkscape:window-height="923"
     id="namedview4"
     showgrid="false"
     fit-margin-top="0"
     fit-margin-left="0"
     fit-margin-right="0"
     fit-margin-bottom="0"
     inkscape:zoom="2.1890381"
     inkscape:cx="259.4888"
     inkscape:cy="66.867146"
     inkscape:window-x="0"
     inkscape:window-y="0"
     inkscape:window-maximized="0"
     inkscape:current-layer="g10"
     inkscape:snap-bbox="true"
     inkscape:bbox-paths="true"
     inkscape:bbox-nodes="true"
     inkscape:snap-bbox-edge-midpoints="true"
     inkscape:snap-bbox-midpoints="true"
     inkscape:object-paths="true"
     inkscape:snap-intersection-paths="true"
     inkscape:object-nodes="true"
     inkscape:snap-smooth-nodes="true"
     inkscape:snap-midpoints="true"
     inkscape:snap-object-midpoints="true"
     inkscape:snap-center="true" /><g
     id="g10"
     inkscape:groupmode="layer"
     inkscape:label="fig-2-4c"
     transform="matrix(1.25,0,0,-1.25,-215.78681,468.17638)"><path
   inkscape:connector-curvature="0"
   id="path504"
   style="fill:#231f20;fill-opacity:1;fill-rule:evenodd;stroke:none"
   d="m 174.949,313.782 c 1.216,0 2.21,-0.995 2.21,-2.212 0,-1.216 -0.994,-2.211 -2.21,-2.211 -1.218,0 -2.213,0.995 -2.213,2.211 0,1.217 0.995,2.212 2.213,2.212" /><path
   d="m 174.9495,313.78198 c 1.21602,0 2.21104,-0.99498 2.21104,-2.21297 0,-1.21498 -0.99502,-2.20996 -2.21104,-2.20996 -1.21703,0 -2.21205,0.99498 -2.21205,2.20996 0,1.21799 0.99502,2.21297 2.21205,2.21297 z"
   style="fill:none;stroke:#231f20;stroke-width:0.21599643;stroke-linecap:butt;stroke-linejoin:miter;stroke-miterlimit:2.61310005;stroke-opacity:1;stroke-dasharray:none"
   id="path508"
   inkscape:connector-curvature="0" /><path
   inkscape:connector-curvature="0"
   id="path510"
   style="fill:#918f90;fill-opacity:1;fill-rule:evenodd;stroke:none"
   d="m 174.949,280.6 c 1.216,0 2.21,-0.99 2.21,-2.209 0,-1.216 -0.994,-2.214 -2.21,-2.214 -1.218,0 -2.213,0.998 -2.213,2.214 0,1.219 0.995,2.209 2.213,2.209" /><path
   d="m 174.9495,280.59951 c 1.21602,0 2.21104,-0.98998 2.21104,-2.20896 0,-1.21598 -0.99502,-2.21297 -2.21104,-2.21297 -1.21703,0 -2.21205,0.99699 -2.21205,2.21297 0,1.21898 0.99502,2.20896 2.21205,2.20896 z"
   style="fill:none;stroke:#231f20;stroke-width:0.21599643;stroke-linecap:butt;stroke-linejoin:miter;stroke-miterlimit:2.61310005;stroke-opacity:1;stroke-dasharray:none"
   id="path514"
   inkscape:connector-curvature="0" /><path
   inkscape:connector-curvature="0"
   id="path516"
   style="fill:#ffffff;fill-opacity:1;fill-rule:evenodd;stroke:none"
   d="m 174.949,267.644 c 1.216,0 2.21,-0.998 2.21,-2.214 0,-1.218 -0.994,-2.209 -2.21,-2.209 -1.218,0 -2.213,0.991 -2.213,2.209 0,1.216 0.995,2.214 2.213,2.214" /><path
   d="m 174.9495,267.64372 c 1.21602,0 2.21104,-0.99799 2.21104,-2.21397 0,-1.21698 -0.99502,-2.20896 -2.21104,-2.20896 -1.21703,0 -2.21205,0.99198 -2.21205,2.20896 0,1.21598 0.99502,2.21397 2.21205,2.21397 z"
   style="fill:none;stroke:#231f20;stroke-width:0.21599643;stroke-linecap:butt;stroke-linejoin:miter;stroke-miterlimit:2.61310005;stroke-opacity:1;stroke-dasharray:none"
   id="path520"
   inkscape:connector-curvature="0" /><path
   d="m 276.51053,339.75956 118.89238,20.73767 11.05822,-88.24559 -78.79958,-18.6607 -51.15102,86.16862 z"
   style="fill:none;stroke:#231f20;stroke-width:0.7500385;stroke-linecap:butt;stroke-linejoin:miter;stroke-miterlimit:2.61310005;stroke-opacity:1;stroke-dasharray:none"
   id="path524"
   inkscape:connector-curvature="0" /><path
   d="m 320.40441,347.47744 36.46173,-87.09161"
   style="fill:none;stroke:#231f20;stroke-width:0.50002199;stroke-linecap:butt;stroke-linejoin:miter;stroke-miterlimit:2.61310005;stroke-opacity:1;stroke-dasharray:none"
   id="path528"
   inkscape:connector-curvature="0" /><path
   d="m 381.57663,266.26174 -14.8603,89.16657"
   style="fill:none;stroke:#231f20;stroke-width:0.50002199;stroke-linecap:butt;stroke-linejoin:miter;stroke-miterlimit:2.61310005;stroke-opacity:1;stroke-dasharray:none"
   id="path532"
   inkscape:connector-curvature="0" /><path
   d="m 294.48289,309.11705 104.54909,20.73667"
   style="fill:none;stroke:#231f20;stroke-width:0.50002199;stroke-linecap:butt;stroke-linejoin:miter;stroke-miterlimit:2.61310005;stroke-opacity:1;stroke-dasharray:none"
   id="path536"
   inkscape:connector-curvature="0" /><path
   d="m 311.07222,281.4685 92.27985,15.20675"
   style="fill:none;stroke:#231f20;stroke-width:0.50002199;stroke-linecap:butt;stroke-linejoin:miter;stroke-miterlimit:2.61310005;stroke-opacity:1;stroke-dasharray:none"
   id="path540"
   inkscape:connector-curvature="0" /><path
   inkscape:connector-curvature="0"
   id="path542"
   style="fill:#231f20;fill-opacity:1;fill-rule:evenodd;stroke:none"
   d="m 399.142,331.632 c 1.059,0 1.92,-0.862 1.92,-1.919 0,-1.061 -0.861,-1.922 -1.92,-1.922 -1.059,0 -1.922,0.861 -1.922,1.922 0,1.057 0.863,1.919 1.922,1.919" /><path
   d="m 399.14398,331.63169 c 1.05902,0 1.92004,-0.86198 1.92004,-1.91897 0,-1.05998 -0.86102,-1.92196 -1.92004,-1.92196 -1.05902,0 -1.92304,0.86198 -1.92304,1.92196 0,1.05699 0.86402,1.91897 1.92304,1.91897 z"
   style="fill:none;stroke:#231f20;stroke-width:0.21599643;stroke-linecap:butt;stroke-linejoin:miter;stroke-miterlimit:2.61310005;stroke-opacity:1;stroke-dasharray:none"
   id="path546"
   inkscape:connector-curvature="0" /><path
   inkscape:connector-curvature="0"
   id="path548"
   style="fill:#231f20;fill-opacity:1;fill-rule:evenodd;stroke:none"
   d="m 395.193,362.197 c 1.059,0 1.922,-0.861 1.922,-1.921 0,-1.056 -0.863,-1.919 -1.922,-1.919 -1.058,0 -1.92,0.863 -1.92,1.919 0,1.06 0.862,1.921 1.92,1.921" /><path
   d="m 395.1949,362.1972 c 1.05802,0 1.92204,-0.86098 1.92204,-1.92096 0,-1.05699 -0.86402,-1.91997 -1.92204,-1.91997 -1.05802,0 -1.92003,0.86298 -1.92003,1.91997 0,1.05998 0.86201,1.92096 1.92003,1.92096 z"
   style="fill:none;stroke:#231f20;stroke-width:0.21599643;stroke-linecap:butt;stroke-linejoin:miter;stroke-miterlimit:2.61310005;stroke-opacity:1;stroke-dasharray:none"
   id="path552"
   inkscape:connector-curvature="0" /><path
   inkscape:connector-curvature="0"
   id="path554"
   style="fill:#231f20;fill-opacity:1;fill-rule:evenodd;stroke:none"
   d="m 377.18,294.249 c 1.058,0 1.92,-0.863 1.92,-1.921 0,-1.057 -0.862,-1.921 -1.92,-1.921 -1.059,0 -1.921,0.864 -1.921,1.921 0,1.058 0.862,1.921 1.921,1.921" /><path
   d="m 377.18154,294.24929 c 1.05802,0 1.92004,-0.86398 1.92004,-1.92197 0,-1.05698 -0.86202,-1.92097 -1.92004,-1.92097 -1.05802,0 -1.92103,0.86399 -1.92103,1.92097 0,1.05799 0.86301,1.92197 1.92103,1.92197 z"
   style="fill:none;stroke:#231f20;stroke-width:0.21599643;stroke-linecap:butt;stroke-linejoin:miter;stroke-miterlimit:2.61310005;stroke-opacity:1;stroke-dasharray:none"
   id="path558"
   inkscape:connector-curvature="0" /><path
   inkscape:connector-curvature="0"
   id="path560"
   style="fill:#231f20;fill-opacity:1;fill-rule:evenodd;stroke:none"
   d="m 403.657,298.864 c 1.058,0 1.92,-0.864 1.92,-1.921 0,-1.058 -0.862,-1.922 -1.92,-1.922 -1.059,0 -1.921,0.864 -1.921,1.922 0,1.057 0.862,1.921 1.921,1.921" /><path
   d="m 403.65907,298.86422 c 1.05702,0 1.91904,-0.86399 1.91904,-1.92197 0,-1.05698 -0.86202,-1.92097 -1.91904,-1.92097 -1.05902,0 -1.92104,0.86399 -1.92104,1.92097 0,1.05798 0.86202,1.92197 1.92104,1.92197 z"
   style="fill:none;stroke:#231f20;stroke-width:0.21599643;stroke-linecap:butt;stroke-linejoin:miter;stroke-miterlimit:2.61310005;stroke-opacity:1;stroke-dasharray:none"
   id="path564"
   inkscape:connector-curvature="0" /><path
   inkscape:connector-curvature="0"
   id="path566"
   style="fill:#231f20;fill-opacity:1;fill-rule:evenodd;stroke:none"
   d="m 406.488,274.479 c 1.057,0 1.919,-0.864 1.919,-1.922 0,-1.057 -0.862,-1.921 -1.919,-1.921 -1.059,0 -1.922,0.864 -1.922,1.921 0,1.058 0.863,1.922 1.922,1.922" /><path
   d="m 406.48913,274.47861 c 1.05802,0 1.91904,-0.86399 1.91904,-1.92197 0,-1.05698 -0.86102,-1.92097 -1.91904,-1.92097 -1.05902,0 -1.92104,0.86399 -1.92104,1.92097 0,1.05798 0.86202,1.92197 1.92104,1.92197 z"
   style="fill:none;stroke:#231f20;stroke-width:0.21599643;stroke-linecap:butt;stroke-linejoin:miter;stroke-miterlimit:2.61310005;stroke-opacity:1;stroke-dasharray:none"
   id="path570"
   inkscape:connector-curvature="0" /><path
   inkscape:connector-curvature="0"
   id="path572"
   style="fill:#231f20;fill-opacity:1;fill-rule:evenodd;stroke:none"
   d="m 381.432,268.385 c 1.057,0 1.919,-0.864 1.919,-1.921 0,-1.058 -0.862,-1.921 -1.919,-1.921 -1.059,0 -1.921,0.863 -1.921,1.921 0,1.057 0.862,1.921 1.921,1.921" /><path
   d="m 381.43363,268.38471 c 1.05702,0 1.91904,-0.86299 1.91904,-1.92097 0,-1.05799 -0.86202,-1.92097 -1.91904,-1.92097 -1.05902,0 -1.92104,0.86298 -1.92104,1.92097 0,1.05798 0.86202,1.92097 1.92104,1.92097 z"
   style="fill:none;stroke:#231f20;stroke-width:0.21599643;stroke-linecap:butt;stroke-linejoin:miter;stroke-miterlimit:2.61310005;stroke-opacity:1;stroke-dasharray:none"
   id="path576"
   inkscape:connector-curvature="0" /><path
   inkscape:connector-curvature="0"
   id="path578"
   style="fill:#231f20;fill-opacity:1;fill-rule:evenodd;stroke:none"
   d="m 356.376,262.292 c 1.058,0 1.919,-0.863 1.919,-1.922 0,-1.057 -0.861,-1.921 -1.919,-1.921 -1.059,0 -1.921,0.864 -1.921,1.921 0,1.059 0.862,1.922 1.921,1.922" /><path
   d="m 356.37813,262.2918 c 1.05702,0 1.91904,-0.86298 1.91904,-1.92197 0,-1.05698 -0.86202,-1.92097 -1.91904,-1.92097 -1.05902,0 -1.92204,0.86399 -1.92204,1.92097 0,1.05899 0.86302,1.92197 1.92204,1.92197 z"
   style="fill:none;stroke:#231f20;stroke-width:0.21599643;stroke-linecap:butt;stroke-linejoin:miter;stroke-miterlimit:2.61310005;stroke-opacity:1;stroke-dasharray:none"
   id="path582"
   inkscape:connector-curvature="0" /><path
   inkscape:connector-curvature="0"
   id="path584"
   style="fill:#231f20;fill-opacity:1;fill-rule:evenodd;stroke:none"
   d="m 327.816,256.046 c 1.058,0 1.92,-0.863 1.92,-1.921 0,-1.057 -0.862,-1.921 -1.92,-1.921 -1.057,0 -1.921,0.864 -1.921,1.921 0,1.058 0.864,1.921 1.921,1.921" /><path
   d="m 327.81756,256.0459 c 1.05802,0 1.92003,-0.86298 1.92003,-1.92097 0,-1.05698 -0.86201,-1.92197 -1.92003,-1.92197 -1.05702,0 -1.92104,0.86499 -1.92104,1.92197 0,1.05799 0.86402,1.92097 1.92104,1.92097 z"
   style="fill:none;stroke:#231f20;stroke-width:0.21599643;stroke-linecap:butt;stroke-linejoin:miter;stroke-miterlimit:2.61310005;stroke-opacity:1;stroke-dasharray:none"
   id="path588"
   inkscape:connector-curvature="0" /><path
   inkscape:connector-curvature="0"
   id="path590"
   style="fill:#231f20;fill-opacity:1;fill-rule:evenodd;stroke:none"
   d="m 311.305,283.206 c 1.057,0 1.92,-0.863 1.92,-1.921 0,-1.058 -0.863,-1.921 -1.92,-1.921 -1.058,0 -1.921,0.863 -1.921,1.921 0,1.058 0.863,1.921 1.921,1.921" /><path
   d="m 311.30623,283.20547 c 1.05702,0 1.92003,-0.86199 1.92003,-1.92097 0,-1.05798 -0.86301,-1.91997 -1.92003,-1.91997 -1.05803,0 -1.92104,0.86199 -1.92104,1.91997 0,1.05898 0.86301,1.92097 1.92104,1.92097 z"
   style="fill:none;stroke:#231f20;stroke-width:0.21599643;stroke-linecap:butt;stroke-linejoin:miter;stroke-miterlimit:2.61310005;stroke-opacity:1;stroke-dasharray:none"
   id="path594"
   inkscape:connector-curvature="0" /><path
   inkscape:connector-curvature="0"
   id="path596"
   style="fill:#231f20;fill-opacity:1;fill-rule:evenodd;stroke:none"
   d="m 333.32,318.605 c 1.058,0 1.92,-0.862 1.92,-1.921 0,-1.057 -0.862,-1.92 -1.92,-1.92 -1.058,0 -1.921,0.863 -1.921,1.92 0,1.059 0.863,1.921 1.921,1.921" /><path
   d="m 333.32167,318.6059 c 1.05702,0 1.92003,-0.86298 1.92003,-1.92197 0,-1.05698 -0.86301,-1.91997 -1.92003,-1.91997 -1.05802,0 -1.92104,0.86299 -1.92104,1.91997 0,1.05899 0.86302,1.92197 1.92104,1.92197 z"
   style="fill:none;stroke:#231f20;stroke-width:0.21599643;stroke-linecap:butt;stroke-linejoin:miter;stroke-miterlimit:2.61310005;stroke-opacity:1;stroke-dasharray:none"
   id="path600"
   inkscape:connector-curvature="0" /><path
   inkscape:connector-curvature="0"
   id="path602"
   style="fill:#231f20;fill-opacity:1;fill-rule:evenodd;stroke:none"
   d="m 371.844,326.566 c 1.058,0 1.92,-0.862 1.92,-1.921 0,-1.057 -0.862,-1.92 -1.92,-1.92 -1.057,0 -1.921,0.863 -1.921,1.92 0,1.059 0.864,1.921 1.921,1.921" /><path
   d="m 371.84544,326.56677 c 1.05802,0 1.92004,-0.86298 1.92004,-1.92196 0,-1.05699 -0.86202,-1.91997 -1.92004,-1.91997 -1.05702,0 -1.92104,0.86298 -1.92104,1.91997 0,1.05898 0.86402,1.92196 1.92104,1.92196 z"
   style="fill:none;stroke:#231f20;stroke-width:0.21599643;stroke-linecap:butt;stroke-linejoin:miter;stroke-miterlimit:2.61310005;stroke-opacity:1;stroke-dasharray:none"
   id="path606"
   inkscape:connector-curvature="0" /><path
   inkscape:connector-curvature="0"
   id="path608"
   style="fill:#231f20;fill-opacity:1;fill-rule:evenodd;stroke:none"
   d="m 294.926,310.966 c 1.059,0 1.919,-0.864 1.919,-1.922 0,-1.058 -0.86,-1.92 -1.919,-1.92 -1.058,0 -1.92,0.862 -1.92,1.92 0,1.058 0.862,1.922 1.92,1.922" /><path
   d="m 294.9269,310.96602 c 1.05902,0 1.91904,-0.86498 1.91904,-1.92196 0,-1.05799 -0.86002,-1.91997 -1.91904,-1.91997 -1.05802,0 -1.92004,0.86198 -1.92004,1.91997 0,1.05698 0.86202,1.92196 1.92004,1.92196 z"
   style="fill:none;stroke:#231f20;stroke-width:0.21599643;stroke-linecap:butt;stroke-linejoin:miter;stroke-miterlimit:2.61310005;stroke-opacity:1;stroke-dasharray:none"
   id="path612"
   inkscape:connector-curvature="0" /><path
   inkscape:connector-curvature="0"
   id="path614"
   style="fill:#231f20;fill-opacity:1;fill-rule:evenodd;stroke:none"
   d="m 276.777,341.833 c 1.056,0 1.921,-0.864 1.921,-1.921 0,-1.058 -0.865,-1.921 -1.921,-1.921 -1.06,0 -1.922,0.863 -1.922,1.921 0,1.057 0.862,1.921 1.922,1.921" /><path
   d="m 276.77754,341.83253 c 1.05702,0 1.92103,-0.86299 1.92103,-1.92097 0,-1.05698 -0.86401,-1.92097 -1.92103,-1.92097 -1.06003,0 -1.92204,0.86399 -1.92204,1.92097 0,1.05798 0.86201,1.92097 1.92204,1.92097 z"
   style="fill:none;stroke:#231f20;stroke-width:0.21599643;stroke-linecap:butt;stroke-linejoin:miter;stroke-miterlimit:2.61310005;stroke-opacity:1;stroke-dasharray:none"
   id="path618"
   inkscape:connector-curvature="0" /><path
   inkscape:connector-curvature="0"
   id="path620"
   style="fill:#ffffff;fill-opacity:1;fill-rule:evenodd;stroke:none"
   d="m 341.83,258.811 c 1.056,0 1.92,-0.862 1.92,-1.921 0,-1.057 -0.864,-1.92 -1.92,-1.92 -1.059,0 -1.922,0.863 -1.922,1.92 0,1.059 0.863,1.921 1.922,1.921" /><path
   d="m 341.83184,258.81086 c 1.05602,0 1.91903,-0.86199 1.91903,-1.92097 0,-1.05698 -0.86301,-1.91997 -1.91903,-1.91997 -1.05902,0 -1.92304,0.86299 -1.92304,1.91997 0,1.05898 0.86402,1.92097 1.92304,1.92097 z"
   style="fill:none;stroke:#231f20;stroke-width:0.21599643;stroke-linecap:butt;stroke-linejoin:miter;stroke-miterlimit:2.61310005;stroke-opacity:1;stroke-dasharray:none"
   id="path624"
   inkscape:connector-curvature="0" /><path
   inkscape:connector-curvature="0"
   id="path626"
   style="fill:#ffffff;fill-opacity:1;fill-rule:evenodd;stroke:none"
   d="m 368.207,265.495 c 1.055,0 1.918,-0.863 1.918,-1.922 0,-1.057 -0.863,-1.921 -1.918,-1.921 -1.059,0 -1.922,0.864 -1.922,1.921 0,1.059 0.863,1.922 1.922,1.922" /><path
   d="m 368.20836,265.49475 c 1.05603,0 1.91804,-0.86198 1.91804,-1.92197 0,-1.05698 -0.86201,-1.92097 -1.91804,-1.92097 -1.05902,0 -1.92203,0.86399 -1.92203,1.92097 0,1.05999 0.86301,1.92197 1.92203,1.92197 z"
   style="fill:none;stroke:#231f20;stroke-width:0.21599643;stroke-linecap:butt;stroke-linejoin:miter;stroke-miterlimit:2.61310005;stroke-opacity:1;stroke-dasharray:none"
   id="path630"
   inkscape:connector-curvature="0" /><path
   inkscape:connector-curvature="0"
   id="path632"
   style="fill:#a7a5a6;fill-opacity:1;fill-rule:evenodd;stroke:none"
   d="m 404.949,284.961 c 1.056,0 1.919,-0.865 1.919,-1.922 0,-1.056 -0.863,-1.919 -1.919,-1.919 -1.058,0 -1.921,0.863 -1.921,1.919 0,1.057 0.863,1.922 1.921,1.922" /><path
   d="m 404.9511,284.96144 c 1.05602,0 1.91904,-0.86499 1.91904,-1.92197 0,-1.05598 -0.86302,-1.91997 -1.91904,-1.91997 -1.05902,0 -1.92204,0.86399 -1.92204,1.91997 0,1.05698 0.86302,1.92197 1.92204,1.92197 z"
   style="fill:none;stroke:#231f20;stroke-width:0.21599643;stroke-linecap:butt;stroke-linejoin:miter;stroke-miterlimit:2.61310005;stroke-opacity:1;stroke-dasharray:none"
   id="path636"
   inkscape:connector-curvature="0" /><path
   inkscape:connector-curvature="0"
   id="path638"
   style="fill:#a7a5a6;fill-opacity:1;fill-rule:evenodd;stroke:none"
   d="m 401.612,314.446 c 1.056,0 1.919,-0.862 1.919,-1.919 0,-1.059 -0.863,-1.922 -1.919,-1.922 -1.06,0 -1.922,0.863 -1.922,1.922 0,1.057 0.862,1.919 1.922,1.919" /><path
   d="m 401.61303,314.44597 c 1.05702,0 1.92004,-0.86199 1.92004,-1.91997 0,-1.05798 -0.86302,-1.92097 -1.92004,-1.92097 -1.06002,0 -1.92104,0.86299 -1.92104,1.92097 0,1.05798 0.86102,1.91997 1.92104,1.91997 z"
   style="fill:none;stroke:#231f20;stroke-width:0.21599643;stroke-linecap:butt;stroke-linejoin:miter;stroke-miterlimit:2.61310005;stroke-opacity:1;stroke-dasharray:none"
   id="path642"
   inkscape:connector-curvature="0" /><path
   inkscape:connector-curvature="0"
   id="path644"
   style="fill:#a7a5a6;fill-opacity:1;fill-rule:evenodd;stroke:none"
   d="m 397.239,347.041 c 1.057,0 1.92,-0.863 1.92,-1.92 0,-1.06 -0.863,-1.921 -1.92,-1.921 -1.059,0 -1.923,0.861 -1.923,1.921 0,1.057 0.864,1.92 1.923,1.92" /><path
   d="m 397.23994,347.04045 c 1.05703,0 1.92104,-0.86199 1.92104,-1.91897 0,-1.05999 -0.86401,-1.92197 -1.92104,-1.92197 -1.05802,0 -1.92203,0.86198 -1.92203,1.92197 0,1.05698 0.86401,1.91897 1.92203,1.91897 z"
   style="fill:none;stroke:#231f20;stroke-width:0.21599643;stroke-linecap:butt;stroke-linejoin:miter;stroke-miterlimit:2.61310005;stroke-opacity:1;stroke-dasharray:none"
   id="path648"
   inkscape:connector-curvature="0" /><path
   inkscape:connector-curvature="0"
   id="path650"
   style="fill:#a7a5a6;fill-opacity:1;fill-rule:evenodd;stroke:none"
   d="m 380.427,359.943 c 1.059,0 1.92,-0.861 1.92,-1.92 0,-1.059 -0.861,-1.919 -1.92,-1.919 -1.059,0 -1.922,0.86 -1.922,1.919 0,1.059 0.863,1.92 1.922,1.92" /><path
   d="m 380.42861,359.94324 c 1.05902,0 1.92004,-0.86199 1.92004,-1.92097 0,-1.05898 -0.86102,-1.91897 -1.92004,-1.91897 -1.05902,0 -1.92104,0.85999 -1.92104,1.91897 0,1.05898 0.86202,1.92097 1.92104,1.92097 z"
   style="fill:none;stroke:#231f20;stroke-width:0.21599643;stroke-linecap:butt;stroke-linejoin:miter;stroke-miterlimit:2.61310005;stroke-opacity:1;stroke-dasharray:none"
   id="path654"
   inkscape:connector-curvature="0" /><path
   inkscape:connector-curvature="0"
   id="path656"
   style="fill:#a7a5a6;fill-opacity:1;fill-rule:evenodd;stroke:none"
   d="m 344.267,353.152 c 1.058,0 1.921,-0.862 1.921,-1.92 0,-1.058 -0.863,-1.921 -1.921,-1.921 -1.058,0 -1.921,0.863 -1.921,1.921 0,1.058 0.863,1.92 1.921,1.92" /><path
   d="m 344.26889,353.15235 c 1.05802,0 1.92103,-0.86199 1.92103,-1.92097 0,-1.05798 -0.86301,-1.92097 -1.92103,-1.92097 -1.05803,0 -1.92104,0.86299 -1.92104,1.92097 0,1.05898 0.86301,1.92097 1.92104,1.92097 z"
   style="fill:none;stroke:#231f20;stroke-width:0.21599643;stroke-linecap:butt;stroke-linejoin:miter;stroke-miterlimit:2.61310005;stroke-opacity:1;stroke-dasharray:none"
   id="path660"
   inkscape:connector-curvature="0" /><path
   inkscape:connector-curvature="0"
   id="path662"
   style="fill:#a7a5a6;fill-opacity:1;fill-rule:evenodd;stroke:none"
   d="m 300.852,345.669 c 1.059,0 1.92,-0.862 1.92,-1.921 0,-1.058 -0.861,-1.921 -1.92,-1.921 -1.057,0 -1.92,0.863 -1.92,1.921 0,1.059 0.863,1.921 1.92,1.921" /><path
   d="m 300.85302,345.66847 c 1.06002,0 1.92004,-0.86099 1.92004,-1.91997 0,-1.05798 -0.86002,-1.92097 -1.92004,-1.92097 -1.05702,0 -1.92004,0.86299 -1.92004,1.92097 0,1.05898 0.86302,1.91997 1.92004,1.91997 z"
   style="fill:none;stroke:#231f20;stroke-width:0.21599643;stroke-linecap:butt;stroke-linejoin:miter;stroke-miterlimit:2.61310005;stroke-opacity:1;stroke-dasharray:none"
   id="path666"
   inkscape:connector-curvature="0" /><path
   inkscape:connector-curvature="0"
   id="path668"
   style="fill:#a7a5a6;fill-opacity:1;fill-rule:evenodd;stroke:none"
   d="m 285.077,326.786 c 1.059,0 1.922,-0.863 1.922,-1.921 0,-1.058 -0.863,-1.921 -1.922,-1.921 -1.057,0 -1.92,0.863 -1.92,1.921 0,1.058 0.863,1.921 1.92,1.921" /><path
   d="m 285.0777,326.78577 c 1.05902,0 1.92204,-0.86298 1.92204,-1.92097 0,-1.05798 -0.86302,-1.92097 -1.92204,-1.92097 -1.05702,0 -1.91904,0.86299 -1.91904,1.92097 0,1.05799 0.86202,1.92097 1.91904,1.92097 z"
   style="fill:none;stroke:#231f20;stroke-width:0.21599643;stroke-linecap:butt;stroke-linejoin:miter;stroke-miterlimit:2.61310005;stroke-opacity:1;stroke-dasharray:none"
   id="path672"
   inkscape:connector-curvature="0" /><path
   inkscape:connector-curvature="0"
   id="path674"
   style="fill:#a7a5a6;fill-opacity:1;fill-rule:evenodd;stroke:none"
   d="m 303.507,297.193 c 1.059,0 1.922,-0.864 1.922,-1.922 0,-1.059 -0.863,-1.92 -1.922,-1.92 -1.058,0 -1.921,0.861 -1.921,1.92 0,1.058 0.863,1.922 1.921,1.922" /><path
   d="m 303.50807,297.19224 c 1.05902,0 1.92204,-0.86398 1.92204,-1.92096 0,-1.05899 -0.86302,-1.91997 -1.92204,-1.91997 -1.05802,0 -1.92104,0.86098 -1.92104,1.91997 0,1.05698 0.86302,1.92096 1.92104,1.92096 z"
   style="fill:none;stroke:#231f20;stroke-width:0.21599643;stroke-linecap:butt;stroke-linejoin:miter;stroke-miterlimit:2.61310005;stroke-opacity:1;stroke-dasharray:none"
   id="path678"
   inkscape:connector-curvature="0" /><path
   inkscape:connector-curvature="0"
   id="path680"
   style="fill:#a7a5a6;fill-opacity:1;fill-rule:evenodd;stroke:none"
   d="m 319.52,270.017 c 1.058,0 1.921,-0.863 1.921,-1.921 0,-1.058 -0.863,-1.921 -1.921,-1.921 -1.058,0 -1.921,0.863 -1.921,1.921 0,1.058 0.863,1.921 1.921,1.921" /><path
   d="m 319.52139,270.01668 c 1.05802,0 1.92104,-0.86299 1.92104,-1.92097 0,-1.05798 -0.86302,-1.92097 -1.92104,-1.92097 -1.05802,0 -1.92104,0.86299 -1.92104,1.92097 0,1.05798 0.86302,1.92097 1.92104,1.92097 z"
   style="fill:none;stroke:#231f20;stroke-width:0.21599643;stroke-linecap:butt;stroke-linejoin:miter;stroke-miterlimit:2.61310005;stroke-opacity:1;stroke-dasharray:none"
   id="path684"
   inkscape:connector-curvature="0" /><path
   inkscape:connector-curvature="0"
   id="path686"
   style="fill:#ffffff;fill-opacity:1;fill-rule:evenodd;stroke:none"
   d="m 394.238,271.486 c 1.058,0 1.92,-0.863 1.92,-1.92 0,-1.059 -0.862,-1.923 -1.92,-1.923 -1.06,0 -1.922,0.864 -1.922,1.923 0,1.057 0.862,1.92 1.922,1.92" /><path
   d="m 394.23988,271.48666 c 1.05803,0 1.92004,-0.86399 1.92004,-1.92097 0,-1.05899 -0.86201,-1.92197 -1.92004,-1.92197 -1.06002,0 -1.92303,0.86298 -1.92303,1.92197 0,1.05698 0.86301,1.92097 1.92303,1.92097 z"
   style="fill:none;stroke:#231f20;stroke-width:0.21599643;stroke-linecap:butt;stroke-linejoin:miter;stroke-miterlimit:2.61310005;stroke-opacity:1;stroke-dasharray:none"
   id="path690"
   inkscape:connector-curvature="0" /><path
   inkscape:connector-curvature="0"
   id="path692"
   style="fill:#231f20;fill-opacity:1;fill-rule:evenodd;stroke:none"
   d="m 366.786,357.805 c 1.058,0 1.922,-0.862 1.922,-1.921 0,-1.057 -0.864,-1.92 -1.922,-1.92 -1.058,0 -1.92,0.863 -1.92,1.92 0,1.059 0.862,1.921 1.92,1.921" /><path
   d="m 366.78734,357.80528 c 1.05802,0 1.92203,-0.86199 1.92203,-1.92097 0,-1.05699 -0.86401,-1.91997 -1.92203,-1.91997 -1.05803,0 -1.92004,0.86298 -1.92004,1.91997 0,1.05898 0.86201,1.92097 1.92004,1.92097 z"
   style="fill:none;stroke:#231f20;stroke-width:0.21599643;stroke-linecap:butt;stroke-linejoin:miter;stroke-miterlimit:2.61310005;stroke-opacity:1;stroke-dasharray:none"
   id="path696"
   inkscape:connector-curvature="0" /><path
   inkscape:connector-curvature="0"
   id="path698"
   style="fill:#231f20;fill-opacity:1;fill-rule:evenodd;stroke:none"
   d="m 320.664,349.338 c 1.057,0 1.92,-0.862 1.92,-1.919 0,-1.059 -0.863,-1.922 -1.92,-1.922 -1.059,0 -1.921,0.863 -1.921,1.922 0,1.057 0.862,1.919 1.921,1.919" /><path
   d="m 320.66541,349.33741 c 1.05702,0 1.92004,-0.86099 1.92004,-1.91897 0,-1.05798 -0.86302,-1.92097 -1.92004,-1.92097 -1.05902,0 -1.92104,0.86299 -1.92104,1.92097 0,1.05798 0.86202,1.91897 1.92104,1.91897 z"
   style="fill:none;stroke:#231f20;stroke-width:0.21599643;stroke-linecap:butt;stroke-linejoin:miter;stroke-miterlimit:2.61310005;stroke-opacity:1;stroke-dasharray:none"
   id="path702"
   inkscape:connector-curvature="0" /><path
   inkscape:connector-curvature="0"
   id="path704"
   style="fill:#231f20;fill-opacity:1;fill-rule:evenodd;stroke:none"
   d="m 345.357,289.037 c 1.056,0 1.92,-0.862 1.92,-1.92 0,-1.058 -0.864,-1.921 -1.92,-1.921 -1.059,0 -1.921,0.863 -1.921,1.921 0,1.058 0.862,1.92 1.921,1.92" /><path
   d="m 345.35891,289.03638 c 1.05602,0 1.91904,-0.86099 1.91904,-1.91897 0,-1.05799 -0.86302,-1.92097 -1.91904,-1.92097 -1.06002,0 -1.92104,0.86298 -1.92104,1.92097 0,1.05798 0.86102,1.91897 1.92104,1.91897 z"
   style="fill:none;stroke:#231f20;stroke-width:0.21599643;stroke-linecap:butt;stroke-linejoin:miter;stroke-miterlimit:2.61310005;stroke-opacity:1;stroke-dasharray:none"
   id="path708"
   inkscape:connector-curvature="0" /><path
   d="m 324.61949,347.99743 -2.07304,13.81978"
   style="fill:none;stroke:#231f20;stroke-width:0.50002199;stroke-linecap:butt;stroke-linejoin:miter;stroke-miterlimit:2.61310005;stroke-opacity:1;stroke-dasharray:none"
   id="path716"
   inkscape:connector-curvature="0" /><path
   d="m 401.32203,270.95166 c 3.62907,-9.67384 19.00338,-9.67384 19.00338,0.519"
   style="fill:none;stroke:#231f20;stroke-width:0.50002199;stroke-linecap:butt;stroke-linejoin:miter;stroke-miterlimit:2.61310005;stroke-opacity:1;stroke-dasharray:none"
   id="path724"
   inkscape:connector-curvature="0" /><path
   style="fill:none;stroke:#231f20;stroke-width:0.49998721;stroke-linecap:butt;stroke-linejoin:miter;stroke-miterlimit:2.61310005;stroke-opacity:1;stroke-dasharray:none"
   d="m 281.99438,330.38945 c -19.9406,-2.4218 -23.96192,16.77061 -11.66094,29.06858 6.28694,6.28685 21.41602,8.31762 30.19369,8.54758"
   id="path200"
   inkscape:connector-curvature="0" /><path
   style="fill:none;stroke:#231f20;stroke-width:0.49998721;stroke-linecap:butt;stroke-linejoin:miter;stroke-miterlimit:2.61310005;stroke-opacity:1;stroke-dasharray:none"
   d="m 347.59982,369.03229 19.07133,0.89888 c 5.45844,0.25797 24.42095,1.1139 29.20535,-1.48288 4.09732,-2.22582 5.63644,-3.15274 7.17256,-8.15932 1.1961,-3.89268 -2.73322,-10.56913 -6.3195,-10.56913"
   id="path6254"
   inkscape:connector-curvature="0" /><text
   xml:space="preserve"
   style="font-size:12px;font-style:normal;font-variant:normal;font-weight:normal;font-stretch:normal;text-align:start;line-height:125%;letter-spacing:0px;word-spacing:0px;writing-mode:lr-tb;text-anchor:start;fill:#000000;fill-opacity:1;stroke:none;font-family:IPAMincho;-inkscape-font-specification:IPAMincho"
   x="301.53448"
   y="-364.59189"
   id="text4712"
   sodipodi:linespacing="125%"
   transform="scale(1,-1)"><tspan
     sodipodi:role="line"
     id="tspan4714"
     x="301.53448"
     y="-364.59189">パッチ<tspan
   style="font-size:12px;font-style:normal;font-variant:normal;font-weight:normal;font-stretch:normal;text-align:start;line-height:125%;writing-mode:lr-tb;text-anchor:start;font-family:LMRoman12;-inkscape-font-specification:LMRoman12"
   id="tspan4716"> 1</tspan></tspan></text>


<text
   sodipodi:linespacing="125%"
   id="text4718"
   y="-273.88095"
   x="410.19974"
   style="font-size:12px;font-style:normal;font-variant:normal;font-weight:normal;font-stretch:normal;text-align:start;line-height:125%;letter-spacing:0px;word-spacing:0px;writing-mode:lr-tb;text-anchor:start;fill:#000000;fill-opacity:1;stroke:none;font-family:IPAMincho;-inkscape-font-specification:IPAMincho"
   xml:space="preserve"
   transform="scale(1,-1)"><tspan
     y="-273.88095"
     x="410.19974"
     id="tspan4720"
     sodipodi:role="line">パッチ<tspan
   id="tspan4722"
   style="font-size:12px;font-style:normal;font-variant:normal;font-weight:normal;font-stretch:normal;text-align:start;line-height:125%;writing-mode:lr-tb;text-anchor:start;font-family:LMRoman12;-inkscape-font-specification:LMRoman12"> 2</tspan></tspan></text>


<text
   sodipodi:linespacing="125%"
   id="text5990"
   y="-273.88107"
   x="183.0735"
   style="font-size:12px;font-style:normal;font-variant:normal;font-weight:normal;font-stretch:normal;text-align:start;line-height:125%;letter-spacing:0px;word-spacing:0px;writing-mode:lr-tb;text-anchor:start;fill:#000000;fill-opacity:1;stroke:none;font-family:IPAMincho;-inkscape-font-specification:IPAMincho"
   xml:space="preserve"
   transform="scale(1,-1)"><tspan
     y="-273.88107"
     x="183.0735"
     id="tspan5992"
     sodipodi:role="line">パッチ<tspan
   id="tspan5994"
   style="font-size:12px;font-style:normal;font-variant:normal;font-weight:normal;font-stretch:normal;text-align:start;line-height:125%;writing-mode:lr-tb;text-anchor:start;font-family:LMRoman12;-inkscape-font-specification:LMRoman12"> 1</tspan></tspan></text>


<text
   xml:space="preserve"
   style="font-size:12px;font-style:normal;font-variant:normal;font-weight:normal;font-stretch:normal;text-align:start;line-height:125%;letter-spacing:0px;word-spacing:0px;writing-mode:lr-tb;text-anchor:start;fill:#000000;fill-opacity:1;stroke:none;font-family:IPAMincho;-inkscape-font-specification:IPAMincho"
   x="183.0735"
   y="-262.54086"
   id="text5996"
   sodipodi:linespacing="125%"
   transform="scale(1,-1)"><tspan
     sodipodi:role="line"
     id="tspan5998"
     x="183.0735"
     y="-262.54086">パッチ<tspan
   style="font-size:12px;font-style:normal;font-variant:normal;font-weight:normal;font-stretch:normal;text-align:start;line-height:125%;writing-mode:lr-tb;text-anchor:start;font-family:LMRoman12;-inkscape-font-specification:LMRoman12"
   id="tspan6000"> 2</tspan></tspan></text>


<text
   xml:space="preserve"
   style="font-size:12px;font-style:normal;font-variant:normal;font-weight:normal;font-stretch:normal;text-align:start;line-height:125%;letter-spacing:0px;word-spacing:0px;writing-mode:lr-tb;text-anchor:start;fill:#000000;fill-opacity:1;stroke:none;font-family:IPAMincho;-inkscape-font-specification:IPAMincho"
   x="182.01945"
   y="-308.20804"
   id="text6002"
   sodipodi:linespacing="125%"
   transform="scale(1,-1)"><tspan
     sodipodi:role="line"
     x="182.01945"
     y="-308.20804"
     id="tspan6012">内部の場</tspan></text>


<text
   sodipodi:linespacing="125%"
   id="text6015"
   y="-287.24051"
   x="183.15718"
   style="font-size:12px;font-style:normal;font-variant:normal;font-weight:normal;font-stretch:normal;text-align:start;line-height:125%;letter-spacing:0px;word-spacing:0px;writing-mode:lr-tb;text-anchor:start;fill:#000000;fill-opacity:1;stroke:none;font-family:IPAMincho;-inkscape-font-specification:IPAMincho"
   xml:space="preserve"
   transform="scale(1,-1)"><tspan
     id="tspan6019"
     y="-287.24051"
     x="183.15718"
     sodipodi:role="line">境界の場</tspan></text>


</g></svg>