<?xml version="1.0" encoding="UTF-8" standalone="no"?>
<!-- Created with Inkscape (http://www.inkscape.org/) -->

<svg
   xmlns:dc="http://purl.org/dc/elements/1.1/"
   xmlns:cc="http://creativecommons.org/ns#"
   xmlns:rdf="http://www.w3.org/1999/02/22-rdf-syntax-ns#"
   xmlns:svg="http://www.w3.org/2000/svg"
   xmlns="http://www.w3.org/2000/svg"
   xmlns:sodipodi="http://sodipodi.sourceforge.net/DTD/sodipodi-0.dtd"
   xmlns:inkscape="http://www.inkscape.org/namespaces/inkscape"
   id="svg2"
   version="1.1"
   inkscape:version="0.48.2 r9819"
   width="353.45682"
   height="151.64659"
   xml:space="preserve"
   sodipodi:docname="fig-2-4-a.svg"><sodipodi:namedview
     pagecolor="#ffffff"
     bordercolor="#666666"
     borderopacity="1"
     objecttolerance="10"
     gridtolerance="10"
     guidetolerance="10"
     inkscape:pageopacity="0"
     inkscape:pageshadow="2"
     inkscape:window-width="1680"
     inkscape:window-height="920"
     id="namedview4"
     showgrid="false"
     inkscape:zoom="2.189038"
     inkscape:cx="262.93755"
     inkscape:cy="104.00841"
     inkscape:window-x="0"
     inkscape:window-y="0"
     inkscape:window-maximized="0"
     inkscape:current-layer="g10"
     fit-margin-top="0"
     fit-margin-left="0"
     fit-margin-right="0"
     fit-margin-bottom="0"
     inkscape:snap-bbox="true"
     inkscape:bbox-paths="true"
     inkscape:bbox-nodes="true"
     inkscape:snap-bbox-edge-midpoints="true"
     inkscape:snap-bbox-midpoints="true"
     inkscape:object-paths="true"
     inkscape:snap-intersection-paths="true"
     inkscape:snap-smooth-nodes="true"
     inkscape:object-nodes="true"
     inkscape:snap-object-midpoints="true"
     inkscape:snap-midpoints="true"
     inkscape:snap-center="true" /><metadata
     id="metadata8"><rdf:RDF><cc:Work
         rdf:about=""><dc:format>image/svg+xml</dc:format><dc:type
           rdf:resource="http://purl.org/dc/dcmitype/StillImage" /><dc:title /></cc:Work></rdf:RDF></metadata><defs
     id="defs6"><clipPath
   id="clipPath30"
   clipPathUnits="userSpaceOnUse"><path
     inkscape:connector-curvature="0"
     id="path32"
     d="m 1723.51,5301.95 2490,0 0,1179.8 -2490,0 0,-1179.8 z" /></clipPath><clipPath
   id="clipPath256"
   clipPathUnits="userSpaceOnUse"><path
     inkscape:connector-curvature="0"
     id="path258"
     d="m 1723.51,3916.75 2490,0 0,1179.81 -2490,0 0,-1179.81 z" /></clipPath><clipPath
   id="clipPath500"
   clipPathUnits="userSpaceOnUse"><path
     inkscape:connector-curvature="0"
     id="path502"
     d="m 1723.51,2511.25 2490,0 0,1199.96 -2490,0 0,-1199.96 z" /></clipPath>

</defs><g
     transform="matrix(1.25,0,0,-1.25,-215.78479,814.50279)"
     inkscape:label="fig-2-4-a"
     inkscape:groupmode="layer"
     id="g10"><path
   d="m 174.949,590.844 c 1.216,0 2.21,-0.995 2.21,-2.212 0,-1.216 -0.994,-2.211 -2.21,-2.211 -1.218,0 -2.213,0.995 -2.213,2.211 0,1.217 0.995,2.212 2.213,2.212"
   style="fill:#231f20;fill-opacity:1;fill-rule:evenodd;stroke:none"
   id="path34"
   inkscape:connector-curvature="0" /><path
   inkscape:connector-curvature="0"
   id="path38"
   style="fill:none;stroke:#231f20;stroke-width:0.21598168;stroke-linecap:butt;stroke-linejoin:miter;stroke-miterlimit:2.61310005;stroke-opacity:1;stroke-dasharray:none"
   d="m 174.94799,590.84396 c 1.2161,0 2.21118,-0.99492 2.21118,-2.21282 0,-1.2149 -0.99508,-2.20982 -2.21118,-2.20982 -1.21709,0 -2.21217,0.99492 -2.21217,2.20982 0,1.2179 0.99508,2.21282 2.21217,2.21282 z" /><path
   d="m 174.949,557.666 c 1.216,0 2.21,-0.99 2.21,-2.209 0,-1.216 -0.994,-2.213 -2.21,-2.213 -1.218,0 -2.213,0.997 -2.213,2.213 0,1.219 0.995,2.209 2.213,2.209"
   style="fill:#918f90;fill-opacity:1;fill-rule:evenodd;stroke:none"
   id="path40"
   inkscape:connector-curvature="0" /><path
   inkscape:connector-curvature="0"
   id="path44"
   style="fill:none;stroke:#231f20;stroke-width:0.21598168;stroke-linecap:butt;stroke-linejoin:miter;stroke-miterlimit:2.61310005;stroke-opacity:1;stroke-dasharray:none"
   d="m 174.94799,557.66571 c 1.2161,0 2.21118,-0.98992 2.21118,-2.20882 0,-1.2159 -0.99508,-2.21281 -2.21118,-2.21281 -1.21709,0 -2.21217,0.99691 -2.21217,2.21281 0,1.2189 0.99508,2.20882 2.21217,2.20882 z" /><path
   d="m 174.949,544.711 c 1.216,0 2.21,-0.997 2.21,-2.213 0,-1.217 -0.994,-2.209 -2.21,-2.209 -1.218,0 -2.213,0.992 -2.213,2.209 0,1.216 0.995,2.213 2.213,2.213"
   style="fill:#ffffff;fill-opacity:1;fill-rule:evenodd;stroke:none"
   id="path46"
   inkscape:connector-curvature="0" /><path
   inkscape:connector-curvature="0"
   id="path50"
   style="fill:none;stroke:#231f20;stroke-width:0.21598168;stroke-linecap:butt;stroke-linejoin:miter;stroke-miterlimit:2.61310005;stroke-opacity:1;stroke-dasharray:none"
   d="m 174.94799,544.71079 c 1.2161,0 2.21118,-0.99692 2.21118,-2.21382 0,-1.2159 -0.99508,-2.20782 -2.21118,-2.20782 -1.21709,0 -2.21217,0.99192 -2.21217,2.20782 0,1.2169 0.99508,2.21382 2.21217,2.21382 z" /><path
   inkscape:connector-curvature="0"
   id="path54"
   style="fill:none;stroke:#231f20;stroke-width:0.74998587;stroke-linecap:butt;stroke-linejoin:miter;stroke-miterlimit:2.61310005;stroke-opacity:1;stroke-dasharray:none"
   d="m 276.50912,616.8178 118.89151,20.73428 11.05788,-88.23368 -78.7993,-18.65845 -51.15009,86.15785 z" /><path
   inkscape:connector-curvature="0"
   id="path58"
   style="fill:none;stroke:#231f20;stroke-width:0.49998724;stroke-linecap:butt;stroke-linejoin:miter;stroke-miterlimit:2.61310005;stroke-opacity:1;stroke-dasharray:none"
   d="m 320.40263,624.53516 36.46092,-87.08077" /><path
   inkscape:connector-curvature="0"
   id="path62"
   style="fill:none;stroke:#231f20;stroke-width:0.49998724;stroke-linecap:butt;stroke-linejoin:miter;stroke-miterlimit:2.61310005;stroke-opacity:1;stroke-dasharray:none"
   d="m 381.57452,543.3299 -14.86119,89.1546" /><path
   inkscape:connector-curvature="0"
   id="path66"
   style="fill:none;stroke:#231f20;stroke-width:0.49998724;stroke-linecap:butt;stroke-linejoin:miter;stroke-miterlimit:2.61310005;stroke-opacity:1;stroke-dasharray:none"
   d="m 294.48156,586.17934 104.54836,20.73328" /><path
   inkscape:connector-curvature="0"
   id="path70"
   style="fill:none;stroke:#231f20;stroke-width:0.49998724;stroke-linecap:butt;stroke-linejoin:miter;stroke-miterlimit:2.61310005;stroke-opacity:1;stroke-dasharray:none"
   d="m 311.06988,558.53364 92.28039,15.20474" /><path
   d="m 387.988,589.286 c 1.059,0 1.92,-0.863 1.92,-1.918 0,-1.061 -0.861,-1.923 -1.92,-1.923 -1.059,0 -1.923,0.862 -1.923,1.923 0,1.055 0.864,1.918 1.923,1.918"
   style="fill:#231f20;fill-opacity:1;fill-rule:evenodd;stroke:none"
   id="path72"
   inkscape:connector-curvature="0" /><path
   inkscape:connector-curvature="0"
   id="path76"
   style="fill:none;stroke:#231f20;stroke-width:0.21598168;stroke-linecap:butt;stroke-linejoin:miter;stroke-miterlimit:2.61310005;stroke-opacity:1;stroke-dasharray:none"
   d="m 387.98604,589.28509 c 1.06008,0 1.92115,-0.86193 1.92115,-1.91785 0,-1.06091 -0.86107,-1.92184 -1.92115,-1.92184 -1.05809,0 -1.92216,0.86093 -1.92216,1.92184 0,1.05592 0.86407,1.91785 1.92216,1.91785 z" /><path
   d="m 382.923,621.185 c 1.059,0 1.922,-0.86 1.922,-1.92 0,-1.057 -0.863,-1.92 -1.922,-1.92 -1.057,0 -1.92,0.863 -1.92,1.92 0,1.06 0.863,1.92 1.92,1.92"
   style="fill:#231f20;fill-opacity:1;fill-rule:evenodd;stroke:none"
   id="path78"
   inkscape:connector-curvature="0" /><path
   inkscape:connector-curvature="0"
   id="path82"
   style="fill:none;stroke:#231f20;stroke-width:0.21598168;stroke-linecap:butt;stroke-linejoin:miter;stroke-miterlimit:2.61310005;stroke-opacity:1;stroke-dasharray:none"
   d="m 382.92163,621.18444 c 1.05909,0 1.92216,-0.85993 1.92216,-1.91984 0,-1.05692 -0.86307,-1.91984 -1.92216,-1.91984 -1.05708,0 -1.91915,0.86292 -1.91915,1.91984 0,1.05991 0.86207,1.91984 1.91915,1.91984 z" /><path
   d="m 391.681,560.161 c 1.057,0 1.919,-0.863 1.919,-1.921 0,-1.057 -0.862,-1.921 -1.919,-1.921 -1.059,0 -1.922,0.864 -1.922,1.921 0,1.058 0.863,1.921 1.922,1.921"
   style="fill:#231f20;fill-opacity:1;fill-rule:evenodd;stroke:none"
   id="path84"
   inkscape:connector-curvature="0" /><path
   inkscape:connector-curvature="0"
   id="path88"
   style="fill:none;stroke:#231f20;stroke-width:0.21598168;stroke-linecap:butt;stroke-linejoin:miter;stroke-miterlimit:2.61310005;stroke-opacity:1;stroke-dasharray:none"
   d="m 391.68033,560.1615 c 1.05609,0 1.91816,-0.86393 1.91816,-1.92184 0,-1.05691 -0.86207,-1.92084 -1.91816,-1.92084 -1.05908,0 -1.92215,0.86393 -1.92215,1.92084 0,1.05791 0.86307,1.92184 1.92215,1.92184 z" /><path
   d="m 364.849,554.751 c 1.058,0 1.919,-0.862 1.919,-1.92 0,-1.058 -0.861,-1.922 -1.919,-1.922 -1.057,0 -1.922,0.864 -1.922,1.922 0,1.058 0.865,1.92 1.922,1.92"
   style="fill:#231f20;fill-opacity:1;fill-rule:evenodd;stroke:none"
   id="path90"
   inkscape:connector-curvature="0" /><path
   inkscape:connector-curvature="0"
   id="path94"
   style="fill:none;stroke:#231f20;stroke-width:0.21598168;stroke-linecap:butt;stroke-linejoin:miter;stroke-miterlimit:2.61310005;stroke-opacity:1;stroke-dasharray:none"
   d="m 364.84819,554.75095 c 1.05708,0 1.91915,-0.86293 1.91915,-1.91984 0,-1.05791 -0.86207,-1.92284 -1.91915,-1.92284 -1.05709,0 -1.92216,0.86493 -1.92216,1.92284 0,1.05691 0.86507,1.91984 1.92216,1.91984 z" /><path
   d="m 336.29,549.342 c 1.058,0 1.92,-0.862 1.92,-1.921 0,-1.057 -0.862,-1.919 -1.92,-1.919 -1.057,0 -1.92,0.862 -1.92,1.919 0,1.059 0.863,1.921 1.92,1.921"
   style="fill:#231f20;fill-opacity:1;fill-rule:evenodd;stroke:none"
   id="path96"
   inkscape:connector-curvature="0" /><path
   inkscape:connector-curvature="0"
   id="path100"
   style="fill:none;stroke:#231f20;stroke-width:0.21598168;stroke-linecap:butt;stroke-linejoin:miter;stroke-miterlimit:2.61310005;stroke-opacity:1;stroke-dasharray:none"
   d="m 336.2889,549.3424 c 1.05809,0 1.92015,-0.86293 1.92015,-1.92084 0,-1.05791 -0.86206,-1.91984 -1.92015,-1.91984 -1.05708,0 -1.92015,0.86193 -1.92015,1.91984 0,1.05791 0.86307,1.92084 1.92015,1.92084 z" /><path
   d="m 322.589,577.099 c 1.059,0 1.919,-0.865 1.919,-1.922 0,-1.058 -0.86,-1.92 -1.919,-1.92 -1.059,0 -1.921,0.862 -1.921,1.92 0,1.057 0.862,1.922 1.921,1.922"
   style="fill:#231f20;fill-opacity:1;fill-rule:evenodd;stroke:none"
   id="path102"
   inkscape:connector-curvature="0" /><path
   inkscape:connector-curvature="0"
   id="path106"
   style="fill:none;stroke:#231f20;stroke-width:0.21598168;stroke-linecap:butt;stroke-linejoin:miter;stroke-miterlimit:2.61310005;stroke-opacity:1;stroke-dasharray:none"
   d="m 322.5878,577.0981 c 1.05909,0 1.91916,-0.86393 1.91916,-1.92084 0,-1.05892 -0.86007,-1.91984 -1.91916,-1.91984 -1.05808,0 -1.92015,0.86092 -1.92015,1.91984 0,1.05691 0.86207,1.92084 1.92015,1.92084 z" /><path
   d="m 305.778,607.961 c 1.056,0 1.921,-0.863 1.921,-1.92 0,-1.058 -0.865,-1.921 -1.921,-1.921 -1.06,0 -1.922,0.863 -1.922,1.921 0,1.057 0.862,1.92 1.922,1.92"
   style="fill:#231f20;fill-opacity:1;fill-rule:evenodd;stroke:none"
   id="path108"
   inkscape:connector-curvature="0" /><path
   inkscape:connector-curvature="0"
   id="path112"
   style="fill:none;stroke:#231f20;stroke-width:0.21598168;stroke-linecap:butt;stroke-linejoin:miter;stroke-miterlimit:2.61310005;stroke-opacity:1;stroke-dasharray:none"
   d="m 305.77646,607.96154 c 1.05708,0 1.92115,-0.86393 1.92115,-1.92085 0,-1.05791 -0.86407,-1.92084 -1.92115,-1.92084 -1.05908,0 -1.92115,0.86293 -1.92115,1.92084 0,1.05692 0.86207,1.92085 1.92115,1.92085 z" /><path
   d="m 341.83,535.88 c 1.056,0 1.92,-0.862 1.92,-1.921 0,-1.057 -0.864,-1.92 -1.92,-1.92 -1.059,0 -1.922,0.863 -1.922,1.92 0,1.059 0.863,1.921 1.922,1.921"
   style="fill:#ffffff;fill-opacity:1;fill-rule:evenodd;stroke:none"
   id="path114"
   inkscape:connector-curvature="0" /><path
   inkscape:connector-curvature="0"
   id="path118"
   style="fill:none;stroke:#231f20;stroke-width:0.21598168;stroke-linecap:butt;stroke-linejoin:miter;stroke-miterlimit:2.61310005;stroke-opacity:1;stroke-dasharray:none"
   d="m 341.82934,535.87952 c 1.05609,0 1.91916,-0.86193 1.91916,-1.92084 0,-1.05691 -0.86307,-1.91984 -1.91916,-1.91984 -1.05908,0 -1.92215,0.86293 -1.92215,1.91984 0,1.05891 0.86307,1.92084 1.92215,1.92084 z" /><path
   d="m 368.207,542.562 c 1.055,0 1.918,-0.862 1.918,-1.921 0,-1.057 -0.863,-1.921 -1.918,-1.921 -1.059,0 -1.922,0.864 -1.922,1.921 0,1.059 0.863,1.921 1.922,1.921"
   style="fill:#ffffff;fill-opacity:1;fill-rule:evenodd;stroke:none"
   id="path120"
   inkscape:connector-curvature="0" /><path
   inkscape:connector-curvature="0"
   id="path124"
   style="fill:none;stroke:#231f20;stroke-width:0.21598168;stroke-linecap:butt;stroke-linejoin:miter;stroke-miterlimit:2.61310005;stroke-opacity:1;stroke-dasharray:none"
   d="m 368.20545,542.56196 c 1.05609,0 1.91816,-0.86192 1.91816,-1.92084 0,-1.05691 -0.86207,-1.92084 -1.91816,-1.92084 -1.05808,0 -1.92115,0.86393 -1.92115,1.92084 0,1.05892 0.86307,1.92084 1.92115,1.92084 z" /><path
   d="m 404.949,562.027 c 1.056,0 1.919,-0.865 1.919,-1.922 0,-1.056 -0.863,-1.919 -1.919,-1.919 -1.058,0 -1.921,0.863 -1.921,1.919 0,1.057 0.863,1.922 1.921,1.922"
   style="fill:#a7a5a6;fill-opacity:1;fill-rule:evenodd;stroke:none"
   id="path126"
   inkscape:connector-curvature="0" /><path
   inkscape:connector-curvature="0"
   id="path130"
   style="fill:none;stroke:#231f20;stroke-width:0.21598168;stroke-linecap:butt;stroke-linejoin:miter;stroke-miterlimit:2.61310005;stroke-opacity:1;stroke-dasharray:none"
   d="m 404.94839,562.02635 c 1.05609,0 1.91816,-0.86493 1.91816,-1.92184 0,-1.05591 -0.86207,-1.91884 -1.91816,-1.91884 -1.05908,0 -1.92215,0.86293 -1.92215,1.91884 0,1.05691 0.86307,1.92184 1.92215,1.92184 z" /><path
   d="m 401.612,591.508 c 1.056,0 1.919,-0.863 1.919,-1.92 0,-1.058 -0.863,-1.92 -1.919,-1.92 -1.06,0 -1.922,0.862 -1.922,1.92 0,1.057 0.862,1.92 1.922,1.92"
   style="fill:#a7a5a6;fill-opacity:1;fill-rule:evenodd;stroke:none"
   id="path132"
   inkscape:connector-curvature="0" /><path
   inkscape:connector-curvature="0"
   id="path136"
   style="fill:none;stroke:#231f20;stroke-width:0.21598168;stroke-linecap:butt;stroke-linejoin:miter;stroke-miterlimit:2.61310005;stroke-opacity:1;stroke-dasharray:none"
   d="m 401.61113,591.5079 c 1.05608,0 1.91915,-0.86293 1.91915,-1.91984 0,-1.05891 -0.86307,-1.92084 -1.91915,-1.92084 -1.06109,0 -1.92216,0.86193 -1.92216,1.92084 0,1.05691 0.86107,1.91984 1.92216,1.91984 z" /><path
   d="m 397.239,624.098 c 1.057,0 1.92,-0.862 1.92,-1.919 0,-1.06 -0.863,-1.921 -1.92,-1.921 -1.059,0 -1.923,0.861 -1.923,1.921 0,1.057 0.864,1.919 1.923,1.919"
   style="fill:#a7a5a6;fill-opacity:1;fill-rule:evenodd;stroke:none"
   id="path138"
   inkscape:connector-curvature="0" /><path
   inkscape:connector-curvature="0"
   id="path142"
   style="fill:none;stroke:#231f20;stroke-width:0.21598168;stroke-linecap:butt;stroke-linejoin:miter;stroke-miterlimit:2.61310005;stroke-opacity:1;stroke-dasharray:none"
   d="m 397.23778,624.0982 c 1.05708,0 1.92015,-0.86293 1.92015,-1.91985 0,-1.05991 -0.86307,-1.92084 -1.92015,-1.92084 -1.05809,0 -1.92316,0.86093 -1.92316,1.92084 0,1.05692 0.86507,1.91985 1.92316,1.91985 z" /><path
   d="m 380.427,636.998 c 1.059,0 1.92,-0.861 1.92,-1.919 0,-1.059 -0.861,-1.92 -1.92,-1.92 -1.059,0 -1.922,0.861 -1.922,1.92 0,1.058 0.863,1.919 1.922,1.919"
   style="fill:#a7a5a6;fill-opacity:1;fill-rule:evenodd;stroke:none"
   id="path144"
   inkscape:connector-curvature="0" /><path
   inkscape:connector-curvature="0"
   id="path148"
   style="fill:none;stroke:#231f20;stroke-width:0.21598168;stroke-linecap:butt;stroke-linejoin:miter;stroke-miterlimit:2.61310005;stroke-opacity:1;stroke-dasharray:none"
   d="m 380.42543,636.99812 c 1.05909,0 1.92116,-0.86092 1.92116,-1.91984 0,-1.05891 -0.86207,-1.91884 -1.92116,-1.91884 -1.05808,0 -1.92115,0.85993 -1.92115,1.91884 0,1.05892 0.86307,1.91984 1.92115,1.91984 z" /><path
   d="m 344.267,630.209 c 1.058,0 1.921,-0.863 1.921,-1.921 0,-1.057 -0.863,-1.92 -1.921,-1.92 -1.058,0 -1.921,0.863 -1.921,1.92 0,1.058 0.863,1.921 1.921,1.921"
   style="fill:#a7a5a6;fill-opacity:1;fill-rule:evenodd;stroke:none"
   id="path150"
   inkscape:connector-curvature="0" /><path
   inkscape:connector-curvature="0"
   id="path154"
   style="fill:none;stroke:#231f20;stroke-width:0.21598168;stroke-linecap:butt;stroke-linejoin:miter;stroke-miterlimit:2.61310005;stroke-opacity:1;stroke-dasharray:none"
   d="m 344.26654,630.20869 c 1.05808,0 1.92115,-0.86293 1.92115,-1.92084 0,-1.05691 -0.86307,-1.92084 -1.92115,-1.92084 -1.05809,0 -1.92115,0.86393 -1.92115,1.92084 0,1.05791 0.86306,1.92084 1.92115,1.92084 z" /><path
   d="m 300.852,622.726 c 1.059,0 1.92,-0.861 1.92,-1.92 0,-1.058 -0.861,-1.92 -1.92,-1.92 -1.057,0 -1.92,0.862 -1.92,1.92 0,1.059 0.863,1.92 1.92,1.92"
   style="fill:#a7a5a6;fill-opacity:1;fill-rule:evenodd;stroke:none"
   id="path156"
   inkscape:connector-curvature="0" /><path
   inkscape:connector-curvature="0"
   id="path160"
   style="fill:none;stroke:#231f20;stroke-width:0.21598168;stroke-linecap:butt;stroke-linejoin:miter;stroke-miterlimit:2.61310005;stroke-opacity:1;stroke-dasharray:none"
   d="m 300.85107,622.72631 c 1.05908,0 1.92015,-0.86193 1.92015,-1.91984 0,-1.05891 -0.86107,-1.92084 -1.92015,-1.92084 -1.05709,0 -1.92016,0.86193 -1.92016,1.92084 0,1.05791 0.86307,1.91984 1.92016,1.91984 z" /><path
   d="m 285.077,603.846 c 1.059,0 1.922,-0.863 1.922,-1.921 0,-1.058 -0.863,-1.921 -1.922,-1.921 -1.057,0 -1.92,0.863 -1.92,1.921 0,1.058 0.863,1.921 1.92,1.921"
   style="fill:#a7a5a6;fill-opacity:1;fill-rule:evenodd;stroke:none"
   id="path162"
   inkscape:connector-curvature="0" /><path
   inkscape:connector-curvature="0"
   id="path166"
   style="fill:none;stroke:#231f20;stroke-width:0.21598168;stroke-linecap:butt;stroke-linejoin:miter;stroke-miterlimit:2.61310005;stroke-opacity:1;stroke-dasharray:none"
   d="m 285.0758,603.84588 c 1.05909,0 1.92216,-0.86293 1.92216,-1.92084 0,-1.05892 -0.86307,-1.92084 -1.92216,-1.92084 -1.05708,0 -1.91915,0.86192 -1.91915,1.92084 0,1.05791 0.86207,1.92084 1.91915,1.92084 z" /><path
   d="m 303.507,574.256 c 1.059,0 1.922,-0.863 1.922,-1.921 0,-1.058 -0.863,-1.919 -1.922,-1.919 -1.058,0 -1.921,0.861 -1.921,1.919 0,1.058 0.863,1.921 1.921,1.921"
   style="fill:#a7a5a6;fill-opacity:1;fill-rule:evenodd;stroke:none"
   id="path168"
   inkscape:connector-curvature="0" /><path
   inkscape:connector-curvature="0"
   id="path172"
   style="fill:none;stroke:#231f20;stroke-width:0.21598168;stroke-linecap:butt;stroke-linejoin:miter;stroke-miterlimit:2.61310005;stroke-opacity:1;stroke-dasharray:none"
   d="m 303.50628,574.25633 c 1.05908,0 1.92115,-0.86393 1.92115,-1.92184 0,-1.05791 -0.86207,-1.91884 -1.92115,-1.91884 -1.05809,0 -1.92116,0.86093 -1.92116,1.91884 0,1.05791 0.86307,1.92184 1.92116,1.92184 z" /><path
   d="m 319.52,547.084 c 1.058,0 1.921,-0.863 1.921,-1.92 0,-1.059 -0.863,-1.921 -1.921,-1.921 -1.058,0 -1.921,0.862 -1.921,1.921 0,1.057 0.863,1.92 1.921,1.92"
   style="fill:#a7a5a6;fill-opacity:1;fill-rule:evenodd;stroke:none"
   id="path174"
   inkscape:connector-curvature="0" /><path
   inkscape:connector-curvature="0"
   id="path178"
   style="fill:none;stroke:#231f20;stroke-width:0.21598168;stroke-linecap:butt;stroke-linejoin:miter;stroke-miterlimit:2.61310005;stroke-opacity:1;stroke-dasharray:none"
   d="m 319.51956,547.08459 c 1.05708,0 1.92015,-0.86293 1.92015,-1.92084 0,-1.05891 -0.86307,-1.92184 -1.92015,-1.92184 -1.05809,0 -1.92115,0.86293 -1.92115,1.92184 0,1.05791 0.86306,1.92084 1.92115,1.92084 z" /><path
   d="m 394.238,548.554 c 1.058,0 1.92,-0.863 1.92,-1.92 0,-1.059 -0.862,-1.923 -1.92,-1.923 -1.06,0 -1.922,0.864 -1.922,1.923 0,1.057 0.862,1.92 1.922,1.92"
   style="fill:#ffffff;fill-opacity:1;fill-rule:evenodd;stroke:none"
   id="path180"
   inkscape:connector-curvature="0" /><path
   inkscape:connector-curvature="0"
   id="path184"
   style="fill:none;stroke:#231f20;stroke-width:0.21598168;stroke-linecap:butt;stroke-linejoin:miter;stroke-miterlimit:2.61310005;stroke-opacity:1;stroke-dasharray:none"
   d="m 394.23754,548.55347 c 1.05708,0 1.91915,-0.86293 1.91915,-1.91984 0,-1.05892 -0.86207,-1.92284 -1.91915,-1.92284 -1.06009,0 -1.92316,0.86392 -1.92316,1.92284 0,1.05691 0.86307,1.91984 1.92316,1.91984 z" /><path
   d="m 348.047,615.679 c 1.058,0 1.921,-0.862 1.921,-1.921 0,-1.057 -0.863,-1.92 -1.921,-1.92 -1.059,0 -1.92,0.863 -1.92,1.92 0,1.059 0.861,1.921 1.92,1.921"
   style="fill:#231f20;fill-opacity:1;fill-rule:evenodd;stroke:none"
   id="path186"
   inkscape:connector-curvature="0" /><path
   inkscape:connector-curvature="0"
   id="path190"
   style="fill:none;stroke:#231f20;stroke-width:0.21598168;stroke-linecap:butt;stroke-linejoin:miter;stroke-miterlimit:2.61310005;stroke-opacity:1;stroke-dasharray:none"
   d="m 348.04584,615.67889 c 1.05809,0 1.92116,-0.86192 1.92116,-1.92084 0,-1.05791 -0.86307,-1.92084 -1.92116,-1.92084 -1.05808,0 -1.92015,0.86293 -1.92015,1.92084 0,1.05892 0.86207,1.92084 1.92015,1.92084 z" /><path
   d="m 356.804,584.016 c 1.057,0 1.92,-0.862 1.92,-1.92 0,-1.058 -0.863,-1.921 -1.92,-1.921 -1.059,0 -1.921,0.863 -1.921,1.921 0,1.058 0.862,1.92 1.921,1.92"
   style="fill:#231f20;fill-opacity:1;fill-rule:evenodd;stroke:none"
   id="path192"
   inkscape:connector-curvature="0" /><path
   inkscape:connector-curvature="0"
   id="path196"
   style="fill:none;stroke:#231f20;stroke-width:0.21598168;stroke-linecap:butt;stroke-linejoin:miter;stroke-miterlimit:2.61310005;stroke-opacity:1;stroke-dasharray:none"
   d="m 356.80354,584.01552 c 1.05609,0 1.92016,-0.86193 1.92016,-1.91884 0,-1.05891 -0.86407,-1.92184 -1.92016,-1.92184 -1.05908,0 -1.92115,0.86293 -1.92115,1.92184 0,1.05691 0.86207,1.91884 1.92115,1.91884 z" /><path
   style="fill:none;stroke:#231f20;stroke-width:0.62498403;stroke-linecap:butt;stroke-linejoin:miter;stroke-miterlimit:2.61310005;stroke-opacity:1;stroke-dasharray:none"
   d="M 136.70842,54.798045 C 111.78267,57.825295 106.75602,33.834782 122.13224,18.46232 129.99092,10.603752 148.90226,8.0652955 159.87435,7.7778441"
   id="path200"
   transform="matrix(0.8,0,0,-0.8,172.62782,651.28902)"
   inkscape:connector-curvature="0" /><path
   inkscape:connector-curvature="0"
   id="path204"
   style="fill:none;stroke:#231f20;stroke-width:0.49998724;stroke-linecap:butt;stroke-linejoin:miter;stroke-miterlimit:2.61310005;stroke-opacity:1;stroke-dasharray:none"
   d="m 324.61797,625.05512 -2.07417,13.81685" /><path
   style="fill:none;stroke:#231f20;stroke-width:0.62498403;stroke-linecap:butt;stroke-linejoin:miter;stroke-miterlimit:2.61310005;stroke-opacity:1;stroke-dasharray:none"
   d="M 218.71522,6.4944963 242.55438,5.370895 c 6.82305,-0.3224625 30.52619,-1.392375 36.50668,1.8536 5.12166,2.782275 7.04556,3.940925 8.96571,10.19915 1.49512,4.86585 -3.41653,13.211413 -7.89938,13.211413"
   id="path6254"
   transform="matrix(0.8,0,0,-0.8,172.62782,651.28902)"
   inkscape:connector-curvature="0" /><path
   inkscape:connector-curvature="0"
   id="path212"
   style="fill:none;stroke:#231f20;stroke-width:0.49998724;stroke-linecap:butt;stroke-linejoin:miter;stroke-miterlimit:2.61310005;stroke-opacity:1;stroke-dasharray:none"
   d="m 401.3191,548.01851 c 3.62929,-9.6722 19.00352,-9.6722 19.00352,0.51996" /><text
   transform="scale(1,-1)"
   xml:space="preserve"
   style="font-size:12px;font-style:normal;font-variant:normal;font-weight:normal;font-stretch:normal;text-align:start;line-height:125%;letter-spacing:0px;word-spacing:0px;writing-mode:lr-tb;text-anchor:start;fill:#000000;fill-opacity:1;stroke:none;font-family:IPAMincho;-inkscape-font-specification:IPAMincho"
   x="301.53467"
   y="-641.65302"
   id="text4712"
   sodipodi:linespacing="125%"><tspan
     sodipodi:role="line"
     id="tspan4714"
     x="301.53467"
     y="-641.65302">パッチ<tspan
   style="font-size:12px;font-style:normal;font-variant:normal;font-weight:normal;font-stretch:normal;text-align:start;line-height:125%;writing-mode:lr-tb;text-anchor:start;font-family:LMRoman12;-inkscape-font-specification:LMRoman12"
   id="tspan4716"> 1</tspan></tspan></text>




<text
   transform="scale(1,-1)"
   sodipodi:linespacing="125%"
   id="text4718"
   y="-550.94208"
   x="410.19992"
   style="font-size:12px;font-style:normal;font-variant:normal;font-weight:normal;font-stretch:normal;text-align:start;line-height:125%;letter-spacing:0px;word-spacing:0px;writing-mode:lr-tb;text-anchor:start;fill:#000000;fill-opacity:1;stroke:none;font-family:IPAMincho;-inkscape-font-specification:IPAMincho"
   xml:space="preserve"><tspan
     y="-550.94208"
     x="410.19992"
     id="tspan4720"
     sodipodi:role="line">パッチ<tspan
   id="tspan4722"
   style="font-size:12px;font-style:normal;font-variant:normal;font-weight:normal;font-stretch:normal;text-align:start;line-height:125%;writing-mode:lr-tb;text-anchor:start;font-family:LMRoman12;-inkscape-font-specification:LMRoman12"> 2</tspan></tspan></text>





<text
   sodipodi:linespacing="125%"
   id="text5990"
   y="-550.9422"
   x="183.07367"
   style="font-size:12px;font-style:normal;font-variant:normal;font-weight:normal;font-stretch:normal;text-align:start;line-height:125%;letter-spacing:0px;word-spacing:0px;writing-mode:lr-tb;text-anchor:start;fill:#000000;fill-opacity:1;stroke:none;font-family:IPAMincho;-inkscape-font-specification:IPAMincho"
   xml:space="preserve"
   transform="scale(1,-1)"><tspan
     y="-550.9422"
     x="183.07367"
     id="tspan5992"
     sodipodi:role="line">パッチ<tspan
   id="tspan5994"
   style="font-size:12px;font-style:normal;font-variant:normal;font-weight:normal;font-stretch:normal;text-align:start;line-height:125%;writing-mode:lr-tb;text-anchor:start;font-family:LMRoman12;-inkscape-font-specification:LMRoman12"> 1</tspan></tspan></text>



<text
   xml:space="preserve"
   style="font-size:12px;font-style:normal;font-variant:normal;font-weight:normal;font-stretch:normal;text-align:start;line-height:125%;letter-spacing:0px;word-spacing:0px;writing-mode:lr-tb;text-anchor:start;fill:#000000;fill-opacity:1;stroke:none;font-family:IPAMincho;-inkscape-font-specification:IPAMincho"
   x="183.07367"
   y="-539.60199"
   id="text5996"
   sodipodi:linespacing="125%"
   transform="scale(1,-1)"><tspan
     sodipodi:role="line"
     id="tspan5998"
     x="183.07367"
     y="-539.60199">パッチ<tspan
   style="font-size:12px;font-style:normal;font-variant:normal;font-weight:normal;font-stretch:normal;text-align:start;line-height:125%;writing-mode:lr-tb;text-anchor:start;font-family:LMRoman12;-inkscape-font-specification:LMRoman12"
   id="tspan6000"> 2</tspan></tspan></text>



<text
   transform="scale(1,-1)"
   xml:space="preserve"
   style="font-size:12px;font-style:normal;font-variant:normal;font-weight:normal;font-stretch:normal;text-align:start;line-height:125%;letter-spacing:0px;word-spacing:0px;writing-mode:lr-tb;text-anchor:start;fill:#000000;fill-opacity:1;stroke:none;font-family:IPAMincho;-inkscape-font-specification:IPAMincho"
   x="182.01962"
   y="-585.26917"
   id="text6002"
   sodipodi:linespacing="125%"><tspan
     sodipodi:role="line"
     x="182.01962"
     y="-585.26917"
     id="tspan6012">内部の場</tspan></text>



<text
   sodipodi:linespacing="125%"
   id="text6015"
   y="-564.30164"
   x="183.15735"
   style="font-size:12px;font-style:normal;font-variant:normal;font-weight:normal;font-stretch:normal;text-align:start;line-height:125%;letter-spacing:0px;word-spacing:0px;writing-mode:lr-tb;text-anchor:start;fill:#000000;fill-opacity:1;stroke:none;font-family:IPAMincho;-inkscape-font-specification:IPAMincho"
   xml:space="preserve"
   transform="scale(1,-1)"><tspan
     id="tspan6019"
     y="-564.30164"
     x="183.15735"
     sodipodi:role="line">境界の場</tspan></text>



</g></svg>