<?xml version="1.0" encoding="UTF-8" standalone="no"?>
<!-- Created with Inkscape (http://www.inkscape.org/) -->

<svg
   xmlns:dc="http://purl.org/dc/elements/1.1/"
   xmlns:cc="http://creativecommons.org/ns#"
   xmlns:rdf="http://www.w3.org/1999/02/22-rdf-syntax-ns#"
   xmlns:svg="http://www.w3.org/2000/svg"
   xmlns="http://www.w3.org/2000/svg"
   xmlns:sodipodi="http://sodipodi.sourceforge.net/DTD/sodipodi-0.dtd"
   xmlns:inkscape="http://www.inkscape.org/namespaces/inkscape"
   id="svg2"
   version="1.1"
   inkscape:version="0.48.1 r9760"
   width="489.87442"
   height="275.40909"
   xml:space="preserve"
   sodipodi:docname="fig-3-2.svg"><metadata
     id="metadata8"><rdf:RDF><cc:Work
         rdf:about=""><dc:format>image/svg+xml</dc:format><dc:type
           rdf:resource="http://purl.org/dc/dcmitype/StillImage" /></cc:Work></rdf:RDF></metadata><defs
     id="defs6"><clipPath
       clipPathUnits="userSpaceOnUse"
       id="clipPath116"><path
         d="m 995.398,5611.17 0,-2240 3690.002,0 0,2240 -3690.002,0 z"
         id="path118"
         inkscape:connector-curvature="0" /></clipPath><clipPath
       clipPathUnits="userSpaceOnUse"
       id="clipPath140"><path
         d="m 995.398,5611.17 0,-2240 3690.002,0 0,2240 -3690.002,0 z m 2191.412,-1988.9 0,37.8 -95.11,0 75.58,-18.9 -75.58,-18.9 95.11,0 z m -242.51,280.31 -37.8,0 0,-95.74 18.9,75.58 18.9,-75.58 0,95.74 z"
         clip-rule="evenodd"
         id="path142"
         inkscape:connector-curvature="0" /></clipPath><clipPath
       clipPathUnits="userSpaceOnUse"
       id="clipPath150"><path
         d="m 995.398,5611.17 0,-2240 3690.002,0 0,2240 -3690.002,0 z"
         id="path152"
         inkscape:connector-curvature="0" /></clipPath></defs><sodipodi:namedview
     pagecolor="#ffffff"
     bordercolor="#666666"
     borderopacity="1"
     objecttolerance="10"
     gridtolerance="10"
     guidetolerance="10"
     inkscape:pageopacity="0"
     inkscape:pageshadow="2"
     inkscape:window-width="1680"
     inkscape:window-height="933"
     id="namedview4"
     showgrid="false"
     inkscape:zoom="1.9914489"
     inkscape:cx="171.61103"
     inkscape:cy="106.36176"
     inkscape:window-x="0"
     inkscape:window-y="0"
     inkscape:window-maximized="0"
     inkscape:current-layer="g10"
     fit-margin-top="0"
     fit-margin-left="0"
     fit-margin-right="0"
     fit-margin-bottom="0" /><g
     id="g10"
     inkscape:groupmode="layer"
     inkscape:label="ProgrammersGuide"
     transform="matrix(1.25,0,0,-1.25,-124.88462,698.00733)"><path
   inkscape:connector-curvature="0"
   id="path120"
   style="fill:none;stroke:#000000;stroke-width:0.47242498;stroke-linecap:butt;stroke-linejoin:miter;stroke-miterlimit:10;stroke-opacity:1;stroke-dasharray:none"
   d="m 250.022,364.114 c -0.059,0.915 -0.088,1.832 -0.088,2.749 0,23.531 19.075,42.607 42.606,42.607 23.531,0 42.606,-19.076 42.606,-42.607 0,-0.917 -0.029,-1.834 -0.088,-2.749" /><path
   inkscape:connector-curvature="0"
   id="path122"
   style="fill:none;stroke:#000000;stroke-width:0.47242498;stroke-linecap:butt;stroke-linejoin:miter;stroke-miterlimit:10;stroke-opacity:1;stroke-dasharray:none"
   d="m 207.504,364.117 c 0,46.964 38.072,85.037 85.036,85.037 46.964,0 85.037,-38.073 85.037,-85.037" /><path
   inkscape:connector-curvature="0"
   id="path124"
   style="fill:none;stroke:#000000;stroke-width:0.47242498;stroke-linecap:butt;stroke-linejoin:miter;stroke-miterlimit:10;stroke-opacity:1;stroke-dasharray:none"
   d="m 335.058,364.117 127.555,0 0,170.073 -340.146,0 0,-170.073 127.555,0" /><path
   inkscape:connector-curvature="0"
   id="path126"
   style="fill:none;stroke:#000000;stroke-width:0.47242498;stroke-linecap:butt;stroke-linejoin:miter;stroke-miterlimit:10;stroke-opacity:1;stroke-dasharray:none"
   d="m 292.54,409.47 0,124.72" /><path
   inkscape:connector-curvature="0"
   id="path128"
   style="fill:none;stroke:#000000;stroke-width:0.47242498;stroke-linecap:butt;stroke-linejoin:miter;stroke-miterlimit:10;stroke-opacity:1;stroke-dasharray:none"
   d="M 352.821,424.398 324.035,395.612" /><path
   inkscape:connector-curvature="0"
   id="path130"
   style="fill:none;stroke:#000000;stroke-width:0.47242498;stroke-linecap:butt;stroke-linejoin:miter;stroke-miterlimit:10;stroke-opacity:1;stroke-dasharray:none"
   d="m 462.613,424.398 -109.792,0 0,109.792" /><path
   inkscape:connector-curvature="0"
   id="path132"
   style="fill:none;stroke:#000000;stroke-width:0.47242498;stroke-linecap:butt;stroke-linejoin:miter;stroke-miterlimit:10;stroke-opacity:1;stroke-dasharray:none"
   d="m 122.467,424.398 109.792,0 0,109.792" /><path
   inkscape:connector-curvature="0"
   id="path134"
   style="fill:none;stroke:#000000;stroke-width:0.47242498;stroke-linecap:butt;stroke-linejoin:miter;stroke-miterlimit:10;stroke-opacity:1;stroke-dasharray:none"
   d="m 232.259,424.398 28.786,-28.786" /><path
   inkscape:connector-curvature="0"
   id="path144"
   style="fill:none;stroke:#000000;stroke-width:0.47242498;stroke-linecap:butt;stroke-linejoin:miter;stroke-miterlimit:10;stroke-opacity:1;stroke-dasharray:none"
   d="m 292.54,389.313 0,-25.196 25.196,0" /><path
   inkscape:connector-curvature="0"
   id="path154"
   style="fill:#000000;fill-opacity:1;fill-rule:evenodd;stroke:none"
   d="m 294.43,380.684 -1.89,7.558 -1.89,-7.558 3.78,0" /><path
   inkscape:connector-curvature="0"
   id="path156"
   style="fill:none;stroke:#000000;stroke-width:0.47242498;stroke-linecap:butt;stroke-linejoin:miter;stroke-miterlimit:10;stroke-opacity:1;stroke-dasharray:none"
   d="m 294.43,380.684 -1.89,7.558 -1.89,-7.558 3.78,0 z" /><path
   inkscape:connector-curvature="0"
   id="path158"
   style="fill:#000000;fill-opacity:1;fill-rule:evenodd;stroke:none"
   d="m 309.17,362.227 7.558,1.89 -7.558,1.89 0,-3.78" /><path
   inkscape:connector-curvature="0"
   id="path160"
   style="fill:none;stroke:#000000;stroke-width:0.47242498;stroke-linecap:butt;stroke-linejoin:miter;stroke-miterlimit:10;stroke-opacity:1;stroke-dasharray:none"
   d="m 309.17,362.227 7.558,1.89 -7.558,1.89 0,-3.78 z" /><path
   inkscape:connector-curvature="0"
   id="path162"
   style="fill:none;stroke:#000000;stroke-width:0.47242498;stroke-linecap:butt;stroke-linejoin:miter;stroke-miterlimit:10;stroke-opacity:1;stroke-dasharray:none"
   d="m 318.051,499.357 0,0 c -3.131,0 -5.669,-2.539 -5.669,-5.669 l 0,-4.85 c 0,-3.131 2.538,-5.67 5.669,-5.67 l 0.756,0 c 3.131,0 5.669,2.538 5.669,5.669 l 0,4.851 c 0,3.13 -2.538,5.669 -5.669,5.669 l -0.756,0 z" /><path
   inkscape:connector-curvature="0"
   id="path164"
   style="fill:none;stroke:#000000;stroke-width:0.47242498;stroke-linecap:butt;stroke-linejoin:miter;stroke-miterlimit:10;stroke-opacity:1;stroke-dasharray:none"
   d="m 405.922,490.853 0,0 c -3.131,0 -5.669,-2.538 -5.669,-5.669 l 0,-4.85 c 0,-3.131 2.538,-5.67 5.669,-5.67 l 0.756,0 c 3.131,0 5.669,2.539 5.669,5.67 l 0,4.85 c 0,3.13 -2.538,5.669 -5.669,5.669 l -0.756,0 z" /><path
   inkscape:connector-curvature="0"
   id="path166"
   style="fill:none;stroke:#000000;stroke-width:0.47242498;stroke-linecap:butt;stroke-linejoin:miter;stroke-miterlimit:10;stroke-opacity:1;stroke-dasharray:none"
   d="m 414.426,402.982 0,0 c -3.131,0 -5.669,-2.538 -5.669,-5.669 l 0,-4.851 c 0,-3.13 2.538,-5.669 5.669,-5.669 l 0.756,0 c 3.13,0 5.669,2.539 5.669,5.669 l 0,4.851 c 0,3.131 -2.539,5.669 -5.669,5.669 l -0.756,0 z" /><path
   inkscape:connector-curvature="0"
   id="path168"
   style="fill:none;stroke:#000000;stroke-width:0.47242498;stroke-linecap:butt;stroke-linejoin:miter;stroke-miterlimit:10;stroke-opacity:1;stroke-dasharray:none"
   d="m 315.216,434.162 0,0 c -3.13,0 -5.669,-2.538 -5.669,-5.669 l 0,-4.85 c 0,-3.131 2.539,-5.67 5.669,-5.67 l 0.756,0 c 3.131,0 5.669,2.539 5.669,5.67 l 0,4.85 c 0,3.131 -2.538,5.669 -5.669,5.669 l -0.756,0 z" /><path
   inkscape:connector-curvature="0"
   id="path170"
   style="fill:none;stroke:#000000;stroke-width:0.47242498;stroke-linecap:butt;stroke-linejoin:miter;stroke-miterlimit:10;stroke-opacity:1;stroke-dasharray:none"
   d="m 264.195,434.162 0,0 c -3.131,0 -5.67,-2.538 -5.67,-5.669 l 0,-4.85 c 0,-3.131 2.539,-5.67 5.67,-5.67 l 0.755,0 c 3.131,0 5.67,2.539 5.67,5.67 l 0,4.85 c 0,3.131 -2.539,5.669 -5.67,5.669 l -0.755,0 z" /><path
   inkscape:connector-curvature="0"
   id="path172"
   style="fill:none;stroke:#000000;stroke-width:0.47242498;stroke-linecap:butt;stroke-linejoin:miter;stroke-miterlimit:10;stroke-opacity:1;stroke-dasharray:none"
   d="m 173.489,490.853 0,0 c -3.131,0 -5.669,-2.538 -5.669,-5.669 l 0,-4.85 c 0,-3.131 2.538,-5.67 5.669,-5.67 l 0.756,0 c 3.131,0 5.669,2.539 5.669,5.67 l 0,4.85 c 0,3.131 -2.538,5.669 -5.669,5.669 l -0.756,0 z" /><path
   inkscape:connector-curvature="0"
   id="path174"
   style="fill:none;stroke:#000000;stroke-width:0.47242498;stroke-linecap:butt;stroke-linejoin:miter;stroke-miterlimit:10;stroke-opacity:1;stroke-dasharray:none"
   d="m 162.151,402.982 0,0 c -3.131,0 -5.669,-2.538 -5.669,-5.669 l 0,-4.851 c 0,-3.13 2.538,-5.669 5.669,-5.669 l 0.756,0 c 3.131,0 5.669,2.539 5.669,5.669 l 0,4.851 c 0,3.131 -2.538,5.669 -5.669,5.669 l -0.756,0 z" /><path
   inkscape:connector-curvature="0"
   id="path176"
   style="fill:none;stroke:#000000;stroke-width:0.47242498;stroke-linecap:butt;stroke-linejoin:miter;stroke-miterlimit:10;stroke-opacity:1;stroke-dasharray:none"
   d="m 233.014,397.313 0,0 c -3.13,0 -5.669,-2.538 -5.669,-5.669 l 0,-4.851 c 0,-3.131 2.539,-5.669 5.669,-5.669 l 0.756,0 c 3.131,0 5.669,2.538 5.669,5.669 l 0,4.851 c 0,3.131 -2.538,5.669 -5.669,5.669 l -0.756,0 z" /><path
   inkscape:connector-curvature="0"
   id="path178"
   style="fill:none;stroke:#000000;stroke-width:0.47242498;stroke-linecap:butt;stroke-linejoin:miter;stroke-miterlimit:10;stroke-opacity:1;stroke-dasharray:none"
   d="m 352.066,397.313 0,0 c -3.131,0 -5.67,-2.538 -5.67,-5.669 l 0,-4.851 c 0,-3.131 2.539,-5.669 5.67,-5.669 l 0.755,0 c 3.131,0 5.67,2.538 5.67,5.669 l 0,4.851 c 0,3.131 -2.539,5.669 -5.67,5.669 l -0.755,0 z" /><path
   inkscape:connector-curvature="0"
   id="path180"
   style="fill:none;stroke:#000000;stroke-width:0.47242498;stroke-linecap:butt;stroke-linejoin:miter;stroke-miterlimit:10;stroke-opacity:1;stroke-dasharray:none"
   d="m 258.525,499.357 0,0 c -3.13,0 -5.669,-2.539 -5.669,-5.669 l 0,-4.851 c 0,-3.131 2.539,-5.669 5.669,-5.669 l 0.756,0 c 3.131,0 5.669,2.538 5.669,5.669 l 0,4.851 c 0,3.13 -2.538,5.669 -5.669,5.669 l -0.756,0 z" /><text
   transform="scale(1,-1)"
   id="text184"
   x="374.526"
   y="-354.694"><tspan
     style="font-size:9.96263981px;font-variant:normal;font-weight:normal;writing-mode:lr-tb;fill:#000000;fill-opacity:1;fill-rule:nonzero;stroke:none;font-family:cmr10;-inkscape-font-specification:cmr10"
     x="374.526 329.1658"
     y="-354.694"
     sodipodi:role="line"
     id="tspan186">10</tspan><tspan
     style="font-size:9.96263981px;font-variant:normal;font-weight:normal;writing-mode:lr-tb;fill:#000000;fill-opacity:1;fill-rule:nonzero;stroke:none;font-family:cmr10;-inkscape-font-specification:cmr10"
     x="317.82599"
     y="-385.87878"
     id="tspan188">5</tspan><tspan
     style="font-size:9.96263981px;font-variant:normal;font-weight:normal;writing-mode:lr-tb;fill:#000000;fill-opacity:1;fill-rule:nonzero;stroke:none;font-family:cmr10;-inkscape-font-specification:cmr10"
     x="340.50571"
     y="-419.89911"
     id="tspan190">4</tspan><tspan
     style="font-size:9.96263981px;font-variant:normal;font-weight:normal;writing-mode:lr-tb;fill:#000000;fill-opacity:1;fill-rule:nonzero;stroke:none;font-family:cmr10;-inkscape-font-specification:cmr10"
     x="295.1459"
     y="-453.91"
     id="tspan192">9</tspan><tspan
     style="font-size:9.96263981px;font-variant:normal;font-weight:normal;writing-mode:lr-tb;fill:#000000;fill-opacity:1;fill-rule:nonzero;stroke:none;font-family:cmr10;-inkscape-font-specification:cmr10"
     x="286.64081 291.61783"
     y="-397.21899"
     sodipodi:role="line"
     id="tspan194">10</tspan><tspan
     style="font-size:9.96263981px;font-variant:normal;font-weight:normal;writing-mode:lr-tb;fill:#000000;fill-opacity:1;fill-rule:nonzero;stroke:none;font-family:cmr10;-inkscape-font-specification:cmr10"
     x="465.23682"
     y="-419.89911"
     id="tspan196">3</tspan><tspan
     style="font-size:9.96263981px;font-variant:normal;font-weight:normal;writing-mode:lr-tb;fill:#000000;fill-opacity:1;fill-rule:nonzero;stroke:none;font-family:cmr10;-inkscape-font-specification:cmr10"
     x="289.47583 227.11491 232.09192 119.38492 124.36192"
     y="-538.96008"
     sodipodi:role="line"
     id="tspan198">81817</tspan><tspan
     style="font-size:9.96263981px;font-variant:normal;font-weight:normal;writing-mode:lr-tb;fill:#000000;fill-opacity:1;fill-rule:nonzero;stroke:none;font-family:cmr10;-inkscape-font-specification:cmr10"
     x="263.96091 268.93793"
     y="-388.71411"
     sodipodi:role="line"
     id="tspan200">16</tspan><tspan
     style="font-size:9.96263981px;font-variant:normal;font-weight:normal;writing-mode:lr-tb;fill:#000000;fill-opacity:1;fill-rule:nonzero;stroke:none;font-family:cmr10;-inkscape-font-specification:cmr10"
     x="238.44612 243.42313 110.88013 115.85712"
     y="-419.89929"
     sodipodi:role="line"
     id="tspan202">1514</tspan><tspan
     style="font-size:9.96263981px;font-variant:normal;font-weight:normal;writing-mode:lr-tb;fill:#000000;fill-opacity:1;fill-rule:nonzero;stroke:none;font-family:cmr10;-inkscape-font-specification:cmr10"
     x="244.11612 249.09312 201.60013 206.57712 116.55011 121.52711 459.56711"
     y="-354.69421"
     sodipodi:role="line"
     id="tspan204">1112132</tspan><tspan
     style="font-size:9.96263981px;font-variant:normal;font-weight:normal;writing-mode:lr-tb;fill:#000000;fill-opacity:1;fill-rule:nonzero;stroke:none;font-family:cmr10;-inkscape-font-specification:cmr10"
     x="351.84613 459.56717"
     y="-538.96021"
     sodipodi:role="line"
     id="tspan206">76</tspan><tspan
     style="font-size:9.96263981px;font-variant:normal;font-weight:normal;writing-mode:lr-tb;fill:#000000;fill-opacity:1;fill-rule:nonzero;stroke:none;font-family:cmr10;-inkscape-font-specification:cmr10"
     x="412.31723"
     y="-391.54919"
     id="tspan208">2</tspan><tspan
     style="font-size:9.96263981px;font-variant:normal;font-weight:normal;writing-mode:lr-tb;fill:#000000;fill-opacity:1;fill-rule:nonzero;stroke:none;font-family:cmr10;-inkscape-font-specification:cmr10"
     x="403.81213"
     y="-479.42499"
     id="tspan210">3</tspan><tspan
     style="font-size:9.96263981px;font-variant:normal;font-weight:normal;writing-mode:lr-tb;fill:#000000;fill-opacity:1;fill-rule:nonzero;stroke:none;font-family:cmr10;-inkscape-font-specification:cmr10"
     x="313.10123"
     y="-422.73401"
     id="tspan212">0</tspan><tspan
     style="font-size:9.96263981px;font-variant:normal;font-weight:normal;writing-mode:lr-tb;fill:#000000;fill-opacity:1;fill-rule:nonzero;stroke:none;font-family:cmr10;-inkscape-font-specification:cmr10"
     x="349.95593"
     y="-385.87891"
     id="tspan214">1</tspan><tspan
     style="font-size:9.96263981px;font-variant:normal;font-weight:normal;writing-mode:lr-tb;fill:#000000;fill-opacity:1;fill-rule:nonzero;stroke:none;font-family:cmr10;-inkscape-font-specification:cmr10"
     x="315.93604"
     y="-487.9299"
     id="tspan216">4</tspan><tspan
     style="font-size:9.96263981px;font-variant:normal;font-weight:normal;writing-mode:lr-tb;fill:#000000;fill-opacity:1;fill-rule:nonzero;stroke:none;font-family:cmr10;-inkscape-font-specification:cmr10"
     x="262.07123"
     y="-422.7338"
     id="tspan218">5</tspan><tspan
     style="font-size:9.96263981px;font-variant:normal;font-weight:normal;writing-mode:lr-tb;fill:#000000;fill-opacity:1;fill-rule:nonzero;stroke:none;font-family:cmr10;-inkscape-font-specification:cmr10"
     x="230.89503"
     y="-385.87869"
     id="tspan220">6</tspan><tspan
     style="font-size:9.96263981px;font-variant:normal;font-weight:normal;writing-mode:lr-tb;fill:#000000;fill-opacity:1;fill-rule:nonzero;stroke:none;font-family:cmr10;-inkscape-font-specification:cmr10"
     x="160.02003"
     y="-391.54901"
     id="tspan222">7</tspan><tspan
     style="font-size:9.96263981px;font-variant:normal;font-weight:normal;writing-mode:lr-tb;fill:#000000;fill-opacity:1;fill-rule:nonzero;stroke:none;font-family:cmr10;-inkscape-font-specification:cmr10"
     x="171.36024"
     y="-479.4248"
     id="tspan224">8</tspan><tspan
     style="font-size:9.96263981px;font-variant:normal;font-weight:normal;writing-mode:lr-tb;fill:#000000;fill-opacity:1;fill-rule:nonzero;stroke:none;font-family:cmr10;-inkscape-font-specification:cmr10"
     x="256.40125"
     y="-487.92987"
     id="tspan226">9</tspan></text>




<text
   transform="scale(1,-1)"
   id="text234"
   x="173.24994"
   y="-340.51889"><tspan
     style="font-size:11.95510006px;font-variant:normal;font-weight:normal;writing-mode:lr-tb;fill:#000000;fill-opacity:1;fill-rule:nonzero;stroke:none;font-family:cmr12;-inkscape-font-specification:cmr12"
     x="173.24994 179.7569 185.2827 193.73366"
     y="-340.51889"
     sodipodi:role="line"
     id="tspan236">down</tspan><tspan
     style="font-size:11.95510006px;font-variant:normal;font-weight:normal;writing-mode:lr-tb;fill:#000000;fill-opacity:1;fill-rule:nonzero;stroke:none;font-family:cmr12;-inkscape-font-specification:cmr12"
     x="385.85693 392.36392 397.88971 406.34067"
     y="-343.35367"
     sodipodi:role="line"
     id="tspan238">down</tspan><tspan
     style="font-size:11.95510006px;font-variant:normal;font-weight:normal;writing-mode:lr-tb;fill:#000000;fill-opacity:1;fill-rule:nonzero;stroke:none;font-family:cmr12;-inkscape-font-specification:cmr12"
     x="99.53994 102.78893 107.99091 111.5639 468.07193 472.62592 475.87488 481.72488 487.90781"
     y="-445.41367"
     sodipodi:role="line"
     id="tspan240">leftright</tspan><tspan
     style="font-size:11.95510006px;font-variant:normal;font-weight:normal;writing-mode:lr-tb;fill:#000000;fill-opacity:1;fill-rule:nonzero;stroke:none;font-family:cmr12;-inkscape-font-specification:cmr12"
     x="275.30093 280.50293 286.67691 289.9259 293.1749 299.68185 306.18881 311.39081"
     y="-340.51865"
     sodipodi:role="line"
     id="tspan242">cylinder</tspan><tspan
     style="font-size:11.95510006px;font-variant:normal;font-weight:normal;writing-mode:lr-tb;fill:#000000;fill-opacity:1;fill-rule:nonzero;stroke:none;font-family:cmr12;-inkscape-font-specification:cmr12"
     x="286.64075 293.14771"
     y="-553.13464"
     sodipodi:role="line"
     id="tspan244">up</tspan></text>


<text
   transform="scale(1,-1)"
   id="text228"
   x="295.14615"
   y="-377.3739"><tspan
     style="font-size:11.95510006px;font-variant:normal;font-weight:normal;writing-mode:lr-tb;fill:#000000;fill-opacity:1;fill-rule:nonzero;stroke:none;font-family:cmmi12;-inkscape-font-specification:cmmi12"
     x="295.14615"
     y="-377.3739"
     id="tspan230">y</tspan><tspan
     style="font-size:11.95510006px;font-variant:normal;font-weight:normal;writing-mode:lr-tb;fill:#000000;fill-opacity:1;fill-rule:nonzero;stroke:none;font-family:cmmi12;-inkscape-font-specification:cmmi12"
     x="306.48593"
     y="-351.8587"
     id="tspan232">x</tspan></text>
</g></svg>