<?xml version="1.0" encoding="UTF-8" standalone="no"?>
<!-- Created with Inkscape (http://www.inkscape.org/) -->

<svg
   xmlns:dc="http://purl.org/dc/elements/1.1/"
   xmlns:cc="http://creativecommons.org/ns#"
   xmlns:rdf="http://www.w3.org/1999/02/22-rdf-syntax-ns#"
   xmlns:svg="http://www.w3.org/2000/svg"
   xmlns="http://www.w3.org/2000/svg"
   xmlns:sodipodi="http://sodipodi.sourceforge.net/DTD/sodipodi-0.dtd"
   xmlns:inkscape="http://www.inkscape.org/namespaces/inkscape"
   id="svg3055"
   version="1.1"
   inkscape:version="0.48.1 r9760"
   width="361.83957"
   height="332.84653"
   xml:space="preserve"
   sodipodi:docname="fig-3-1.svg"><metadata
     id="metadata3061"><rdf:RDF><cc:Work
         rdf:about=""><dc:format>image/svg+xml</dc:format><dc:type
           rdf:resource="http://purl.org/dc/dcmitype/StillImage" /><dc:title /></cc:Work></rdf:RDF></metadata><defs
     id="defs3059"><clipPath
       clipPathUnits="userSpaceOnUse"
       id="clipPath3115"><path
         d="m 1536.57,7000.48 0,-2670 2640,0 0,2670 -2640,0 z"
         id="path3117"
         inkscape:connector-curvature="0" /></clipPath><clipPath
       clipPathUnits="userSpaceOnUse"
       id="clipPath3125"><path
         d="m 1536.57,7000.48 0,-2670 2640,0 0,2670 -2640,0 z m 1410.32,-1458.35 23.94,18.9 -49.76,62.36 25.82,-56.69 -49.76,37.79 49.76,-62.36 z m -168.18,258.89 -23.94,-18.9 49.77,-62.36 -25.2,56.06 49.13,-37.16 -49.76,62.36 z"
         clip-rule="evenodd"
         id="path3127"
         inkscape:connector-curvature="0" /></clipPath><clipPath
       clipPathUnits="userSpaceOnUse"
       id="clipPath3135"><path
         d="m 1536.57,7000.48 0,-2670 2640,0 0,2670 -2640,0 z"
         id="path3137"
         inkscape:connector-curvature="0" /></clipPath><clipPath
       clipPathUnits="userSpaceOnUse"
       id="clipPath3151"><path
         d="m 1536.57,7000.48 0,-2670 2640,0 0,2670 -2640,0 z m 319.97,-79.5 0,29.61 -80,0 60.47,-15.12 -60.47,-14.49 80,0 z"
         clip-rule="evenodd"
         id="path3153"
         inkscape:connector-curvature="0" /></clipPath><clipPath
       clipPathUnits="userSpaceOnUse"
       id="clipPath3161"><path
         d="m 1536.57,7000.48 0,-2670 2640,0 0,2670 -2640,0 z"
         id="path3163"
         inkscape:connector-curvature="0" /></clipPath><clipPath
       clipPathUnits="userSpaceOnUse"
       id="clipPath3173"><path
         d="m 1536.57,7000.48 0,-2670 2640,0 0,2670 -2640,0 z m 319.97,-214.93 0,29.61 -80,0 60.47,-15.12 -60.47,-14.49 80,0 z"
         clip-rule="evenodd"
         id="path3175"
         inkscape:connector-curvature="0" /></clipPath><clipPath
       clipPathUnits="userSpaceOnUse"
       id="clipPath3183"><path
         d="m 1536.57,7000.48 0,-2670 2640,0 0,2670 -2640,0 z"
         id="path3185"
         inkscape:connector-curvature="0" /></clipPath><clipPath
       clipPathUnits="userSpaceOnUse"
       id="clipPath3195"><path
         d="m 1536.57,7000.48 0,-2670 2640,0 0,2670 -2640,0 z m 319.97,-350.36 0,29.61 -80,0 60.47,-15.12 -60.47,-14.49 80,0 z"
         clip-rule="evenodd"
         id="path3197"
         inkscape:connector-curvature="0" /></clipPath><clipPath
       clipPathUnits="userSpaceOnUse"
       id="clipPath3205"><path
         d="m 1536.57,7000.48 0,-2670 2640,0 0,2670 -2640,0 z"
         id="path3207"
         inkscape:connector-curvature="0" /></clipPath><clipPath
       clipPathUnits="userSpaceOnUse"
       id="clipPath3217"><path
         d="m 1536.57,7000.48 0,-2670 2640,0 0,2670 -2640,0 z m 319.97,-485.78 0,29.6 -80,0 60.47,-15.12 -60.47,-14.48 80,0 z"
         clip-rule="evenodd"
         id="path3219"
         inkscape:connector-curvature="0" /></clipPath><clipPath
       clipPathUnits="userSpaceOnUse"
       id="clipPath3227"><path
         d="m 1536.57,7000.48 0,-2670 2640,0 0,2670 -2640,0 z"
         id="path3229"
         inkscape:connector-curvature="0" /></clipPath><clipPath
       clipPathUnits="userSpaceOnUse"
       id="clipPath3239"><path
         d="m 1536.57,7000.48 0,-2670 2640,0 0,2670 -2640,0 z m 319.97,-621.21 0,29.6 -80,0 60.47,-15.12 -60.47,-14.48 80,0 z"
         clip-rule="evenodd"
         id="path3241"
         inkscape:connector-curvature="0" /></clipPath><clipPath
       clipPathUnits="userSpaceOnUse"
       id="clipPath3249"><path
         d="m 1536.57,7000.48 0,-2670 2640,0 0,2670 -2640,0 z"
         id="path3251"
         inkscape:connector-curvature="0" /></clipPath><clipPath
       clipPathUnits="userSpaceOnUse"
       id="clipPath3261"><path
         d="m 1536.57,7000.48 0,-2670 2640,0 0,2670 -2640,0 z m 319.97,-756.64 0,29.6 -80,0 60.47,-15.12 -60.47,-14.48 80,0 z"
         clip-rule="evenodd"
         id="path3263"
         inkscape:connector-curvature="0" /></clipPath><clipPath
       clipPathUnits="userSpaceOnUse"
       id="clipPath3271"><path
         d="m 1536.57,7000.48 0,-2670 2640,0 0,2670 -2640,0 z"
         id="path3273"
         inkscape:connector-curvature="0" /></clipPath><clipPath
       clipPathUnits="userSpaceOnUse"
       id="clipPath3283"><path
         d="m 1536.57,7000.48 0,-2670 2640,0 0,2670 -2640,0 z m 319.97,-892.07 0,29.61 -80,0 60.47,-15.12 -60.47,-14.49 80,0 z"
         clip-rule="evenodd"
         id="path3285"
         inkscape:connector-curvature="0" /></clipPath><clipPath
       clipPathUnits="userSpaceOnUse"
       id="clipPath3293"><path
         d="m 1536.57,7000.48 0,-2670 2640,0 0,2670 -2640,0 z"
         id="path3295"
         inkscape:connector-curvature="0" /></clipPath><clipPath
       clipPathUnits="userSpaceOnUse"
       id="clipPath3305"><path
         d="m 1536.57,7000.48 0,-2670 2640,0 0,2670 -2640,0 z m 319.97,-1027.5 0,29.61 -80,0 60.47,-15.12 -60.47,-14.49 80,0 z"
         clip-rule="evenodd"
         id="path3307"
         inkscape:connector-curvature="0" /></clipPath><clipPath
       clipPathUnits="userSpaceOnUse"
       id="clipPath3315"><path
         d="m 1536.57,7000.48 0,-2670 2640,0 0,2670 -2640,0 z"
         id="path3317"
         inkscape:connector-curvature="0" /></clipPath><clipPath
       clipPathUnits="userSpaceOnUse"
       id="clipPath3327"><path
         d="m 1536.57,7000.48 0,-2670 2640,0 0,2670 -2640,0 z m 319.97,-1162.93 0,29.61 -80,0 60.47,-15.12 -60.47,-14.49 80,0 z"
         clip-rule="evenodd"
         id="path3329"
         inkscape:connector-curvature="0" /></clipPath><clipPath
       clipPathUnits="userSpaceOnUse"
       id="clipPath3337"><path
         d="m 1536.57,7000.48 0,-2670 2640,0 0,2670 -2640,0 z"
         id="path3339"
         inkscape:connector-curvature="0" /></clipPath><clipPath
       clipPathUnits="userSpaceOnUse"
       id="clipPath3349"><path
         d="m 1536.57,7000.48 0,-2670 2640,0 0,2670 -2640,0 z m 319.97,-1298.36 0,29.61 -80,0 60.47,-15.12 -60.47,-14.49 80,0 z"
         clip-rule="evenodd"
         id="path3351"
         inkscape:connector-curvature="0" /></clipPath><clipPath
       clipPathUnits="userSpaceOnUse"
       id="clipPath3359"><path
         d="m 1536.57,7000.48 0,-2670 2640,0 0,2670 -2640,0 z"
         id="path3361"
         inkscape:connector-curvature="0" /></clipPath><clipPath
       clipPathUnits="userSpaceOnUse"
       id="clipPath3371"><path
         d="m 1536.57,7000.48 0,-2670 2640,0 0,2670 -2640,0 z m 319.97,-1434.41 0,29.6 -80,0 60.47,-15.12 -60.47,-14.48 80,0 z"
         clip-rule="evenodd"
         id="path3373"
         inkscape:connector-curvature="0" /></clipPath><clipPath
       clipPathUnits="userSpaceOnUse"
       id="clipPath3381"><path
         d="m 1536.57,7000.48 0,-2670 2640,0 0,2670 -2640,0 z"
         id="path3383"
         inkscape:connector-curvature="0" /></clipPath><clipPath
       clipPathUnits="userSpaceOnUse"
       id="clipPath3393"><path
         d="m 1536.57,7000.48 0,-2670 2640,0 0,2670 -2640,0 z m 319.97,-1569.84 0,29.6 -80,0 60.47,-15.12 -60.47,-14.48 80,0 z"
         clip-rule="evenodd"
         id="path3395"
         inkscape:connector-curvature="0" /></clipPath><clipPath
       clipPathUnits="userSpaceOnUse"
       id="clipPath3403"><path
         d="m 1536.57,7000.48 0,-2670 2640,0 0,2670 -2640,0 z"
         id="path3405"
         inkscape:connector-curvature="0" /></clipPath><clipPath
       clipPathUnits="userSpaceOnUse"
       id="clipPath3415"><path
         d="m 1536.57,7000.48 0,-2670 2640,0 0,2670 -2640,0 z m 319.97,-1705.27 0,29.6 -80,0 60.47,-15.11 -60.47,-14.49 80,0 z"
         clip-rule="evenodd"
         id="path3417"
         inkscape:connector-curvature="0" /></clipPath><clipPath
       clipPathUnits="userSpaceOnUse"
       id="clipPath3425"><path
         d="m 1536.57,7000.48 0,-2670 2640,0 0,2670 -2640,0 z"
         id="path3427"
         inkscape:connector-curvature="0" /></clipPath><clipPath
       clipPathUnits="userSpaceOnUse"
       id="clipPath3437"><path
         d="m 1536.57,7000.48 0,-2670 2640,0 0,2670 -2640,0 z m 319.97,-1840.7 0,29.61 -80,0 60.47,-15.12 -60.47,-14.49 80,0 z"
         clip-rule="evenodd"
         id="path3439"
         inkscape:connector-curvature="0" /></clipPath><clipPath
       clipPathUnits="userSpaceOnUse"
       id="clipPath3447"><path
         d="m 1536.57,7000.48 0,-2670 2640,0 0,2670 -2640,0 z"
         id="path3449"
         inkscape:connector-curvature="0" /></clipPath><clipPath
       clipPathUnits="userSpaceOnUse"
       id="clipPath3459"><path
         d="m 1536.57,7000.48 0,-2670 2640,0 0,2670 -2640,0 z m 319.97,-1976.13 0,29.61 -80,0 60.47,-15.12 -60.47,-14.49 80,0 z"
         clip-rule="evenodd"
         id="path3461"
         inkscape:connector-curvature="0" /></clipPath><clipPath
       clipPathUnits="userSpaceOnUse"
       id="clipPath3469"><path
         d="m 1536.57,7000.48 0,-2670 2640,0 0,2670 -2640,0 z"
         id="path3471"
         inkscape:connector-curvature="0" /></clipPath><clipPath
       clipPathUnits="userSpaceOnUse"
       id="clipPath3481"><path
         d="m 1536.57,7000.48 0,-2670 2640,0 0,2670 -2640,0 z m 319.97,-2111.56 0,29.61 -80,0 60.47,-15.12 -60.47,-14.49 80,0 z"
         clip-rule="evenodd"
         id="path3483"
         inkscape:connector-curvature="0" /></clipPath><clipPath
       clipPathUnits="userSpaceOnUse"
       id="clipPath3491"><path
         d="m 1536.57,7000.48 0,-2670 2640,0 0,2670 -2640,0 z"
         id="path3493"
         inkscape:connector-curvature="0" /></clipPath><clipPath
       clipPathUnits="userSpaceOnUse"
       id="clipPath3503"><path
         d="m 1536.57,7000.48 0,-2670 2640,0 0,2670 -2640,0 z m 319.97,-2246.99 0,29.61 -80,0 60.47,-15.12 -60.47,-14.49 80,0 z"
         clip-rule="evenodd"
         id="path3505"
         inkscape:connector-curvature="0" /></clipPath><clipPath
       clipPathUnits="userSpaceOnUse"
       id="clipPath3513"><path
         d="m 1536.57,7000.48 0,-2670 2640,0 0,2670 -2640,0 z"
         id="path3515"
         inkscape:connector-curvature="0" /></clipPath><clipPath
       clipPathUnits="userSpaceOnUse"
       id="clipPath3525"><path
         d="m 1536.57,7000.48 0,-2670 2640,0 0,2670 -2640,0 z m 319.97,-2382.41 0,29.6 -80,0 60.47,-15.12 -60.47,-14.48 80,0 z"
         clip-rule="evenodd"
         id="path3527"
         inkscape:connector-curvature="0" /></clipPath><clipPath
       clipPathUnits="userSpaceOnUse"
       id="clipPath3535"><path
         d="m 1536.57,7000.48 0,-2670 2640,0 0,2670 -2640,0 z"
         id="path3537"
         inkscape:connector-curvature="0" /></clipPath><clipPath
       clipPathUnits="userSpaceOnUse"
       id="clipPath3551"><path
         d="m 1536.57,7000.48 0,-2670 2640,0 0,2670 -2640,0 z m 2449.03,-2540.52 0,29.61 -80,0 60.47,-15.12 -60.47,-14.49 80,0 z m -2441.49,29.61 0,-29.61 79.36,0 -59.84,14.49 59.84,15.12 -79.36,0 z"
         clip-rule="evenodd"
         id="path3553"
         inkscape:connector-curvature="0" /></clipPath><clipPath
       clipPathUnits="userSpaceOnUse"
       id="clipPath3561"><path
         d="m 1536.57,7000.48 0,-2670 2640,0 0,2670 -2640,0 z"
         id="path3563"
         inkscape:connector-curvature="0" /></clipPath><clipPath
       clipPathUnits="userSpaceOnUse"
       id="clipPath3577"><path
         d="m 1536.57,7000.48 0,-2670 2640,0 0,2670 -2640,0 z m 2552.33,-2422.1 29.61,0 0,80 -14.49,-60.47 -15.12,60.47 0,-80 z m 29.61,2419.45 -29.61,0 0,-79.37 15.12,59.84 14.49,-59.84 0,79.37 z"
         clip-rule="evenodd"
         id="path3579"
         inkscape:connector-curvature="0" /></clipPath><clipPath
       clipPathUnits="userSpaceOnUse"
       id="clipPath3587"><path
         d="m 1536.57,7000.48 0,-2670 2640,0 0,2670 -2640,0 z"
         id="path3589"
         inkscape:connector-curvature="0" /></clipPath><clipPath
       clipPathUnits="userSpaceOnUse"
       id="clipPath3603"><path
         d="m 1536.57,7000.48 0,-2670 2640,0 0,2670 -2640,0 z m 1741.65,-1230.96 0,29.61 -80,0 60.47,-15.12 -60.47,-14.49 80,0 z m -490.69,498.25 -29.61,0 0,-79.36 15.12,59.84 14.49,-59.84 0,79.36 z"
         clip-rule="evenodd"
         id="path3605"
         inkscape:connector-curvature="0" /></clipPath><clipPath
       clipPathUnits="userSpaceOnUse"
       id="clipPath3613"><path
         d="m 1536.57,7000.48 0,-2670 2640,0 0,2670 -2640,0 z"
         id="path3615"
         inkscape:connector-curvature="0" /></clipPath></defs><sodipodi:namedview
     pagecolor="#ffffff"
     bordercolor="#666666"
     borderopacity="1"
     objecttolerance="10"
     gridtolerance="10"
     guidetolerance="10"
     inkscape:pageopacity="0"
     inkscape:pageshadow="2"
     inkscape:window-width="1680"
     inkscape:window-height="933"
     id="namedview3057"
     showgrid="false"
     inkscape:zoom="1.408167"
     inkscape:cx="176.33094"
     inkscape:cy="123.93487"
     inkscape:window-x="0"
     inkscape:window-y="0"
     inkscape:window-maximized="0"
     inkscape:current-layer="g3063"
     fit-margin-top="0"
     fit-margin-left="0"
     fit-margin-right="0"
     fit-margin-bottom="0" /><g
     id="g3063"
     inkscape:groupmode="layer"
     inkscape:label="ProgrammersGuide"
     transform="matrix(1.25,0,0,-1.25,-193.89848,873.84277)"><path
   inkscape:connector-curvature="0"
   id="path3119"
   style="fill:none;stroke:#000000;stroke-width:0.47242498;stroke-linecap:butt;stroke-linejoin:miter;stroke-miterlimit:10;stroke-opacity:1;stroke-dasharray:none"
   d="m 295.319,555.851 15.747,-18.078" /><path
   inkscape:connector-curvature="0"
   id="path3129"
   style="fill:none;stroke:#000000;stroke-width:0.47242498;stroke-linecap:butt;stroke-linejoin:miter;stroke-miterlimit:10;stroke-opacity:1;stroke-dasharray:none"
   d="m 277.304,578.401 18.015,-22.55" /><path
   inkscape:connector-curvature="0"
   id="path3139"
   style="fill:#000000;fill-opacity:1;fill-rule:evenodd;stroke:none"
   d="m 282.847,573.866 -4.913,3.716 2.52,-5.606 2.393,1.89" /><path
   inkscape:connector-curvature="0"
   id="path3141"
   style="fill:none;stroke:#000000;stroke-width:0.47242498;stroke-linecap:butt;stroke-linejoin:miter;stroke-miterlimit:10;stroke-opacity:1;stroke-dasharray:none"
   d="m 282.847,573.866 -4.913,3.716 2.52,-5.606 2.393,1.89 z" /><path
   inkscape:connector-curvature="0"
   id="path3143"
   style="fill:#000000;fill-opacity:1;fill-rule:evenodd;stroke:none"
   d="m 289.713,560.449 4.976,-3.779 -2.582,5.669 -2.394,-1.89" /><path
   inkscape:connector-curvature="0"
   id="path3145"
   style="fill:none;stroke:#000000;stroke-width:0.47242498;stroke-linecap:butt;stroke-linejoin:miter;stroke-miterlimit:10;stroke-opacity:1;stroke-dasharray:none"
   d="m 289.713,560.449 4.976,-3.779 -2.582,5.669 -2.394,-1.89 z" /><path
   inkscape:connector-curvature="0"
   id="path3155"
   style="fill:none;stroke:#000000;stroke-width:0.47242498;stroke-linecap:butt;stroke-linejoin:miter;stroke-miterlimit:10;stroke-opacity:1;stroke-dasharray:none"
   d="m 157.623,693.547 27.086,0" /><path
   inkscape:connector-curvature="0"
   id="path3165"
   style="fill:#000000;fill-opacity:1;fill-rule:evenodd;stroke:none"
   d="m 177.654,692.098 6.047,1.449 -6.047,1.512 0,-2.961" /><path
   inkscape:connector-curvature="0"
   id="path3167"
   style="fill:none;stroke:#000000;stroke-width:0.47242498;stroke-linecap:butt;stroke-linejoin:miter;stroke-miterlimit:10;stroke-opacity:1;stroke-dasharray:none"
   d="m 177.654,692.098 6.047,1.449 -6.047,1.512 0,-2.961 z" /><path
   inkscape:connector-curvature="0"
   id="path3177"
   style="fill:none;stroke:#000000;stroke-width:0.47242498;stroke-linecap:butt;stroke-linejoin:miter;stroke-miterlimit:10;stroke-opacity:1;stroke-dasharray:none"
   d="m 157.623,680.004 27.086,0" /><path
   inkscape:connector-curvature="0"
   id="path3187"
   style="fill:#000000;fill-opacity:1;fill-rule:evenodd;stroke:none"
   d="m 177.654,678.555 6.047,1.449 -6.047,1.512 0,-2.961" /><path
   inkscape:connector-curvature="0"
   id="path3189"
   style="fill:none;stroke:#000000;stroke-width:0.47242498;stroke-linecap:butt;stroke-linejoin:miter;stroke-miterlimit:10;stroke-opacity:1;stroke-dasharray:none"
   d="m 177.654,678.555 6.047,1.449 -6.047,1.512 0,-2.961 z" /><path
   inkscape:connector-curvature="0"
   id="path3199"
   style="fill:none;stroke:#000000;stroke-width:0.47242498;stroke-linecap:butt;stroke-linejoin:miter;stroke-miterlimit:10;stroke-opacity:1;stroke-dasharray:none"
   d="m 157.623,666.461 27.086,0" /><path
   inkscape:connector-curvature="0"
   id="path3209"
   style="fill:#000000;fill-opacity:1;fill-rule:evenodd;stroke:none"
   d="m 177.654,665.012 6.047,1.449 -6.047,1.512 0,-2.961" /><path
   inkscape:connector-curvature="0"
   id="path3211"
   style="fill:none;stroke:#000000;stroke-width:0.47242498;stroke-linecap:butt;stroke-linejoin:miter;stroke-miterlimit:10;stroke-opacity:1;stroke-dasharray:none"
   d="m 177.654,665.012 6.047,1.449 -6.047,1.512 0,-2.961 z" /><path
   inkscape:connector-curvature="0"
   id="path3221"
   style="fill:none;stroke:#000000;stroke-width:0.47242498;stroke-linecap:butt;stroke-linejoin:miter;stroke-miterlimit:10;stroke-opacity:1;stroke-dasharray:none"
   d="m 157.623,652.918 27.086,0" /><path
   inkscape:connector-curvature="0"
   id="path3231"
   style="fill:#000000;fill-opacity:1;fill-rule:evenodd;stroke:none"
   d="m 177.654,651.47 6.047,1.448 -6.047,1.512 0,-2.96" /><path
   inkscape:connector-curvature="0"
   id="path3233"
   style="fill:none;stroke:#000000;stroke-width:0.47242498;stroke-linecap:butt;stroke-linejoin:miter;stroke-miterlimit:10;stroke-opacity:1;stroke-dasharray:none"
   d="m 177.654,651.47 6.047,1.448 -6.047,1.512 0,-2.96 z" /><path
   inkscape:connector-curvature="0"
   id="path3243"
   style="fill:none;stroke:#000000;stroke-width:0.47242498;stroke-linecap:butt;stroke-linejoin:miter;stroke-miterlimit:10;stroke-opacity:1;stroke-dasharray:none"
   d="m 157.623,639.375 27.086,0" /><path
   inkscape:connector-curvature="0"
   id="path3253"
   style="fill:#000000;fill-opacity:1;fill-rule:evenodd;stroke:none"
   d="m 177.654,637.927 6.047,1.448 -6.047,1.512 0,-2.96" /><path
   inkscape:connector-curvature="0"
   id="path3255"
   style="fill:none;stroke:#000000;stroke-width:0.47242498;stroke-linecap:butt;stroke-linejoin:miter;stroke-miterlimit:10;stroke-opacity:1;stroke-dasharray:none"
   d="m 177.654,637.927 6.047,1.448 -6.047,1.512 0,-2.96 z" /><path
   inkscape:connector-curvature="0"
   id="path3265"
   style="fill:none;stroke:#000000;stroke-width:0.47242498;stroke-linecap:butt;stroke-linejoin:miter;stroke-miterlimit:10;stroke-opacity:1;stroke-dasharray:none"
   d="m 157.623,625.832 27.086,0" /><path
   inkscape:connector-curvature="0"
   id="path3275"
   style="fill:#000000;fill-opacity:1;fill-rule:evenodd;stroke:none"
   d="m 177.654,624.384 6.047,1.448 -6.047,1.512 0,-2.96" /><path
   inkscape:connector-curvature="0"
   id="path3277"
   style="fill:none;stroke:#000000;stroke-width:0.47242498;stroke-linecap:butt;stroke-linejoin:miter;stroke-miterlimit:10;stroke-opacity:1;stroke-dasharray:none"
   d="m 177.654,624.384 6.047,1.448 -6.047,1.512 0,-2.96 z" /><path
   inkscape:connector-curvature="0"
   id="path3287"
   style="fill:none;stroke:#000000;stroke-width:0.47242498;stroke-linecap:butt;stroke-linejoin:miter;stroke-miterlimit:10;stroke-opacity:1;stroke-dasharray:none"
   d="m 157.623,612.29 27.086,0" /><path
   inkscape:connector-curvature="0"
   id="path3297"
   style="fill:#000000;fill-opacity:1;fill-rule:evenodd;stroke:none"
   d="m 177.654,610.841 6.047,1.449 -6.047,1.512 0,-2.961" /><path
   inkscape:connector-curvature="0"
   id="path3299"
   style="fill:none;stroke:#000000;stroke-width:0.47242498;stroke-linecap:butt;stroke-linejoin:miter;stroke-miterlimit:10;stroke-opacity:1;stroke-dasharray:none"
   d="m 177.654,610.841 6.047,1.449 -6.047,1.512 0,-2.961 z" /><path
   inkscape:connector-curvature="0"
   id="path3309"
   style="fill:none;stroke:#000000;stroke-width:0.47242498;stroke-linecap:butt;stroke-linejoin:miter;stroke-miterlimit:10;stroke-opacity:1;stroke-dasharray:none"
   d="m 157.623,598.747 27.086,0" /><path
   inkscape:connector-curvature="0"
   id="path3319"
   style="fill:#000000;fill-opacity:1;fill-rule:evenodd;stroke:none"
   d="m 177.654,597.298 6.047,1.449 -6.047,1.512 0,-2.961" /><path
   inkscape:connector-curvature="0"
   id="path3321"
   style="fill:none;stroke:#000000;stroke-width:0.47242498;stroke-linecap:butt;stroke-linejoin:miter;stroke-miterlimit:10;stroke-opacity:1;stroke-dasharray:none"
   d="m 177.654,597.298 6.047,1.449 -6.047,1.512 0,-2.961 z" /><path
   inkscape:connector-curvature="0"
   id="path3331"
   style="fill:none;stroke:#000000;stroke-width:0.47242498;stroke-linecap:butt;stroke-linejoin:miter;stroke-miterlimit:10;stroke-opacity:1;stroke-dasharray:none"
   d="m 157.623,585.204 27.086,0" /><path
   inkscape:connector-curvature="0"
   id="path3341"
   style="fill:#000000;fill-opacity:1;fill-rule:evenodd;stroke:none"
   d="m 177.654,583.755 6.047,1.449 -6.047,1.512 0,-2.961" /><path
   inkscape:connector-curvature="0"
   id="path3343"
   style="fill:none;stroke:#000000;stroke-width:0.47242498;stroke-linecap:butt;stroke-linejoin:miter;stroke-miterlimit:10;stroke-opacity:1;stroke-dasharray:none"
   d="m 177.654,583.755 6.047,1.449 -6.047,1.512 0,-2.961 z" /><path
   inkscape:connector-curvature="0"
   id="path3353"
   style="fill:none;stroke:#000000;stroke-width:0.47242498;stroke-linecap:butt;stroke-linejoin:miter;stroke-miterlimit:10;stroke-opacity:1;stroke-dasharray:none"
   d="m 157.623,571.661 27.086,0" /><path
   inkscape:connector-curvature="0"
   id="path3363"
   style="fill:#000000;fill-opacity:1;fill-rule:evenodd;stroke:none"
   d="m 177.654,570.212 6.047,1.449 -6.047,1.512 0,-2.961" /><path
   inkscape:connector-curvature="0"
   id="path3365"
   style="fill:none;stroke:#000000;stroke-width:0.47242498;stroke-linecap:butt;stroke-linejoin:miter;stroke-miterlimit:10;stroke-opacity:1;stroke-dasharray:none"
   d="m 177.654,570.212 6.047,1.449 -6.047,1.512 0,-2.961 z" /><path
   inkscape:connector-curvature="0"
   id="path3375"
   style="fill:none;stroke:#000000;stroke-width:0.47242498;stroke-linecap:butt;stroke-linejoin:miter;stroke-miterlimit:10;stroke-opacity:1;stroke-dasharray:none"
   d="m 157.623,558.055 27.086,0" /><path
   inkscape:connector-curvature="0"
   id="path3385"
   style="fill:#000000;fill-opacity:1;fill-rule:evenodd;stroke:none"
   d="m 177.654,556.607 6.047,1.448 -6.047,1.512 0,-2.96" /><path
   inkscape:connector-curvature="0"
   id="path3387"
   style="fill:none;stroke:#000000;stroke-width:0.47242498;stroke-linecap:butt;stroke-linejoin:miter;stroke-miterlimit:10;stroke-opacity:1;stroke-dasharray:none"
   d="m 177.654,556.607 6.047,1.448 -6.047,1.512 0,-2.96 z" /><path
   inkscape:connector-curvature="0"
   id="path3397"
   style="fill:none;stroke:#000000;stroke-width:0.47242498;stroke-linecap:butt;stroke-linejoin:miter;stroke-miterlimit:10;stroke-opacity:1;stroke-dasharray:none"
   d="m 157.623,544.512 27.086,0" /><path
   inkscape:connector-curvature="0"
   id="path3407"
   style="fill:#000000;fill-opacity:1;fill-rule:evenodd;stroke:none"
   d="m 177.654,543.064 6.047,1.448 -6.047,1.512 0,-2.96" /><path
   inkscape:connector-curvature="0"
   id="path3409"
   style="fill:none;stroke:#000000;stroke-width:0.47242498;stroke-linecap:butt;stroke-linejoin:miter;stroke-miterlimit:10;stroke-opacity:1;stroke-dasharray:none"
   d="m 177.654,543.064 6.047,1.448 -6.047,1.512 0,-2.96 z" /><path
   inkscape:connector-curvature="0"
   id="path3419"
   style="fill:none;stroke:#000000;stroke-width:0.47242498;stroke-linecap:butt;stroke-linejoin:miter;stroke-miterlimit:10;stroke-opacity:1;stroke-dasharray:none"
   d="m 157.623,530.97 27.086,0" /><path
   inkscape:connector-curvature="0"
   id="path3429"
   style="fill:#000000;fill-opacity:1;fill-rule:evenodd;stroke:none"
   d="m 177.654,529.521 6.047,1.449 -6.047,1.511 0,-2.96" /><path
   inkscape:connector-curvature="0"
   id="path3431"
   style="fill:none;stroke:#000000;stroke-width:0.47242498;stroke-linecap:butt;stroke-linejoin:miter;stroke-miterlimit:10;stroke-opacity:1;stroke-dasharray:none"
   d="m 177.654,529.521 6.047,1.449 -6.047,1.511 0,-2.96 z" /><path
   inkscape:connector-curvature="0"
   id="path3441"
   style="fill:none;stroke:#000000;stroke-width:0.47242498;stroke-linecap:butt;stroke-linejoin:miter;stroke-miterlimit:10;stroke-opacity:1;stroke-dasharray:none"
   d="m 157.623,517.427 27.086,0" /><path
   inkscape:connector-curvature="0"
   id="path3451"
   style="fill:#000000;fill-opacity:1;fill-rule:evenodd;stroke:none"
   d="m 177.654,515.978 6.047,1.449 -6.047,1.512 0,-2.961" /><path
   inkscape:connector-curvature="0"
   id="path3453"
   style="fill:none;stroke:#000000;stroke-width:0.47242498;stroke-linecap:butt;stroke-linejoin:miter;stroke-miterlimit:10;stroke-opacity:1;stroke-dasharray:none"
   d="m 177.654,515.978 6.047,1.449 -6.047,1.512 0,-2.961 z" /><path
   inkscape:connector-curvature="0"
   id="path3463"
   style="fill:none;stroke:#000000;stroke-width:0.47242498;stroke-linecap:butt;stroke-linejoin:miter;stroke-miterlimit:10;stroke-opacity:1;stroke-dasharray:none"
   d="m 157.623,503.884 27.086,0" /><path
   inkscape:connector-curvature="0"
   id="path3473"
   style="fill:#000000;fill-opacity:1;fill-rule:evenodd;stroke:none"
   d="m 177.654,502.435 6.047,1.449 -6.047,1.512 0,-2.961" /><path
   inkscape:connector-curvature="0"
   id="path3475"
   style="fill:none;stroke:#000000;stroke-width:0.47242498;stroke-linecap:butt;stroke-linejoin:miter;stroke-miterlimit:10;stroke-opacity:1;stroke-dasharray:none"
   d="m 177.654,502.435 6.047,1.449 -6.047,1.512 0,-2.961 z" /><path
   inkscape:connector-curvature="0"
   id="path3485"
   style="fill:none;stroke:#000000;stroke-width:0.47242498;stroke-linecap:butt;stroke-linejoin:miter;stroke-miterlimit:10;stroke-opacity:1;stroke-dasharray:none"
   d="m 157.623,490.341 27.086,0" /><path
   inkscape:connector-curvature="0"
   id="path3495"
   style="fill:#000000;fill-opacity:1;fill-rule:evenodd;stroke:none"
   d="m 177.654,488.892 6.047,1.449 -6.047,1.512 0,-2.961" /><path
   inkscape:connector-curvature="0"
   id="path3497"
   style="fill:none;stroke:#000000;stroke-width:0.47242498;stroke-linecap:butt;stroke-linejoin:miter;stroke-miterlimit:10;stroke-opacity:1;stroke-dasharray:none"
   d="m 177.654,488.892 6.047,1.449 -6.047,1.512 0,-2.961 z" /><path
   inkscape:connector-curvature="0"
   id="path3507"
   style="fill:none;stroke:#000000;stroke-width:0.47242498;stroke-linecap:butt;stroke-linejoin:miter;stroke-miterlimit:10;stroke-opacity:1;stroke-dasharray:none"
   d="m 157.623,476.798 27.086,0" /><path
   inkscape:connector-curvature="0"
   id="path3517"
   style="fill:#000000;fill-opacity:1;fill-rule:evenodd;stroke:none"
   d="m 177.654,475.349 6.047,1.449 -6.047,1.512 0,-2.961" /><path
   inkscape:connector-curvature="0"
   id="path3519"
   style="fill:none;stroke:#000000;stroke-width:0.47242498;stroke-linecap:butt;stroke-linejoin:miter;stroke-miterlimit:10;stroke-opacity:1;stroke-dasharray:none"
   d="m 177.654,475.349 6.047,1.449 -6.047,1.512 0,-2.961 z" /><path
   inkscape:connector-curvature="0"
   id="path3529"
   style="fill:none;stroke:#000000;stroke-width:0.47242498;stroke-linecap:butt;stroke-linejoin:miter;stroke-miterlimit:10;stroke-opacity:1;stroke-dasharray:none"
   d="m 157.623,463.255 27.086,0" /><path
   inkscape:connector-curvature="0"
   id="path3539"
   style="fill:#000000;fill-opacity:1;fill-rule:evenodd;stroke:none"
   d="m 177.654,461.807 6.047,1.448 -6.047,1.512 0,-2.96" /><path
   inkscape:connector-curvature="0"
   id="path3541"
   style="fill:none;stroke:#000000;stroke-width:0.47242498;stroke-linecap:butt;stroke-linejoin:miter;stroke-miterlimit:10;stroke-opacity:1;stroke-dasharray:none"
   d="m 177.654,461.807 6.047,1.448 -6.047,1.512 0,-2.96 z" /><path
   inkscape:connector-curvature="0"
   id="path3543"
   style="fill:none;stroke:#000000;stroke-width:0.47242498;stroke-linecap:butt;stroke-linejoin:miter;stroke-miterlimit:10;stroke-opacity:1;stroke-dasharray:none"
   d="m 307.35,578.401 c 0,-16.629 -13.452,-30.109 -30.046,-30.109 -16.594,0 -30.046,13.48 -30.046,30.109 0,16.629 13.452,30.109 30.046,30.109 16.594,0 30.046,-13.48 30.046,-30.109 z" /><path
   inkscape:connector-curvature="0"
   id="path3545"
   style="fill:none;stroke:#000000;stroke-width:0.47242498;stroke-linecap:butt;stroke-linejoin:miter;stroke-miterlimit:10;stroke-opacity:1;stroke-dasharray:none"
   d="m 156.867,458.027 240.748,0 0,240.811 -240.748,0 0,-240.811 z" /><path
   inkscape:connector-curvature="0"
   id="path3555"
   style="fill:none;stroke:#000000;stroke-width:0.47242498;stroke-linecap:butt;stroke-linejoin:miter;stroke-miterlimit:10;stroke-opacity:1;stroke-dasharray:none"
   d="m 155.355,447.445 242.26,0" /><path
   inkscape:connector-curvature="0"
   id="path3565"
   style="fill:#000000;fill-opacity:1;fill-rule:evenodd;stroke:none"
   d="m 162.347,448.957 -5.984,-1.512 5.984,-1.449 0,2.961" /><path
   inkscape:connector-curvature="0"
   id="path3567"
   style="fill:none;stroke:#000000;stroke-width:0.47242498;stroke-linecap:butt;stroke-linejoin:miter;stroke-miterlimit:10;stroke-opacity:1;stroke-dasharray:none"
   d="m 162.347,448.957 -5.984,-1.512 5.984,-1.449 0,2.961 z" /><path
   inkscape:connector-curvature="0"
   id="path3569"
   style="fill:#000000;fill-opacity:1;fill-rule:evenodd;stroke:none"
   d="m 390.56,445.996 6.047,1.449 -6.047,1.512 0,-2.961" /><path
   inkscape:connector-curvature="0"
   id="path3571"
   style="fill:none;stroke:#000000;stroke-width:0.47242498;stroke-linecap:butt;stroke-linejoin:miter;stroke-miterlimit:10;stroke-opacity:1;stroke-dasharray:none"
   d="m 390.56,445.996 6.047,1.449 -6.047,1.512 0,-2.961 z" /><path
   inkscape:connector-curvature="0"
   id="path3581"
   style="fill:none;stroke:#000000;stroke-width:0.47242498;stroke-linecap:butt;stroke-linejoin:miter;stroke-miterlimit:10;stroke-opacity:1;stroke-dasharray:none"
   d="m 410.402,698.838 0,-240.055" /><path
   inkscape:connector-curvature="0"
   id="path3591"
   style="fill:#000000;fill-opacity:1;fill-rule:evenodd;stroke:none"
   d="m 411.851,691.846 -1.449,5.984 -1.512,-5.984 2.961,0" /><path
   inkscape:connector-curvature="0"
   id="path3593"
   style="fill:none;stroke:#000000;stroke-width:0.47242498;stroke-linecap:butt;stroke-linejoin:miter;stroke-miterlimit:10;stroke-opacity:1;stroke-dasharray:none"
   d="m 411.851,691.846 -1.449,5.984 -1.512,-5.984 2.961,0 z" /><path
   inkscape:connector-curvature="0"
   id="path3595"
   style="fill:#000000;fill-opacity:1;fill-rule:evenodd;stroke:none"
   d="m 408.89,465.838 1.512,-6.047 1.449,6.047 -2.961,0" /><path
   inkscape:connector-curvature="0"
   id="path3597"
   style="fill:none;stroke:#000000;stroke-width:0.47242498;stroke-linecap:butt;stroke-linejoin:miter;stroke-miterlimit:10;stroke-opacity:1;stroke-dasharray:none"
   d="m 408.89,465.838 1.512,-6.047 1.449,6.047 -2.961,0 z" /><path
   inkscape:connector-curvature="0"
   id="path3607"
   style="fill:none;stroke:#000000;stroke-width:0.47242498;stroke-linecap:butt;stroke-linejoin:miter;stroke-miterlimit:10;stroke-opacity:1;stroke-dasharray:none"
   d="m 277.304,625.832 0,-47.431 49.573,0" /><path
   inkscape:connector-curvature="0"
   id="path3617"
   style="fill:#000000;fill-opacity:1;fill-rule:evenodd;stroke:none"
   d="m 278.753,618.841 -1.449,5.984 -1.512,-5.984 2.961,0" /><path
   inkscape:connector-curvature="0"
   id="path3619"
   style="fill:none;stroke:#000000;stroke-width:0.47242498;stroke-linecap:butt;stroke-linejoin:miter;stroke-miterlimit:10;stroke-opacity:1;stroke-dasharray:none"
   d="m 278.753,618.841 -1.449,5.984 -1.512,-5.984 2.961,0 z" /><path
   inkscape:connector-curvature="0"
   id="path3621"
   style="fill:#000000;fill-opacity:1;fill-rule:evenodd;stroke:none"
   d="m 319.822,576.952 6.047,1.449 -6.047,1.512 0,-2.961" /><path
   inkscape:connector-curvature="0"
   id="path3623"
   style="fill:none;stroke:#000000;stroke-width:0.47242498;stroke-linecap:butt;stroke-linejoin:miter;stroke-miterlimit:10;stroke-opacity:1;stroke-dasharray:none"
   d="m 319.822,576.952 6.047,1.449 -6.047,1.512 0,-2.961 z" /><path
   inkscape:connector-curvature="0"
   id="path3625"
   style="fill:none;stroke:#000000;stroke-width:0.47242498;stroke-linecap:butt;stroke-linejoin:miter;stroke-miterlimit:10;stroke-opacity:1;stroke-dasharray:0.94485, 2.83455;stroke-dashoffset:2.83455"
   d="m 156.867,578.401 240.748,0" /><text
   transform="scale(1,-1)"
   id="text3629"
   x="188.433"
   y="-648.48999"><tspan
     style="font-size:11.95510006px;font-variant:normal;font-weight:normal;writing-mode:lr-tb;fill:#000000;fill-opacity:1;fill-rule:nonzero;stroke:none;font-family:cmmi12;-inkscape-font-specification:cmmi12"
     x="188.433"
     y="-648.48999"
     id="tspan3631">U</tspan></text>

<text
   transform="scale(1,-1)"
   id="text3633"
   x="196.38026"
   y="-646.69897"><tspan
     style="font-size:7.97010994px;font-variant:normal;font-weight:normal;writing-mode:lr-tb;fill:#000000;fill-opacity:1;fill-rule:nonzero;stroke:none;font-family:cmmi8;-inkscape-font-specification:cmmi8"
     x="196.38026"
     y="-646.69897"
     id="tspan3635">x</tspan></text>

<text
   transform="scale(1,-1)"
   id="text3637"
   x="204.96622"
   y="-648.48999"><tspan
     style="font-size:11.95510006px;font-variant:normal;font-weight:normal;writing-mode:lr-tb;fill:#000000;fill-opacity:1;fill-rule:nonzero;stroke:none;font-family:cmr12;-inkscape-font-specification:cmr12"
     x="204.96622 217.39505"
     y="-648.48999"
     sodipodi:role="line"
     id="tspan3639">=1</tspan></text>

<text
   transform="scale(1,-1)"
   id="text3641"
   x="223.24512"
   y="-648.48999"><tspan
     style="font-size:11.95510006px;font-variant:normal;font-weight:normal;writing-mode:lr-tb;fill:#000000;fill-opacity:1;fill-rule:nonzero;stroke:none;font-family:cmmi12;-inkscape-font-specification:cmmi12"
     x="223.24512"
     y="-648.48999"
     id="tspan3643">:</tspan></text>

<text
   transform="scale(1,-1)"
   id="text3645"
   x="226.49394"
   y="-648.48999"><tspan
     style="font-size:11.95510006px;font-variant:normal;font-weight:normal;writing-mode:lr-tb;fill:#000000;fill-opacity:1;fill-rule:nonzero;stroke:none;font-family:cmr12;-inkscape-font-specification:cmr12"
     x="226.49394 236.25874"
     y="-648.48999"
     sodipodi:role="line"
     id="tspan3647">0m</tspan></text>

<text
   transform="scale(1,-1)"
   id="text3649"
   x="246.01463"
   y="-648.48999"><tspan
     style="font-size:11.95510006px;font-variant:normal;font-weight:normal;writing-mode:lr-tb;fill:#000000;fill-opacity:1;fill-rule:nonzero;stroke:none;font-family:cmmi12;-inkscape-font-specification:cmmi12"
     x="246.01463"
     y="-648.48999"
     id="tspan3651">=</tspan></text>

<text
   transform="scale(1,-1)"
   id="text3653"
   x="251.86464"
   y="-648.48999"><tspan
     style="font-size:11.95510006px;font-variant:normal;font-weight:normal;writing-mode:lr-tb;fill:#000000;fill-opacity:1;fill-rule:nonzero;stroke:none;font-family:cmr12;-inkscape-font-specification:cmr12"
     x="251.86464"
     y="-648.48999"
     id="tspan3655">s</tspan></text>

<text
   transform="scale(1,-1)"
   id="text3657"
   x="344.25873"
   y="-648.48999"><tspan
     style="font-size:11.95510006px;font-variant:normal;font-weight:normal;writing-mode:lr-tb;fill:#000000;fill-opacity:1;fill-rule:nonzero;stroke:none;font-family:cmmi12;-inkscape-font-specification:cmmi12"
     x="344.25873"
     y="-648.48999"
     id="tspan3659">p</tspan></text>

<text
   transform="scale(1,-1)"
   id="text3661"
   x="353.45679"
   y="-648.48999"><tspan
     style="font-size:11.95510006px;font-variant:normal;font-weight:normal;writing-mode:lr-tb;fill:#000000;fill-opacity:1;fill-rule:nonzero;stroke:none;font-family:cmr12;-inkscape-font-specification:cmr12"
     x="353.45679 365.87665 375.63248 382.13943 387.98941"
     y="-648.48999"
     sodipodi:role="line"
     id="tspan3663">=0bar</tspan></text>

<text
   transform="scale(1,-1)"
   id="text3667"
   x="340.254"
   y="-581.341"><tspan
     style="font-size:11.95510006px;font-variant:normal;font-weight:normal;writing-mode:lr-tb;fill:#231f20;fill-opacity:1;fill-rule:nonzero;stroke:none;font-family:cmr12;-inkscape-font-specification:cmr12"
     x="340.254 344.87097 351.04495 360.8009 370.55685 375.75885 380.31281 384.86682"
     y="-581.341"
     sodipodi:role="line"
     id="tspan3669">symmetry</tspan><tspan
     style="font-size:11.95510006px;font-variant:normal;font-weight:normal;writing-mode:lr-tb;fill:#231f20;fill-opacity:1;fill-rule:nonzero;stroke:none;font-family:cmr12;-inkscape-font-specification:cmr12"
     x="312.4079 318.25787 321.50687 331.27188"
     y="-532.45312"
     sodipodi:role="line"
     id="tspan3671">0.5m</tspan><tspan
     style="font-size:11.95510006px;font-variant:normal;font-weight:normal;writing-mode:lr-tb;fill:#231f20;fill-opacity:1;fill-rule:nonzero;stroke:none;font-family:cmr12;-inkscape-font-specification:cmr12"
     x="269.577 275.42697 278.67596 288.43201"
     y="-433.048"
     sodipodi:role="line"
     id="tspan3673">4.0m</tspan><tspan
     style="font-size:11.95510006px;font-variant:normal;font-weight:normal;writing-mode:lr-tb;fill:#231f20;fill-opacity:1;fill-rule:nonzero;stroke:none;font-family:cmr12;-inkscape-font-specification:cmr12"
     x="416.23199 422.082 425.33102 435.08707"
     y="-575.35602"
     sodipodi:role="line"
     id="tspan3675">4.0m</tspan></text>

<text
   transform="scale(1,-1)"
   id="text3677"
   x="316.94409"
   y="-568.55206"><tspan
     style="font-size:11.95510006px;font-variant:normal;font-weight:normal;writing-mode:lr-tb;fill:#231f20;fill-opacity:1;fill-rule:nonzero;stroke:none;font-family:cmti12;-inkscape-font-specification:cmti12"
     x="316.94409"
     y="-568.55206"
     id="tspan3679">x</tspan><tspan
     style="font-size:11.95510006px;font-variant:normal;font-weight:normal;writing-mode:lr-tb;fill:#231f20;fill-opacity:1;fill-rule:nonzero;stroke:none;font-family:cmti12;-inkscape-font-specification:cmti12"
     x="280.85391"
     y="-618.18732"
     id="tspan3681">y</tspan></text>

<text
   y="-567.79626"
   x="270.33279"
   id="text5662"
   transform="scale(1,-1)"><tspan
     id="tspan5664"
     y="-567.79626"
     x="270.33279"
     style="font-size:11.95510006px;font-variant:normal;font-weight:normal;writing-mode:lr-tb;fill:#231f20;fill-opacity:1;fill-rule:nonzero;stroke:none;font-family:cmr12;-inkscape-font-specification:cmr12">0</tspan><tspan
     id="tspan5666"
     sodipodi:role="line"
     y="-552.85242"
     x="270.33279"
     style="font-size:11.95510006px;font-variant:normal;font-weight:normal;writing-mode:lr-tb;fill:#231f20;fill-opacity:1;fill-rule:nonzero;stroke:none;font-family:cmr12;-inkscape-font-specification:cmr12" /></text>

</g></svg>