<?xml version="1.0" encoding="UTF-8" standalone="no"?>
<!-- Created with Inkscape (http://www.inkscape.org/) -->

<svg
   xmlns:dc="http://purl.org/dc/elements/1.1/"
   xmlns:cc="http://creativecommons.org/ns#"
   xmlns:rdf="http://www.w3.org/1999/02/22-rdf-syntax-ns#"
   xmlns:svg="http://www.w3.org/2000/svg"
   xmlns="http://www.w3.org/2000/svg"
   xmlns:sodipodi="http://sodipodi.sourceforge.net/DTD/sodipodi-0.dtd"
   xmlns:inkscape="http://www.inkscape.org/namespaces/inkscape"
   id="svg6447"
   version="1.1"
   inkscape:version="0.48.1 r9760"
   width="379.10486"
   height="191.62068"
   xml:space="preserve"
   sodipodi:docname="fig-3-7.svg"><metadata
     id="metadata6453"><rdf:RDF><cc:Work
         rdf:about=""><dc:format>image/svg+xml</dc:format><dc:type
           rdf:resource="http://purl.org/dc/dcmitype/StillImage" /><dc:title /></cc:Work></rdf:RDF></metadata><defs
     id="defs6451"><clipPath
       clipPathUnits="userSpaceOnUse"
       id="clipPath6475"><path
         d="m 1317.69,7866.4 0,-1530 3050,0 0,1530 -3050,0 z"
         id="path6477"
         inkscape:connector-curvature="0" /></clipPath><clipPath
       clipPathUnits="userSpaceOnUse"
       id="clipPath6485"><path
         d="m 1317.69,7866.4 0,-1530 3050,0 0,1530 -3050,0 z m 159.3,-1081.25 37.8,0 0.63,95.12 -18.9,-75.59 -18.9,75.59 -0.63,-95.12 z m 37.8,897.61 -37.8,0 0.63,-95.75 18.9,75.59 18.9,-75.59 -0.63,95.75 z"
         clip-rule="evenodd"
         id="path6487"
         inkscape:connector-curvature="0" /></clipPath><clipPath
       clipPathUnits="userSpaceOnUse"
       id="clipPath6495"><path
         d="m 1317.69,7866.4 0,-1530 3050,0 0,1530 -3050,0 z"
         id="path6497"
         inkscape:connector-curvature="0" /></clipPath><clipPath
       clipPathUnits="userSpaceOnUse"
       id="clipPath6513"><path
         d="m 1317.69,7866.4 0,-1530 3050,0 0,1530 -3050,0 z"
         id="path6515"
         inkscape:connector-curvature="0" /></clipPath><clipPath
       clipPathUnits="userSpaceOnUse"
       id="clipPath6519"><path
         d="m 1317.69,7866.4 0,-1530 3050,0 0,1530 -3050,0 z m 3050.54,-1289.11 0,37.79 -95.11,0 75.59,-18.9 -75.59,-18.89 95.11,0 z m -2286.53,37.79 0,-37.79 95.11,0 -75.59,18.89 75.59,18.9 -95.11,0 z"
         clip-rule="evenodd"
         id="path6521"
         inkscape:connector-curvature="0" /></clipPath><clipPath
       clipPathUnits="userSpaceOnUse"
       id="clipPath6529"><path
         d="m 1317.69,7866.4 0,-1530 3050,0 0,1530 -3050,0 z"
         id="path6531"
         inkscape:connector-curvature="0" /></clipPath><clipPath
       clipPathUnits="userSpaceOnUse"
       id="clipPath6545"><path
         d="m 1317.69,7866.4 0,-1530 3050,0 0,1530 -3050,0 z m 782.9,-1289.11 0,37.79 -95.11,0 75.59,-18.9 -75.59,-18.89 95.11,0 z m -557.46,37.79 0,-37.79 95.75,0 -75.59,18.89 75.59,18.9 -95.75,0 z"
         clip-rule="evenodd"
         id="path6547"
         inkscape:connector-curvature="0" /></clipPath><clipPath
       clipPathUnits="userSpaceOnUse"
       id="clipPath6555"><path
         d="m 1317.69,7866.4 0,-1530 3050,0 0,1530 -3050,0 z"
         id="path6557"
         inkscape:connector-curvature="0" /></clipPath><clipPath
       clipPathUnits="userSpaceOnUse"
       id="clipPath6571"><path
         d="m 1317.69,7866.4 0,-1530 3050,0 0,1530 -3050,0 z m 877.39,-1062.35 -37.79,0 0,-95.12 18.89,75.59 18.9,-75.59 0,95.12 z"
         clip-rule="evenodd"
         id="path6573"
         inkscape:connector-curvature="0" /></clipPath><clipPath
       clipPathUnits="userSpaceOnUse"
       id="clipPath6581"><path
         d="m 1317.69,7866.4 0,-1530 3050,0 0,1530 -3050,0 z"
         id="path6583"
         inkscape:connector-curvature="0" /></clipPath><clipPath
       clipPathUnits="userSpaceOnUse"
       id="clipPath6593"><path
         d="m 1317.69,7866.4 0,-1530 3050,0 0,1530 -3050,0 z m 839.6,-854.49 37.79,0 0,95.12 -18.9,-75.59 -18.89,75.59 0,-95.12 z"
         clip-rule="evenodd"
         id="path6595"
         inkscape:connector-curvature="0" /></clipPath><clipPath
       clipPathUnits="userSpaceOnUse"
       id="clipPath6603"><path
         d="m 1317.69,7866.4 0,-1530 3050,0 0,1530 -3050,0 z"
         id="path6605"
         inkscape:connector-curvature="0" /></clipPath><clipPath
       clipPathUnits="userSpaceOnUse"
       id="clipPath6615"><path
         d="m 1317.69,7866.4 0,-1530 3050,0 0,1530 -3050,0 z m 556.14,-1090.7 0,37.8 -95.12,0 75.59,-18.9 -75.59,-18.9 95.12,0 z"
         clip-rule="evenodd"
         id="path6617"
         inkscape:connector-curvature="0" /></clipPath><clipPath
       clipPathUnits="userSpaceOnUse"
       id="clipPath6625"><path
         d="m 1317.69,7866.4 0,-1530 3050,0 0,1530 -3050,0 z"
         id="path6627"
         inkscape:connector-curvature="0" /></clipPath><clipPath
       clipPathUnits="userSpaceOnUse"
       id="clipPath6637"><path
         d="m 1317.69,7866.4 0,-1530 3050,0 0,1530 -3050,0 z m 253.79,-807.24 -37.8,0 0.63,-95.12 18.9,75.59 18.9,-75.59 -0.63,95.12 z"
         clip-rule="evenodd"
         id="path6639"
         inkscape:connector-curvature="0" /></clipPath><clipPath
       clipPathUnits="userSpaceOnUse"
       id="clipPath6647"><path
         d="m 1317.69,7866.4 0,-1530 3050,0 0,1530 -3050,0 z"
         id="path6649"
         inkscape:connector-curvature="0" /></clipPath></defs><sodipodi:namedview
     pagecolor="#ffffff"
     bordercolor="#666666"
     borderopacity="1"
     objecttolerance="10"
     gridtolerance="10"
     guidetolerance="10"
     inkscape:pageopacity="0"
     inkscape:pageshadow="2"
     inkscape:window-width="1680"
     inkscape:window-height="933"
     id="namedview6449"
     showgrid="false"
     inkscape:zoom="1.9914489"
     inkscape:cx="179.7602"
     inkscape:cy="70.720055"
     inkscape:window-x="0"
     inkscape:window-y="0"
     inkscape:window-maximized="0"
     inkscape:current-layer="g6455"
     fit-margin-top="0"
     fit-margin-left="0"
     fit-margin-right="0"
     fit-margin-bottom="0"
     inkscape:snap-bbox="true"
     inkscape:bbox-paths="true"
     inkscape:bbox-nodes="true"
     inkscape:snap-bbox-edge-midpoints="true"
     inkscape:snap-bbox-midpoints="true" /><g
     id="g6455"
     inkscape:groupmode="layer"
     inkscape:label="ProgrammersGuide"
     transform="matrix(1.25,0,0,-1.25,-166.03915,981.27444)"><path
   inkscape:connector-curvature="0"
   id="path6479"
   style="fill:none;stroke:#000000;stroke-width:0.47242498;stroke-linecap:butt;stroke-linejoin:miter;stroke-miterlimit:10;stroke-opacity:1;stroke-dasharray:none"
   d="m 209.114,679.46 -53.856,0 0,87.871 280.621,0 0,-65.195 -226.765,0 0,-22.676 z" /><path
   inkscape:connector-curvature="0"
   id="path6489"
   style="fill:none;stroke:#000000;stroke-width:0.47242498;stroke-linecap:butt;stroke-linejoin:miter;stroke-miterlimit:10;stroke-opacity:1;stroke-dasharray:none"
   d="m 149.589,767.331 0,-87.871" /><path
   inkscape:connector-curvature="0"
   id="path6499"
   style="fill:#000000;fill-opacity:1;fill-rule:evenodd;stroke:none"
   d="m 151.542,758.701 -1.89,7.559 -1.89,-7.559 3.78,0" /><path
   inkscape:connector-curvature="0"
   id="path6501"
   style="fill:none;stroke:#000000;stroke-width:0.47242498;stroke-linecap:butt;stroke-linejoin:miter;stroke-miterlimit:10;stroke-opacity:1;stroke-dasharray:none"
   d="m 151.542,758.701 -1.89,7.559 -1.89,-7.559 3.78,0 z" /><path
   inkscape:connector-curvature="0"
   id="path6503"
   style="fill:#000000;fill-opacity:1;fill-rule:evenodd;stroke:none"
   d="m 147.762,688.027 1.89,-7.559 1.89,7.559 -3.78,0" /><path
   inkscape:connector-curvature="0"
   id="path6505"
   style="fill:none;stroke:#000000;stroke-width:0.47242498;stroke-linecap:butt;stroke-linejoin:miter;stroke-miterlimit:10;stroke-opacity:1;stroke-dasharray:none"
   d="m 147.762,688.027 1.89,-7.559 1.89,7.559 -3.78,0 z" /><path
   inkscape:connector-curvature="0"
   id="path6507"
   style="fill:none;stroke:#000000;stroke-width:0.47242498;stroke-linecap:butt;stroke-linejoin:miter;stroke-miterlimit:10;stroke-opacity:1;stroke-dasharray:none"
   d="m 155.951,742.828 11.338,29.92" /><path
   d="m 209.114,659.618 226.765,0"
   style="fill:none;stroke:#000000;stroke-width:0.47242498;stroke-linecap:butt;stroke-linejoin:miter;stroke-miterlimit:10;stroke-opacity:1;stroke-dasharray:none"
   id="path6523"
   inkscape:connector-curvature="0" /><path
   inkscape:connector-curvature="0"
   id="path6533"
   style="fill:#000000;fill-opacity:1;fill-rule:evenodd;stroke:none"
   d="m 217.681,661.508 -7.559,-1.89 7.559,-1.889 0,3.779" /><path
   inkscape:connector-curvature="0"
   id="path6535"
   style="fill:none;stroke:#000000;stroke-width:0.47242498;stroke-linecap:butt;stroke-linejoin:miter;stroke-miterlimit:10;stroke-opacity:1;stroke-dasharray:none"
   d="m 217.681,661.508 -7.559,-1.89 7.559,-1.889 0,3.779 z" /><path
   inkscape:connector-curvature="0"
   id="path6537"
   style="fill:#000000;fill-opacity:1;fill-rule:evenodd;stroke:none"
   d="m 427.312,657.729 7.559,1.889 -7.559,1.89 0,-3.779" /><path
   inkscape:connector-curvature="0"
   id="path6539"
   style="fill:none;stroke:#000000;stroke-width:0.47242498;stroke-linecap:butt;stroke-linejoin:miter;stroke-miterlimit:10;stroke-opacity:1;stroke-dasharray:none"
   d="m 427.312,657.729 7.559,1.889 -7.559,1.89 0,-3.779 z" /><path
   inkscape:connector-curvature="0"
   id="path6549"
   style="fill:none;stroke:#000000;stroke-width:0.47242498;stroke-linecap:butt;stroke-linejoin:miter;stroke-miterlimit:10;stroke-opacity:1;stroke-dasharray:none"
   d="m 155.258,659.618 53.856,0" /><path
   inkscape:connector-curvature="0"
   id="path6559"
   style="fill:#000000;fill-opacity:1;fill-rule:evenodd;stroke:none"
   d="m 163.888,661.508 -7.559,-1.89 7.559,-1.889 0,3.779" /><path
   inkscape:connector-curvature="0"
   id="path6561"
   style="fill:none;stroke:#000000;stroke-width:0.47242498;stroke-linecap:butt;stroke-linejoin:miter;stroke-miterlimit:10;stroke-opacity:1;stroke-dasharray:none"
   d="m 163.888,661.508 -7.559,-1.89 7.559,-1.889 0,3.779 z" /><path
   inkscape:connector-curvature="0"
   id="path6563"
   style="fill:#000000;fill-opacity:1;fill-rule:evenodd;stroke:none"
   d="m 200.548,657.729 7.559,1.889 -7.559,1.89 0,-3.779" /><path
   inkscape:connector-curvature="0"
   id="path6565"
   style="fill:none;stroke:#000000;stroke-width:0.47242498;stroke-linecap:butt;stroke-linejoin:miter;stroke-miterlimit:10;stroke-opacity:1;stroke-dasharray:none"
   d="m 200.548,657.729 7.559,1.889 -7.559,1.89 0,-3.779 z" /><path
   inkscape:connector-curvature="0"
   id="path6575"
   style="fill:none;stroke:#000000;stroke-width:0.47242498;stroke-linecap:butt;stroke-linejoin:miter;stroke-miterlimit:10;stroke-opacity:1;stroke-dasharray:none"
   d="m 217.618,679.46 0,-14.173" /><path
   inkscape:connector-curvature="0"
   id="path6585"
   style="fill:#000000;fill-opacity:1;fill-rule:evenodd;stroke:none"
   d="m 219.508,670.893 -1.89,7.559 -1.889,-7.559 3.779,0" /><path
   inkscape:connector-curvature="0"
   id="path6587"
   style="fill:none;stroke:#000000;stroke-width:0.47242498;stroke-linecap:butt;stroke-linejoin:miter;stroke-miterlimit:10;stroke-opacity:1;stroke-dasharray:none"
   d="m 219.508,670.893 -1.89,7.559 -1.889,-7.559 3.779,0 z" /><path
   inkscape:connector-curvature="0"
   id="path6597"
   style="fill:none;stroke:#000000;stroke-width:0.47242498;stroke-linecap:butt;stroke-linejoin:miter;stroke-miterlimit:10;stroke-opacity:1;stroke-dasharray:none"
   d="m 217.618,702.136 0,25.511" /><path
   inkscape:connector-curvature="0"
   id="path6607"
   style="fill:#000000;fill-opacity:1;fill-rule:evenodd;stroke:none"
   d="m 215.729,710.703 1.889,-7.559 1.89,7.559 -3.779,0" /><path
   inkscape:connector-curvature="0"
   id="path6609"
   style="fill:none;stroke:#000000;stroke-width:0.47242498;stroke-linecap:butt;stroke-linejoin:miter;stroke-miterlimit:10;stroke-opacity:1;stroke-dasharray:none"
   d="m 215.729,710.703 1.889,-7.559 1.89,7.559 -3.779,0 z" /><path
   inkscape:connector-curvature="0"
   id="path6619"
   style="fill:none;stroke:#000000;stroke-width:0.94484997;stroke-linecap:butt;stroke-linejoin:miter;stroke-miterlimit:10;stroke-opacity:1;stroke-dasharray:none"
   d="m 155.258,679.46 31.18,0" /><path
   inkscape:connector-curvature="0"
   id="path6629"
   style="fill:#000000;fill-opacity:1;fill-rule:evenodd;stroke:none"
   d="m 177.871,677.57 7.559,1.89 -7.559,1.89 0,-3.78" /><path
   inkscape:connector-curvature="0"
   id="path6631"
   style="fill:none;stroke:#000000;stroke-width:0.47242498;stroke-linecap:butt;stroke-linejoin:miter;stroke-miterlimit:10;stroke-opacity:1;stroke-dasharray:none"
   d="m 177.871,677.57 7.559,1.89 -7.559,1.89 0,-3.78 z" /><path
   inkscape:connector-curvature="0"
   id="path6641"
   style="fill:none;stroke:#000000;stroke-width:0.94484997;stroke-linecap:butt;stroke-linejoin:miter;stroke-miterlimit:10;stroke-opacity:1;stroke-dasharray:none"
   d="m 155.258,679.46 0,25.511" /><path
   inkscape:connector-curvature="0"
   id="path6651"
   style="fill:#000000;fill-opacity:1;fill-rule:evenodd;stroke:none"
   d="m 157.211,696.404 -1.89,7.559 -1.89,-7.559 3.78,0" /><path
   inkscape:connector-curvature="0"
   id="path6653"
   style="fill:none;stroke:#000000;stroke-width:0.47242498;stroke-linecap:butt;stroke-linejoin:miter;stroke-miterlimit:10;stroke-opacity:1;stroke-dasharray:none"
   d="m 157.211,696.404 -1.89,7.559 -1.89,-7.559 3.78,0 z" /><text
   transform="scale(1,-1)"
   id="text6657"
   x="160.11"
   y="-693.16602"><tspan
     style="font-size:11.95510006px;font-variant:normal;font-weight:normal;writing-mode:lr-tb;fill:#000000;fill-opacity:1;fill-rule:nonzero;stroke:none;font-family:cmmi12;-inkscape-font-specification:cmmi12"
     x="160.11"
     y="-693.16602"
     id="tspan6659">y</tspan></text>



<text
   transform="scale(1,-1)"
   id="text6667"
   x="186.63271"
   y="-775.3808"><tspan
     style="font-size:11.95510006px;font-variant:normal;font-weight:normal;writing-mode:lr-tb;fill:#000000;fill-opacity:1;fill-rule:nonzero;stroke:none;font-family:cmmi12;-inkscape-font-specification:cmmi12"
     x="186.63271"
     y="-775.3808"
     id="tspan6669">U</tspan></text>


<text
   transform="scale(1,-1)"
   id="text6671"
   x="194.57997"
   y="-773.58978"><tspan
     style="font-size:7.97010994px;font-variant:normal;font-weight:normal;writing-mode:lr-tb;fill:#000000;fill-opacity:1;fill-rule:nonzero;stroke:none;font-family:cmmi8;-inkscape-font-specification:cmmi8"
     x="194.57997"
     y="-773.58978"
     id="tspan6673">x</tspan></text>


<text
   transform="scale(1,-1)"
   id="text6675"
   x="203.16591"
   y="-775.3808"><tspan
     style="font-size:11.95510006px;font-variant:normal;font-weight:normal;writing-mode:lr-tb;fill:#000000;fill-opacity:1;fill-rule:nonzero;stroke:none;font-family:cmr12;-inkscape-font-specification:cmr12"
     x="203.16591 215.59476 226.32271 232.17268 237.05052 247.45438 253.30435"
     y="-775.3808"
     sodipodi:role="line"
     id="tspan6677">=Mach3,</tspan></text>


<text
   transform="scale(1,-1)"
   id="text6679"
   x="260.45972"
   y="-775.3808"><tspan
     style="font-size:11.95510006px;font-variant:normal;font-weight:normal;writing-mode:lr-tb;fill:#000000;fill-opacity:1;fill-rule:nonzero;stroke:none;font-family:cmmi12;-inkscape-font-specification:cmmi12"
     x="260.45972"
     y="-775.3808"
     id="tspan6681">p</tspan></text>


<text
   transform="scale(1,-1)"
   id="text6683"
   x="269.65775"
   y="-775.3808"><tspan
     style="font-size:11.95510006px;font-variant:normal;font-weight:normal;writing-mode:lr-tb;fill:#000000;fill-opacity:1;fill-rule:nonzero;stroke:none;font-family:cmr12;-inkscape-font-specification:cmr12"
     x="269.65775 282.08661 291.84241"
     y="-775.3808"
     sodipodi:role="line"
     id="tspan6685">=1N</tspan></text>


<text
   transform="scale(1,-1)"
   id="text6687"
   x="300.61755"
   y="-775.3808"><tspan
     style="font-size:11.95510006px;font-variant:normal;font-weight:normal;writing-mode:lr-tb;fill:#000000;fill-opacity:1;fill-rule:nonzero;stroke:none;font-family:cmmi12;-inkscape-font-specification:cmmi12"
     x="300.61755"
     y="-775.3808"
     id="tspan6689">=</tspan></text>


<text
   transform="scale(1,-1)"
   id="text6691"
   x="306.46756"
   y="-775.3808"><tspan
     style="font-size:11.95510006px;font-variant:normal;font-weight:normal;writing-mode:lr-tb;fill:#000000;fill-opacity:1;fill-rule:nonzero;stroke:none;font-family:cmr12;-inkscape-font-specification:cmr12"
     x="306.46756"
     y="-775.3808"
     id="tspan6693">m</tspan></text>


<text
   transform="scale(1,-1)"
   id="text6695"
   x="316.22382"
   y="-779.71912"><tspan
     style="font-size:7.97010994px;font-variant:normal;font-weight:normal;writing-mode:lr-tb;fill:#000000;fill-opacity:1;fill-rule:nonzero;stroke:none;font-family:cmr8;-inkscape-font-specification:cmr8"
     x="316.22382"
     y="-779.71912"
     id="tspan6697">2</tspan></text>


<text
   transform="scale(1,-1)"
   id="text6699"
   x="165.77982"
   y="-667.6601"><tspan
     style="font-size:11.95510006px;font-variant:normal;font-weight:normal;writing-mode:lr-tb;fill:#000000;fill-opacity:1;fill-rule:nonzero;stroke:none;font-family:cmmi12;-inkscape-font-specification:cmmi12"
     x="165.77982"
     y="-667.6601"
     id="tspan6701">x</tspan></text>



<text
   transform="scale(1,-1)"
   id="text6939"
   x="275.28271"
   y="-429.4389"><tspan
     style="font-size:11.95510006px;font-variant:normal;font-weight:normal;writing-mode:lr-tb;fill:#231f20;fill-opacity:1;fill-rule:nonzero;stroke:none;font-family:cmex10;-inkscape-font-specification:cmex10"
     x="275.28271"
     y="-429.4389"
     id="tspan6941" /></text>


<text
   transform="scale(1,-1)"
   id="text6959"
   x="299.76285"
   y="-429.43887"><tspan
     style="font-size:11.95510006px;font-variant:normal;font-weight:normal;writing-mode:lr-tb;fill:#231f20;fill-opacity:1;fill-rule:nonzero;stroke:none;font-family:cmex10;-inkscape-font-specification:cmex10"
     x="299.76285"
     y="-429.43887"
     id="tspan6961" /></text>


<g
   id="g3365"
   transform="translate(-13.62178,27.09157)"><text
   transform="scale(1,-1)"
   y="-606.53979"
   x="345.00769"
   id="text4405-9"
   style="font-size:12px"><tspan
     y="-606.53979"
     id="tspan3100"
     sodipodi:role="line"
     x="345.00769"
     style="font-size:11.95510006px;font-variant:normal;font-weight:normal;writing-mode:lr-tb;fill:#000000;fill-opacity:1;fill-rule:nonzero;stroke:none;font-family:cmr12;-inkscape-font-specification:cmr12"><tspan
   id="tspan3104"
   style="font-style:normal;font-variant:normal;font-weight:normal;font-stretch:normal;font-family:IPAMincho;-inkscape-font-specification:IPAMincho">寸法は</tspan>  m</tspan></text>

<path
   d="m 344.89238,604.87443 53.5694,0"
   style="fill:none;stroke:#000000;stroke-width:0.48599994;stroke-linecap:butt;stroke-linejoin:miter;stroke-miterlimit:10;stroke-opacity:1;stroke-dasharray:none"
   id="path4409-1"
   inkscape:connector-curvature="0" /></g>
<text
   y="-684.66095"
   x="211.13969"
   id="text3242"
   transform="scale(1,-1)"><tspan
     id="tspan3246"
     sodipodi:role="line"
     y="-684.66095"
     x="211.13969"
     style="font-size:11.95510006px;font-variant:normal;font-weight:normal;writing-mode:lr-tb;fill:#000000;fill-opacity:1;fill-rule:nonzero;stroke:none;font-family:cmr12;-inkscape-font-specification:cmr12">0.2</tspan></text>

<text
   y="-718.68079"
   x="131.76891"
   id="text3252"
   transform="scale(1,-1)"><tspan
     id="tspan3254"
     sodipodi:role="line"
     y="-718.68079"
     x="131.76891 137.61888 140.86787"
     style="font-size:11.95510006px;font-variant:normal;font-weight:normal;writing-mode:lr-tb;fill:#000000;fill-opacity:1;fill-rule:nonzero;stroke:none;font-family:cmr12;-inkscape-font-specification:cmr12">1.0</tspan><tspan
     id="tspan3256"
     sodipodi:role="line"
     y="-647.81482"
     x="174.28491 180.13489 183.38388 316.0257 321.87567 325.12466"
     style="font-size:11.95510006px;font-variant:normal;font-weight:normal;writing-mode:lr-tb;fill:#000000;fill-opacity:1;fill-rule:nonzero;stroke:none;font-family:cmr12;-inkscape-font-specification:cmr12">0.62.4</tspan><tspan
     id="tspan3258"
     sodipodi:role="line"
     y="inf"
     x="131.76891"
     style="font-size:11.95510006px;font-variant:normal;font-weight:normal;writing-mode:lr-tb;fill:#000000;fill-opacity:1;fill-rule:nonzero;stroke:none;font-family:cmr12;-inkscape-font-specification:cmr12" /></text>

<text
   transform="scale(1,-1)"
   y="-775.3808"
   x="154.27139"
   id="text3351"
   style="font-size:12px"><tspan
     y="-775.3808"
     id="tspan3353"
     sodipodi:role="line"
     x="154.27139"
     style="font-size:11.95510006px;font-variant:normal;font-weight:normal;writing-mode:lr-tb;fill:#000000;fill-opacity:1;fill-rule:nonzero;stroke:none;font-family:cmr12;-inkscape-font-specification:cmr12"><tspan
   id="tspan3355"
   style="font-style:normal;font-variant:normal;font-weight:normal;font-stretch:normal;font-family:IPAMincho;-inkscape-font-specification:IPAMincho">入口</tspan>:</tspan></text>
</g></svg>